<?xml version="1.0" encoding="UTF-8"?><svg xmlns="http://www.w3.org/2000/svg" xmlns:xlink="http://www.w3.org/1999/xlink" fill-opacity="1" color-rendering="auto" color-interpolation="auto" text-rendering="auto" stroke="black" stroke-linecap="square" width="1180" stroke-miterlimit="10" shape-rendering="auto" stroke-opacity="1" fill="black" stroke-dasharray="none" font-weight="normal" stroke-width="1" height="731" font-family="'Dialog'" font-style="normal" stroke-linejoin="miter" font-size="12px" stroke-dashoffset="0" image-rendering="auto">
  <!--Generated by ySVG 2.5-->
  <defs id="genericDefs"/>
  <g>
    <defs id="defs1">
      <clipPath clipPathUnits="userSpaceOnUse" id="clipPath1">
        <path d="M0 0 L1180 0 L1180 731 L0 731 L0 0 Z"/>
      </clipPath>
      <clipPath clipPathUnits="userSpaceOnUse" id="clipPath2">
        <path d="M-8 -115 L1172 -115 L1172 616 L-8 616 L-8 -115 Z"/>
      </clipPath>
      <clipPath clipPathUnits="userSpaceOnUse" id="clipPath3">
        <path d="M221.4567 -93.0355 L221.4567 1086.9645 L-509.5433 1086.9645 L-509.5433 -93.0355 L221.4567 -93.0355 Z"/>
      </clipPath>
      <clipPath clipPathUnits="userSpaceOnUse" id="clipPath4">
        <path d="M208.776 -15.7988 L208.776 1164.2012 L-522.2241 1164.2012 L-522.2241 -15.7988 L208.776 -15.7988 Z"/>
      </clipPath>
      <clipPath clipPathUnits="userSpaceOnUse" id="clipPath5">
        <path d="M491.6367 -570.4943 L491.6367 609.5057 L-239.3633 609.5057 L-239.3633 -570.4943 L491.6367 -570.4943 Z"/>
      </clipPath>
    </defs>
    <g fill="white" text-rendering="geometricPrecision" shape-rendering="geometricPrecision" transform="translate(8,115)" stroke="white">
      <rect x="-8" width="1180" height="731" y="-115" clip-path="url(#clipPath2)" stroke="none"/>
    </g>
    <g fill="rgb(255,204,0)" text-rendering="geometricPrecision" shape-rendering="geometricPrecision" transform="matrix(1,0,0,1,8,115)" stroke="rgb(255,204,0)">
      <rect x="411" width="202" height="41" y="80" clip-path="url(#clipPath2)" stroke="none"/>
    </g>
    <g text-rendering="geometricPrecision" stroke-miterlimit="1.45" shape-rendering="geometricPrecision" transform="matrix(1,0,0,1,8,115)" stroke-linecap="butt">
      <rect fill="none" x="411" width="202" height="41" y="80" clip-path="url(#clipPath2)"/>
      <text x="420.5117" xml:space="preserve" y="105.0352" clip-path="url(#clipPath2)" font-family="sans-serif" stroke="none">InformationResourceRepository</text>
    </g>
    <g fill="rgb(255,204,0)" text-rendering="geometricPrecision" shape-rendering="geometricPrecision" transform="matrix(1,0,0,1,8,115)" stroke="rgb(255,204,0)">
      <rect x="815.5" width="76" height="36" y="133" clip-path="url(#clipPath2)" stroke="none"/>
    </g>
    <g text-rendering="geometricPrecision" stroke-miterlimit="1.45" shape-rendering="geometricPrecision" transform="matrix(1,0,0,1,8,115)" stroke-linecap="butt">
      <rect fill="none" x="815.5" width="76" height="36" y="133" clip-path="url(#clipPath2)"/>
      <text x="827.2119" xml:space="preserve" y="155.5352" clip-path="url(#clipPath2)" font-family="sans-serif" stroke="none">Identifier</text>
    </g>
    <g fill="rgb(255,204,0)" text-rendering="geometricPrecision" shape-rendering="geometricPrecision" transform="matrix(1,0,0,1,8,115)" stroke="rgb(255,204,0)">
      <rect x="1003" width="110" height="31" y="135.5" clip-path="url(#clipPath2)" stroke="none"/>
    </g>
    <g text-rendering="geometricPrecision" stroke-miterlimit="1.45" shape-rendering="geometricPrecision" transform="matrix(1,0,0,1,8,115)" stroke-linecap="butt">
      <rect fill="none" x="1003" width="110" height="31" y="135.5" clip-path="url(#clipPath2)"/>
      <text x="1017.6641" xml:space="preserve" y="155.5352" clip-path="url(#clipPath2)" font-family="sans-serif" stroke="none">IdentifierType</text>
    </g>
    <g fill="rgb(0,204,255)" text-rendering="geometricPrecision" shape-rendering="geometricPrecision" transform="matrix(1,0,0,1,8,115)" stroke="rgb(0,204,255)">
      <rect x="1003" width="82" height="31" y="196.5" clip-path="url(#clipPath2)" stroke="none"/>
    </g>
    <g text-rendering="geometricPrecision" stroke-miterlimit="1.45" shape-rendering="geometricPrecision" transform="matrix(1,0,0,1,8,115)" stroke-linecap="butt">
      <rect fill="none" x="1003" width="82" height="31" y="196.5" clip-path="url(#clipPath2)"/>
      <text x="1014.6299" xml:space="preserve" y="216.5352" clip-path="url(#clipPath2)" font-family="sans-serif" stroke="none">xsd:string</text>
    </g>
    <g fill="rgb(0,204,255)" text-rendering="geometricPrecision" shape-rendering="geometricPrecision" transform="matrix(1,0,0,1,8,115)" stroke="rgb(0,204,255)">
      <rect x="1003" width="82" height="31" y="235" clip-path="url(#clipPath2)" stroke="none"/>
    </g>
    <g text-rendering="geometricPrecision" stroke-miterlimit="1.45" shape-rendering="geometricPrecision" transform="matrix(1,0,0,1,8,115)" stroke-linecap="butt">
      <rect fill="none" x="1003" width="82" height="31" y="235" clip-path="url(#clipPath2)"/>
      <text x="1011.7354" xml:space="preserve" y="255.0352" clip-path="url(#clipPath2)" font-family="sans-serif" stroke="none">xsd:anyURI</text>
    </g>
    <g fill="rgb(0,204,255)" text-rendering="geometricPrecision" shape-rendering="geometricPrecision" transform="matrix(1,0,0,1,8,115)" stroke="rgb(0,204,255)">
      <rect x="115.0294" width="67" height="31" y="186.2745" clip-path="url(#clipPath2)" stroke="none"/>
    </g>
    <g text-rendering="geometricPrecision" stroke-miterlimit="1.45" shape-rendering="geometricPrecision" transform="matrix(1,0,0,1,8,115)" stroke-linecap="butt">
      <rect fill="none" x="115.0294" width="67" height="31" y="186.2745" clip-path="url(#clipPath2)"/>
      <text x="119.1592" xml:space="preserve" y="206.3096" clip-path="url(#clipPath2)" font-family="sans-serif" stroke="none">xsd:string</text>
    </g>
    <g fill="rgb(0,204,255)" text-rendering="geometricPrecision" shape-rendering="geometricPrecision" transform="matrix(1,0,0,1,8,115)" stroke="rgb(0,204,255)">
      <rect x="101.7794" width="80.25" height="31" y="247.2745" clip-path="url(#clipPath2)" stroke="none"/>
    </g>
    <g text-rendering="geometricPrecision" stroke-miterlimit="1.45" shape-rendering="geometricPrecision" transform="matrix(1,0,0,1,8,115)" stroke-linecap="butt">
      <rect fill="none" x="101.7794" width="80.25" height="31" y="247.2745" clip-path="url(#clipPath2)"/>
      <text x="109.6397" xml:space="preserve" y="267.3096" clip-path="url(#clipPath2)" font-family="sans-serif" stroke="none">xsd:anyURI</text>
    </g>
    <g fill="rgb(255,204,0)" text-rendering="geometricPrecision" shape-rendering="geometricPrecision" transform="matrix(1,0,0,1,8,115)" stroke="rgb(255,204,0)">
      <rect x="670" width="97" height="36" y="-69" clip-path="url(#clipPath2)" stroke="none"/>
    </g>
    <g text-rendering="geometricPrecision" stroke-miterlimit="1.45" shape-rendering="geometricPrecision" transform="matrix(1,0,0,1,8,115)" stroke-linecap="butt">
      <rect fill="none" x="670" width="97" height="36" y="-69" clip-path="url(#clipPath2)"/>
      <text x="701.3086" xml:space="preserve" y="-46.4648" clip-path="url(#clipPath2)" font-family="sans-serif" stroke="none">Agent</text>
    </g>
    <g fill="rgb(0,204,255)" text-rendering="geometricPrecision" shape-rendering="geometricPrecision" transform="matrix(1,0,0,1,8,115)" stroke="rgb(0,204,255)">
      <rect x="105.5871" width="67" height="31" y="-43.5528" clip-path="url(#clipPath2)" stroke="none"/>
    </g>
    <g text-rendering="geometricPrecision" stroke-miterlimit="1.45" shape-rendering="geometricPrecision" transform="matrix(1,0,0,1,8,115)" stroke-linecap="butt">
      <rect fill="none" x="105.5871" width="67" height="31" y="-43.5528" clip-path="url(#clipPath2)"/>
      <text x="109.717" xml:space="preserve" y="-23.5177" clip-path="url(#clipPath2)" font-family="sans-serif" stroke="none">xsd:string</text>
    </g>
    <g fill="rgb(255,204,0)" text-rendering="geometricPrecision" shape-rendering="geometricPrecision" transform="matrix(1,0,0,1,8,115)" stroke="rgb(255,204,0)">
      <rect x="878.5" width="110" height="41" y="36" clip-path="url(#clipPath2)" stroke="none"/>
    </g>
    <g text-rendering="geometricPrecision" stroke-miterlimit="1.45" shape-rendering="geometricPrecision" transform="matrix(1,0,0,1,8,115)" stroke-linecap="butt">
      <rect fill="none" x="878.5" width="110" height="41" y="36" clip-path="url(#clipPath2)"/>
      <text x="888.541" xml:space="preserve" y="61.0352" clip-path="url(#clipPath2)" font-family="sans-serif" stroke="none">RepositoryType</text>
    </g>
    <g fill="rgb(0,204,255)" text-rendering="geometricPrecision" shape-rendering="geometricPrecision" transform="matrix(1,0,0,1,8,115)" stroke="rgb(0,204,255)">
      <rect x="101.7794" width="80.25" height="26.5" y="319.3872" clip-path="url(#clipPath2)" stroke="none"/>
    </g>
    <g text-rendering="geometricPrecision" stroke-miterlimit="1.45" shape-rendering="geometricPrecision" transform="matrix(1,0,0,1,8,115)" stroke-linecap="butt">
      <rect fill="none" x="101.7794" width="80.25" height="26.5" y="319.3872" clip-path="url(#clipPath2)"/>
      <text x="108.9073" xml:space="preserve" y="337.1724" clip-path="url(#clipPath2)" font-family="sans-serif" stroke="none">xsd:integer</text>
    </g>
    <g fill="rgb(0,204,255)" text-rendering="geometricPrecision" shape-rendering="geometricPrecision" transform="matrix(1,0,0,1,8,115)" stroke="rgb(0,204,255)">
      <rect x="93.8478" width="80.25" height="31" y="453" clip-path="url(#clipPath2)" stroke="none"/>
    </g>
    <g text-rendering="geometricPrecision" stroke-miterlimit="1.45" shape-rendering="geometricPrecision" transform="matrix(1,0,0,1,8,115)" stroke-linecap="butt">
      <rect fill="none" x="93.8478" width="80.25" height="31" y="453" clip-path="url(#clipPath2)"/>
      <text x="94.926" xml:space="preserve" y="473.0352" clip-path="url(#clipPath2)" font-family="sans-serif" stroke="none">xsd:language</text>
    </g>
    <g fill="rgb(255,204,0)" text-rendering="geometricPrecision" shape-rendering="geometricPrecision" transform="matrix(1,0,0,1,8,115)" stroke="rgb(255,204,0)">
      <rect x="815.5" width="110" height="41" y="331" clip-path="url(#clipPath2)" stroke="none"/>
    </g>
    <g text-rendering="geometricPrecision" stroke-miterlimit="1.45" shape-rendering="geometricPrecision" transform="matrix(1,0,0,1,8,115)" stroke-linecap="butt">
      <rect fill="none" x="815.5" width="110" height="41" y="331" clip-path="url(#clipPath2)"/>
      <text x="836.0322" xml:space="preserve" y="356.0352" clip-path="url(#clipPath2)" font-family="sans-serif" stroke="none">SubjectArea</text>
    </g>
    <g fill="rgb(255,204,0)" text-rendering="geometricPrecision" shape-rendering="geometricPrecision" transform="matrix(1,0,0,1,8,115)" stroke="rgb(255,204,0)">
      <rect x="1047" width="110" height="31" y="331" clip-path="url(#clipPath2)" stroke="none"/>
    </g>
    <g text-rendering="geometricPrecision" stroke-miterlimit="1.45" shape-rendering="geometricPrecision" transform="matrix(1,0,0,1,8,115)" stroke-linecap="butt">
      <rect fill="none" x="1047" width="110" height="31" y="331" clip-path="url(#clipPath2)"/>
      <text x="1058.4678" xml:space="preserve" y="351.0352" clip-path="url(#clipPath2)" font-family="sans-serif" stroke="none">SubjectScheme</text>
    </g>
    <g fill="rgb(0,204,255)" text-rendering="geometricPrecision" shape-rendering="geometricPrecision" transform="matrix(1,0,0,1,8,115)" stroke="rgb(0,204,255)">
      <rect x="1047" width="82" height="31" y="392" clip-path="url(#clipPath2)" stroke="none"/>
    </g>
    <g text-rendering="geometricPrecision" stroke-miterlimit="1.45" shape-rendering="geometricPrecision" transform="matrix(1,0,0,1,8,115)" stroke-linecap="butt">
      <rect fill="none" x="1047" width="82" height="31" y="392" clip-path="url(#clipPath2)"/>
      <text x="1058.6299" xml:space="preserve" y="412.0352" clip-path="url(#clipPath2)" font-family="sans-serif" stroke="none">xsd:string</text>
    </g>
    <g fill="rgb(0,204,255)" text-rendering="geometricPrecision" shape-rendering="geometricPrecision" transform="matrix(1,0,0,1,8,115)" stroke="rgb(0,204,255)">
      <rect x="1047" width="82" height="31" y="453" clip-path="url(#clipPath2)" stroke="none"/>
    </g>
    <g text-rendering="geometricPrecision" stroke-miterlimit="1.45" shape-rendering="geometricPrecision" transform="matrix(1,0,0,1,8,115)" stroke-linecap="butt">
      <rect fill="none" x="1047" width="82" height="31" y="453" clip-path="url(#clipPath2)"/>
      <text x="1058.6299" xml:space="preserve" y="473.0352" clip-path="url(#clipPath2)" font-family="sans-serif" stroke="none">xsd:string</text>
    </g>
    <g fill="rgb(255,204,0)" text-rendering="geometricPrecision" shape-rendering="geometricPrecision" transform="matrix(1,0,0,1,8,115)" stroke="rgb(255,204,0)">
      <rect x="815.5" width="110" height="41" y="488.5" clip-path="url(#clipPath2)" stroke="none"/>
    </g>
    <g text-rendering="geometricPrecision" stroke-miterlimit="1.45" shape-rendering="geometricPrecision" transform="matrix(1,0,0,1,8,115)" stroke-linecap="butt">
      <rect fill="none" x="815.5" width="110" height="41" y="488.5" clip-path="url(#clipPath2)"/>
      <text x="833.3369" xml:space="preserve" y="513.5352" clip-path="url(#clipPath2)" font-family="sans-serif" stroke="none">ContentType</text>
    </g>
    <g fill="rgb(255,204,0)" text-rendering="geometricPrecision" shape-rendering="geometricPrecision" transform="matrix(1,0,0,1,8,115)" stroke="rgb(255,204,0)">
      <rect x="815.5" width="110" height="41" y="559.5" clip-path="url(#clipPath2)" stroke="none"/>
    </g>
    <g text-rendering="geometricPrecision" stroke-miterlimit="1.45" shape-rendering="geometricPrecision" transform="matrix(1,0,0,1,8,115)" stroke-linecap="butt">
      <rect fill="none" x="815.5" width="110" height="41" y="559.5" clip-path="url(#clipPath2)"/>
      <text x="832.5811" xml:space="preserve" y="584.5352" clip-path="url(#clipPath2)" font-family="sans-serif" stroke="none">ProviderType</text>
    </g>
    <g fill="rgb(255,204,0)" text-rendering="geometricPrecision" shape-rendering="geometricPrecision" transform="matrix(1,0,0,1,8,115)" stroke="rgb(255,204,0)">
      <rect x="411" width="97" height="36" y="-59" clip-path="url(#clipPath2)" stroke="none"/>
    </g>
    <g text-rendering="geometricPrecision" stroke-miterlimit="1.45" shape-rendering="geometricPrecision" transform="matrix(1,0,0,1,8,115)" stroke-linecap="butt">
      <rect fill="none" x="411" width="97" height="36" y="-59" clip-path="url(#clipPath2)"/>
      <text x="429.752" xml:space="preserve" y="-36.4648" clip-path="url(#clipPath2)" font-family="sans-serif" stroke="none">AgentRole</text>
    </g>
    <g fill="rgb(255,204,0)" text-rendering="geometricPrecision" shape-rendering="geometricPrecision" transform="matrix(1,0,0,1,8,115)" stroke="rgb(255,204,0)">
      <rect x="670" width="97" height="36" y="0.5" clip-path="url(#clipPath2)" stroke="none"/>
    </g>
    <g text-rendering="geometricPrecision" stroke-miterlimit="1.45" shape-rendering="geometricPrecision" transform="matrix(1,0,0,1,8,115)" stroke-linecap="butt">
      <rect fill="none" x="670" width="97" height="36" y="0.5" clip-path="url(#clipPath2)"/>
      <text x="674.7041" xml:space="preserve" y="23.0352" clip-path="url(#clipPath2)" font-family="sans-serif" stroke="none">AgentRoleType</text>
    </g>
    <g fill="rgb(255,204,0)" text-rendering="geometricPrecision" shape-rendering="geometricPrecision" transform="matrix(1,0,0,1,8,115)" stroke="rgb(255,204,0)">
      <rect x="243.2935" width="97" height="36" y="37.3992" clip-path="url(#clipPath2)" stroke="none"/>
    </g>
    <g text-rendering="geometricPrecision" stroke-miterlimit="1.45" shape-rendering="geometricPrecision" transform="matrix(1,0,0,1,8,115)" stroke-linecap="butt">
      <rect fill="none" x="243.2935" width="97" height="36" y="37.3992" clip-path="url(#clipPath2)"/>
      <text x="254.6539" xml:space="preserve" y="59.9344" clip-path="url(#clipPath2)" font-family="sans-serif" stroke="none">ContactPoint</text>
    </g>
    <g fill="rgb(0,204,255)" text-rendering="geometricPrecision" shape-rendering="geometricPrecision" transform="matrix(1,0,0,1,8,115)" stroke="rgb(0,204,255)">
      <rect x="14.3593" width="80.25" height="31" y="-95.909" clip-path="url(#clipPath2)" stroke="none"/>
    </g>
    <g text-rendering="geometricPrecision" stroke-miterlimit="1.45" shape-rendering="geometricPrecision" transform="matrix(1,0,0,1,8,115)" stroke-linecap="butt">
      <rect fill="none" x="14.3593" width="80.25" height="31" y="-95.909" clip-path="url(#clipPath2)"/>
      <text x="22.2197" xml:space="preserve" y="-75.8738" clip-path="url(#clipPath2)" font-family="sans-serif" stroke="none">xsd:anyURI</text>
    </g>
    <g fill="rgb(255,204,0)" text-rendering="geometricPrecision" shape-rendering="geometricPrecision" transform="matrix(1,0,0,1,8,115)" stroke="rgb(255,204,0)">
      <rect x="85.4728" width="97" height="36" y="387" clip-path="url(#clipPath2)" stroke="none"/>
    </g>
    <g text-rendering="geometricPrecision" stroke-miterlimit="1.45" shape-rendering="geometricPrecision" transform="matrix(1,0,0,1,8,115)" stroke-linecap="butt">
      <rect fill="none" x="85.4728" width="97" height="36" y="387" clip-path="url(#clipPath2)"/>
      <text x="99.1154" xml:space="preserve" y="409.5352" clip-path="url(#clipPath2)" font-family="sans-serif" stroke="none">time:Instant</text>
    </g>
    <g fill="rgb(0,204,255)" text-rendering="geometricPrecision" shape-rendering="geometricPrecision" transform="matrix(1,0,0,1,8,115)" stroke="rgb(0,204,255)">
      <rect x="105.5871" width="67" height="31" y="103.3992" clip-path="url(#clipPath2)" stroke="none"/>
    </g>
    <g text-rendering="geometricPrecision" stroke-miterlimit="1.45" shape-rendering="geometricPrecision" transform="matrix(1,0,0,1,8,115)" stroke-linecap="butt">
      <rect fill="none" x="105.5871" width="67" height="31" y="103.3992" clip-path="url(#clipPath2)"/>
      <text x="109.717" xml:space="preserve" y="123.4344" clip-path="url(#clipPath2)" font-family="sans-serif" stroke="none">xsd:string</text>
    </g>
    <g fill="rgb(0,204,255)" text-rendering="geometricPrecision" shape-rendering="geometricPrecision" transform="matrix(1,0,0,1,8,115)" stroke="rgb(0,204,255)">
      <rect x="14.3593" width="80.25" height="31" y="138" clip-path="url(#clipPath2)" stroke="none"/>
    </g>
    <g text-rendering="geometricPrecision" stroke-miterlimit="1.45" shape-rendering="geometricPrecision" transform="matrix(1,0,0,1,8,115)" stroke-linecap="butt">
      <rect fill="none" x="14.3593" width="80.25" height="31" y="138" clip-path="url(#clipPath2)"/>
      <text x="22.2197" xml:space="preserve" y="158.0352" clip-path="url(#clipPath2)" font-family="sans-serif" stroke="none">xsd:anyURI</text>
    </g>
    <g fill="rgb(255,204,0)" text-rendering="geometricPrecision" shape-rendering="geometricPrecision" transform="matrix(1,0,0,1,8,115)" stroke="rgb(255,204,0)">
      <rect x="526.6213" width="149.8787" height="41" y="224" clip-path="url(#clipPath2)" stroke="none"/>
    </g>
    <g text-rendering="geometricPrecision" stroke-miterlimit="1.45" shape-rendering="geometricPrecision" transform="matrix(1,0,0,1,8,115)" stroke-linecap="butt">
      <rect fill="none" x="526.6213" width="149.8787" height="41" y="224" clip-path="url(#clipPath2)"/>
      <text x="547.174" xml:space="preserve" y="249.0352" clip-path="url(#clipPath2)" font-family="sans-serif" stroke="none">InformationService</text>
    </g>
    <g fill="rgb(204,255,204)" text-rendering="geometricPrecision" shape-rendering="geometricPrecision" transform="matrix(1,0,0,1,8,115)" stroke="rgb(204,255,204)">
      <rect x="526.6213" width="149.8787" height="41" y="392" clip-path="url(#clipPath2)" stroke="none"/>
    </g>
    <g text-rendering="geometricPrecision" stroke-miterlimit="1.45" shape-rendering="geometricPrecision" transform="matrix(1,0,0,1,8,115)" stroke-linecap="butt">
      <rect fill="none" x="526.6213" width="149.8787" height="41" y="392" clip-path="url(#clipPath2)"/>
      <text x="557.2638" xml:space="preserve" y="417.0352" clip-path="url(#clipPath2)" font-family="sans-serif" stroke="none">schema:Service</text>
      <path fill="none" d="M613 100.5 L853.5 100.5 L853.5 125" clip-path="url(#clipPath2)"/>
      <path d="M853.5 133 L858.5 121 L853.5 124 L848.5 121 Z" clip-path="url(#clipPath2)" stroke="none"/>
      <text x="857.2061" xml:space="preserve" y="123.4688" clip-path="url(#clipPath2)" font-family="sans-serif" stroke="none">identifier</text>
      <path fill="none" d="M891.5 151 L995 151" clip-path="url(#clipPath2)"/>
      <path d="M1003 151 L991 146 L994 151 L991 156 Z" clip-path="url(#clipPath2)" stroke="none"/>
      <text x="915.3164" xml:space="preserve" y="143.2852" clip-path="url(#clipPath2)" font-family="sans-serif" stroke="none">identifierType</text>
      <path fill="none" d="M883.5 168.9688 L883.5 215 L995.0153 215" clip-path="url(#clipPath2)"/>
      <path d="M1003.0153 215 L991.0153 210 L994.0153 215 L991.0153 220 Z" clip-path="url(#clipPath2)" stroke="none"/>
      <text x="911.3379" xml:space="preserve" y="201.5352" clip-path="url(#clipPath2)" font-family="sans-serif" stroke="none">identifierValue</text>
      <path fill="none" d="M876 169.0247 L876 250.5 L995 250.5" clip-path="url(#clipPath2)"/>
      <path d="M1003 250.5 L991 245.5 L994 250.5 L991 255.5 Z" clip-path="url(#clipPath2)" stroke="none"/>
      <text x="926.7188" xml:space="preserve" y="242.0352" clip-path="url(#clipPath2)" font-family="sans-serif" stroke="none">identifierUrl</text>
      <path fill="none" d="M410.9986 100.5 L384.75 100.5 L384.75 201.7745 L190.0285 201.7745" clip-path="url(#clipPath2)"/>
      <path d="M182.0285 201.7745 L194.0285 206.7745 L191.0285 201.7745 L194.0285 196.7745 Z" clip-path="url(#clipPath2)" stroke="none"/>
      <text x="185.7051" xml:space="preserve" y="178.6113" clip-path="url(#clipPath2)" font-family="sans-serif" stroke="none">repositoryName, additionalName,</text>
      <text x="222.4639" xml:space="preserve" y="192.7441" clip-path="url(#clipPath2)" font-family="sans-serif" stroke="none">description, keyword</text>
      <path fill="none" d="M430.4452 121.0172 L430.4452 270.2745 L190.0225 270.2745" clip-path="url(#clipPath2)"/>
      <path d="M182.0225 270.2745 L194.0225 275.2745 L191.0225 270.2745 L194.0225 265.2745 Z" clip-path="url(#clipPath2)" stroke="none"/>
      <text x="213.5089" xml:space="preserve" y="249.7432" clip-path="url(#clipPath2)" font-family="sans-serif" stroke="none">repositoryUrl,</text>
      <text x="193.0948" xml:space="preserve" y="263.876" clip-path="url(#clipPath2)" font-family="sans-serif" stroke="none">missionStatementUrl</text>
      <path fill="none" d="M613 100.5 L613 85 L815.25 85 L815.25 56.5 L870.5 56.5" clip-path="url(#clipPath2)"/>
      <path d="M878.5 56.5 L866.5 51.5 L869.5 56.5 L866.5 61.5 Z" clip-path="url(#clipPath2)" stroke="none"/>
      <text x="803.2549" xml:space="preserve" y="31.0352" clip-path="url(#clipPath2)" font-family="sans-serif" stroke="none">repositoryType</text>
      <path fill="none" d="M450.192 120.9948 L450.192 339.4357 L190.0585 339.4357" clip-path="url(#clipPath2)"/>
      <path d="M182.0585 339.4357 L194.0585 344.4357 L191.0585 339.4357 L194.0585 334.4357 Z" clip-path="url(#clipPath2)" stroke="none"/>
      <text x="189.0294" xml:space="preserve" y="313.9708" clip-path="url(#clipPath2)" font-family="sans-serif" stroke="none">totalNumberOfItemsProvided</text>
      <path fill="none" d="M488.0691 121.0166 L488.0691 476.5 L182.1285 476.5" clip-path="url(#clipPath2)"/>
      <path d="M174.1285 476.5 L186.1285 481.5 L183.1285 476.5 L186.1285 471.5 Z" clip-path="url(#clipPath2)" stroke="none"/>
      <text x="196.3885" xml:space="preserve" y="451.0352" clip-path="url(#clipPath2)" font-family="sans-serif" stroke="none">userInterfaceLanguage</text>
      <path fill="none" d="M613 100.5 L613 105 L776.25 105 L776.25 351.5 L807.5 351.5" clip-path="url(#clipPath2)"/>
      <path d="M815.5 351.5 L803.5 346.5 L806.5 351.5 L803.5 356.5 Z" clip-path="url(#clipPath2)" stroke="none"/>
      <text x="781.2051" xml:space="preserve" y="295.1602" clip-path="url(#clipPath2)" font-family="sans-serif" stroke="none">subjectArea</text>
      <path fill="none" d="M925.5208 336.5 L1038.9795 336.5" clip-path="url(#clipPath2)"/>
      <path d="M1046.9795 336.5 L1034.9795 331.5 L1037.9795 336.5 L1034.9795 341.5 Z" clip-path="url(#clipPath2)" stroke="none"/>
      <text x="942.8906" xml:space="preserve" y="311.0352" clip-path="url(#clipPath2)" font-family="sans-serif" stroke="none">subjectScheme</text>
      <path fill="none" d="M914.75 371.9805 L914.75 407.5 L1039 407.5" clip-path="url(#clipPath2)"/>
      <path d="M1047 407.5 L1035 402.5 L1038 407.5 L1035 412.5 Z" clip-path="url(#clipPath2)" stroke="none"/>
      <text x="985.4834" xml:space="preserve" y="382.0352" clip-path="url(#clipPath2)" font-family="sans-serif" stroke="none">subjectID</text>
      <path fill="none" d="M906.25 372.021 L906.25 468.5 L1039 468.5" clip-path="url(#clipPath2)"/>
      <path d="M1047 468.5 L1035 463.5 L1038 468.5 L1035 473.5 Z" clip-path="url(#clipPath2)" stroke="none"/>
      <text x="967.8906" xml:space="preserve" y="443.0352" clip-path="url(#clipPath2)" font-family="sans-serif" stroke="none">subjectName</text>
      <path fill="none" d="M613 100.5 L613 112 L738.4237 112 L738.4237 509 L807.5 509" clip-path="url(#clipPath2)"/>
      <path d="M815.5 509 L803.5 504 L806.5 509 L803.5 514 Z" clip-path="url(#clipPath2)" stroke="none"/>
      <text x="737.997" xml:space="preserve" y="480.5352" clip-path="url(#clipPath2)" font-family="sans-serif" stroke="none">providesContentOfType</text>
      <path fill="none" d="M602.3252 121.0269 L602.3252 141 L724.5245 141 L724.5245 580 L807.5 580" clip-path="url(#clipPath2)"/>
      <path d="M815.5 580 L803.5 575 L806.5 580 L803.5 585 Z" clip-path="url(#clipPath2)" stroke="none"/>
      <text x="731.7422" xml:space="preserve" y="554.5352" clip-path="url(#clipPath2)" font-family="sans-serif" stroke="none">providerType</text>
      <path fill="none" d="M507.9839 -51 L662 -51" clip-path="url(#clipPath2)"/>
      <path d="M670 -51 L658 -56 L661 -51 L658 -46 Z" clip-path="url(#clipPath2)" stroke="none"/>
      <text x="588.5449" xml:space="preserve" y="-76.4648" clip-path="url(#clipPath2)" font-family="sans-serif" stroke="none">performedBy</text>
      <path fill="none" d="M410.9612 -41 L252.1926 -41 L252.1926 -21 L180.5942 -21" clip-path="url(#clipPath2)"/>
      <path d="M172.5942 -21 L184.5942 -16 L181.5942 -21 L184.5942 -26 Z" clip-path="url(#clipPath2)" stroke="none"/>
      <text x="202.4631" xml:space="preserve" y="-9.3601" clip-path="url(#clipPath2)" font-family="sans-serif" stroke="none">roleEmail</text>
      <path fill="none" d="M508 -41 L552.5 -41 L552.5 18.5 L662 18.5" clip-path="url(#clipPath2)"/>
      <path d="M670 18.5 L658 13.5 L661 18.5 L658 23.5 Z" clip-path="url(#clipPath2)" stroke="none"/>
      <text x="612.4688" xml:space="preserve" y="-6.9648" clip-path="url(#clipPath2)" font-family="sans-serif" stroke="none">roleType</text>
      <path fill="none" d="M582.3252 79.9688 L582.3252 68.5 L718.5 68.5 L718.5 44.5" clip-path="url(#clipPath2)"/>
      <path d="M718.5 36.5 L713.5 48.5 L718.5 45.5 L723.5 48.5 Z" clip-path="url(#clipPath2)" stroke="none"/>
      <text x="550.7402" xml:space="preserve" y="55.0038" clip-path="url(#clipPath2)" font-family="sans-serif" stroke="none">providesAgentRoleType</text>
      <path fill="none" d="M411.0015 90.5 L384.75 90.5 L384.75 55.3992 L348.2935 55.3992" clip-path="url(#clipPath2)"/>
      <path d="M340.2935 55.3992 L352.2935 60.3992 L349.2935 55.3992 L352.2935 50.3992 Z" clip-path="url(#clipPath2)" stroke="none"/>
      <text x="378.6885" xml:space="preserve" y="42.3453" clip-path="url(#clipPath2)" font-family="sans-serif" stroke="none">contactPoint</text>
      <path fill="none" stroke-dasharray="6,2" d="M291.7935 37.3992 L291.7935 -31 L402.9941 -31" clip-path="url(#clipPath2)"/>
      <path stroke-dasharray="6,2" d="M410.9941 -31 L398.9941 -36 L401.9941 -31 L398.9941 -26 Z" clip-path="url(#clipPath2)" stroke="none"/>
      <text x="305.26" xml:space="preserve" y="3.5352" clip-path="url(#clipPath2)" font-family="sans-serif" stroke="none">rdfs:subClassOf</text>
      <path fill="none" d="M411.0272 -51 L373.9243 -51 L373.9243 -78.5205 L102.6337 -78.5205" clip-path="url(#clipPath2)"/>
      <path d="M94.6337 -78.5205 L106.6337 -73.5205 L103.6337 -78.5205 L106.6337 -83.5205 Z" clip-path="url(#clipPath2)" stroke="none"/>
      <text x="119.7385" xml:space="preserve" y="-86.0539" clip-path="url(#clipPath2)" font-family="sans-serif" stroke="none">roleUrl</text>
      <path fill="none" d="M468.0691 120.9727 L468.0691 409.3625 L190.4821 409.3625" clip-path="url(#clipPath2)"/>
      <path d="M182.4821 409.3625 L194.4821 414.3625 L191.4821 409.3625 L194.4821 404.3625 Z" clip-path="url(#clipPath2)" stroke="none"/>
      <text x="219.5758" xml:space="preserve" y="376.8313" clip-path="url(#clipPath2)" font-family="sans-serif" stroke="none">startDate, endDate</text>
      <text x="206.4303" xml:space="preserve" y="390.9641" clip-path="url(#clipPath2)" font-family="sans-serif" stroke="none">closedDate, offlineDate</text>
      <path fill="none" d="M291.7935 73.3992 L291.7935 118.8992 L180.5975 118.8992" clip-path="url(#clipPath2)"/>
      <path d="M172.5975 118.8992 L184.5975 123.8992 L181.5975 118.8992 L184.5975 113.8992 Z" clip-path="url(#clipPath2)" stroke="none"/>
      <text x="195.1971" xml:space="preserve" y="93.4344" clip-path="url(#clipPath2)" font-family="sans-serif" stroke="none">contactEmail</text>
      <path fill="none" stroke-dasharray="6,2" d="M117.5587 103.3645 L117.5587 -4.5561" clip-path="url(#clipPath2)"/>
      <path stroke-dasharray="6,2" d="M117.5587 -12.5561 L112.5587 -0.5561 L117.5587 -3.5561 L122.5587 -0.5561 Z" clip-path="url(#clipPath2)" stroke="none"/>
    </g>
    <g text-rendering="geometricPrecision" stroke-miterlimit="1.45" shape-rendering="geometricPrecision" font-family="sans-serif" transform="matrix(-0,-1,1,-0,93.0355,221.4567)" stroke-linecap="butt">
      <text x="2" xml:space="preserve" y="13.6016" clip-path="url(#clipPath3)" stroke="none">rdfs:subPropertyOf</text>
    </g>
    <g text-rendering="geometricPrecision" stroke-miterlimit="1.45" shape-rendering="geometricPrecision" transform="matrix(1,0,0,1,8,115)" stroke-linecap="butt">
      <path fill="none" d="M309.9227 73.362 L309.9227 153.5 L102.6093 153.5" clip-path="url(#clipPath2)"/>
      <path d="M94.6093 153.5 L106.6093 158.5 L103.6093 153.5 L106.6093 148.5 Z" clip-path="url(#clipPath2)" stroke="none"/>
      <text x="310.2186" xml:space="preserve" y="92.0008" clip-path="url(#clipPath2)" font-family="sans-serif" stroke="none">contactUrl</text>
      <path fill="none" stroke-dasharray="6,2" d="M46.8652 137.9955 L46.8652 -56.9191" clip-path="url(#clipPath2)"/>
      <path stroke-dasharray="6,2" d="M46.8652 -64.9191 L41.8652 -52.9191 L46.8652 -55.9191 L51.8652 -52.9191 Z" clip-path="url(#clipPath2)" stroke="none"/>
    </g>
    <g text-rendering="geometricPrecision" stroke-miterlimit="1.45" shape-rendering="geometricPrecision" font-family="sans-serif" transform="matrix(0,-1,1,0,15.7988,208.776)" stroke-linecap="butt">
      <text x="2" xml:space="preserve" y="13.6016" clip-path="url(#clipPath4)" stroke="none">rdfs:subPropertyOf</text>
    </g>
    <g text-rendering="geometricPrecision" stroke-miterlimit="1.45" shape-rendering="geometricPrecision" transform="matrix(1,0,0,1,8,115)" stroke-linecap="butt">
      <path fill="none" d="M546.0401 223.9878 L546.0401 129.0009" clip-path="url(#clipPath2)"/>
      <path d="M546.0401 121.0009 L541.0401 133.0009 L546.0401 130.0009 L551.0401 133.0009 Z" clip-path="url(#clipPath2)" stroke="none"/>
      <text x="551.709" xml:space="preserve" y="177.0352" clip-path="url(#clipPath2)" font-family="sans-serif" stroke="none">provider</text>
      <path fill="none" stroke-dasharray="6,2" d="M601.5607 265 L601.5607 384" clip-path="url(#clipPath2)"/>
      <path stroke-dasharray="6,2" d="M601.5607 392 L606.5607 380 L601.5607 383 L596.5607 380 Z" clip-path="url(#clipPath2)" stroke="none"/>
    </g>
    <g text-rendering="geometricPrecision" stroke-miterlimit="1.45" shape-rendering="geometricPrecision" font-family="sans-serif" transform="matrix(0,-1,1,0,570.4943,491.6367)" stroke-linecap="butt">
      <text x="2" xml:space="preserve" y="13.6016" clip-path="url(#clipPath5)" stroke="none">rdfs:subClassOf</text>
    </g>
  </g>
</svg>
