<?xml version="1.0" encoding="UTF-8"?><svg xmlns="http://www.w3.org/2000/svg" xmlns:xlink="http://www.w3.org/1999/xlink" fill-opacity="1" color-rendering="auto" color-interpolation="auto" text-rendering="auto" stroke="black" stroke-linecap="square" width="981" stroke-miterlimit="10" shape-rendering="auto" stroke-opacity="1" fill="black" stroke-dasharray="none" font-weight="normal" stroke-width="1" height="469" font-family="'Dialog'" font-style="normal" stroke-linejoin="miter" font-size="12px" stroke-dashoffset="0" image-rendering="auto">
  <!--Generated by ySVG 2.5-->
  <defs id="genericDefs"/>
  <g>
    <defs id="defs1">
      <clipPath clipPathUnits="userSpaceOnUse" id="clipPath1">
        <path d="M0 0 L981 0 L981 469 L0 469 L0 0 Z"/>
      </clipPath>
    </defs>
    <g id="y.node.0">
      <a target="_blank" xlink:type="simple" xlink:href="https://schema.org/Dataset" xlink:show="new">
        <g fill="rgb(204,255,204)" text-rendering="geometricPrecision" shape-rendering="geometricPrecision" transform="matrix(1,0,0,1,-161,-515)" stroke="rgb(204,255,204)">
          <rect x="396.2393" width="106.0449" height="30" y="530.4092" stroke="none"/>
        </g>
        <g text-rendering="geometricPrecision" stroke-miterlimit="1.45" shape-rendering="geometricPrecision" transform="matrix(1,0,0,1,-161,-515)" stroke-linecap="butt">
          <rect fill="none" x="396.2393" width="106.0449" height="30" y="530.4092"/>
        </g>
        <g>
          <g text-rendering="geometricPrecision" stroke-miterlimit="1.45" shape-rendering="geometricPrecision" font-family="sans-serif" transform="matrix(1,0,0,1,-161,-515)" stroke-linecap="butt">
            <text x="403.2393" xml:space="preserve" y="549.9443" stroke="none">schema:Dataset</text>
          </g>
        </g>
      </a>
    </g>
    <g id="y.node.1">
      <a target="_blank" xlink:type="simple" xlink:href="https://schema.org/Event" xlink:show="new">
        <g fill="rgb(204,255,204)" text-rendering="geometricPrecision" shape-rendering="geometricPrecision" transform="matrix(1,0,0,1,-161,-515)" stroke="rgb(204,255,204)">
          <rect x="402.5821" width="93.3594" height="30" y="708.7046" stroke="none"/>
        </g>
        <g text-rendering="geometricPrecision" stroke-miterlimit="1.45" shape-rendering="geometricPrecision" transform="matrix(1,0,0,1,-161,-515)" stroke-linecap="butt">
          <rect fill="none" x="402.5821" width="93.3594" height="30" y="708.7046"/>
        </g>
        <g>
          <g text-rendering="geometricPrecision" stroke-miterlimit="1.45" shape-rendering="geometricPrecision" font-family="sans-serif" transform="matrix(1,0,0,1,-161,-515)" stroke-linecap="butt">
            <text x="409.5821" xml:space="preserve" y="728.2397" stroke="none">schema:Event</text>
          </g>
        </g>
      </a>
    </g>
    <g id="y.node.2">
      <a target="_blank" xlink:type="simple" xlink:href="https://schema.org/CreativeWork" xlink:show="new">
        <g fill="rgb(204,255,204)" text-rendering="geometricPrecision" shape-rendering="geometricPrecision" transform="matrix(1,0,0,1,-161,-515)" stroke="rgb(204,255,204)">
          <rect x="458.2618" width="138.9629" height="30" y="827" stroke="none"/>
        </g>
        <g text-rendering="geometricPrecision" stroke-miterlimit="1.45" shape-rendering="geometricPrecision" transform="matrix(1,0,0,1,-161,-515)" stroke-linecap="butt">
          <rect fill="none" x="458.2618" width="138.9629" height="30" y="827"/>
        </g>
        <g>
          <g text-rendering="geometricPrecision" stroke-miterlimit="1.45" shape-rendering="geometricPrecision" font-family="sans-serif" transform="matrix(1,0,0,1,-161,-515)" stroke-linecap="butt">
            <text x="465.2618" xml:space="preserve" y="846.5352" stroke="none">schema:CreativeWork</text>
          </g>
        </g>
      </a>
    </g>
    <g id="y.node.3">
      <a target="_blank" xlink:type="simple" xlink:href="http://schema.geolink.org/1.0/base/main#Platform" xlink:show="new">
        <g fill="rgb(255,204,0)" text-rendering="geometricPrecision" shape-rendering="geometricPrecision" transform="matrix(1,0,0,1,-161,-515)" stroke="rgb(255,204,0)">
          <rect x="1017.1236" width="109.8477" height="30" y="827" stroke="none"/>
        </g>
        <g text-rendering="geometricPrecision" stroke-miterlimit="1.45" shape-rendering="geometricPrecision" transform="matrix(1,0,0,1,-161,-515)" stroke-linecap="butt">
          <rect fill="none" x="1017.1236" width="109.8477" height="30" y="827"/>
        </g>
        <g>
          <g text-rendering="geometricPrecision" stroke-miterlimit="1.45" shape-rendering="geometricPrecision" font-family="sans-serif" transform="matrix(1,0,0,1,-161,-515)" stroke-linecap="butt">
            <text x="1024.1235" xml:space="preserve" y="846.5352" stroke="none">geolink:Platform</text>
          </g>
        </g>
      </a>
    </g>
    <g id="y.node.4">
      <a target="_blank" xlink:type="simple" xlink:href="https://schema.org/Vehicle" xlink:show="new">
        <g fill="rgb(204,255,204)" text-rendering="geometricPrecision" shape-rendering="geometricPrecision" transform="matrix(1,0,0,1,-161,-515)" stroke="rgb(204,255,204)">
          <rect x="763.4168" width="103.7715" height="30" y="827" stroke="none"/>
        </g>
        <g text-rendering="geometricPrecision" stroke-miterlimit="1.45" shape-rendering="geometricPrecision" transform="matrix(1,0,0,1,-161,-515)" stroke-linecap="butt">
          <rect fill="none" x="763.4168" width="103.7715" height="30" y="827"/>
        </g>
        <g>
          <g text-rendering="geometricPrecision" stroke-miterlimit="1.45" shape-rendering="geometricPrecision" font-family="sans-serif" transform="matrix(1,0,0,1,-161,-515)" stroke-linecap="butt">
            <text x="770.4167" xml:space="preserve" y="846.5352" stroke="none">schema:Vehicle</text>
          </g>
        </g>
      </a>
    </g>
    <g id="y.node.5">
      <a target="_blank" xlink:type="simple" xlink:href="http://schema.geolink.org/1.0/base/main#Cruise" xlink:show="new">
        <g fill="rgb(255,204,0)" text-rendering="geometricPrecision" shape-rendering="geometricPrecision" transform="matrix(1,0,0,1,-161,-515)" stroke="rgb(255,204,0)">
          <rect x="659.6293" width="97.666" height="30" y="708.7046" stroke="none"/>
        </g>
        <g text-rendering="geometricPrecision" stroke-miterlimit="1.45" shape-rendering="geometricPrecision" transform="matrix(1,0,0,1,-161,-515)" stroke-linecap="butt">
          <rect fill="none" x="659.6293" width="97.666" height="30" y="708.7046"/>
        </g>
        <g>
          <g text-rendering="geometricPrecision" stroke-miterlimit="1.45" shape-rendering="geometricPrecision" font-family="sans-serif" transform="matrix(1,0,0,1,-161,-515)" stroke-linecap="butt">
            <text x="666.6293" xml:space="preserve" y="728.2397" stroke="none">geolink:Cruise</text>
          </g>
        </g>
      </a>
    </g>
    <g id="y.node.6">
      <g fill="rgb(0,204,255)" text-rendering="geometricPrecision" shape-rendering="geometricPrecision" transform="matrix(1,0,0,1,-161,-515)" stroke="rgb(0,204,255)">
        <ellipse rx="20.0605" ry="15" cx="227.9707" cy="657.5" stroke="none"/>
      </g>
      <g text-rendering="geometricPrecision" stroke-miterlimit="1.45" shape-rendering="geometricPrecision" transform="matrix(1,0,0,1,-161,-515)" stroke-linecap="butt">
        <ellipse rx="20.0605" fill="none" ry="15" cx="227.9707" cy="657.5"/>
      </g>
      <g>
        <g text-rendering="geometricPrecision" stroke-miterlimit="1.45" shape-rendering="geometricPrecision" font-family="sans-serif" transform="matrix(1,0,0,1,-161,-515)" stroke-linecap="butt">
          <text x="214.9102" xml:space="preserve" y="662.0352" stroke="none">Text</text>
        </g>
      </g>
    </g>
    <g id="y.node.7">
      <g fill="rgb(0,204,255)" text-rendering="geometricPrecision" shape-rendering="geometricPrecision" transform="matrix(1,0,0,1,-161,-515)" stroke="rgb(0,204,255)">
        <ellipse rx="18.1504" ry="15" cx="227.9707" cy="700" stroke="none"/>
      </g>
      <g text-rendering="geometricPrecision" stroke-miterlimit="1.45" shape-rendering="geometricPrecision" transform="matrix(1,0,0,1,-161,-515)" stroke-linecap="butt">
        <ellipse rx="18.1504" fill="none" ry="15" cx="227.9707" cy="700"/>
      </g>
      <g>
        <g text-rendering="geometricPrecision" stroke-miterlimit="1.45" shape-rendering="geometricPrecision" font-family="sans-serif" transform="matrix(1,0,0,1,-161,-515)" stroke-linecap="butt">
          <text x="216.8203" xml:space="preserve" y="704.5352" stroke="none">URL</text>
        </g>
      </g>
    </g>
    <g id="y.node.8">
      <g fill="rgb(0,204,255)" text-rendering="geometricPrecision" shape-rendering="geometricPrecision" transform="matrix(1,0,0,1,-161,-515)" stroke="rgb(0,204,255)">
        <ellipse rx="20.3945" ry="15" cx="225.7266" cy="742.5" stroke="none"/>
      </g>
      <g text-rendering="geometricPrecision" stroke-miterlimit="1.45" shape-rendering="geometricPrecision" transform="matrix(1,0,0,1,-161,-515)" stroke-linecap="butt">
        <ellipse rx="20.3945" fill="none" ry="15" cx="225.7266" cy="742.5"/>
      </g>
      <g>
        <g text-rendering="geometricPrecision" stroke-miterlimit="1.45" shape-rendering="geometricPrecision" font-family="sans-serif" transform="matrix(1,0,0,1,-161,-515)" stroke-linecap="butt">
          <text x="212.332" xml:space="preserve" y="747.0352" stroke="none">Date</text>
        </g>
      </g>
    </g>
    <g id="y.node.9">
      <g fill="rgb(0,204,255)" text-rendering="geometricPrecision" shape-rendering="geometricPrecision" transform="matrix(1,0,0,1,-161,-515)" stroke="rgb(0,204,255)">
        <ellipse rx="34.8672" ry="15" cx="211.2539" cy="785" stroke="none"/>
      </g>
      <g text-rendering="geometricPrecision" stroke-miterlimit="1.45" shape-rendering="geometricPrecision" transform="matrix(1,0,0,1,-161,-515)" stroke-linecap="butt">
        <ellipse rx="34.8672" fill="none" ry="15" cx="211.2539" cy="785"/>
      </g>
      <g>
        <g text-rendering="geometricPrecision" stroke-miterlimit="1.45" shape-rendering="geometricPrecision" font-family="sans-serif" transform="matrix(1,0,0,1,-161,-515)" stroke-linecap="butt">
          <text x="183.3867" xml:space="preserve" y="789.5352" stroke="none">DateTime</text>
        </g>
      </g>
    </g>
    <g id="y.node.10">
      <a target="_blank" xlink:type="simple" xlink:href="https://schema.org/Place" xlink:show="new">
        <g fill="rgb(204,255,204)" text-rendering="geometricPrecision" shape-rendering="geometricPrecision" transform="matrix(1,0,0,1,-161,-515)" stroke="rgb(204,255,204)">
          <rect x="227.7266" width="91.584" height="30" y="827" stroke="none"/>
        </g>
        <g text-rendering="geometricPrecision" stroke-miterlimit="1.45" shape-rendering="geometricPrecision" transform="matrix(1,0,0,1,-161,-515)" stroke-linecap="butt">
          <rect fill="none" x="227.7266" width="91.584" height="30" y="827"/>
        </g>
        <g>
          <g text-rendering="geometricPrecision" stroke-miterlimit="1.45" shape-rendering="geometricPrecision" font-family="sans-serif" transform="matrix(1,0,0,1,-161,-515)" stroke-linecap="butt">
            <text x="234.7266" xml:space="preserve" y="846.5352" stroke="none">schema:Place</text>
          </g>
        </g>
      </a>
    </g>
    <g id="y.node.11">
      <g fill="rgb(0,204,255)" text-rendering="geometricPrecision" shape-rendering="geometricPrecision" transform="matrix(1,0,0,1,-161,-515)" stroke="rgb(0,204,255)">
        <ellipse rx="20.0605" ry="15" cx="396.9146" cy="902" stroke="none"/>
      </g>
      <g text-rendering="geometricPrecision" stroke-miterlimit="1.45" shape-rendering="geometricPrecision" transform="matrix(1,0,0,1,-161,-515)" stroke-linecap="butt">
        <ellipse rx="20.0605" fill="none" ry="15" cx="396.9146" cy="902"/>
      </g>
      <g>
        <g text-rendering="geometricPrecision" stroke-miterlimit="1.45" shape-rendering="geometricPrecision" font-family="sans-serif" transform="matrix(1,0,0,1,-161,-515)" stroke-linecap="butt">
          <text x="383.854" xml:space="preserve" y="906.5352" stroke="none">Text</text>
        </g>
      </g>
    </g>
    <g id="y.node.12">
      <g fill="rgb(0,204,255)" text-rendering="geometricPrecision" shape-rendering="geometricPrecision" transform="matrix(1,0,0,1,-161,-515)" stroke="rgb(0,204,255)">
        <ellipse rx="20.0605" ry="15" cx="665.4623" cy="954" stroke="none"/>
      </g>
      <g text-rendering="geometricPrecision" stroke-miterlimit="1.45" shape-rendering="geometricPrecision" transform="matrix(1,0,0,1,-161,-515)" stroke-linecap="butt">
        <ellipse rx="20.0605" fill="none" ry="15" cx="665.4623" cy="954"/>
      </g>
      <g>
        <g text-rendering="geometricPrecision" stroke-miterlimit="1.45" shape-rendering="geometricPrecision" font-family="sans-serif" transform="matrix(1,0,0,1,-161,-515)" stroke-linecap="butt">
          <text x="652.4018" xml:space="preserve" y="958.5352" stroke="none">Text</text>
        </g>
      </g>
    </g>
    <g id="y.node.13">
      <g fill="rgb(0,204,255)" text-rendering="geometricPrecision" shape-rendering="geometricPrecision" transform="matrix(1,0,0,1,-161,-515)" stroke="rgb(0,204,255)">
        <ellipse rx="18.1504" ry="15" cx="667.3725" cy="902" stroke="none"/>
      </g>
      <g text-rendering="geometricPrecision" stroke-miterlimit="1.45" shape-rendering="geometricPrecision" transform="matrix(1,0,0,1,-161,-515)" stroke-linecap="butt">
        <ellipse rx="18.1504" fill="none" ry="15" cx="667.3725" cy="902"/>
      </g>
      <g>
        <g text-rendering="geometricPrecision" stroke-miterlimit="1.45" shape-rendering="geometricPrecision" font-family="sans-serif" transform="matrix(1,0,0,1,-161,-515)" stroke-linecap="butt">
          <text x="656.2221" xml:space="preserve" y="906.5352" stroke="none">URL</text>
        </g>
      </g>
    </g>
    <g id="y.edge.0">
      <g text-rendering="geometricPrecision" stroke-miterlimit="1.45" shape-rendering="geometricPrecision" transform="matrix(1,0,0,1,-161,-515)" stroke-linecap="butt">
        <path fill="none" d="M449.2618 560.4092 L449.2618 700.7046"/>
        <path d="M449.2618 708.7046 L454.2618 696.7046 L449.2618 699.7046 L444.2618 696.7046 Z" stroke="none"/>
      </g>
      <g>
        <g text-rendering="geometricPrecision" stroke-miterlimit="1.45" shape-rendering="geometricPrecision" font-family="sans-serif" transform="matrix(1,0,0,1,-161,-515)" stroke-linecap="butt">
          <text x="462.2344" xml:space="preserve" y="601.4828" stroke="none">schema:recordedAt</text>
        </g>
      </g>
    </g>
    <g id="y.edge.1">
      <g text-rendering="geometricPrecision" stroke-miterlimit="1.45" shape-rendering="geometricPrecision" transform="matrix(1,0,0,1,-161,-515)" stroke-linecap="butt">
        <path fill="none" d="M470.005 738.6937 L470.005 818.9933"/>
        <path d="M470.005 826.9933 L475.005 814.9933 L470.005 817.9933 L465.005 814.9933 Z" stroke="none"/>
      </g>
      <g>
        <g text-rendering="geometricPrecision" stroke-miterlimit="1.45" shape-rendering="geometricPrecision" font-family="sans-serif" transform="matrix(1,0,0,1,-161,-515)" stroke-linecap="butt">
          <text x="486.11" xml:space="preserve" y="787.3875" stroke="none">schema:recordedIn</text>
        </g>
      </g>
    </g>
    <g id="y.edge.2">
      <g text-rendering="geometricPrecision" stroke-miterlimit="1.45" shape-rendering="geometricPrecision" transform="matrix(1,0,0,1,-161,-515)" stroke-linecap="butt">
        <path fill="none" d="M597.2247 842 L755.4285 842"/>
        <path d="M763.4285 842 L751.4285 837 L754.4285 842 L751.4285 847 Z" stroke="none"/>
      </g>
      <g>
        <g text-rendering="geometricPrecision" stroke-miterlimit="1.45" shape-rendering="geometricPrecision" font-family="sans-serif" transform="matrix(1,0,0,1,-161,-515)" stroke-linecap="butt">
          <text x="626.1889" xml:space="preserve" y="816.5352" stroke="none">schema:isBasedOn</text>
        </g>
      </g>
    </g>
    <g id="y.edge.4">
      <g text-rendering="geometricPrecision" stroke-miterlimit="1.45" shape-rendering="geometricPrecision" transform="matrix(1,0,0,1,-161,-515)" stroke-linecap="butt">
        <path fill="none" d="M867.1882 842 L1009.1236 842"/>
        <path d="M1017.1236 842 L1005.1236 837 L1008.1236 842 L1005.1236 847 Z" stroke="none"/>
      </g>
      <g>
        <g text-rendering="geometricPrecision" stroke-miterlimit="1.45" shape-rendering="geometricPrecision" font-family="sans-serif" transform="matrix(1,0,0,1,-161,-515)" stroke-linecap="butt">
          <text x="875.0602" xml:space="preserve" y="816.5352" stroke="none">schema:additionalType</text>
        </g>
      </g>
    </g>
    <g id="y.edge.3">
      <g text-rendering="geometricPrecision" stroke-miterlimit="1.45" shape-rendering="geometricPrecision" transform="matrix(1,0,0,1,-161,-515)" stroke-linecap="butt">
        <path fill="none" d="M495.9415 723.7046 L651.6293 723.7046"/>
        <path d="M659.6293 723.7046 L647.6293 718.7046 L650.6293 723.7046 L647.6293 728.7046 Z" stroke="none"/>
      </g>
      <g>
        <g text-rendering="geometricPrecision" stroke-miterlimit="1.45" shape-rendering="geometricPrecision" font-family="sans-serif" transform="matrix(1,0,0,1,-161,-515)" stroke-linecap="butt">
          <text x="510.6897" xml:space="preserve" y="698.2397" stroke="none">schema:additionalType</text>
        </g>
      </g>
    </g>
    <g id="y.edge.5">
      <g text-rendering="geometricPrecision" stroke-miterlimit="1.45" shape-rendering="geometricPrecision" transform="matrix(1,0,0,1,-161,-515)" stroke-linecap="butt">
        <path fill="none" d="M402.5725 714.7139 L372.5821 714.7139 L372.5821 657.5 L256.0312 657.5"/>
        <path d="M248.0312 657.5 L260.0312 662.5 L257.0312 657.5 L260.0312 652.5 Z" stroke="none"/>
      </g>
      <g>
        <g text-rendering="geometricPrecision" stroke-miterlimit="1.45" shape-rendering="geometricPrecision" font-family="sans-serif" transform="matrix(1,0,0,1,-161,-515)" stroke-linecap="butt">
          <text x="253.6905" xml:space="preserve" y="624.9688" stroke="none">schema:name,</text>
          <text x="253.6905" xml:space="preserve" y="639.1016" stroke="none">schema:description</text>
        </g>
      </g>
    </g>
    <g id="y.edge.6">
      <g text-rendering="geometricPrecision" stroke-miterlimit="1.45" shape-rendering="geometricPrecision" transform="matrix(1,0,0,1,-161,-515)" stroke-linecap="butt">
        <path fill="none" d="M402.5821 723.7046 L360.1 723.7046 L360.1 700 L254.1211 700"/>
        <path d="M246.1211 700 L258.1211 705 L255.1211 700 L258.1211 695 Z" stroke="none"/>
      </g>
      <g>
        <g text-rendering="geometricPrecision" stroke-miterlimit="1.45" shape-rendering="geometricPrecision" font-family="sans-serif" transform="matrix(1,0,0,1,-161,-515)" stroke-linecap="butt">
          <text x="260.9736" xml:space="preserve" y="682.4688" stroke="none">schema:url,</text>
          <text x="260.9736" xml:space="preserve" y="696.6016" stroke="none">schema:sameAs</text>
        </g>
      </g>
    </g>
    <g id="y.edge.7">
      <g text-rendering="geometricPrecision" stroke-miterlimit="1.45" shape-rendering="geometricPrecision" transform="matrix(1,0,0,1,-161,-515)" stroke-linecap="butt">
        <path fill="none" d="M402.5416 731.7837 L279.1589 731.7837 L279.1589 763.75 L266.1211 763.75 L266.1211 742.5 L254.1211 742.5"/>
        <path d="M246.1211 742.5 L258.1211 747.5 L255.1211 742.5 L258.1211 737.5 Z" stroke="none"/>
      </g>
      <g>
        <g text-rendering="geometricPrecision" stroke-miterlimit="1.45" shape-rendering="geometricPrecision" font-family="sans-serif" transform="matrix(1,0,0,1,-161,-515)" stroke-linecap="butt">
          <text x="286.3799" xml:space="preserve" y="755.2787" stroke="none">schema:startDate,</text>
          <text x="286.3799" xml:space="preserve" y="769.4115" stroke="none">schema:endDate</text>
        </g>
      </g>
    </g>
    <g id="y.edge.8">
      <g text-rendering="geometricPrecision" stroke-miterlimit="1.45" shape-rendering="geometricPrecision" transform="matrix(1,0,0,1,-161,-515)" stroke-linecap="butt">
        <path fill="none" d="M402.5416 731.7837 L279.1589 731.7837 L279.1589 763.75 L266.1211 763.75 L266.1211 785 L254.1211 785"/>
        <path d="M246.1211 785 L258.1211 790 L255.1211 785 L258.1211 780 Z" stroke="none"/>
      </g>
      <g/>
    </g>
    <g id="y.edge.9">
      <g text-rendering="geometricPrecision" stroke-miterlimit="1.45" shape-rendering="geometricPrecision" transform="matrix(1,0,0,1,-161,-515)" stroke-linecap="butt">
        <path fill="none" d="M438.2618 738.6937 L438.2618 842 L327.3105 842"/>
        <path d="M319.3105 842 L331.3105 847 L328.3105 842 L331.3105 837 Z" stroke="none"/>
      </g>
      <g>
        <g text-rendering="geometricPrecision" stroke-miterlimit="1.45" shape-rendering="geometricPrecision" font-family="sans-serif" transform="matrix(1,0,0,1,-161,-515)" stroke-linecap="butt">
          <text x="335.7939" xml:space="preserve" y="836.3451" stroke="none">schema:location</text>
        </g>
      </g>
    </g>
    <g id="y.edge.10">
      <g text-rendering="geometricPrecision" stroke-miterlimit="1.45" shape-rendering="geometricPrecision" transform="matrix(1,0,0,1,-161,-515)" stroke-linecap="butt">
        <path fill="none" d="M273.5186 857 L273.5186 902 L368.854 902"/>
        <path d="M376.854 902 L364.854 897 L367.854 902 L364.854 907 Z" stroke="none"/>
      </g>
      <g>
        <g text-rendering="geometricPrecision" stroke-miterlimit="1.45" shape-rendering="geometricPrecision" font-family="sans-serif" transform="matrix(1,0,0,1,-161,-515)" stroke-linecap="butt">
          <text x="278.3933" xml:space="preserve" y="929.4688" stroke="none">schema:name,</text>
          <text x="278.3933" xml:space="preserve" y="943.6016" stroke="none">schema:address</text>
        </g>
      </g>
    </g>
    <g id="y.edge.11">
      <g text-rendering="geometricPrecision" stroke-miterlimit="1.45" shape-rendering="geometricPrecision" transform="matrix(1,0,0,1,-161,-515)" stroke-linecap="butt">
        <path fill="none" d="M840.3025 857.0117 L840.3025 954 L693.5229 954"/>
        <path d="M685.5229 954 L697.5229 959 L694.5229 954 L697.5229 949 Z" stroke="none"/>
      </g>
      <g>
        <g text-rendering="geometricPrecision" stroke-miterlimit="1.45" shape-rendering="geometricPrecision" font-family="sans-serif" transform="matrix(1,0,0,1,-161,-515)" stroke-linecap="butt">
          <text x="705.3838" xml:space="preserve" y="931.2787" stroke="none">schema:name,</text>
          <text x="705.3838" xml:space="preserve" y="945.4115" stroke="none">schema:description</text>
        </g>
      </g>
    </g>
    <g id="y.edge.12">
      <g text-rendering="geometricPrecision" stroke-miterlimit="1.45" shape-rendering="geometricPrecision" transform="matrix(1,0,0,1,-161,-515)" stroke-linecap="butt">
        <path fill="none" d="M796 856.9707 L796 902 L693.5229 902"/>
        <path d="M685.5229 902 L697.5229 907 L694.5229 902 L697.5229 897 Z" stroke="none"/>
      </g>
      <g>
        <g text-rendering="geometricPrecision" stroke-miterlimit="1.45" shape-rendering="geometricPrecision" font-family="sans-serif" transform="matrix(1,0,0,1,-161,-515)" stroke-linecap="butt">
          <text x="698.9736" xml:space="preserve" y="880.4688" stroke="none">schema:url,</text>
          <text x="698.9736" xml:space="preserve" y="894.6016" stroke="none">schema:sameAs</text>
        </g>
      </g>
    </g>
  </g>
</svg>
