<?xml version="1.0" encoding="UTF-8"?><svg xmlns="http://www.w3.org/2000/svg" xmlns:xlink="http://www.w3.org/1999/xlink" fill-opacity="1" color-rendering="auto" color-interpolation="auto" text-rendering="auto" stroke="black" stroke-linecap="square" width="393" stroke-miterlimit="10" shape-rendering="auto" stroke-opacity="1" fill="black" stroke-dasharray="none" font-weight="normal" stroke-width="1" height="117" font-family="'Dialog'" font-style="normal" stroke-linejoin="miter" font-size="12px" stroke-dashoffset="0" image-rendering="auto">
  <!--Generated by ySVG 2.5-->
  <defs id="genericDefs"/>
  <g>
    <defs id="defs1">
      <clipPath clipPathUnits="userSpaceOnUse" id="clipPath1">
        <path d="M0 0 L393 0 L393 117 L0 117 L0 0 Z"/>
      </clipPath>
    </defs>
    <g id="y.node.0">
      <a target="_blank" xlink:type="simple" xlink:href="https://schema.org/Dataset" xlink:show="new">
        <g fill="rgb(204,255,204)" text-rendering="geometricPrecision" shape-rendering="geometricPrecision" transform="matrix(1,0,0,1,-185,-301)" stroke="rgb(204,255,204)">
          <rect x="455.9775" width="106.0449" height="30" y="316" stroke="none"/>
        </g>
        <g text-rendering="geometricPrecision" stroke-miterlimit="1.45" shape-rendering="geometricPrecision" transform="matrix(1,0,0,1,-185,-301)" stroke-linecap="butt">
          <rect fill="none" x="455.9775" width="106.0449" height="30" y="316"/>
        </g>
        <g>
          <g text-rendering="geometricPrecision" stroke-miterlimit="1.45" shape-rendering="geometricPrecision" font-family="sans-serif" transform="matrix(1,0,0,1,-185,-301)" stroke-linecap="butt">
            <text x="462.9775" xml:space="preserve" y="335.5352" stroke="none">schema:Dataset</text>
          </g>
        </g>
      </a>
    </g>
    <g id="y.node.1">
      <g fill="rgb(0,204,255)" text-rendering="geometricPrecision" shape-rendering="geometricPrecision" transform="matrix(1,0,0,1,-185,-301)" stroke="rgb(0,204,255)">
        <ellipse rx="34.8672" ry="15" cx="235.1826" cy="388" stroke="none"/>
      </g>
      <g text-rendering="geometricPrecision" stroke-miterlimit="1.45" shape-rendering="geometricPrecision" transform="matrix(1,0,0,1,-185,-301)" stroke-linecap="butt">
        <ellipse rx="34.8672" fill="none" ry="15" cx="235.1826" cy="388"/>
      </g>
      <g>
        <g text-rendering="geometricPrecision" stroke-miterlimit="1.45" shape-rendering="geometricPrecision" font-family="sans-serif" transform="matrix(1,0,0,1,-185,-301)" stroke-linecap="butt">
          <text x="207.3154" xml:space="preserve" y="392.5352" stroke="none">DateTime</text>
        </g>
      </g>
    </g>
    <g id="y.node.2">
      <g fill="rgb(0,204,255)" text-rendering="geometricPrecision" shape-rendering="geometricPrecision" transform="matrix(1,0,0,1,-185,-301)" stroke="rgb(0,204,255)">
        <ellipse rx="20.0605" ry="15" cx="249.9893" cy="353" stroke="none"/>
      </g>
      <g text-rendering="geometricPrecision" stroke-miterlimit="1.45" shape-rendering="geometricPrecision" transform="matrix(1,0,0,1,-185,-301)" stroke-linecap="butt">
        <ellipse rx="20.0605" fill="none" ry="15" cx="249.9893" cy="353"/>
      </g>
      <g>
        <g text-rendering="geometricPrecision" stroke-miterlimit="1.45" shape-rendering="geometricPrecision" font-family="sans-serif" transform="matrix(1,0,0,1,-185,-301)" stroke-linecap="butt">
          <text x="236.9287" xml:space="preserve" y="357.5352" stroke="none">Text</text>
        </g>
      </g>
    </g>
    <g id="y.edge.1">
      <g text-rendering="geometricPrecision" stroke-miterlimit="1.45" shape-rendering="geometricPrecision" transform="matrix(1,0,0,1,-185,-301)" stroke-linecap="butt">
        <path fill="none" d="M474 346.0146 L474 372 L299.6631 372 L299.6631 388 L278.0498 388"/>
        <path d="M270.0498 388 L282.0498 393 L279.0498 388 L282.0498 383 Z" stroke="none"/>
      </g>
      <g>
        <g text-rendering="geometricPrecision" stroke-miterlimit="1.45" shape-rendering="geometricPrecision" font-family="sans-serif" transform="matrix(1,0,0,1,-185,-301)" stroke-linecap="butt">
          <text x="312.1973" xml:space="preserve" y="394.0352" stroke="none">schema:temporalCoverage</text>
        </g>
      </g>
    </g>
    <g id="y.edge.0">
      <g text-rendering="geometricPrecision" stroke-miterlimit="1.45" shape-rendering="geometricPrecision" transform="matrix(1,0,0,1,-185,-301)" stroke-linecap="butt">
        <path fill="none" d="M474 345.9707 L474 373 L299.6631 373 L299.6631 353 L278.0498 353"/>
        <path d="M270.0498 353 L282.0498 358 L279.0498 353 L282.0498 348 Z" stroke="none"/>
      </g>
      <g/>
    </g>
  </g>
</svg>
