<?xml version="1.0" encoding="UTF-8"?><svg xmlns="http://www.w3.org/2000/svg" xmlns:xlink="http://www.w3.org/1999/xlink" fill-opacity="1" color-rendering="auto" color-interpolation="auto" text-rendering="auto" stroke="black" stroke-linecap="square" width="734" stroke-miterlimit="10" shape-rendering="auto" stroke-opacity="1" fill="black" stroke-dasharray="none" font-weight="normal" stroke-width="1" height="493" font-family="'Dialog'" font-style="normal" stroke-linejoin="miter" font-size="12px" stroke-dashoffset="0" image-rendering="auto">
  <!--Generated by ySVG 2.5-->
  <defs id="genericDefs"/>
  <g>
    <defs id="defs1">
      <clipPath clipPathUnits="userSpaceOnUse" id="clipPath1">
        <path d="M0 0 L734 0 L734 493 L0 493 L0 0 Z"/>
      </clipPath>
    </defs>
    <g id="y.node.0">
      <a target="_blank" xlink:type="simple" xlink:href="https://schema.org/Dataset" xlink:show="new">
        <g fill="rgb(204,255,204)" text-rendering="geometricPrecision" shape-rendering="geometricPrecision" transform="matrix(1,0,0,1,-538,-25)" stroke="rgb(204,255,204)">
          <rect x="553.0552" width="106.0449" height="30" y="217" stroke="none"/>
        </g>
        <g text-rendering="geometricPrecision" stroke-miterlimit="1.45" shape-rendering="geometricPrecision" transform="matrix(1,0,0,1,-538,-25)" stroke-linecap="butt">
          <rect fill="none" x="553.0552" width="106.0449" height="30" y="217"/>
        </g>
        <g>
          <g text-rendering="geometricPrecision" stroke-miterlimit="1.45" shape-rendering="geometricPrecision" font-family="sans-serif" transform="matrix(1,0,0,1,-538,-25)" stroke-linecap="butt">
            <text x="560.0552" xml:space="preserve" y="236.5352" stroke="none">schema:Dataset</text>
          </g>
        </g>
      </a>
    </g>
    <g id="y.node.1">
      <a target="_blank" xlink:type="simple" xlink:href="https://schema.org/PropertyValue" xlink:show="new">
        <g fill="rgb(204,255,204)" text-rendering="geometricPrecision" shape-rendering="geometricPrecision" transform="matrix(1,0,0,1,-538,-25)" stroke="rgb(204,255,204)">
          <rect x="783.6533" width="142.918" height="30" y="217" stroke="none"/>
        </g>
        <g text-rendering="geometricPrecision" stroke-miterlimit="1.45" shape-rendering="geometricPrecision" transform="matrix(1,0,0,1,-538,-25)" stroke-linecap="butt">
          <rect fill="none" x="783.6533" width="142.918" height="30" y="217"/>
        </g>
        <g>
          <g text-rendering="geometricPrecision" stroke-miterlimit="1.45" shape-rendering="geometricPrecision" font-family="sans-serif" transform="matrix(1,0,0,1,-538,-25)" stroke-linecap="butt">
            <text x="790.6533" xml:space="preserve" y="236.5352" stroke="none">schema:PropertyValue</text>
          </g>
        </g>
      </a>
    </g>
    <g id="y.node.2">
      <a target="_blank" xlink:type="simple" xlink:href="https://schema.org/Person" xlink:show="new">
        <g fill="rgb(204,255,204)" text-rendering="geometricPrecision" shape-rendering="geometricPrecision" transform="matrix(1,0,0,1,-538,-25)" stroke="rgb(204,255,204)">
          <rect x="804.5186" width="101.1875" height="30" y="357" stroke="none"/>
        </g>
        <g text-rendering="geometricPrecision" stroke-miterlimit="1.45" shape-rendering="geometricPrecision" transform="matrix(1,0,0,1,-538,-25)" stroke-linecap="butt">
          <rect fill="none" x="804.5186" width="101.1875" height="30" y="357"/>
        </g>
        <g>
          <g text-rendering="geometricPrecision" stroke-miterlimit="1.45" shape-rendering="geometricPrecision" font-family="sans-serif" transform="matrix(1,0,0,1,-538,-25)" stroke-linecap="butt">
            <text x="811.5186" xml:space="preserve" y="376.5352" stroke="none">schema:Person</text>
          </g>
        </g>
      </a>
    </g>
    <g id="y.node.3">
      <a target="_blank" xlink:type="simple" xlink:href="http://www.sparontologies.net/ontologies/datacite/source.html#Identifier" xlink:show="new">
        <g fill="rgb(255,204,0)" text-rendering="geometricPrecision" shape-rendering="geometricPrecision" transform="matrix(1,0,0,1,-538,-25)" stroke="rgb(255,204,0)">
          <rect x="1109.9326" width="146.8262" height="41" y="211.5" stroke="none"/>
        </g>
        <g text-rendering="geometricPrecision" stroke-miterlimit="1.45" shape-rendering="geometricPrecision" transform="matrix(1,0,0,1,-538,-25)" stroke-linecap="butt">
          <rect fill="none" x="1109.9326" width="146.8262" height="41" y="211.5"/>
        </g>
        <g>
          <g text-rendering="geometricPrecision" stroke-miterlimit="1.45" shape-rendering="geometricPrecision" font-family="sans-serif" transform="matrix(1,0,0,1,-538,-25)" stroke-linecap="butt">
            <text x="1130.2188" xml:space="preserve" y="229.4688" stroke="none">datacite:Identifier,</text>
            <text x="1133.6904" xml:space="preserve" y="243.6016" stroke="none">geolink:Identifier</text>
          </g>
        </g>
      </a>
    </g>
    <g id="y.node.4">
      <a target="_blank" xlink:type="simple" xlink:href="http://schema.geolink.org/1.0/base/main#Person" xlink:show="new">
        <g fill="rgb(255,204,0)" text-rendering="geometricPrecision" shape-rendering="geometricPrecision" transform="matrix(1,0,0,1,-538,-25)" stroke="rgb(255,204,0)">
          <rect x="1109.9326" width="99.8984" height="30" y="357" stroke="none"/>
        </g>
        <g text-rendering="geometricPrecision" stroke-miterlimit="1.45" shape-rendering="geometricPrecision" transform="matrix(1,0,0,1,-538,-25)" stroke-linecap="butt">
          <rect fill="none" x="1109.9326" width="99.8984" height="30" y="357"/>
        </g>
        <g>
          <g text-rendering="geometricPrecision" stroke-miterlimit="1.45" shape-rendering="geometricPrecision" font-family="sans-serif" transform="matrix(1,0,0,1,-538,-25)" stroke-linecap="butt">
            <text x="1116.9326" xml:space="preserve" y="376.5352" stroke="none">geolink:Person</text>
          </g>
        </g>
      </a>
    </g>
    <g id="y.node.5">
      <g fill="rgb(0,204,255)" text-rendering="geometricPrecision" shape-rendering="geometricPrecision" transform="matrix(1,0,0,1,-538,-25)" stroke="rgb(0,204,255)">
        <ellipse rx="20.0605" ry="15" cx="885.5862" cy="487.6863" stroke="none"/>
      </g>
      <g text-rendering="geometricPrecision" stroke-miterlimit="1.45" shape-rendering="geometricPrecision" transform="matrix(1,0,0,1,-538,-25)" stroke-linecap="butt">
        <ellipse rx="20.0605" fill="none" ry="15" cx="885.5862" cy="487.6863"/>
      </g>
      <g>
        <g text-rendering="geometricPrecision" stroke-miterlimit="1.45" shape-rendering="geometricPrecision" font-family="sans-serif" transform="matrix(1,0,0,1,-538,-25)" stroke-linecap="butt">
          <text x="872.5257" xml:space="preserve" y="492.2215" stroke="none">Text</text>
        </g>
      </g>
    </g>
    <g id="y.node.6">
      <g fill="rgb(0,204,255)" text-rendering="geometricPrecision" shape-rendering="geometricPrecision" transform="matrix(1,0,0,1,-538,-25)" stroke="rgb(0,204,255)">
        <ellipse rx="18.1504" ry="15" cx="829.7767" cy="487.6863" stroke="none"/>
      </g>
      <g text-rendering="geometricPrecision" stroke-miterlimit="1.45" shape-rendering="geometricPrecision" transform="matrix(1,0,0,1,-538,-25)" stroke-linecap="butt">
        <ellipse rx="18.1504" fill="none" ry="15" cx="829.7767" cy="487.6863"/>
      </g>
      <g>
        <g text-rendering="geometricPrecision" stroke-miterlimit="1.45" shape-rendering="geometricPrecision" font-family="sans-serif" transform="matrix(1,0,0,1,-538,-25)" stroke-linecap="butt">
          <text x="818.6263" xml:space="preserve" y="492.2215" stroke="none">URL</text>
        </g>
      </g>
    </g>
    <g id="y.node.7">
      <g fill="rgb(0,204,255)" text-rendering="geometricPrecision" shape-rendering="geometricPrecision" transform="matrix(1,0,0,1,-538,-25)" stroke="rgb(0,204,255)">
        <ellipse rx="57.031" ry="20.5" cx="645.6524" cy="141.4406" stroke="none"/>
      </g>
      <g text-rendering="geometricPrecision" stroke-miterlimit="1.45" shape-rendering="geometricPrecision" transform="matrix(1,0,0,1,-538,-25)" stroke-linecap="butt">
        <ellipse rx="57.031" fill="none" ry="20.5" cx="645.6524" cy="141.4406"/>
      </g>
      <g>
        <g text-rendering="geometricPrecision" stroke-miterlimit="1.45" shape-rendering="geometricPrecision" font-family="sans-serif" transform="matrix(1,0,0,1,-538,-25)" stroke-linecap="butt">
          <text x="601.5049" xml:space="preserve" y="145.9758" stroke="none">"datacite:orcid"</text>
        </g>
      </g>
    </g>
    <g id="y.node.8">
      <g fill="rgb(0,204,255)" text-rendering="geometricPrecision" shape-rendering="geometricPrecision" transform="matrix(1,0,0,1,-538,-25)" stroke="rgb(0,204,255)">
        <ellipse rx="20.0605" ry="15" cx="855.1123" cy="55.9309" stroke="none"/>
      </g>
      <g text-rendering="geometricPrecision" stroke-miterlimit="1.45" shape-rendering="geometricPrecision" transform="matrix(1,0,0,1,-538,-25)" stroke-linecap="butt">
        <ellipse rx="20.0605" fill="none" ry="15" cx="855.1123" cy="55.9309"/>
      </g>
      <g>
        <g text-rendering="geometricPrecision" stroke-miterlimit="1.45" shape-rendering="geometricPrecision" font-family="sans-serif" transform="matrix(1,0,0,1,-538,-25)" stroke-linecap="butt">
          <text x="842.0518" xml:space="preserve" y="60.4661" stroke="none">Text</text>
        </g>
      </g>
    </g>
    <g id="y.node.9">
      <g fill="rgb(0,204,255)" text-rendering="geometricPrecision" shape-rendering="geometricPrecision" transform="matrix(1,0,0,1,-538,-25)" stroke="rgb(0,204,255)">
        <ellipse rx="18.1504" ry="15" cx="1043.4678" cy="135.9406" stroke="none"/>
      </g>
      <g text-rendering="geometricPrecision" stroke-miterlimit="1.45" shape-rendering="geometricPrecision" transform="matrix(1,0,0,1,-538,-25)" stroke-linecap="butt">
        <ellipse rx="18.1504" fill="none" ry="15" cx="1043.4678" cy="135.9406"/>
      </g>
      <g>
        <g text-rendering="geometricPrecision" stroke-miterlimit="1.45" shape-rendering="geometricPrecision" font-family="sans-serif" transform="matrix(1,0,0,1,-538,-25)" stroke-linecap="butt">
          <text x="1032.3174" xml:space="preserve" y="140.4758" stroke="none">URL</text>
        </g>
      </g>
    </g>
    <g id="y.edge.0">
      <g text-rendering="geometricPrecision" stroke-miterlimit="1.45" shape-rendering="geometricPrecision" transform="matrix(1,0,0,1,-538,-25)" stroke-linecap="butt">
        <path fill="none" d="M651.0777 247.0049 L651.0777 372 L796.5186 372"/>
        <path d="M804.5186 372 L792.5186 367 L795.5186 372 L792.5186 377 Z" stroke="none"/>
      </g>
      <g>
        <g text-rendering="geometricPrecision" stroke-miterlimit="1.45" shape-rendering="geometricPrecision" font-family="sans-serif" transform="matrix(1,0,0,1,-538,-25)" stroke-linecap="butt">
          <text x="671.5108" xml:space="preserve" y="300.6022" stroke="none">schema:creator,</text>
          <text x="661.1778" xml:space="preserve" y="314.735" stroke="none">schema:contributor</text>
        </g>
      </g>
    </g>
    <g id="y.edge.1">
      <g text-rendering="geometricPrecision" stroke-miterlimit="1.45" shape-rendering="geometricPrecision" transform="matrix(1,0,0,1,-538,-25)" stroke-linecap="butt">
        <path fill="none" d="M855.1123 357 L855.1123 255"/>
        <path d="M855.1123 247 L850.1123 259 L855.1123 256 L860.1123 259 Z" stroke="none"/>
      </g>
      <g>
        <g text-rendering="geometricPrecision" stroke-miterlimit="1.45" shape-rendering="geometricPrecision" font-family="sans-serif" transform="matrix(1,0,0,1,-538,-25)" stroke-linecap="butt">
          <text x="873.6069" xml:space="preserve" y="288.5473" stroke="none">schema:identifier</text>
        </g>
      </g>
    </g>
    <g id="y.edge.3">
      <g text-rendering="geometricPrecision" stroke-miterlimit="1.45" shape-rendering="geometricPrecision" transform="matrix(1,0,0,1,-538,-25)" stroke-linecap="butt">
        <path fill="none" d="M926.5713 232 L1101.9326 232"/>
        <path d="M1109.9326 232 L1097.9326 227 L1100.9326 232 L1097.9326 237 Z" stroke="none"/>
      </g>
      <g>
        <g text-rendering="geometricPrecision" stroke-miterlimit="1.45" shape-rendering="geometricPrecision" font-family="sans-serif" transform="matrix(1,0,0,1,-538,-25)" stroke-linecap="butt">
          <text x="946.6781" xml:space="preserve" y="206.5352" stroke="none">schema:additionalType</text>
        </g>
      </g>
    </g>
    <g id="y.edge.2">
      <g text-rendering="geometricPrecision" stroke-miterlimit="1.45" shape-rendering="geometricPrecision" transform="matrix(1,0,0,1,-538,-25)" stroke-linecap="butt">
        <path fill="none" d="M905.7061 372 L1101.9326 372"/>
        <path d="M1109.9326 372 L1097.9326 367 L1100.9326 372 L1097.9326 377 Z" stroke="none"/>
      </g>
      <g>
        <g text-rendering="geometricPrecision" stroke-miterlimit="1.45" shape-rendering="geometricPrecision" font-family="sans-serif" transform="matrix(1,0,0,1,-538,-25)" stroke-linecap="butt">
          <text x="940.7236" xml:space="preserve" y="346.5352" stroke="none">schema:additionalType</text>
        </g>
      </g>
    </g>
    <g id="y.edge.4">
      <g text-rendering="geometricPrecision" stroke-miterlimit="1.45" shape-rendering="geometricPrecision" transform="matrix(1,0,0,1,-538,-25)" stroke-linecap="butt">
        <path fill="none" d="M885.5862 386.9728 L885.5862 464.6965"/>
        <path d="M885.5862 472.6965 L890.5862 460.6965 L885.5862 463.6965 L880.5862 460.6965 Z" stroke="none"/>
      </g>
      <g>
        <g text-rendering="geometricPrecision" stroke-miterlimit="1.45" shape-rendering="geometricPrecision" font-family="sans-serif" transform="matrix(1,0,0,1,-538,-25)" stroke-linecap="butt">
          <text x="902.3146" xml:space="preserve" y="407.369" stroke="none">schema:name,</text>
          <text x="902.3146" xml:space="preserve" y="421.5019" stroke="none">schema:familyName,</text>
          <text x="902.3146" xml:space="preserve" y="435.6347" stroke="none">schema:givenName,</text>
          <text x="902.3146" xml:space="preserve" y="449.7675" stroke="none">schema:honorificPrefix,</text>
          <text x="902.3146" xml:space="preserve" y="463.9003" stroke="none">schema:honorificSuffix</text>
        </g>
      </g>
    </g>
    <g id="y.edge.5">
      <g text-rendering="geometricPrecision" stroke-miterlimit="1.45" shape-rendering="geometricPrecision" transform="matrix(1,0,0,1,-538,-25)" stroke-linecap="butt">
        <path fill="none" d="M829.7767 386.974 L829.7767 464.6886"/>
        <path d="M829.7767 472.6886 L834.7767 460.6886 L829.7767 463.6886 L824.7767 460.6886 Z" stroke="none"/>
      </g>
      <g>
        <g text-rendering="geometricPrecision" stroke-miterlimit="1.45" shape-rendering="geometricPrecision" font-family="sans-serif" transform="matrix(1,0,0,1,-538,-25)" stroke-linecap="butt">
          <text x="730.6561" xml:space="preserve" y="431.0853" stroke="none">schema:url,</text>
          <text x="730.6561" xml:space="preserve" y="445.2181" stroke="none">schema:sameAs</text>
        </g>
      </g>
    </g>
    <g id="y.edge.6">
      <g text-rendering="geometricPrecision" stroke-miterlimit="1.45" shape-rendering="geometricPrecision" transform="matrix(1,0,0,1,-538,-25)" stroke-linecap="butt">
        <path fill="none" d="M815.9466 217.0099 L815.9466 141.4406 L710.6833 141.4406"/>
        <path d="M702.6833 141.4406 L714.6833 146.4406 L711.6833 141.4406 L714.6833 136.4406 Z" stroke="none"/>
      </g>
      <g>
        <g text-rendering="geometricPrecision" stroke-miterlimit="1.45" shape-rendering="geometricPrecision" font-family="sans-serif" transform="matrix(1,0,0,1,-538,-25)" stroke-linecap="butt">
          <text x="696.7159" xml:space="preserve" y="169.4065" stroke="none">schema:propertyID</text>
        </g>
      </g>
    </g>
    <g id="y.edge.8">
      <g text-rendering="geometricPrecision" stroke-miterlimit="1.45" shape-rendering="geometricPrecision" transform="matrix(1,0,0,1,-538,-25)" stroke-linecap="butt">
        <path fill="none" d="M855.1123 217 L855.1123 78.9309"/>
        <path d="M855.1123 70.9309 L850.1123 82.9309 L855.1123 79.9309 L860.1123 82.9309 Z" stroke="none"/>
      </g>
      <g>
        <g text-rendering="geometricPrecision" stroke-miterlimit="1.45" shape-rendering="geometricPrecision" font-family="sans-serif" transform="matrix(1,0,0,1,-538,-25)" stroke-linecap="butt">
          <text x="767.0113" xml:space="preserve" y="91.4502" stroke="none">schema:value</text>
        </g>
      </g>
    </g>
    <g id="y.edge.7">
      <g text-rendering="geometricPrecision" stroke-miterlimit="1.45" shape-rendering="geometricPrecision" transform="matrix(1,0,0,1,-538,-25)" stroke-linecap="butt">
        <path fill="none" d="M900.3787 217.0376 L900.3787 135.9406 L1017.3174 135.9406"/>
        <path d="M1025.3174 135.9406 L1013.3174 130.9406 L1016.3174 135.9406 L1013.3174 140.9406 Z" stroke="none"/>
      </g>
      <g>
        <g text-rendering="geometricPrecision" stroke-miterlimit="1.45" shape-rendering="geometricPrecision" font-family="sans-serif" transform="matrix(1,0,0,1,-538,-25)" stroke-linecap="butt">
          <text x="927.2888" xml:space="preserve" y="125.2803" stroke="none">schema:url</text>
        </g>
      </g>
    </g>
  </g>
</svg>
