<?xml version="1.0" encoding="UTF-8"?><svg xmlns="http://www.w3.org/2000/svg" xmlns:xlink="http://www.w3.org/1999/xlink" fill-opacity="1" color-rendering="auto" color-interpolation="auto" text-rendering="auto" stroke="black" stroke-linecap="square" width="734" stroke-miterlimit="10" shape-rendering="auto" stroke-opacity="1" fill="black" stroke-dasharray="none" font-weight="normal" stroke-width="1" height="249" font-family="'Dialog'" font-style="normal" stroke-linejoin="miter" font-size="12px" stroke-dashoffset="0" image-rendering="auto">
  <!--Generated by ySVG 2.5-->
  <defs id="genericDefs"/>
  <g>
    <defs id="defs1">
      <clipPath clipPathUnits="userSpaceOnUse" id="clipPath1">
        <path d="M0 0 L734 0 L734 249 L0 249 L0 0 Z"/>
      </clipPath>
    </defs>
    <g id="y.node.0">
      <a target="_blank" xlink:type="simple" xlink:href="https://schema.org/Dataset" xlink:show="new">
        <g fill="rgb(204,255,204)" text-rendering="geometricPrecision" shape-rendering="geometricPrecision" transform="matrix(1,0,0,1,-538,-25)" stroke="rgb(204,255,204)">
          <rect x="553.0552" width="106.0449" height="30" y="217" stroke="none"/>
        </g>
        <g text-rendering="geometricPrecision" stroke-miterlimit="1.45" shape-rendering="geometricPrecision" transform="matrix(1,0,0,1,-538,-25)" stroke-linecap="butt">
          <rect fill="none" x="553.0552" width="106.0449" height="30" y="217"/>
        </g>
        <g>
          <g text-rendering="geometricPrecision" stroke-miterlimit="1.45" shape-rendering="geometricPrecision" font-family="sans-serif" transform="matrix(1,0,0,1,-538,-25)" stroke-linecap="butt">
            <text x="560.0552" xml:space="preserve" y="236.5352" stroke="none">schema:Dataset</text>
          </g>
        </g>
      </a>
    </g>
    <g id="y.node.1">
      <a target="_blank" xlink:type="simple" xlink:href="https://schema.org/PropertyValue" xlink:show="new">
        <g fill="rgb(204,255,204)" text-rendering="geometricPrecision" shape-rendering="geometricPrecision" transform="matrix(1,0,0,1,-538,-25)" stroke="rgb(204,255,204)">
          <rect x="783.6533" width="142.918" height="30" y="217" stroke="none"/>
        </g>
        <g text-rendering="geometricPrecision" stroke-miterlimit="1.45" shape-rendering="geometricPrecision" transform="matrix(1,0,0,1,-538,-25)" stroke-linecap="butt">
          <rect fill="none" x="783.6533" width="142.918" height="30" y="217"/>
        </g>
        <g>
          <g text-rendering="geometricPrecision" stroke-miterlimit="1.45" shape-rendering="geometricPrecision" font-family="sans-serif" transform="matrix(1,0,0,1,-538,-25)" stroke-linecap="butt">
            <text x="790.6533" xml:space="preserve" y="236.5352" stroke="none">schema:PropertyValue</text>
          </g>
        </g>
      </a>
    </g>
    <g id="y.node.2">
      <a target="_blank" xlink:type="simple" xlink:href="http://www.sparontologies.net/ontologies/datacite/source.html#Identifier" xlink:show="new">
        <g fill="rgb(255,204,0)" text-rendering="geometricPrecision" shape-rendering="geometricPrecision" transform="matrix(1,0,0,1,-538,-25)" stroke="rgb(255,204,0)">
          <rect x="1109.9326" width="146.8262" height="41" y="211.5" stroke="none"/>
        </g>
        <g text-rendering="geometricPrecision" stroke-miterlimit="1.45" shape-rendering="geometricPrecision" transform="matrix(1,0,0,1,-538,-25)" stroke-linecap="butt">
          <rect fill="none" x="1109.9326" width="146.8262" height="41" y="211.5"/>
        </g>
        <g>
          <g text-rendering="geometricPrecision" stroke-miterlimit="1.45" shape-rendering="geometricPrecision" font-family="sans-serif" transform="matrix(1,0,0,1,-538,-25)" stroke-linecap="butt">
            <text x="1130.2188" xml:space="preserve" y="229.4688" stroke="none">datacite:Identifier,</text>
            <text x="1133.6904" xml:space="preserve" y="243.6016" stroke="none">geolink:Identifier</text>
          </g>
        </g>
      </a>
    </g>
    <g id="y.node.3">
      <g fill="rgb(0,204,255)" text-rendering="geometricPrecision" shape-rendering="geometricPrecision" transform="matrix(1,0,0,1,-538,-25)" stroke="rgb(0,204,255)">
        <ellipse rx="45.6191" ry="20.5" cx="645.6524" cy="141.4406" stroke="none"/>
      </g>
      <g text-rendering="geometricPrecision" stroke-miterlimit="1.45" shape-rendering="geometricPrecision" transform="matrix(1,0,0,1,-538,-25)" stroke-linecap="butt">
        <ellipse rx="45.6191" fill="none" ry="20.5" cx="645.6524" cy="141.4406"/>
      </g>
      <g>
        <g text-rendering="geometricPrecision" stroke-miterlimit="1.45" shape-rendering="geometricPrecision" font-family="sans-serif" transform="matrix(1,0,0,1,-538,-25)" stroke-linecap="butt">
          <text x="607.0333" xml:space="preserve" y="145.9758" stroke="none">"datacite:doi"</text>
        </g>
      </g>
    </g>
    <g id="y.node.4">
      <g fill="rgb(0,204,255)" text-rendering="geometricPrecision" shape-rendering="geometricPrecision" transform="matrix(1,0,0,1,-538,-25)" stroke="rgb(0,204,255)">
        <ellipse rx="20.0605" ry="15" cx="855.1123" cy="55.9309" stroke="none"/>
      </g>
      <g text-rendering="geometricPrecision" stroke-miterlimit="1.45" shape-rendering="geometricPrecision" transform="matrix(1,0,0,1,-538,-25)" stroke-linecap="butt">
        <ellipse rx="20.0605" fill="none" ry="15" cx="855.1123" cy="55.9309"/>
      </g>
      <g>
        <g text-rendering="geometricPrecision" stroke-miterlimit="1.45" shape-rendering="geometricPrecision" font-family="sans-serif" transform="matrix(1,0,0,1,-538,-25)" stroke-linecap="butt">
          <text x="842.0518" xml:space="preserve" y="60.4661" stroke="none">Text</text>
        </g>
      </g>
    </g>
    <g id="y.node.5">
      <g fill="rgb(0,204,255)" text-rendering="geometricPrecision" shape-rendering="geometricPrecision" transform="matrix(1,0,0,1,-538,-25)" stroke="rgb(0,204,255)">
        <ellipse rx="18.1504" ry="15" cx="1043.4678" cy="135.9406" stroke="none"/>
      </g>
      <g text-rendering="geometricPrecision" stroke-miterlimit="1.45" shape-rendering="geometricPrecision" transform="matrix(1,0,0,1,-538,-25)" stroke-linecap="butt">
        <ellipse rx="18.1504" fill="none" ry="15" cx="1043.4678" cy="135.9406"/>
      </g>
      <g>
        <g text-rendering="geometricPrecision" stroke-miterlimit="1.45" shape-rendering="geometricPrecision" font-family="sans-serif" transform="matrix(1,0,0,1,-538,-25)" stroke-linecap="butt">
          <text x="1032.3174" xml:space="preserve" y="140.4758" stroke="none">URL</text>
        </g>
      </g>
    </g>
    <g id="y.edge.0">
      <g text-rendering="geometricPrecision" stroke-miterlimit="1.45" shape-rendering="geometricPrecision" transform="matrix(1,0,0,1,-538,-25)" stroke-linecap="butt">
        <path fill="none" d="M659.0828 233.9482 L775.6592 233.9482"/>
        <path d="M783.6592 233.9482 L771.6592 228.9482 L774.6592 233.9482 L771.6592 238.9482 Z" stroke="none"/>
      </g>
      <g>
        <g text-rendering="geometricPrecision" stroke-miterlimit="1.45" shape-rendering="geometricPrecision" font-family="sans-serif" transform="matrix(1,0,0,1,-538,-25)" stroke-linecap="butt">
          <text x="670.1858" xml:space="preserve" y="253.7148" stroke="none">schema:identifier</text>
        </g>
      </g>
    </g>
    <g id="y.edge.1">
      <g text-rendering="geometricPrecision" stroke-miterlimit="1.45" shape-rendering="geometricPrecision" transform="matrix(1,0,0,1,-538,-25)" stroke-linecap="butt">
        <path fill="none" d="M926.5713 232 L1101.9326 232"/>
        <path d="M1109.9326 232 L1097.9326 227 L1100.9326 232 L1097.9326 237 Z" stroke="none"/>
      </g>
      <g>
        <g text-rendering="geometricPrecision" stroke-miterlimit="1.45" shape-rendering="geometricPrecision" font-family="sans-serif" transform="matrix(1,0,0,1,-538,-25)" stroke-linecap="butt">
          <text x="946.6781" xml:space="preserve" y="206.5352" stroke="none">schema:additionalType</text>
        </g>
      </g>
    </g>
    <g id="y.edge.2">
      <g text-rendering="geometricPrecision" stroke-miterlimit="1.45" shape-rendering="geometricPrecision" transform="matrix(1,0,0,1,-538,-25)" stroke-linecap="butt">
        <path fill="none" d="M815.9466 217.0099 L815.9466 141.4406 L699.2715 141.4406"/>
        <path d="M691.2715 141.4406 L703.2715 146.4406 L700.2715 141.4406 L703.2715 136.4406 Z" stroke="none"/>
      </g>
      <g>
        <g text-rendering="geometricPrecision" stroke-miterlimit="1.45" shape-rendering="geometricPrecision" font-family="sans-serif" transform="matrix(1,0,0,1,-538,-25)" stroke-linecap="butt">
          <text x="696.7159" xml:space="preserve" y="169.4065" stroke="none">schema:propertyID</text>
        </g>
      </g>
    </g>
    <g id="y.edge.4">
      <g text-rendering="geometricPrecision" stroke-miterlimit="1.45" shape-rendering="geometricPrecision" transform="matrix(1,0,0,1,-538,-25)" stroke-linecap="butt">
        <path fill="none" d="M855.1123 217 L855.1123 78.9309"/>
        <path d="M855.1123 70.9309 L850.1123 82.9309 L855.1123 79.9309 L860.1123 82.9309 Z" stroke="none"/>
      </g>
      <g>
        <g text-rendering="geometricPrecision" stroke-miterlimit="1.45" shape-rendering="geometricPrecision" font-family="sans-serif" transform="matrix(1,0,0,1,-538,-25)" stroke-linecap="butt">
          <text x="767.0113" xml:space="preserve" y="91.4502" stroke="none">schema:value</text>
        </g>
      </g>
    </g>
    <g id="y.edge.3">
      <g text-rendering="geometricPrecision" stroke-miterlimit="1.45" shape-rendering="geometricPrecision" transform="matrix(1,0,0,1,-538,-25)" stroke-linecap="butt">
        <path fill="none" d="M900.3787 217.0376 L900.3787 135.9406 L1017.3174 135.9406"/>
        <path d="M1025.3174 135.9406 L1013.3174 130.9406 L1016.3174 135.9406 L1013.3174 140.9406 Z" stroke="none"/>
      </g>
      <g>
        <g text-rendering="geometricPrecision" stroke-miterlimit="1.45" shape-rendering="geometricPrecision" font-family="sans-serif" transform="matrix(1,0,0,1,-538,-25)" stroke-linecap="butt">
          <text x="927.2888" xml:space="preserve" y="125.2803" stroke="none">schema:url</text>
        </g>
      </g>
    </g>
  </g>
</svg>
