<?xml version="1.0" encoding="UTF-8"?><svg xmlns="http://www.w3.org/2000/svg" xmlns:xlink="http://www.w3.org/1999/xlink" fill-opacity="1" color-rendering="auto" color-interpolation="auto" text-rendering="auto" stroke="black" stroke-linecap="square" width="444" stroke-miterlimit="10" shape-rendering="auto" stroke-opacity="1" fill="black" stroke-dasharray="none" font-weight="normal" stroke-width="1" height="415" font-family="'Dialog'" font-style="normal" stroke-linejoin="miter" font-size="12px" stroke-dashoffset="0" image-rendering="auto">
  <!--Generated by ySVG 2.5-->
  <defs id="genericDefs"/>
  <g>
    <defs id="defs1">
      <clipPath clipPathUnits="userSpaceOnUse" id="clipPath1">
        <path d="M0 0 L444 0 L444 415 L0 415 L0 0 Z"/>
      </clipPath>
      <clipPath clipPathUnits="userSpaceOnUse" id="clipPath2">
        <path d="M153 350 L597 350 L597 765 L153 765 L153 350 Z"/>
      </clipPath>
    </defs>
    <g fill="white" text-rendering="geometricPrecision" shape-rendering="geometricPrecision" transform="translate(-153,-350)" stroke="white">
      <rect x="153" width="444" height="415" y="350" clip-path="url(#clipPath2)" stroke="none"/>
    </g>
    <g id="y.node.0">
      <a target="_blank" xlink:type="simple" xlink:href="https://schema.org/PropertyValue" xlink:show="new">
        <g fill="rgb(204,255,204)" text-rendering="geometricPrecision" shape-rendering="geometricPrecision" transform="matrix(1,0,0,1,-153,-350)" stroke="rgb(204,255,204)">
          <rect x="212.4736" width="142.918" height="30" y="582.2046" stroke="none"/>
        </g>
        <g text-rendering="geometricPrecision" stroke-miterlimit="1.45" shape-rendering="geometricPrecision" transform="matrix(1,0,0,1,-153,-350)" stroke-linecap="butt">
          <rect fill="none" x="212.4736" width="142.918" height="30" y="582.2046"/>
        </g>
        <g>
          <g text-rendering="geometricPrecision" stroke-miterlimit="1.45" shape-rendering="geometricPrecision" font-family="sans-serif" transform="matrix(1,0,0,1,-153,-350)" stroke-linecap="butt">
            <text x="219.4736" xml:space="preserve" y="601.7397" stroke="none">schema:PropertyValue</text>
          </g>
        </g>
      </a>
    </g>
    <g id="y.node.1">
      <a target="_blank" xlink:type="simple" xlink:href="https://library.ucar.edu/earthcollab/schema#Parameter" xlink:show="new">
        <g fill="rgb(255,204,0)" text-rendering="geometricPrecision" shape-rendering="geometricPrecision" transform="matrix(1,0,0,1,-153,-350)" stroke="rgb(255,204,0)">
          <rect x="196.7529" width="174.3594" height="57" y="692.3095" stroke="none"/>
        </g>
        <g text-rendering="geometricPrecision" stroke-miterlimit="1.45" shape-rendering="geometricPrecision" transform="matrix(1,0,0,1,-153,-350)" stroke-linecap="butt">
          <rect fill="none" x="196.7529" width="174.3594" height="57" y="692.3095"/>
        </g>
        <g>
          <g text-rendering="geometricPrecision" stroke-miterlimit="1.45" shape-rendering="geometricPrecision" font-family="sans-serif" transform="matrix(1,0,0,1,-153,-350)" stroke-linecap="butt">
            <text x="218.3545" xml:space="preserve" y="711.2118" stroke="none">earthcollab:Parameter,</text>
            <text x="225.2275" xml:space="preserve" y="725.3446" stroke="none">geo-upper:Variable,</text>
            <text x="207.2012" xml:space="preserve" y="739.4774" stroke="none">geolink:MeasurementType</text>
          </g>
        </g>
      </a>
    </g>
    <g id="y.node.2">
      <g fill="rgb(0,204,255)" text-rendering="geometricPrecision" shape-rendering="geometricPrecision" transform="matrix(1,0,0,1,-153,-350)" stroke="rgb(0,204,255)">
        <ellipse rx="20.0605" ry="15" cx="289.8132" cy="430.4364" stroke="none"/>
      </g>
      <g text-rendering="geometricPrecision" stroke-miterlimit="1.45" shape-rendering="geometricPrecision" transform="matrix(1,0,0,1,-153,-350)" stroke-linecap="butt">
        <ellipse rx="20.0605" fill="none" ry="15" cx="289.8132" cy="430.4364"/>
      </g>
      <g>
        <g text-rendering="geometricPrecision" stroke-miterlimit="1.45" shape-rendering="geometricPrecision" font-family="sans-serif" transform="matrix(1,0,0,1,-153,-350)" stroke-linecap="butt">
          <text x="276.7527" xml:space="preserve" y="434.9716" stroke="none">Text</text>
        </g>
      </g>
    </g>
    <g id="y.node.3">
      <g fill="rgb(0,204,255)" text-rendering="geometricPrecision" shape-rendering="geometricPrecision" transform="matrix(1,0,0,1,-153,-350)" stroke="rgb(0,204,255)">
        <ellipse rx="18.1504" ry="15" cx="239.0131" cy="430.4364" stroke="none"/>
      </g>
      <g text-rendering="geometricPrecision" stroke-miterlimit="1.45" shape-rendering="geometricPrecision" transform="matrix(1,0,0,1,-153,-350)" stroke-linecap="butt">
        <ellipse rx="18.1504" fill="none" ry="15" cx="239.0131" cy="430.4364"/>
      </g>
      <g>
        <g text-rendering="geometricPrecision" stroke-miterlimit="1.45" shape-rendering="geometricPrecision" font-family="sans-serif" transform="matrix(1,0,0,1,-153,-350)" stroke-linecap="butt">
          <text x="227.8627" xml:space="preserve" y="434.9716" stroke="none">URL</text>
        </g>
      </g>
    </g>
    <g id="y.node.4">
      <a target="_blank" xlink:type="simple" xlink:href="https://schema.org/Dataset" xlink:show="new">
        <g fill="rgb(204,255,204)" text-rendering="geometricPrecision" shape-rendering="geometricPrecision" transform="matrix(1,0,0,1,-153,-350)" stroke="rgb(204,255,204)">
          <rect x="475.8984" width="106.0449" height="30" y="365.5" stroke="none"/>
        </g>
        <g text-rendering="geometricPrecision" stroke-miterlimit="1.45" shape-rendering="geometricPrecision" transform="matrix(1,0,0,1,-153,-350)" stroke-linecap="butt">
          <rect fill="none" x="475.8984" width="106.0449" height="30" y="365.5"/>
        </g>
        <g>
          <g text-rendering="geometricPrecision" stroke-miterlimit="1.45" shape-rendering="geometricPrecision" font-family="sans-serif" transform="matrix(1,0,0,1,-153,-350)" stroke-linecap="butt">
            <text x="482.8984" xml:space="preserve" y="385.0352" stroke="none">schema:Dataset</text>
          </g>
        </g>
      </a>
    </g>
    <g id="y.edge.2">
      <g text-rendering="geometricPrecision" stroke-miterlimit="1.45" shape-rendering="geometricPrecision" transform="matrix(1,0,0,1,-153,-350)" stroke-linecap="butt">
        <path fill="none" d="M283.9326 612.2046 L283.9326 684.3094"/>
        <path d="M283.9326 692.3094 L288.9326 680.3094 L283.9326 683.3094 L278.9326 680.3094 Z" stroke="none"/>
      </g>
      <g>
        <g text-rendering="geometricPrecision" stroke-miterlimit="1.45" shape-rendering="geometricPrecision" font-family="sans-serif" transform="matrix(1,0,0,1,-153,-350)" stroke-linecap="butt">
          <text x="290.3654" xml:space="preserve" y="659.7085" stroke="none">schema:additionalType</text>
        </g>
      </g>
    </g>
    <g id="y.edge.1">
      <g text-rendering="geometricPrecision" stroke-miterlimit="1.45" shape-rendering="geometricPrecision" transform="matrix(1,0,0,1,-153,-350)" stroke-linecap="butt">
        <path fill="none" d="M289.8132 582.1808 L289.8132 453.4364"/>
        <path d="M289.8132 445.4364 L284.8132 457.4364 L289.8132 454.4364 L294.8132 457.4364 Z" stroke="none"/>
      </g>
      <g>
        <g text-rendering="geometricPrecision" stroke-miterlimit="1.45" shape-rendering="geometricPrecision" font-family="sans-serif" transform="matrix(1,0,0,1,-153,-350)" stroke-linecap="butt">
          <text x="298.3094" xml:space="preserve" y="472.8201" stroke="none">schema:value,</text>
          <text x="298.3094" xml:space="preserve" y="486.9529" stroke="none">schema:description,</text>
          <text x="298.3094" xml:space="preserve" y="501.0857" stroke="none">schema:unitText</text>
        </g>
      </g>
    </g>
    <g id="y.edge.3">
      <g text-rendering="geometricPrecision" stroke-miterlimit="1.45" shape-rendering="geometricPrecision" transform="matrix(1,0,0,1,-153,-350)" stroke-linecap="butt">
        <path fill="none" d="M239.0131 582.1808 L239.0131 453.4364"/>
        <path d="M239.0131 445.4364 L234.0131 457.4364 L239.0131 454.4364 L244.0131 457.4364 Z" stroke="none"/>
      </g>
      <g>
        <g text-rendering="geometricPrecision" stroke-miterlimit="1.45" shape-rendering="geometricPrecision" font-family="sans-serif" transform="matrix(1,0,0,1,-153,-350)" stroke-linecap="butt">
          <text x="170.0752" xml:space="preserve" y="482.0352" stroke="none">schema:url</text>
        </g>
      </g>
    </g>
    <g id="y.edge.0">
      <g text-rendering="geometricPrecision" stroke-miterlimit="1.45" shape-rendering="geometricPrecision" transform="matrix(1,0,0,1,-153,-350)" stroke-linecap="butt">
        <path fill="none" d="M520.4825 395.499 L520.4825 597.2046 L363.3916 597.2046"/>
        <path d="M355.3916 597.2046 L367.3916 602.2046 L364.3916 597.2046 L367.3916 592.2046 Z" stroke="none"/>
      </g>
      <g>
        <g text-rendering="geometricPrecision" stroke-miterlimit="1.45" shape-rendering="geometricPrecision" font-family="sans-serif" transform="matrix(1,0,0,1,-153,-350)" stroke-linecap="butt">
          <text x="362.9693" xml:space="preserve" y="571.7397" stroke="none">schema:variableMeasured</text>
        </g>
      </g>
    </g>
  </g>
</svg>
