<?xml version="1.0" encoding="UTF-8"?><svg xmlns="http://www.w3.org/2000/svg" xmlns:xlink="http://www.w3.org/1999/xlink" fill-opacity="1" color-rendering="auto" color-interpolation="auto" text-rendering="auto" stroke="black" stroke-linecap="square" width="648" stroke-miterlimit="10" shape-rendering="auto" stroke-opacity="1" fill="black" stroke-dasharray="none" font-weight="normal" stroke-width="1" height="237" font-family="'Dialog'" font-style="normal" stroke-linejoin="miter" font-size="12px" stroke-dashoffset="0" image-rendering="auto">
  <!--Generated by ySVG 2.5-->
  <defs id="genericDefs"/>
  <g>
    <defs id="defs1">
      <clipPath clipPathUnits="userSpaceOnUse" id="clipPath1">
        <path d="M0 0 L648 0 L648 237 L0 237 L0 0 Z"/>
      </clipPath>
    </defs>
    <g id="y.node.0">
      <g fill="rgb(0,204,255)" text-rendering="geometricPrecision" shape-rendering="geometricPrecision" transform="matrix(1,0,0,1,45,-352)" stroke="rgb(0,204,255)">
        <ellipse rx="20.0605" ry="15" cx="259.9893" cy="558.9398" stroke="none"/>
      </g>
      <g text-rendering="geometricPrecision" stroke-miterlimit="1.45" shape-rendering="geometricPrecision" transform="matrix(1,0,0,1,45,-352)" stroke-linecap="butt">
        <ellipse rx="20.0605" fill="none" ry="15" cx="259.9893" cy="558.9398"/>
      </g>
      <g>
        <g text-rendering="geometricPrecision" stroke-miterlimit="1.45" shape-rendering="geometricPrecision" font-family="sans-serif" transform="matrix(1,0,0,1,45,-352)" stroke-linecap="butt">
          <text x="246.9287" xml:space="preserve" y="563.475" stroke="none">Text</text>
        </g>
      </g>
    </g>
    <g id="y.node.1">
      <a target="_blank" xlink:type="simple" xlink:href="https://schema.org/Dataset" xlink:show="new">
        <g fill="rgb(204,255,204)" text-rendering="geometricPrecision" shape-rendering="geometricPrecision" transform="matrix(1,0,0,1,45,-352)" stroke="rgb(204,255,204)">
          <rect x="481.0322" width="106.0449" height="30" y="367" stroke="none"/>
        </g>
        <g text-rendering="geometricPrecision" stroke-miterlimit="1.45" shape-rendering="geometricPrecision" transform="matrix(1,0,0,1,45,-352)" stroke-linecap="butt">
          <rect fill="none" x="481.0322" width="106.0449" height="30" y="367"/>
        </g>
        <g>
          <g text-rendering="geometricPrecision" stroke-miterlimit="1.45" shape-rendering="geometricPrecision" font-family="sans-serif" transform="matrix(1,0,0,1,45,-352)" stroke-linecap="butt">
            <text x="488.0322" xml:space="preserve" y="386.5352" stroke="none">schema:Dataset</text>
          </g>
        </g>
      </a>
    </g>
    <g id="y.node.2">
      <a target="_blank" xlink:type="simple" xlink:href="http://schema.org/CreativeWork" xlink:show="new">
        <g fill="rgb(204,255,204)" text-rendering="geometricPrecision" shape-rendering="geometricPrecision" transform="matrix(1,0,0,1,45,-352)" stroke="rgb(204,255,204)">
          <rect x="215.5625" width="138.9629" height="30" y="452.7046" stroke="none"/>
        </g>
        <g text-rendering="geometricPrecision" stroke-miterlimit="1.45" shape-rendering="geometricPrecision" transform="matrix(1,0,0,1,45,-352)" stroke-linecap="butt">
          <rect fill="none" x="215.5625" width="138.9629" height="30" y="452.7046"/>
        </g>
        <g>
          <g text-rendering="geometricPrecision" stroke-miterlimit="1.45" shape-rendering="geometricPrecision" font-family="sans-serif" transform="matrix(1,0,0,1,45,-352)" stroke-linecap="butt">
            <text x="222.5625" xml:space="preserve" y="472.2397" stroke="none">schema:CreativeWork</text>
          </g>
        </g>
      </a>
    </g>
    <g id="y.node.3">
      <a target="_blank" xlink:type="simple" xlink:href="https://library.ucar.edu/earthcollab/schema#Project" xlink:show="new">
        <g fill="rgb(255,204,0)" text-rendering="geometricPrecision" shape-rendering="geometricPrecision" transform="matrix(1,0,0,1,45,-352)" stroke="rgb(255,204,0)">
          <rect x="-29.8906" width="122.4746" height="30" y="452.7046" stroke="none"/>
        </g>
        <g text-rendering="geometricPrecision" stroke-miterlimit="1.45" shape-rendering="geometricPrecision" transform="matrix(1,0,0,1,45,-352)" stroke-linecap="butt">
          <rect fill="none" x="-29.8906" width="122.4746" height="30" y="452.7046"/>
        </g>
        <g>
          <g text-rendering="geometricPrecision" stroke-miterlimit="1.45" shape-rendering="geometricPrecision" font-family="sans-serif" transform="matrix(1,0,0,1,45,-352)" stroke-linecap="butt">
            <text x="-22.8906" xml:space="preserve" y="472.2397" stroke="none">earthcollab:Project</text>
          </g>
        </g>
      </a>
    </g>
    <g id="y.edge.0">
      <g text-rendering="geometricPrecision" stroke-miterlimit="1.45" shape-rendering="geometricPrecision" transform="matrix(1,0,0,1,45,-352)" stroke-linecap="butt">
        <path fill="none" d="M510.5493 397.0234 L510.5493 467.7046 L362.5254 467.7046"/>
        <path d="M354.5254 467.7046 L366.5254 472.7046 L363.5254 467.7046 L366.5254 462.7046 Z" stroke="none"/>
      </g>
      <g>
        <g text-rendering="geometricPrecision" stroke-miterlimit="1.45" shape-rendering="geometricPrecision" font-family="sans-serif" transform="matrix(1,0,0,1,45,-352)" stroke-linecap="butt">
          <text x="385.5364" xml:space="preserve" y="442.2397" stroke="none">schema:isPartOf</text>
        </g>
      </g>
    </g>
    <g id="y.edge.2">
      <g text-rendering="geometricPrecision" stroke-miterlimit="1.45" shape-rendering="geometricPrecision" transform="matrix(1,0,0,1,45,-352)" stroke-linecap="butt">
        <path fill="none" d="M259.9893 482.7174 L259.9893 535.9398"/>
        <path d="M259.9893 543.9398 L264.9893 531.9398 L259.9893 534.9398 L254.9893 531.9398 Z" stroke="none"/>
      </g>
      <g>
        <g text-rendering="geometricPrecision" stroke-miterlimit="1.45" shape-rendering="geometricPrecision" font-family="sans-serif" transform="matrix(1,0,0,1,45,-352)" stroke-linecap="butt">
          <text x="292.7035" xml:space="preserve" y="509.331" stroke="none">schema:name,</text>
          <text x="277.9789" xml:space="preserve" y="523.4638" stroke="none">schema:description</text>
        </g>
      </g>
    </g>
    <g id="y.edge.1">
      <g text-rendering="geometricPrecision" stroke-miterlimit="1.45" shape-rendering="geometricPrecision" transform="matrix(1,0,0,1,45,-352)" stroke-linecap="butt">
        <path fill="none" d="M215.5625 467.7046 L100.584 467.7046"/>
        <path d="M92.584 467.7046 L104.584 472.7046 L101.584 467.7046 L104.584 462.7046 Z" stroke="none"/>
      </g>
      <g>
        <g text-rendering="geometricPrecision" stroke-miterlimit="1.45" shape-rendering="geometricPrecision" font-family="sans-serif" transform="matrix(1,0,0,1,45,-352)" stroke-linecap="butt">
          <text x="86.9775" xml:space="preserve" y="442.2397" stroke="none">schema:additionalType</text>
        </g>
      </g>
    </g>
  </g>
</svg>
