<?xml version="1.0" encoding="UTF-8"?><svg xmlns="http://www.w3.org/2000/svg" xmlns:xlink="http://www.w3.org/1999/xlink" fill-opacity="1" color-rendering="auto" color-interpolation="auto" text-rendering="auto" stroke="black" stroke-linecap="square" width="899" stroke-miterlimit="10" shape-rendering="auto" stroke-opacity="1" fill="black" stroke-dasharray="none" font-weight="normal" stroke-width="1" height="342" font-family="'Dialog'" font-style="normal" stroke-linejoin="miter" font-size="12px" stroke-dashoffset="0" image-rendering="auto">
  <!--Generated by ySVG 2.5-->
  <defs id="genericDefs"/>
  <g>
    <defs id="defs1">
      <clipPath clipPathUnits="userSpaceOnUse" id="clipPath1">
        <path d="M0 0 L899 0 L899 342 L0 342 L0 0 Z"/>
      </clipPath>
    </defs>
    <g id="y.node.0">
      <a target="_blank" xlink:type="simple" xlink:href="https://schema.org/Dataset" xlink:show="new">
        <g fill="rgb(204,255,204)" text-rendering="geometricPrecision" shape-rendering="geometricPrecision" transform="matrix(1,0,0,1,-480,-337)" stroke="rgb(204,255,204)">
          <rect x="495.6911" width="106.0449" height="30" y="352.3204" stroke="none"/>
        </g>
        <g text-rendering="geometricPrecision" stroke-miterlimit="1.45" shape-rendering="geometricPrecision" transform="matrix(1,0,0,1,-480,-337)" stroke-linecap="butt">
          <rect fill="none" x="495.6911" width="106.0449" height="30" y="352.3204"/>
        </g>
        <g>
          <g text-rendering="geometricPrecision" stroke-miterlimit="1.45" shape-rendering="geometricPrecision" font-family="sans-serif" transform="matrix(1,0,0,1,-480,-337)" stroke-linecap="butt">
            <text x="502.6911" xml:space="preserve" y="371.8555" stroke="none">schema:Dataset</text>
          </g>
        </g>
      </a>
    </g>
    <g id="y.node.1">
      <a target="_blank" xlink:type="simple" xlink:href="https://schema.org/DigitalDocument" xlink:show="new">
        <g fill="rgb(204,255,204)" text-rendering="geometricPrecision" shape-rendering="geometricPrecision" transform="matrix(1,0,0,1,-480,-337)" stroke="rgb(204,255,204)">
          <rect x="804.5186" width="159.793" height="30" y="443" stroke="none"/>
        </g>
        <g text-rendering="geometricPrecision" stroke-miterlimit="1.45" shape-rendering="geometricPrecision" transform="matrix(1,0,0,1,-480,-337)" stroke-linecap="butt">
          <rect fill="none" x="804.5186" width="159.793" height="30" y="443"/>
        </g>
        <g>
          <g text-rendering="geometricPrecision" stroke-miterlimit="1.45" shape-rendering="geometricPrecision" font-family="sans-serif" transform="matrix(1,0,0,1,-480,-337)" stroke-linecap="butt">
            <text x="811.5186" xml:space="preserve" y="462.5352" stroke="none">schema:DigitalDocument</text>
          </g>
        </g>
      </a>
    </g>
    <g id="y.node.2">
      <a target="_blank" xlink:type="simple" xlink:href="https://geodex.org/voc/Protocol-License" xlink:show="new">
        <g fill="yellow" text-rendering="geometricPrecision" shape-rendering="geometricPrecision" transform="matrix(1,0,0,1,-480,-337)" stroke="yellow">
          <ellipse rx="68.9219" ry="17.5827" cx="1180.126" cy="458" stroke="none"/>
        </g>
        <g text-rendering="geometricPrecision" stroke-miterlimit="1.45" shape-rendering="geometricPrecision" transform="matrix(1,0,0,1,-480,-337)" stroke-linecap="butt">
          <ellipse rx="68.9219" fill="none" ry="17.5827" cx="1180.126" cy="458"/>
        </g>
        <g>
          <g text-rendering="geometricPrecision" stroke-miterlimit="1.45" shape-rendering="geometricPrecision" font-family="sans-serif" transform="matrix(1,0,0,1,-480,-337)" stroke-linecap="butt">
            <text x="1118.2041" xml:space="preserve" y="462.5352" stroke="none">gdx:Protocol-License</text>
          </g>
        </g>
      </a>
    </g>
    <g id="y.node.3">
      <a target="_blank" xlink:type="simple" xlink:href="https://geodex.org/voc/Protocol-TermsOfUse" xlink:show="new">
        <g fill="yellow" text-rendering="geometricPrecision" shape-rendering="geometricPrecision" transform="matrix(1,0,0,1,-480,-337)" stroke="yellow">
          <ellipse rx="83.125" ry="17.5827" cx="1198.5576" cy="603.5311" stroke="none"/>
        </g>
        <g text-rendering="geometricPrecision" stroke-miterlimit="1.45" shape-rendering="geometricPrecision" transform="matrix(1,0,0,1,-480,-337)" stroke-linecap="butt">
          <ellipse rx="83.125" fill="none" ry="17.5827" cx="1198.5576" cy="603.5311"/>
        </g>
        <g>
          <g text-rendering="geometricPrecision" stroke-miterlimit="1.45" shape-rendering="geometricPrecision" font-family="sans-serif" transform="matrix(1,0,0,1,-480,-337)" stroke-linecap="butt">
            <text x="1122.4326" xml:space="preserve" y="608.0663" stroke="none">gdx:Protocol-TermsOfUse</text>
          </g>
        </g>
      </a>
    </g>
    <g id="y.node.4">
      <a target="_blank" xlink:type="simple" xlink:href="https://geodex.org/voc/Protocol-ResourceSubmissionPolicy" xlink:show="new">
        <g fill="yellow" text-rendering="geometricPrecision" shape-rendering="geometricPrecision" transform="matrix(1,0,0,1,-480,-337)" stroke="yellow">
          <ellipse rx="123.9297" ry="18.5" cx="1239.7505" cy="555.3265" stroke="none"/>
        </g>
        <g text-rendering="geometricPrecision" stroke-miterlimit="1.45" shape-rendering="geometricPrecision" transform="matrix(1,0,0,1,-480,-337)" stroke-linecap="butt">
          <ellipse rx="123.9297" fill="none" ry="18.5" cx="1239.7505" cy="555.3265"/>
        </g>
        <g>
          <g text-rendering="geometricPrecision" stroke-miterlimit="1.45" shape-rendering="geometricPrecision" font-family="sans-serif" transform="matrix(1,0,0,1,-480,-337)" stroke-linecap="butt">
            <text x="1122.8208" xml:space="preserve" y="559.8617" stroke="none">gdx:Protocol-ResourceSubmissionPolicy</text>
          </g>
        </g>
      </a>
    </g>
    <g id="y.node.5">
      <a target="_blank" xlink:type="simple" xlink:href="https://geodex.org/voc/Protocol-PreservationPolicy" xlink:show="new">
        <g fill="yellow" text-rendering="geometricPrecision" shape-rendering="geometricPrecision" transform="matrix(1,0,0,1,-480,-337)" stroke="yellow">
          <ellipse rx="99.9033" ry="18.5" cx="1209.8359" cy="506.2046" stroke="none"/>
        </g>
        <g text-rendering="geometricPrecision" stroke-miterlimit="1.45" shape-rendering="geometricPrecision" transform="matrix(1,0,0,1,-480,-337)" stroke-linecap="butt">
          <ellipse rx="99.9033" fill="none" ry="18.5" cx="1209.8359" cy="506.2046"/>
        </g>
        <g>
          <g text-rendering="geometricPrecision" stroke-miterlimit="1.45" shape-rendering="geometricPrecision" font-family="sans-serif" transform="matrix(1,0,0,1,-480,-337)" stroke-linecap="butt">
            <text x="1116.9326" xml:space="preserve" y="510.7397" stroke="none">gdx:Protocol-PreservationPolicy</text>
          </g>
        </g>
      </a>
    </g>
    <g id="y.node.6">
      <a target="_blank" xlink:type="simple" xlink:href="https://geodex.org/voc/Protocol-Access" xlink:show="new">
        <g fill="yellow" text-rendering="geometricPrecision" shape-rendering="geometricPrecision" transform="matrix(1,0,0,1,-480,-337)" stroke="yellow">
          <ellipse rx="67.1934" ry="15" cx="1180.126" cy="648.2357" stroke="none"/>
        </g>
        <g text-rendering="geometricPrecision" stroke-miterlimit="1.45" shape-rendering="geometricPrecision" transform="matrix(1,0,0,1,-480,-337)" stroke-linecap="butt">
          <ellipse rx="67.1934" fill="none" ry="15" cx="1180.126" cy="648.2357"/>
        </g>
        <g>
          <g text-rendering="geometricPrecision" stroke-miterlimit="1.45" shape-rendering="geometricPrecision" font-family="sans-serif" transform="matrix(1,0,0,1,-480,-337)" stroke-linecap="butt">
            <text x="1119.9326" xml:space="preserve" y="652.7709" stroke="none">gdx:Protocol-Access</text>
          </g>
        </g>
      </a>
    </g>
    <g id="y.node.7">
      <g fill="rgb(0,204,255)" text-rendering="geometricPrecision" shape-rendering="geometricPrecision" transform="matrix(1,0,0,1,-480,-337)" stroke="rgb(0,204,255)">
        <ellipse rx="20.0605" ry="15" cx="917.3249" cy="600.9485" stroke="none"/>
      </g>
      <g text-rendering="geometricPrecision" stroke-miterlimit="1.45" shape-rendering="geometricPrecision" transform="matrix(1,0,0,1,-480,-337)" stroke-linecap="butt">
        <ellipse rx="20.0605" fill="none" ry="15" cx="917.3249" cy="600.9485"/>
      </g>
      <g>
        <g text-rendering="geometricPrecision" stroke-miterlimit="1.45" shape-rendering="geometricPrecision" font-family="sans-serif" transform="matrix(1,0,0,1,-480,-337)" stroke-linecap="butt">
          <text x="904.2644" xml:space="preserve" y="605.4836" stroke="none">Text</text>
        </g>
      </g>
    </g>
    <g id="y.node.8">
      <g fill="rgb(0,204,255)" text-rendering="geometricPrecision" shape-rendering="geometricPrecision" transform="matrix(1,0,0,1,-480,-337)" stroke="rgb(0,204,255)">
        <ellipse rx="18.1504" ry="15" cx="849.114" cy="600.9485" stroke="none"/>
      </g>
      <g text-rendering="geometricPrecision" stroke-miterlimit="1.45" shape-rendering="geometricPrecision" transform="matrix(1,0,0,1,-480,-337)" stroke-linecap="butt">
        <ellipse rx="18.1504" fill="none" ry="15" cx="849.114" cy="600.9485"/>
      </g>
      <g>
        <g text-rendering="geometricPrecision" stroke-miterlimit="1.45" shape-rendering="geometricPrecision" font-family="sans-serif" transform="matrix(1,0,0,1,-480,-337)" stroke-linecap="butt">
          <text x="837.9636" xml:space="preserve" y="605.4836" stroke="none">URL</text>
        </g>
      </g>
    </g>
    <g id="y.edge.0">
      <g text-rendering="geometricPrecision" stroke-miterlimit="1.45" shape-rendering="geometricPrecision" transform="matrix(1,0,0,1,-480,-337)" stroke-linecap="butt">
        <path fill="none" d="M587.7136 382.3304 L587.7136 458 L796.5186 458"/>
        <path d="M804.5186 458 L792.5186 453 L795.5186 458 L792.5186 463 Z" stroke="none"/>
      </g>
      <g>
        <g text-rendering="geometricPrecision" stroke-miterlimit="1.45" shape-rendering="geometricPrecision" font-family="sans-serif" transform="matrix(1,0,0,1,-480,-337)" stroke-linecap="butt">
          <text x="613.4286" xml:space="preserve" y="432.5352" stroke="none">schema:publishingPrinciples</text>
        </g>
      </g>
    </g>
    <g id="y.edge.1">
      <g text-rendering="geometricPrecision" stroke-miterlimit="1.45" shape-rendering="geometricPrecision" transform="matrix(1,0,0,1,-480,-337)" stroke-linecap="butt">
        <path fill="none" d="M1111.2041 458 L972.3115 458"/>
        <path d="M964.3115 458 L976.3115 463 L973.3115 458 L976.3115 453 Z" stroke="none"/>
      </g>
      <g>
        <g text-rendering="geometricPrecision" stroke-miterlimit="1.45" shape-rendering="geometricPrecision" font-family="sans-serif" transform="matrix(1,0,0,1,-480,-337)" stroke-linecap="butt">
          <text x="1000.0068" xml:space="preserve" y="432.5352" stroke="none">rdf:type</text>
        </g>
      </g>
    </g>
    <g id="y.edge.4">
      <g text-rendering="geometricPrecision" stroke-miterlimit="1.45" shape-rendering="geometricPrecision" transform="matrix(1,0,0,1,-480,-337)" stroke-linecap="butt">
        <path fill="none" d="M1115.4326 603.5311 L1058 603.5311 L1058 458 L972.2972 458"/>
        <path d="M964.2972 458 L976.2972 463 L973.2972 458 L976.2972 453 Z" stroke="none"/>
      </g>
      <g/>
    </g>
    <g id="y.edge.3">
      <g text-rendering="geometricPrecision" stroke-miterlimit="1.45" shape-rendering="geometricPrecision" transform="matrix(1,0,0,1,-480,-337)" stroke-linecap="butt">
        <path fill="none" d="M1115.8208 555.3265 L1058 555.3265 L1058 458.8637 L972.3307 458.8637"/>
        <path d="M964.3307 458.8637 L976.3307 463.8637 L973.3307 458.8637 L976.3307 453.8637 Z" stroke="none"/>
      </g>
      <g/>
    </g>
    <g id="y.edge.2">
      <g text-rendering="geometricPrecision" stroke-miterlimit="1.45" shape-rendering="geometricPrecision" transform="matrix(1,0,0,1,-480,-337)" stroke-linecap="butt">
        <path fill="none" d="M1109.9326 506.2046 L1058 506.2046 L1058 458 L972.3254 458"/>
        <path d="M964.3254 458 L976.3254 463 L973.3254 458 L976.3254 453 Z" stroke="none"/>
      </g>
      <g/>
    </g>
    <g id="y.edge.5">
      <g text-rendering="geometricPrecision" stroke-miterlimit="1.45" shape-rendering="geometricPrecision" transform="matrix(1,0,0,1,-480,-337)" stroke-linecap="butt">
        <path fill="none" d="M1112.9326 648.2357 L1058 648.2357 L1058 458 L972.286 458"/>
        <path d="M964.286 458 L976.286 463 L973.286 458 L976.286 453 Z" stroke="none"/>
      </g>
      <g/>
    </g>
    <g id="y.edge.6">
      <g text-rendering="geometricPrecision" stroke-miterlimit="1.45" shape-rendering="geometricPrecision" transform="matrix(1,0,0,1,-480,-337)" stroke-linecap="butt">
        <path fill="none" d="M917.325 472.9719 L917.325 577.9485"/>
        <path d="M917.325 585.9485 L922.325 573.9485 L917.325 576.9485 L912.325 573.9485 Z" stroke="none"/>
      </g>
      <g>
        <g text-rendering="geometricPrecision" stroke-miterlimit="1.45" shape-rendering="geometricPrecision" font-family="sans-serif" transform="matrix(1,0,0,1,-480,-337)" stroke-linecap="butt">
          <text x="921.7188" xml:space="preserve" y="521.2333" stroke="none">schema:name,</text>
          <text x="921.7188" xml:space="preserve" y="535.3661" stroke="none">schema:description</text>
        </g>
      </g>
    </g>
    <g id="y.edge.7">
      <g text-rendering="geometricPrecision" stroke-miterlimit="1.45" shape-rendering="geometricPrecision" transform="matrix(1,0,0,1,-480,-337)" stroke-linecap="butt">
        <path fill="none" d="M850.0117 472.9719 L850.0117 529.4742 L849.114 529.4742 L849.114 577.9485"/>
        <path d="M849.114 585.9485 L854.114 573.9485 L849.114 576.9485 L844.114 573.9485 Z" stroke="none"/>
      </g>
      <g>
        <g text-rendering="geometricPrecision" stroke-miterlimit="1.45" shape-rendering="geometricPrecision" font-family="sans-serif" transform="matrix(1,0,0,1,-480,-337)" stroke-linecap="butt">
          <text x="750.8911" xml:space="preserve" y="516.8207" stroke="none">schema:url,</text>
          <text x="750.8911" xml:space="preserve" y="530.9535" stroke="none">schema:sameAs</text>
        </g>
      </g>
    </g>
  </g>
</svg>
