<?xml version="1.0" encoding="UTF-8"?><svg xmlns="http://www.w3.org/2000/svg" xmlns:xlink="http://www.w3.org/1999/xlink" fill-opacity="1" color-rendering="auto" color-interpolation="auto" text-rendering="auto" stroke="black" stroke-linecap="square" width="1494" stroke-miterlimit="10" shape-rendering="auto" stroke-opacity="1" fill="black" stroke-dasharray="none" font-weight="normal" stroke-width="1" height="427" font-family="'Dialog'" font-style="normal" stroke-linejoin="miter" font-size="12px" stroke-dashoffset="0" image-rendering="auto">
  <!--Generated by ySVG 2.5-->
  <defs id="genericDefs"/>
  <g>
    <defs id="defs1">
      <clipPath clipPathUnits="userSpaceOnUse" id="clipPath1">
        <path d="M0 0 L1494 0 L1494 427 L0 427 L0 0 Z"/>
      </clipPath>
    </defs>
    <g id="y.node.0">
      <a target="_blank" xlink:type="simple" xlink:href="https://schema.org/Dataset" xlink:show="new">
        <g fill="rgb(204,255,204)" text-rendering="geometricPrecision" shape-rendering="geometricPrecision" transform="matrix(1,0,0,1,506,-202)" stroke="rgb(204,255,204)">
          <rect x="455.9775" width="106.0449" height="30" y="217" stroke="none"/>
        </g>
        <g text-rendering="geometricPrecision" stroke-miterlimit="1.45" shape-rendering="geometricPrecision" transform="matrix(1,0,0,1,506,-202)" stroke-linecap="butt">
          <rect fill="none" x="455.9775" width="106.0449" height="30" y="217"/>
        </g>
        <g>
          <g text-rendering="geometricPrecision" stroke-miterlimit="1.45" shape-rendering="geometricPrecision" font-family="sans-serif" transform="matrix(1,0,0,1,506,-202)" stroke-linecap="butt">
            <text x="462.9775" xml:space="preserve" y="236.5352" stroke="none">schema:Dataset</text>
          </g>
        </g>
      </a>
    </g>
    <g id="y.node.1">
      <a target="_blank" xlink:type="simple" xlink:href="https://schema.org/Place" xlink:show="new">
        <g fill="rgb(204,255,204)" text-rendering="geometricPrecision" shape-rendering="geometricPrecision" transform="matrix(1,0,0,1,506,-202)" stroke="rgb(204,255,204)">
          <rect x="204.1973" width="91.584" height="30" y="303" stroke="none"/>
        </g>
        <g text-rendering="geometricPrecision" stroke-miterlimit="1.45" shape-rendering="geometricPrecision" transform="matrix(1,0,0,1,506,-202)" stroke-linecap="butt">
          <rect fill="none" x="204.1973" width="91.584" height="30" y="303"/>
        </g>
        <g>
          <g text-rendering="geometricPrecision" stroke-miterlimit="1.45" shape-rendering="geometricPrecision" font-family="sans-serif" transform="matrix(1,0,0,1,506,-202)" stroke-linecap="butt">
            <text x="211.1973" xml:space="preserve" y="322.5352" stroke="none">schema:Place</text>
          </g>
        </g>
      </a>
    </g>
    <g id="y.node.2">
      <a target="_blank" xlink:type="simple" xlink:href="https://schema.org/GeoShape" xlink:show="new">
        <g fill="rgb(204,255,204)" text-rendering="geometricPrecision" shape-rendering="geometricPrecision" transform="matrix(1,0,0,1,506,-202)" stroke="rgb(204,255,204)">
          <rect x="-35.6885" width="119.5273" height="30" y="264" stroke="none"/>
        </g>
        <g text-rendering="geometricPrecision" stroke-miterlimit="1.45" shape-rendering="geometricPrecision" transform="matrix(1,0,0,1,506,-202)" stroke-linecap="butt">
          <rect fill="none" x="-35.6885" width="119.5273" height="30" y="264"/>
        </g>
        <g>
          <g text-rendering="geometricPrecision" stroke-miterlimit="1.45" shape-rendering="geometricPrecision" font-family="sans-serif" transform="matrix(1,0,0,1,506,-202)" stroke-linecap="butt">
            <text x="-28.6885" xml:space="preserve" y="283.5352" stroke="none">schema:GeoShape</text>
          </g>
        </g>
      </a>
    </g>
    <g id="y.node.3">
      <a target="_blank" xlink:type="simple" xlink:href="https://schema.org/GeoCoordinates" xlink:show="new">
        <g fill="rgb(204,255,204)" text-rendering="geometricPrecision" shape-rendering="geometricPrecision" transform="matrix(1,0,0,1,506,-202)" stroke="rgb(204,255,204)">
          <rect x="-71.2549" width="155.0938" height="30" y="333" stroke="none"/>
        </g>
        <g text-rendering="geometricPrecision" stroke-miterlimit="1.45" shape-rendering="geometricPrecision" transform="matrix(1,0,0,1,506,-202)" stroke-linecap="butt">
          <rect fill="none" x="-71.2549" width="155.0938" height="30" y="333"/>
        </g>
        <g>
          <g text-rendering="geometricPrecision" stroke-miterlimit="1.45" shape-rendering="geometricPrecision" font-family="sans-serif" transform="matrix(1,0,0,1,506,-202)" stroke-linecap="butt">
            <text x="-64.2549" xml:space="preserve" y="352.5352" stroke="none">schema:GeoCoordinates</text>
          </g>
        </g>
      </a>
    </g>
    <g id="y.node.4">
      <a target="_blank" xlink:type="simple" xlink:href="https://schema.org/PropertyValue" xlink:show="new">
        <g fill="rgb(204,255,204)" text-rendering="geometricPrecision" shape-rendering="geometricPrecision" transform="matrix(1,0,0,1,506,-202)" stroke="rgb(204,255,204)">
          <rect x="357.8091" width="142.918" height="30" y="380.3029" stroke="none"/>
        </g>
        <g text-rendering="geometricPrecision" stroke-miterlimit="1.45" shape-rendering="geometricPrecision" transform="matrix(1,0,0,1,506,-202)" stroke-linecap="butt">
          <rect fill="none" x="357.8091" width="142.918" height="30" y="380.3029"/>
        </g>
        <g>
          <g text-rendering="geometricPrecision" stroke-miterlimit="1.45" shape-rendering="geometricPrecision" font-family="sans-serif" transform="matrix(1,0,0,1,506,-202)" stroke-linecap="butt">
            <text x="364.8091" xml:space="preserve" y="399.8381" stroke="none">schema:PropertyValue</text>
          </g>
        </g>
      </a>
    </g>
    <g id="y.node.5">
      <g fill="rgb(0,204,255)" text-rendering="geometricPrecision" shape-rendering="geometricPrecision" transform="matrix(1,0,0,1,506,-202)" stroke="rgb(0,204,255)">
        <ellipse rx="108.6435" ry="21.3257" cx="751.9495" cy="401.6286" stroke="none"/>
      </g>
      <g text-rendering="geometricPrecision" stroke-miterlimit="1.45" shape-rendering="geometricPrecision" transform="matrix(1,0,0,1,506,-202)" stroke-linecap="butt">
        <ellipse rx="108.6435" fill="none" ry="21.3257" cx="751.9495" cy="401.6286"/>
      </g>
      <g>
        <g text-rendering="geometricPrecision" stroke-miterlimit="1.45" shape-rendering="geometricPrecision" font-family="sans-serif" transform="matrix(1,0,0,1,506,-202)" stroke-linecap="butt">
          <text x="662.3216" xml:space="preserve" y="406.1638" stroke="none">"Coordinate Reference System"</text>
        </g>
      </g>
    </g>
    <g id="y.node.6">
      <a target="_blank" xlink:type="simple" xlink:href="http://www.opengis.net/def/crs/OGC/1.3/CRS84" xlink:show="new">
        <g fill="rgb(0,204,255)" text-rendering="geometricPrecision" shape-rendering="geometricPrecision" transform="matrix(1,0,0,1,506,-202)" stroke="rgb(0,204,255)">
          <ellipse rx="164.5199" ry="20.5" cx="807.8259" cy="459.2476" stroke="none"/>
        </g>
        <g text-rendering="geometricPrecision" stroke-miterlimit="1.45" shape-rendering="geometricPrecision" transform="matrix(1,0,0,1,506,-202)" stroke-linecap="butt">
          <ellipse rx="164.5199" fill="none" ry="20.5" cx="807.8259" cy="459.2476"/>
        </g>
        <g>
          <g text-rendering="geometricPrecision" stroke-miterlimit="1.45" shape-rendering="geometricPrecision" font-family="sans-serif" transform="matrix(1,0,0,1,506,-202)" stroke-linecap="butt">
            <text x="658.0808" xml:space="preserve" y="463.7827" stroke="none">"http://www.opengis.net/def/crs/OGC/1.3/CRS84"</text>
          </g>
        </g>
      </a>
    </g>
    <g id="y.node.7">
      <a target="_blank" xlink:type="simple" xlink:href="https://schema.org/CreativeWork" xlink:show="new">
        <g fill="rgb(204,255,204)" text-rendering="geometricPrecision" shape-rendering="geometricPrecision" transform="matrix(1,0,0,1,506,-202)" stroke="rgb(204,255,204)">
          <rect x="-55.124" width="138.9629" height="30" y="418.3282" stroke="none"/>
        </g>
        <g text-rendering="geometricPrecision" stroke-miterlimit="1.45" shape-rendering="geometricPrecision" transform="matrix(1,0,0,1,506,-202)" stroke-linecap="butt">
          <rect fill="none" x="-55.124" width="138.9629" height="30" y="418.3282"/>
        </g>
        <g>
          <g text-rendering="geometricPrecision" stroke-miterlimit="1.45" shape-rendering="geometricPrecision" font-family="sans-serif" transform="matrix(1,0,0,1,506,-202)" stroke-linecap="butt">
            <text x="-48.124" xml:space="preserve" y="437.8633" stroke="none">schema:CreativeWork</text>
          </g>
        </g>
      </a>
    </g>
    <g id="y.node.8">
      <g fill="rgb(0,204,255)" text-rendering="geometricPrecision" shape-rendering="geometricPrecision" transform="matrix(1,0,0,1,506,-202)" stroke="rgb(0,204,255)">
        <ellipse rx="87.0742" ry="21.3257" cx="282.7871" cy="517.4015" stroke="none"/>
      </g>
      <g text-rendering="geometricPrecision" stroke-miterlimit="1.45" shape-rendering="geometricPrecision" transform="matrix(1,0,0,1,506,-202)" stroke-linecap="butt">
        <ellipse rx="87.0742" fill="none" ry="21.3257" cx="282.7871" cy="517.4015"/>
      </g>
      <g>
        <g text-rendering="geometricPrecision" stroke-miterlimit="1.45" shape-rendering="geometricPrecision" font-family="sans-serif" transform="matrix(1,0,0,1,506,-202)" stroke-linecap="butt">
          <text x="202.7129" xml:space="preserve" y="521.9366" stroke="none">"application/vnd.geo+json"</text>
        </g>
      </g>
    </g>
    <g id="y.node.9">
      <a target="_blank" xlink:type="simple" xlink:href="http://dbpedia.org/resource/Coordinate_reference_system" xlink:show="new">
        <g fill="rgb(255,204,0)" text-rendering="geometricPrecision" shape-rendering="geometricPrecision" transform="matrix(1,0,0,1,506,-202)" stroke="rgb(255,204,0)">
          <rect x="643.3061" width="236.4629" height="41" y="309.3029" stroke="none"/>
        </g>
        <g text-rendering="geometricPrecision" stroke-miterlimit="1.45" shape-rendering="geometricPrecision" transform="matrix(1,0,0,1,506,-202)" stroke-linecap="butt">
          <rect fill="none" x="643.3061" width="236.4629" height="41" y="309.3029"/>
        </g>
        <g>
          <g text-rendering="geometricPrecision" stroke-miterlimit="1.45" shape-rendering="geometricPrecision" font-family="sans-serif" transform="matrix(1,0,0,1,506,-202)" stroke-linecap="butt">
            <text x="650.306" xml:space="preserve" y="334.3381" stroke="none">dbpedia:Coordinate_reference_system</text>
          </g>
        </g>
      </a>
    </g>
    <g id="y.node.10">
      <g fill="rgb(0,204,255)" text-rendering="geometricPrecision" shape-rendering="geometricPrecision" transform="matrix(1,0,0,1,506,-202)" stroke="rgb(0,204,255)">
        <ellipse rx="96.2061" ry="27.6869" cx="290.5275" cy="585.5917" stroke="none"/>
      </g>
      <g text-rendering="geometricPrecision" stroke-miterlimit="1.45" shape-rendering="geometricPrecision" transform="matrix(1,0,0,1,506,-202)" stroke-linecap="butt">
        <ellipse rx="96.2061" fill="none" ry="27.6869" cx="290.5275" cy="585.5917"/>
      </g>
      <g>
        <g text-rendering="geometricPrecision" stroke-miterlimit="1.45" shape-rendering="geometricPrecision" font-family="sans-serif" transform="matrix(1,0,0,1,506,-202)" stroke-linecap="butt">
          <text x="201.3214" xml:space="preserve" y="590.1269" stroke="none">...a GeoJSON-encoded string...</text>
        </g>
      </g>
    </g>
    <g id="y.node.11">
      <g fill="rgb(0,204,255)" text-rendering="geometricPrecision" shape-rendering="geometricPrecision" transform="matrix(1,0,0,1,506,-202)" stroke="rgb(0,204,255)">
        <ellipse rx="144.5513" ry="27.6869" cx="-346.258" cy="279" stroke="none"/>
      </g>
      <g text-rendering="geometricPrecision" stroke-miterlimit="1.45" shape-rendering="geometricPrecision" transform="matrix(1,0,0,1,506,-202)" stroke-linecap="butt">
        <ellipse rx="144.5513" fill="none" ry="27.6869" cx="-346.258" cy="279"/>
      </g>
      <g>
        <g text-rendering="geometricPrecision" stroke-miterlimit="1.45" shape-rendering="geometricPrecision" font-family="sans-serif" transform="matrix(1,0,0,1,506,-202)" stroke-linecap="butt">
          <text x="-359.3186" xml:space="preserve" y="276.4688" stroke="none">Text</text>
          <text x="-473.4914" xml:space="preserve" y="290.6016" stroke="none">(see http://pending.schema.org/GeoShape)</text>
        </g>
      </g>
    </g>
    <g id="y.edge.0">
      <g text-rendering="geometricPrecision" stroke-miterlimit="1.45" shape-rendering="geometricPrecision" transform="matrix(1,0,0,1,506,-202)" stroke-linecap="butt">
        <path fill="none" d="M465.4946 246.9741 L465.4946 323 L303.7894 323"/>
        <path d="M295.7894 323 L307.7894 328 L304.7894 323 L307.7894 318 Z" stroke="none"/>
      </g>
      <g>
        <g text-rendering="geometricPrecision" stroke-miterlimit="1.45" shape-rendering="geometricPrecision" font-family="sans-serif" transform="matrix(1,0,0,1,506,-202)" stroke-linecap="butt">
          <text x="317.7812" xml:space="preserve" y="297.5352" stroke="none">schema:spatialCoverage</text>
        </g>
      </g>
    </g>
    <g id="y.edge.1">
      <g text-rendering="geometricPrecision" stroke-miterlimit="1.45" shape-rendering="geometricPrecision" transform="matrix(1,0,0,1,506,-202)" stroke-linecap="butt">
        <path fill="none" d="M204.1973 318 L103.8389 318 L103.8389 279 L91.8389 279"/>
        <path d="M83.8389 279 L95.8389 284 L92.8389 279 L95.8389 274 Z" stroke="none"/>
      </g>
      <g>
        <g text-rendering="geometricPrecision" stroke-miterlimit="1.45" shape-rendering="geometricPrecision" font-family="sans-serif" transform="matrix(1,0,0,1,506,-202)" stroke-linecap="butt">
          <text x="119.2368" xml:space="preserve" y="292.5352" stroke="none">schema:geo</text>
        </g>
      </g>
    </g>
    <g id="y.edge.2">
      <g text-rendering="geometricPrecision" stroke-miterlimit="1.45" shape-rendering="geometricPrecision" transform="matrix(1,0,0,1,506,-202)" stroke-linecap="butt">
        <path fill="none" d="M204.1973 318 L103.8389 318 L103.8389 348 L91.8389 348"/>
        <path d="M83.8389 348 L95.8389 353 L92.8389 348 L95.8389 343 Z" stroke="none"/>
      </g>
      <g/>
    </g>
    <g id="y.edge.3">
      <g text-rendering="geometricPrecision" stroke-miterlimit="1.45" shape-rendering="geometricPrecision" transform="matrix(1,0,0,1,506,-202)" stroke-linecap="butt">
        <path fill="none" d="M249.9893 333 L249.9893 395.3029 L349.8091 395.3029"/>
        <path d="M357.8091 395.3029 L345.8091 390.3029 L348.8091 395.3029 L345.8091 400.3029 Z" stroke="none"/>
      </g>
      <g>
        <g text-rendering="geometricPrecision" stroke-miterlimit="1.45" shape-rendering="geometricPrecision" font-family="sans-serif" transform="matrix(1,0,0,1,506,-202)" stroke-linecap="butt">
          <text x="280.3511" xml:space="preserve" y="369.8381" stroke="none">schema:additionalProperty</text>
        </g>
      </g>
    </g>
    <g id="y.edge.4">
      <g stroke-linecap="round" transform="matrix(1,0,0,1,506,-202)" stroke-dashoffset="2" text-rendering="geometricPrecision" shape-rendering="geometricPrecision" stroke-dasharray="0,4" stroke-miterlimit="1.45">
        <path fill="none" d="M500.7271 395.3029 L590.6088 395.3029 L590.6088 395.3029 L640.1573 395.3029"/>
        <path d="M648.1573 395.3029 L636.1573 390.3029 L639.1573 395.3029 L636.1573 400.3029 Z" stroke="none"/>
      </g>
      <g>
        <g text-rendering="geometricPrecision" stroke-miterlimit="1.45" shape-rendering="geometricPrecision" font-family="sans-serif" transform="matrix(1,0,0,1,506,-202)" stroke-linecap="butt">
          <text x="550.7719" xml:space="preserve" y="412.4691" stroke="none">schema:name</text>
        </g>
      </g>
    </g>
    <g id="y.edge.5">
      <g text-rendering="geometricPrecision" stroke-miterlimit="1.45" shape-rendering="geometricPrecision" transform="matrix(1,0,0,1,506,-202)" stroke-linecap="butt">
        <path fill="none" d="M484.8505 410.3212 L484.8505 459.2476 L635.306 459.2476"/>
        <path d="M643.306 459.2476 L631.306 454.2476 L634.306 459.2476 L631.306 464.2476 Z" stroke="none"/>
      </g>
      <g>
        <g text-rendering="geometricPrecision" stroke-miterlimit="1.45" shape-rendering="geometricPrecision" font-family="sans-serif" transform="matrix(1,0,0,1,506,-202)" stroke-linecap="butt">
          <text x="550.12" xml:space="preserve" y="452.0497" stroke="none">schema:value</text>
        </g>
      </g>
    </g>
    <g id="y.edge.6">
      <g text-rendering="geometricPrecision" stroke-miterlimit="1.45" shape-rendering="geometricPrecision" transform="matrix(1,0,0,1,506,-202)" stroke-linecap="butt">
        <path fill="none" d="M229.9893 333.0073 L229.9893 433.3282 L91.8389 433.3282"/>
        <path d="M83.8389 433.3282 L95.8389 438.3282 L92.8389 433.3282 L95.8389 428.3282 Z" stroke="none"/>
      </g>
      <g>
        <g text-rendering="geometricPrecision" stroke-miterlimit="1.45" shape-rendering="geometricPrecision" font-family="sans-serif" transform="matrix(1,0,0,1,506,-202)" stroke-linecap="butt">
          <text x="104.9912" xml:space="preserve" y="407.8633" stroke="none">schema:subjectOf</text>
        </g>
      </g>
    </g>
    <g id="y.edge.7">
      <g text-rendering="geometricPrecision" stroke-miterlimit="1.45" shape-rendering="geometricPrecision" transform="matrix(1,0,0,1,506,-202)" stroke-linecap="butt">
        <path fill="none" d="M69.4875 448.3119 L69.4875 517.4014 L187.6915 517.4014"/>
        <path d="M195.6915 517.4014 L183.6915 512.4014 L186.6915 517.4014 L183.6915 522.4014 Z" stroke="none"/>
      </g>
      <g>
        <g text-rendering="geometricPrecision" stroke-miterlimit="1.45" shape-rendering="geometricPrecision" font-family="sans-serif" transform="matrix(1,0,0,1,506,-202)" stroke-linecap="butt">
          <text x="81.6211" xml:space="preserve" y="491.9366" stroke="none">schema:fileFormat</text>
        </g>
      </g>
    </g>
    <g id="y.edge.8">
      <g text-rendering="geometricPrecision" stroke-miterlimit="1.45" shape-rendering="geometricPrecision" transform="matrix(1,0,0,1,506,-202)" stroke-linecap="butt">
        <path fill="none" d="M485.4946 380.3032 L485.4946 329.8029 L635.306 329.8029"/>
        <path d="M643.306 329.8029 L631.306 324.8029 L634.306 329.8029 L631.306 334.8029 Z" stroke="none"/>
      </g>
      <g>
        <g text-rendering="geometricPrecision" stroke-miterlimit="1.45" shape-rendering="geometricPrecision" font-family="sans-serif" transform="matrix(1,0,0,1,506,-202)" stroke-linecap="butt">
          <text x="495.3975" xml:space="preserve" y="346.0303" stroke="none">schema:additionalType</text>
        </g>
      </g>
    </g>
    <g id="y.edge.9">
      <g text-rendering="geometricPrecision" stroke-miterlimit="1.45" shape-rendering="geometricPrecision" transform="matrix(1,0,0,1,506,-202)" stroke-linecap="butt">
        <path fill="none" d="M60.668 448.3092 L60.668 585.5917 L186.3214 585.5917"/>
        <path d="M194.3214 585.5917 L182.3214 580.5917 L185.3214 585.5917 L182.3214 590.5917 Z" stroke="none"/>
      </g>
      <g>
        <g text-rendering="geometricPrecision" stroke-miterlimit="1.45" shape-rendering="geometricPrecision" font-family="sans-serif" transform="matrix(1,0,0,1,506,-202)" stroke-linecap="butt">
          <text x="96.285" xml:space="preserve" y="560.1269" stroke="none">schema:text</text>
        </g>
      </g>
    </g>
    <g id="y.edge.10">
      <g stroke-linecap="round" transform="matrix(1,0,0,1,506,-202)" stroke-dashoffset="2" text-rendering="geometricPrecision" shape-rendering="geometricPrecision" stroke-dasharray="0,4" stroke-miterlimit="1.45">
        <path fill="none" d="M-35.6885 279 L-193.7021 279"/>
        <path d="M-201.7021 279 L-189.7021 284 L-192.7021 279 L-189.7021 274 Z" stroke="none"/>
      </g>
      <g>
        <g text-rendering="geometricPrecision" stroke-miterlimit="1.45" shape-rendering="geometricPrecision" font-family="sans-serif" transform="matrix(1,0,0,1,506,-202)" stroke-linecap="butt">
          <text x="-207.2037" xml:space="preserve" y="239.4023" stroke="none">schema:box, schema:polygon,</text>
          <text x="-198.5289" xml:space="preserve" y="253.5352" stroke="none">schema:line, schema:circle,</text>
          <text x="-169.1002" xml:space="preserve" y="267.668" stroke="none">schema:elevation</text>
        </g>
      </g>
    </g>
    <g id="y.edge.11">
      <g text-rendering="geometricPrecision" stroke-miterlimit="1.45" shape-rendering="geometricPrecision" transform="matrix(1,0,0,1,506,-202)" stroke-linecap="butt">
        <path fill="none" d="M-71.2549 348 L-346.258 348 L-346.258 314.6869"/>
        <path d="M-346.258 306.6869 L-351.258 318.6869 L-346.258 315.6869 L-341.258 318.6869 Z" stroke="none"/>
      </g>
      <g>
        <g text-rendering="geometricPrecision" stroke-miterlimit="1.45" shape-rendering="geometricPrecision" font-family="sans-serif" transform="matrix(1,0,0,1,506,-202)" stroke-linecap="butt">
          <text x="-296.5708" xml:space="preserve" y="323.4144" stroke="none">schema:latitude, schema:longtidude,</text>
          <text x="-239.4946" xml:space="preserve" y="337.5472" stroke="none">schema:elevation</text>
        </g>
      </g>
    </g>
  </g>
</svg>
