<?xml version="1.0" encoding="UTF-8"?><svg xmlns="http://www.w3.org/2000/svg" xmlns:xlink="http://www.w3.org/1999/xlink" fill-opacity="1" color-rendering="auto" color-interpolation="auto" text-rendering="auto" stroke="black" stroke-linecap="square" width="536" stroke-miterlimit="10" shape-rendering="auto" stroke-opacity="1" fill="black" stroke-dasharray="none" font-weight="normal" stroke-width="1" height="331" font-family="'Dialog'" font-style="normal" stroke-linejoin="miter" font-size="12px" stroke-dashoffset="0" image-rendering="auto">
  <!--Generated by ySVG 2.5-->
  <defs id="genericDefs"/>
  <g>
    <defs id="defs1">
      <clipPath clipPathUnits="userSpaceOnUse" id="clipPath1">
        <path d="M0 0 L536 0 L536 331 L0 331 L0 0 Z"/>
      </clipPath>
    </defs>
    <g id="y.node.0">
      <a target="_blank" xlink:type="simple" xlink:href="https://schema.org/Dataset" xlink:show="new">
        <g fill="rgb(204,255,204)" text-rendering="geometricPrecision" shape-rendering="geometricPrecision" transform="matrix(1,0,0,1,-42,-202)" stroke="rgb(204,255,204)">
          <rect x="455.9775" width="106.0449" height="30" y="217" stroke="none"/>
        </g>
        <g text-rendering="geometricPrecision" stroke-miterlimit="1.45" shape-rendering="geometricPrecision" transform="matrix(1,0,0,1,-42,-202)" stroke-linecap="butt">
          <rect fill="none" x="455.9775" width="106.0449" height="30" y="217"/>
        </g>
        <g>
          <g text-rendering="geometricPrecision" stroke-miterlimit="1.45" shape-rendering="geometricPrecision" font-family="sans-serif" transform="matrix(1,0,0,1,-42,-202)" stroke-linecap="butt">
            <text x="462.9775" xml:space="preserve" y="236.5352" stroke="none">schema:Dataset</text>
          </g>
        </g>
      </a>
    </g>
    <g id="y.node.1">
      <a target="_blank" xlink:type="simple" xlink:href="https://schema.org/DataDownload" xlink:show="new">
        <g fill="rgb(204,255,204)" text-rendering="geometricPrecision" shape-rendering="geometricPrecision" transform="matrix(1,0,0,1,-42,-202)" stroke="rgb(204,255,204)">
          <rect x="182.6445" width="146.8262" height="30" y="487.7046" stroke="none"/>
        </g>
        <g text-rendering="geometricPrecision" stroke-miterlimit="1.45" shape-rendering="geometricPrecision" transform="matrix(1,0,0,1,-42,-202)" stroke-linecap="butt">
          <rect fill="none" x="182.6445" width="146.8262" height="30" y="487.7046"/>
        </g>
        <g>
          <g text-rendering="geometricPrecision" stroke-miterlimit="1.45" shape-rendering="geometricPrecision" font-family="sans-serif" transform="matrix(1,0,0,1,-42,-202)" stroke-linecap="butt">
            <text x="189.6445" xml:space="preserve" y="507.2397" stroke="none">schema:DataDownload</text>
          </g>
        </g>
      </a>
    </g>
    <g id="y.node.2">
      <g fill="rgb(0,204,255)" text-rendering="geometricPrecision" shape-rendering="geometricPrecision" transform="matrix(1,0,0,1,-42,-202)" stroke="rgb(0,204,255)">
        <ellipse rx="18.1504" ry="15" cx="79.6885" cy="377.0816" stroke="none"/>
      </g>
      <g text-rendering="geometricPrecision" stroke-miterlimit="1.45" shape-rendering="geometricPrecision" transform="matrix(1,0,0,1,-42,-202)" stroke-linecap="butt">
        <ellipse rx="18.1504" fill="none" ry="15" cx="79.6885" cy="377.0816"/>
      </g>
      <g>
        <g text-rendering="geometricPrecision" stroke-miterlimit="1.45" shape-rendering="geometricPrecision" font-family="sans-serif" transform="matrix(1,0,0,1,-42,-202)" stroke-linecap="butt">
          <text x="68.5381" xml:space="preserve" y="381.6167" stroke="none">URL</text>
        </g>
      </g>
    </g>
    <g id="y.node.3">
      <g fill="rgb(0,204,255)" text-rendering="geometricPrecision" shape-rendering="geometricPrecision" transform="matrix(1,0,0,1,-42,-202)" stroke="rgb(0,204,255)">
        <ellipse rx="20.0605" ry="15" cx="77.7783" cy="420.0089" stroke="none"/>
      </g>
      <g text-rendering="geometricPrecision" stroke-miterlimit="1.45" shape-rendering="geometricPrecision" transform="matrix(1,0,0,1,-42,-202)" stroke-linecap="butt">
        <ellipse rx="20.0605" fill="none" ry="15" cx="77.7783" cy="420.0089"/>
      </g>
      <g>
        <g text-rendering="geometricPrecision" stroke-miterlimit="1.45" shape-rendering="geometricPrecision" font-family="sans-serif" transform="matrix(1,0,0,1,-42,-202)" stroke-linecap="butt">
          <text x="64.7178" xml:space="preserve" y="424.5441" stroke="none">Text</text>
        </g>
      </g>
    </g>
    <g id="y.edge.0">
      <g text-rendering="geometricPrecision" stroke-miterlimit="1.45" shape-rendering="geometricPrecision" transform="matrix(1,0,0,1,-42,-202)" stroke-linecap="butt">
        <path fill="none" d="M494 246.9694 L494 502.7046 L337.4707 502.7046"/>
        <path d="M329.4707 502.7046 L341.4707 507.7046 L338.4707 502.7046 L341.4707 497.7046 Z" stroke="none"/>
      </g>
      <g>
        <g text-rendering="geometricPrecision" stroke-miterlimit="1.45" shape-rendering="geometricPrecision" font-family="sans-serif" transform="matrix(1,0,0,1,-42,-202)" stroke-linecap="butt">
          <text x="353.833" xml:space="preserve" y="477.2397" stroke="none">schema:distribution</text>
        </g>
      </g>
    </g>
    <g id="y.edge.1">
      <g text-rendering="geometricPrecision" stroke-miterlimit="1.45" shape-rendering="geometricPrecision" transform="matrix(1,0,0,1,-42,-202)" stroke-linecap="butt">
        <path fill="none" d="M314.9986 487.7071 L314.9986 377.0815 L105.8389 377.0815"/>
        <path d="M97.8389 377.0815 L109.8389 382.0815 L106.8389 377.0815 L109.8389 372.0815 Z" stroke="none"/>
      </g>
      <g>
        <g text-rendering="geometricPrecision" stroke-miterlimit="1.45" shape-rendering="geometricPrecision" font-family="sans-serif" transform="matrix(1,0,0,1,-42,-202)" stroke-linecap="butt">
          <text x="143.1366" xml:space="preserve" y="370.059" stroke="none">schema:contentUrl</text>
        </g>
      </g>
    </g>
    <g id="y.edge.2">
      <g text-rendering="geometricPrecision" stroke-miterlimit="1.45" shape-rendering="geometricPrecision" transform="matrix(1,0,0,1,-42,-202)" stroke-linecap="butt">
        <path fill="none" d="M294.9986 487.7241 L294.9986 420.0089 L105.8389 420.0089"/>
        <path d="M97.8389 420.0089 L109.8389 425.0089 L106.8389 420.0089 L109.8389 415.0089 Z" stroke="none"/>
      </g>
      <g>
        <g text-rendering="geometricPrecision" stroke-miterlimit="1.45" shape-rendering="geometricPrecision" font-family="sans-serif" transform="matrix(1,0,0,1,-42,-202)" stroke-linecap="butt">
          <text x="131.898" xml:space="preserve" y="438.7617" stroke="none">schema:encodingFormat</text>
        </g>
      </g>
    </g>
  </g>
</svg>
