<?xml version="1.0" encoding="UTF-8"?><svg xmlns="http://www.w3.org/2000/svg" xmlns:xlink="http://www.w3.org/1999/xlink" fill-opacity="1" color-rendering="auto" color-interpolation="auto" text-rendering="auto" stroke="black" stroke-linecap="square" width="917" stroke-miterlimit="10" shape-rendering="auto" stroke-opacity="1" fill="black" stroke-dasharray="none" font-weight="normal" stroke-width="1" height="525" font-family="'Dialog'" font-style="normal" stroke-linejoin="miter" font-size="12px" stroke-dashoffset="0" image-rendering="auto">
  <!--Generated by ySVG 2.5-->
  <defs id="genericDefs"/>
  <g>
    <defs id="defs1">
      <clipPath clipPathUnits="userSpaceOnUse" id="clipPath1">
        <path d="M0 0 L917 0 L917 525 L0 525 L0 0 Z"/>
      </clipPath>
      <clipPath clipPathUnits="userSpaceOnUse" id="clipPath2">
        <path d="M430 25 L1347 25 L1347 550 L430 550 L430 25 Z"/>
      </clipPath>
    </defs>
    <g fill="white" text-rendering="geometricPrecision" shape-rendering="geometricPrecision" transform="translate(-430,-25)" stroke="white">
      <rect x="430" width="917" height="525" y="25" clip-path="url(#clipPath2)" stroke="none"/>
    </g>
    <g id="y.node.0">
      <a target="_blank" xlink:type="simple" xlink:href="https://schema.org/Dataset" xlink:show="new">
        <g fill="rgb(204,255,204)" text-rendering="geometricPrecision" shape-rendering="geometricPrecision" transform="matrix(1,0,0,1,-430,-25)" stroke="rgb(204,255,204)">
          <rect x="693.0552" width="106.0449" height="30" y="250.6274" stroke="none"/>
        </g>
        <g text-rendering="geometricPrecision" stroke-miterlimit="1.45" shape-rendering="geometricPrecision" transform="matrix(1,0,0,1,-430,-25)" stroke-linecap="butt">
          <rect fill="none" x="693.0552" width="106.0449" height="30" y="250.6274"/>
        </g>
        <g>
          <g text-rendering="geometricPrecision" stroke-miterlimit="1.45" shape-rendering="geometricPrecision" font-family="sans-serif" transform="matrix(1,0,0,1,-430,-25)" stroke-linecap="butt">
            <text x="700.0552" xml:space="preserve" y="270.1625" stroke="none">schema:Dataset</text>
          </g>
        </g>
      </a>
    </g>
    <g id="y.node.1">
      <a target="_blank" xlink:type="simple" xlink:href="https://schema.org/PropertyValue" xlink:show="new">
        <g fill="rgb(204,255,204)" text-rendering="geometricPrecision" shape-rendering="geometricPrecision" transform="matrix(1,0,0,1,-430,-25)" stroke="rgb(204,255,204)">
          <rect x="905.6533" width="142.918" height="30" y="217" stroke="none"/>
        </g>
        <g text-rendering="geometricPrecision" stroke-miterlimit="1.45" shape-rendering="geometricPrecision" transform="matrix(1,0,0,1,-430,-25)" stroke-linecap="butt">
          <rect fill="none" x="905.6533" width="142.918" height="30" y="217"/>
        </g>
        <g>
          <g text-rendering="geometricPrecision" stroke-miterlimit="1.45" shape-rendering="geometricPrecision" font-family="sans-serif" transform="matrix(1,0,0,1,-430,-25)" stroke-linecap="butt">
            <text x="912.6533" xml:space="preserve" y="236.5352" stroke="none">schema:PropertyValue</text>
          </g>
        </g>
      </a>
    </g>
    <g id="y.node.2">
      <a target="_blank" xlink:type="simple" xlink:href="https://schema.org/Person" xlink:show="new">
        <g fill="rgb(204,255,204)" text-rendering="geometricPrecision" shape-rendering="geometricPrecision" transform="matrix(1,0,0,1,-430,-25)" stroke="rgb(204,255,204)">
          <rect x="963.8593" width="101.1875" height="30" y="357" stroke="none"/>
        </g>
        <g text-rendering="geometricPrecision" stroke-miterlimit="1.45" shape-rendering="geometricPrecision" transform="matrix(1,0,0,1,-430,-25)" stroke-linecap="butt">
          <rect fill="none" x="963.8593" width="101.1875" height="30" y="357"/>
        </g>
        <g>
          <g text-rendering="geometricPrecision" stroke-miterlimit="1.45" shape-rendering="geometricPrecision" font-family="sans-serif" transform="matrix(1,0,0,1,-430,-25)" stroke-linecap="butt">
            <text x="970.8593" xml:space="preserve" y="376.5352" stroke="none">schema:Person</text>
          </g>
        </g>
      </a>
    </g>
    <g id="y.node.3">
      <a target="_blank" xlink:type="simple" xlink:href="http://www.sparontologies.net/ontologies/datacite/source.html#Identifier" xlink:show="new">
        <g fill="rgb(255,204,0)" text-rendering="geometricPrecision" shape-rendering="geometricPrecision" transform="matrix(1,0,0,1,-430,-25)" stroke="rgb(255,204,0)">
          <rect x="1185.0049" width="146.8262" height="41" y="211.5" stroke="none"/>
        </g>
        <g text-rendering="geometricPrecision" stroke-miterlimit="1.45" shape-rendering="geometricPrecision" transform="matrix(1,0,0,1,-430,-25)" stroke-linecap="butt">
          <rect fill="none" x="1185.0049" width="146.8262" height="41" y="211.5"/>
        </g>
        <g>
          <g text-rendering="geometricPrecision" stroke-miterlimit="1.45" shape-rendering="geometricPrecision" font-family="sans-serif" transform="matrix(1,0,0,1,-430,-25)" stroke-linecap="butt">
            <text x="1205.291" xml:space="preserve" y="229.4688" stroke="none">datacite:Identifier,</text>
            <text x="1208.7627" xml:space="preserve" y="243.6016" stroke="none">geolink:Identifier</text>
          </g>
        </g>
      </a>
    </g>
    <g id="y.node.4">
      <a target="_blank" xlink:type="simple" xlink:href="http://schema.geolink.org/1.0/base/main#Person" xlink:show="new">
        <g fill="rgb(255,204,0)" text-rendering="geometricPrecision" shape-rendering="geometricPrecision" transform="matrix(1,0,0,1,-430,-25)" stroke="rgb(255,204,0)">
          <rect x="1231.9326" width="99.8984" height="30" y="357" stroke="none"/>
        </g>
        <g text-rendering="geometricPrecision" stroke-miterlimit="1.45" shape-rendering="geometricPrecision" transform="matrix(1,0,0,1,-430,-25)" stroke-linecap="butt">
          <rect fill="none" x="1231.9326" width="99.8984" height="30" y="357"/>
        </g>
        <g>
          <g text-rendering="geometricPrecision" stroke-miterlimit="1.45" shape-rendering="geometricPrecision" font-family="sans-serif" transform="matrix(1,0,0,1,-430,-25)" stroke-linecap="butt">
            <text x="1238.9326" xml:space="preserve" y="376.5352" stroke="none">geolink:Person</text>
          </g>
        </g>
      </a>
    </g>
    <g id="y.node.5">
      <g fill="rgb(0,204,255)" text-rendering="geometricPrecision" shape-rendering="geometricPrecision" transform="matrix(1,0,0,1,-430,-25)" stroke="rgb(0,204,255)">
        <ellipse rx="20.0605" ry="15" cx="1044.927" cy="487.6863" stroke="none"/>
      </g>
      <g text-rendering="geometricPrecision" stroke-miterlimit="1.45" shape-rendering="geometricPrecision" transform="matrix(1,0,0,1,-430,-25)" stroke-linecap="butt">
        <ellipse rx="20.0605" fill="none" ry="15" cx="1044.927" cy="487.6863"/>
      </g>
      <g>
        <g text-rendering="geometricPrecision" stroke-miterlimit="1.45" shape-rendering="geometricPrecision" font-family="sans-serif" transform="matrix(1,0,0,1,-430,-25)" stroke-linecap="butt">
          <text x="1031.8665" xml:space="preserve" y="492.2215" stroke="none">Text</text>
        </g>
      </g>
    </g>
    <g id="y.node.6">
      <g fill="rgb(0,204,255)" text-rendering="geometricPrecision" shape-rendering="geometricPrecision" transform="matrix(1,0,0,1,-430,-25)" stroke="rgb(0,204,255)">
        <ellipse rx="18.1504" ry="15" cx="989.1174" cy="487.6863" stroke="none"/>
      </g>
      <g text-rendering="geometricPrecision" stroke-miterlimit="1.45" shape-rendering="geometricPrecision" transform="matrix(1,0,0,1,-430,-25)" stroke-linecap="butt">
        <ellipse rx="18.1504" fill="none" ry="15" cx="989.1174" cy="487.6863"/>
      </g>
      <g>
        <g text-rendering="geometricPrecision" stroke-miterlimit="1.45" shape-rendering="geometricPrecision" font-family="sans-serif" transform="matrix(1,0,0,1,-430,-25)" stroke-linecap="butt">
          <text x="977.967" xml:space="preserve" y="492.2215" stroke="none">URL</text>
        </g>
      </g>
    </g>
    <g id="y.node.7">
      <g fill="rgb(0,204,255)" text-rendering="geometricPrecision" shape-rendering="geometricPrecision" transform="matrix(1,0,0,1,-430,-25)" stroke="rgb(0,204,255)">
        <ellipse rx="57.031" ry="20.5" cx="767.6524" cy="141.4406" stroke="none"/>
      </g>
      <g text-rendering="geometricPrecision" stroke-miterlimit="1.45" shape-rendering="geometricPrecision" transform="matrix(1,0,0,1,-430,-25)" stroke-linecap="butt">
        <ellipse rx="57.031" fill="none" ry="20.5" cx="767.6524" cy="141.4406"/>
      </g>
      <g>
        <g text-rendering="geometricPrecision" stroke-miterlimit="1.45" shape-rendering="geometricPrecision" font-family="sans-serif" transform="matrix(1,0,0,1,-430,-25)" stroke-linecap="butt">
          <text x="723.5049" xml:space="preserve" y="145.9758" stroke="none">"datacite:orcid"</text>
        </g>
      </g>
    </g>
    <g id="y.node.8">
      <g fill="rgb(0,204,255)" text-rendering="geometricPrecision" shape-rendering="geometricPrecision" transform="matrix(1,0,0,1,-430,-25)" stroke="rgb(0,204,255)">
        <ellipse rx="20.0605" ry="15" cx="977.1123" cy="55.9309" stroke="none"/>
      </g>
      <g text-rendering="geometricPrecision" stroke-miterlimit="1.45" shape-rendering="geometricPrecision" transform="matrix(1,0,0,1,-430,-25)" stroke-linecap="butt">
        <ellipse rx="20.0605" fill="none" ry="15" cx="977.1123" cy="55.9309"/>
      </g>
      <g>
        <g text-rendering="geometricPrecision" stroke-miterlimit="1.45" shape-rendering="geometricPrecision" font-family="sans-serif" transform="matrix(1,0,0,1,-430,-25)" stroke-linecap="butt">
          <text x="964.0518" xml:space="preserve" y="60.4661" stroke="none">Text</text>
        </g>
      </g>
    </g>
    <g id="y.node.9">
      <g fill="rgb(0,204,255)" text-rendering="geometricPrecision" shape-rendering="geometricPrecision" transform="matrix(1,0,0,1,-430,-25)" stroke="rgb(0,204,255)">
        <ellipse rx="18.1504" ry="15" cx="1165.4678" cy="135.9406" stroke="none"/>
      </g>
      <g text-rendering="geometricPrecision" stroke-miterlimit="1.45" shape-rendering="geometricPrecision" transform="matrix(1,0,0,1,-430,-25)" stroke-linecap="butt">
        <ellipse rx="18.1504" fill="none" ry="15" cx="1165.4678" cy="135.9406"/>
      </g>
      <g>
        <g text-rendering="geometricPrecision" stroke-miterlimit="1.45" shape-rendering="geometricPrecision" font-family="sans-serif" transform="matrix(1,0,0,1,-430,-25)" stroke-linecap="butt">
          <text x="1154.3174" xml:space="preserve" y="140.4758" stroke="none">URL</text>
        </g>
      </g>
    </g>
    <g id="y.node.10">
      <a target="_blank" xlink:type="simple" xlink:href="https://schema.org/Person" xlink:show="new">
        <g fill="rgb(204,255,204)" text-rendering="geometricPrecision" shape-rendering="geometricPrecision" transform="matrix(1,0,0,1,-430,-25)" stroke="rgb(204,255,204)">
          <rect x="645.1148" width="101.1875" height="30" y="357" stroke="none"/>
        </g>
        <g text-rendering="geometricPrecision" stroke-miterlimit="1.45" shape-rendering="geometricPrecision" transform="matrix(1,0,0,1,-430,-25)" stroke-linecap="butt">
          <rect fill="none" x="645.1148" width="101.1875" height="30" y="357"/>
        </g>
        <g>
          <g text-rendering="geometricPrecision" stroke-miterlimit="1.45" shape-rendering="geometricPrecision" font-family="sans-serif" transform="matrix(1,0,0,1,-430,-25)" stroke-linecap="butt">
            <text x="659.1402" xml:space="preserve" y="376.5352" stroke="none">schema:Role</text>
          </g>
        </g>
      </a>
    </g>
    <g id="y.node.11">
      <g fill="rgb(0,204,255)" text-rendering="geometricPrecision" shape-rendering="geometricPrecision" transform="matrix(1,0,0,1,-430,-25)" stroke="rgb(0,204,255)">
        <ellipse rx="20.0605" ry="15" cx="697.3845" cy="508.3726" stroke="none"/>
      </g>
      <g text-rendering="geometricPrecision" stroke-miterlimit="1.45" shape-rendering="geometricPrecision" transform="matrix(1,0,0,1,-430,-25)" stroke-linecap="butt">
        <ellipse rx="20.0605" fill="none" ry="15" cx="697.3845" cy="508.3726"/>
      </g>
      <g>
        <g text-rendering="geometricPrecision" stroke-miterlimit="1.45" shape-rendering="geometricPrecision" font-family="sans-serif" transform="matrix(1,0,0,1,-430,-25)" stroke-linecap="butt">
          <text x="684.324" xml:space="preserve" y="512.9078" stroke="none">Text</text>
        </g>
      </g>
    </g>
    <g id="y.node.12">
      <g fill="rgb(0,204,255)" text-rendering="geometricPrecision" shape-rendering="geometricPrecision" transform="matrix(1,0,0,1,-430,-25)" stroke="rgb(0,204,255)">
        <ellipse rx="18.1504" ry="15" cx="653.2652" cy="508.3726" stroke="none"/>
      </g>
      <g text-rendering="geometricPrecision" stroke-miterlimit="1.45" shape-rendering="geometricPrecision" transform="matrix(1,0,0,1,-430,-25)" stroke-linecap="butt">
        <ellipse rx="18.1504" fill="none" ry="15" cx="653.2652" cy="508.3726"/>
      </g>
      <g>
        <g text-rendering="geometricPrecision" stroke-miterlimit="1.45" shape-rendering="geometricPrecision" font-family="sans-serif" transform="matrix(1,0,0,1,-430,-25)" stroke-linecap="butt">
          <text x="642.1148" xml:space="preserve" y="512.9078" stroke="none">URL</text>
        </g>
      </g>
    </g>
    <g id="y.node.13">
      <a target="_blank" xlink:type="simple" xlink:href="http://schema.geolink.org/1.0/base/main#Person" xlink:show="new">
        <g fill="rgb(255,204,0)" text-rendering="geometricPrecision" shape-rendering="geometricPrecision" transform="matrix(1,0,0,1,-430,-25)" stroke="rgb(255,204,0)">
          <rect x="445.8652" width="128.8984" height="30" y="357" stroke="none"/>
        </g>
        <g text-rendering="geometricPrecision" stroke-miterlimit="1.45" shape-rendering="geometricPrecision" transform="matrix(1,0,0,1,-430,-25)" stroke-linecap="butt">
          <rect fill="none" x="445.8652" width="128.8984" height="30" y="357"/>
        </g>
        <g>
          <g text-rendering="geometricPrecision" stroke-miterlimit="1.45" shape-rendering="geometricPrecision" font-family="sans-serif" transform="matrix(1,0,0,1,-430,-25)" stroke-linecap="butt">
            <text x="456.0186" xml:space="preserve" y="376.5352" stroke="none">geolink:Participant</text>
          </g>
        </g>
      </a>
    </g>
    <g id="y.node.14">
      <g fill="rgb(0,204,255)" text-rendering="geometricPrecision" shape-rendering="geometricPrecision" transform="matrix(1,0,0,1,-430,-25)" stroke="rgb(0,204,255)">
        <ellipse rx="57.031" ry="15" cx="809.476" cy="448.3726" stroke="none"/>
      </g>
      <g text-rendering="geometricPrecision" stroke-miterlimit="1.45" shape-rendering="geometricPrecision" transform="matrix(1,0,0,1,-430,-25)" stroke-linecap="butt">
        <ellipse rx="57.031" fill="none" ry="15" cx="809.476" cy="448.3726"/>
      </g>
      <g>
        <g text-rendering="geometricPrecision" stroke-miterlimit="1.45" shape-rendering="geometricPrecision" font-family="sans-serif" transform="matrix(1,0,0,1,-430,-25)" stroke-linecap="butt">
          <text x="761.2709" xml:space="preserve" y="452.9078" stroke="none">Date / DateTime</text>
        </g>
      </g>
    </g>
    <g id="y.edge.1">
      <g text-rendering="geometricPrecision" stroke-miterlimit="1.45" shape-rendering="geometricPrecision" transform="matrix(1,0,0,1,-430,-25)" stroke-linecap="butt">
        <path fill="none" d="M1014.4531 357 L1014.4531 255.0034"/>
        <path d="M1014.4531 247.0034 L1009.4531 259.0034 L1014.4531 256.0034 L1019.4531 259.0034 Z" stroke="none"/>
      </g>
      <g>
        <g text-rendering="geometricPrecision" stroke-miterlimit="1.45" shape-rendering="geometricPrecision" font-family="sans-serif" transform="matrix(1,0,0,1,-430,-25)" stroke-linecap="butt">
          <text x="1022.6943" xml:space="preserve" y="285.5352" stroke="none">schema:identifier</text>
        </g>
      </g>
    </g>
    <g id="y.edge.3">
      <g text-rendering="geometricPrecision" stroke-miterlimit="1.45" shape-rendering="geometricPrecision" transform="matrix(1,0,0,1,-430,-25)" stroke-linecap="butt">
        <path fill="none" d="M1048.5713 232 L1177.0049 232"/>
        <path d="M1185.0049 232 L1173.0049 227 L1176.0049 232 L1173.0049 237 Z" stroke="none"/>
      </g>
      <g>
        <g text-rendering="geometricPrecision" stroke-miterlimit="1.45" shape-rendering="geometricPrecision" font-family="sans-serif" transform="matrix(1,0,0,1,-430,-25)" stroke-linecap="butt">
          <text x="1035.918" xml:space="preserve" y="206.5352" stroke="none">schema:additionalType</text>
        </g>
      </g>
    </g>
    <g id="y.edge.2">
      <g text-rendering="geometricPrecision" stroke-miterlimit="1.45" shape-rendering="geometricPrecision" transform="matrix(1,0,0,1,-430,-25)" stroke-linecap="butt">
        <path fill="none" d="M1065.0468 372 L1223.9326 372"/>
        <path d="M1231.9326 372 L1219.9326 367 L1222.9326 372 L1219.9326 377 Z" stroke="none"/>
      </g>
      <g>
        <g text-rendering="geometricPrecision" stroke-miterlimit="1.45" shape-rendering="geometricPrecision" font-family="sans-serif" transform="matrix(1,0,0,1,-430,-25)" stroke-linecap="butt">
          <text x="1081.394" xml:space="preserve" y="346.5352" stroke="none">schema:additionalType</text>
        </g>
      </g>
    </g>
    <g id="y.edge.4">
      <g text-rendering="geometricPrecision" stroke-miterlimit="1.45" shape-rendering="geometricPrecision" transform="matrix(1,0,0,1,-430,-25)" stroke-linecap="butt">
        <path fill="none" d="M1044.927 386.9728 L1044.927 464.6965"/>
        <path d="M1044.927 472.6965 L1049.927 460.6965 L1044.927 463.6965 L1039.927 460.6965 Z" stroke="none"/>
      </g>
      <g>
        <g text-rendering="geometricPrecision" stroke-miterlimit="1.45" shape-rendering="geometricPrecision" font-family="sans-serif" transform="matrix(1,0,0,1,-430,-25)" stroke-linecap="butt">
          <text x="1061.6553" xml:space="preserve" y="407.369" stroke="none">schema:name,</text>
          <text x="1061.6553" xml:space="preserve" y="421.5019" stroke="none">schema:familyName,</text>
          <text x="1061.6553" xml:space="preserve" y="435.6347" stroke="none">schema:givenName,</text>
          <text x="1061.6553" xml:space="preserve" y="449.7675" stroke="none">schema:honorificPrefix,</text>
          <text x="1061.6553" xml:space="preserve" y="463.9003" stroke="none">schema:honorificSuffix</text>
        </g>
      </g>
    </g>
    <g id="y.edge.5">
      <g text-rendering="geometricPrecision" stroke-miterlimit="1.45" shape-rendering="geometricPrecision" transform="matrix(1,0,0,1,-430,-25)" stroke-linecap="butt">
        <path fill="none" d="M989.1174 386.974 L989.1174 464.6886"/>
        <path d="M989.1174 472.6886 L994.1174 460.6886 L989.1174 463.6886 L984.1174 460.6886 Z" stroke="none"/>
      </g>
      <g>
        <g text-rendering="geometricPrecision" stroke-miterlimit="1.45" shape-rendering="geometricPrecision" font-family="sans-serif" transform="matrix(1,0,0,1,-430,-25)" stroke-linecap="butt">
          <text x="889.9968" xml:space="preserve" y="431.0853" stroke="none">schema:url,</text>
          <text x="889.9968" xml:space="preserve" y="445.2181" stroke="none">schema:sameAs</text>
        </g>
      </g>
    </g>
    <g id="y.edge.6">
      <g text-rendering="geometricPrecision" stroke-miterlimit="1.45" shape-rendering="geometricPrecision" transform="matrix(1,0,0,1,-430,-25)" stroke-linecap="butt">
        <path fill="none" d="M937.9466 217.0099 L937.9466 141.4406 L832.6833 141.4406"/>
        <path d="M824.6833 141.4406 L836.6833 146.4406 L833.6833 141.4406 L836.6833 136.4406 Z" stroke="none"/>
      </g>
      <g>
        <g text-rendering="geometricPrecision" stroke-miterlimit="1.45" shape-rendering="geometricPrecision" font-family="sans-serif" transform="matrix(1,0,0,1,-430,-25)" stroke-linecap="butt">
          <text x="818.7159" xml:space="preserve" y="169.4065" stroke="none">schema:propertyID</text>
        </g>
      </g>
    </g>
    <g id="y.edge.8">
      <g text-rendering="geometricPrecision" stroke-miterlimit="1.45" shape-rendering="geometricPrecision" transform="matrix(1,0,0,1,-430,-25)" stroke-linecap="butt">
        <path fill="none" d="M977.1123 217 L977.1123 78.9309"/>
        <path d="M977.1123 70.9309 L972.1123 82.9309 L977.1123 79.9309 L982.1123 82.9309 Z" stroke="none"/>
      </g>
      <g>
        <g text-rendering="geometricPrecision" stroke-miterlimit="1.45" shape-rendering="geometricPrecision" font-family="sans-serif" transform="matrix(1,0,0,1,-430,-25)" stroke-linecap="butt">
          <text x="889.0113" xml:space="preserve" y="91.4502" stroke="none">schema:value</text>
        </g>
      </g>
    </g>
    <g id="y.edge.7">
      <g text-rendering="geometricPrecision" stroke-miterlimit="1.45" shape-rendering="geometricPrecision" transform="matrix(1,0,0,1,-430,-25)" stroke-linecap="butt">
        <path fill="none" d="M1022.3787 217.0376 L1022.3787 135.9406 L1139.3174 135.9406"/>
        <path d="M1147.3174 135.9406 L1135.3174 130.9406 L1138.3174 135.9406 L1135.3174 140.9406 Z" stroke="none"/>
      </g>
      <g>
        <g text-rendering="geometricPrecision" stroke-miterlimit="1.45" shape-rendering="geometricPrecision" font-family="sans-serif" transform="matrix(1,0,0,1,-430,-25)" stroke-linecap="butt">
          <text x="1049.2888" xml:space="preserve" y="125.2803" stroke="none">schema:url</text>
        </g>
      </g>
    </g>
    <g id="y.edge.0">
      <g text-rendering="geometricPrecision" stroke-miterlimit="1.45" shape-rendering="geometricPrecision" transform="matrix(1,0,0,1,-430,-25)" stroke-linecap="butt">
        <path fill="none" d="M707.0777 280.612 L707.0777 348.962"/>
        <path d="M707.0777 356.962 L712.0777 344.962 L707.0777 347.962 L702.0777 344.962 Z" stroke="none"/>
      </g>
      <g>
        <g text-rendering="geometricPrecision" stroke-miterlimit="1.45" shape-rendering="geometricPrecision" font-family="sans-serif" transform="matrix(1,0,0,1,-430,-25)" stroke-linecap="butt">
          <text x="714.1875" xml:space="preserve" y="303.4688" stroke="none">schema:creator,</text>
          <text x="714.1875" xml:space="preserve" y="317.6016" stroke="none">schema:contributor</text>
        </g>
      </g>
    </g>
    <g id="y.edge.9">
      <g text-rendering="geometricPrecision" stroke-miterlimit="1.45" shape-rendering="geometricPrecision" transform="matrix(1,0,0,1,-430,-25)" stroke-linecap="butt">
        <path fill="none" d="M746.3023 372 L955.8593 372"/>
        <path d="M963.8593 372 L951.8593 367 L954.8593 372 L951.8593 377 Z" stroke="none"/>
      </g>
      <g>
        <g text-rendering="geometricPrecision" stroke-miterlimit="1.45" shape-rendering="geometricPrecision" font-family="sans-serif" transform="matrix(1,0,0,1,-430,-25)" stroke-linecap="butt">
          <text x="797.1875" xml:space="preserve" y="351.4688" stroke="none">schema:creator,</text>
          <text x="797.1875" xml:space="preserve" y="365.6016" stroke="none">schema:contributor</text>
        </g>
      </g>
    </g>
    <g id="y.edge.12">
      <g text-rendering="geometricPrecision" stroke-miterlimit="1.45" shape-rendering="geometricPrecision" transform="matrix(1,0,0,1,-430,-25)" stroke-linecap="butt">
        <path fill="none" d="M695.8929 387 L697.1019 485.3739"/>
        <path d="M697.2002 493.3733 L702.0523 481.3127 L697.0896 484.3739 L692.0531 481.4356 Z" stroke="none"/>
      </g>
      <g>
        <g text-rendering="geometricPrecision" stroke-miterlimit="1.45" shape-rendering="geometricPrecision" font-family="sans-serif" transform="matrix(1,0,0,1,-430,-25)" stroke-linecap="butt">
          <text x="728.3838" xml:space="preserve" y="501.4023" stroke="none">schema:roleName,</text>
          <text x="728.3838" xml:space="preserve" y="515.5352" stroke="none">schema:name,</text>
          <text x="728.3838" xml:space="preserve" y="529.668" stroke="none">schema:description</text>
        </g>
      </g>
    </g>
    <g id="y.edge.11">
      <g text-rendering="geometricPrecision" stroke-miterlimit="1.45" shape-rendering="geometricPrecision" transform="matrix(1,0,0,1,-430,-25)" stroke-linecap="butt">
        <path fill="none" d="M653.2652 387.0078 L653.2652 485.3727"/>
        <path d="M653.2652 493.3727 L658.2652 481.3727 L653.2652 484.3727 L648.2652 481.3727 Z" stroke="none"/>
      </g>
      <g>
        <g text-rendering="geometricPrecision" stroke-miterlimit="1.45" shape-rendering="geometricPrecision" font-family="sans-serif" transform="matrix(1,0,0,1,-430,-25)" stroke-linecap="butt">
          <text x="556.4736" xml:space="preserve" y="462.4688" stroke="none">schema:url,</text>
          <text x="556.4736" xml:space="preserve" y="476.6016" stroke="none">schema:sameAs</text>
        </g>
      </g>
    </g>
    <g id="y.edge.10">
      <g text-rendering="geometricPrecision" stroke-miterlimit="1.45" shape-rendering="geometricPrecision" transform="matrix(1,0,0,1,-430,-25)" stroke-linecap="butt">
        <path fill="none" d="M645.1148 372 L582.7637 372"/>
        <path d="M574.7637 372 L586.7637 377 L583.7637 372 L586.7637 367 Z" stroke="none"/>
      </g>
      <g>
        <g text-rendering="geometricPrecision" stroke-miterlimit="1.45" shape-rendering="geometricPrecision" font-family="sans-serif" transform="matrix(1,0,0,1,-430,-25)" stroke-linecap="butt">
          <text x="542.8435" xml:space="preserve" y="346.5352" stroke="none">schema:additionalType</text>
        </g>
      </g>
    </g>
    <g id="y.edge.13">
      <g text-rendering="geometricPrecision" stroke-miterlimit="1.45" shape-rendering="geometricPrecision" transform="matrix(1,0,0,1,-430,-25)" stroke-linecap="butt">
        <path fill="none" d="M724 386.9644 L724 448.3727 L744.4451 448.3727"/>
        <path d="M752.4451 448.3727 L740.4451 443.3727 L743.4451 448.3727 L740.4451 453.3727 Z" stroke="none"/>
      </g>
      <g>
        <g text-rendering="geometricPrecision" stroke-miterlimit="1.45" shape-rendering="geometricPrecision" font-family="sans-serif" transform="matrix(1,0,0,1,-430,-25)" stroke-linecap="butt">
          <text x="731.3799" xml:space="preserve" y="410.4688" stroke="none">schema:startDate,</text>
          <text x="731.3799" xml:space="preserve" y="424.6016" stroke="none">schema:endDate</text>
        </g>
      </g>
    </g>
  </g>
</svg>
