<?xml version="1.0" encoding="UTF-8"?><svg xmlns="http://www.w3.org/2000/svg" xmlns:xlink="http://www.w3.org/1999/xlink" fill-opacity="1" color-rendering="auto" color-interpolation="auto" text-rendering="auto" stroke="black" stroke-linecap="square" width="1048" stroke-miterlimit="10" shape-rendering="auto" stroke-opacity="1" fill="black" stroke-dasharray="none" font-weight="normal" stroke-width="1" height="626" font-family="'Dialog'" font-style="normal" stroke-linejoin="miter" font-size="12px" stroke-dashoffset="0" image-rendering="auto">
  <!--Generated by ySVG 2.5-->
  <defs id="genericDefs"/>
  <g>
    <defs id="defs1">
      <clipPath clipPathUnits="userSpaceOnUse" id="clipPath1">
        <path d="M0 0 L1048 0 L1048 626 L0 626 L0 0 Z"/>
      </clipPath>
      <clipPath clipPathUnits="userSpaceOnUse" id="clipPath2">
        <path d="M54 170 L1102 170 L1102 796 L54 796 L54 170 Z"/>
      </clipPath>
    </defs>
    <g fill="white" text-rendering="geometricPrecision" shape-rendering="geometricPrecision" transform="translate(-54,-170)" stroke="white">
      <rect x="54" width="1048" height="626" y="170" clip-path="url(#clipPath2)" stroke="none"/>
    </g>
    <g id="y.node.0">
      <a target="_blank" xlink:type="simple" xlink:href="https://schema.org/Dataset" xlink:show="new">
        <g fill="rgb(204,255,204)" text-rendering="geometricPrecision" shape-rendering="geometricPrecision" transform="matrix(1,0,0,1,-54,-170)" stroke="rgb(204,255,204)">
          <rect x="455.9775" width="106.0449" height="30" y="217" stroke="none"/>
        </g>
        <g text-rendering="geometricPrecision" stroke-miterlimit="1.45" shape-rendering="geometricPrecision" transform="matrix(1,0,0,1,-54,-170)" stroke-linecap="butt">
          <rect fill="none" x="455.9775" width="106.0449" height="30" y="217"/>
        </g>
        <g>
          <g text-rendering="geometricPrecision" stroke-miterlimit="1.45" shape-rendering="geometricPrecision" font-family="sans-serif" transform="matrix(1,0,0,1,-54,-170)" stroke-linecap="butt">
            <text x="462.9775" xml:space="preserve" y="236.5352" stroke="none">schema:Dataset</text>
          </g>
        </g>
      </a>
    </g>
    <g id="y.node.1">
      <a target="_blank" xlink:type="simple" xlink:href="https://schema.org/PropertyValue" xlink:show="new">
        <g fill="rgb(204,255,204)" text-rendering="geometricPrecision" shape-rendering="geometricPrecision" transform="matrix(1,0,0,1,-54,-170)" stroke="rgb(204,255,204)">
          <rect x="685.8149" width="142.918" height="30" y="217" stroke="none"/>
        </g>
        <g text-rendering="geometricPrecision" stroke-miterlimit="1.45" shape-rendering="geometricPrecision" transform="matrix(1,0,0,1,-54,-170)" stroke-linecap="butt">
          <rect fill="none" x="685.8149" width="142.918" height="30" y="217"/>
        </g>
        <g>
          <g text-rendering="geometricPrecision" stroke-miterlimit="1.45" shape-rendering="geometricPrecision" font-family="sans-serif" transform="matrix(1,0,0,1,-54,-170)" stroke-linecap="butt">
            <text x="692.8149" xml:space="preserve" y="236.5352" stroke="none">schema:PropertyValue</text>
          </g>
        </g>
      </a>
    </g>
    <g id="y.node.2">
      <a target="_blank" xlink:type="simple" xlink:href="https://schema.org/Person" xlink:show="new">
        <g fill="rgb(204,255,204)" text-rendering="geometricPrecision" shape-rendering="geometricPrecision" transform="matrix(1,0,0,1,-54,-170)" stroke="rgb(204,255,204)">
          <rect x="706.6801" width="101.1875" height="30" y="320.1063" stroke="none"/>
        </g>
        <g text-rendering="geometricPrecision" stroke-miterlimit="1.45" shape-rendering="geometricPrecision" transform="matrix(1,0,0,1,-54,-170)" stroke-linecap="butt">
          <rect fill="none" x="706.6801" width="101.1875" height="30" y="320.1063"/>
        </g>
        <g>
          <g text-rendering="geometricPrecision" stroke-miterlimit="1.45" shape-rendering="geometricPrecision" font-family="sans-serif" transform="matrix(1,0,0,1,-54,-170)" stroke-linecap="butt">
            <text x="713.6801" xml:space="preserve" y="339.6414" stroke="none">schema:Person</text>
          </g>
        </g>
      </a>
    </g>
    <g id="y.node.3">
      <a target="_blank" xlink:type="simple" xlink:href="https://schema.org/DigitalDocument" xlink:show="new">
        <g fill="rgb(204,255,204)" text-rendering="geometricPrecision" shape-rendering="geometricPrecision" transform="matrix(1,0,0,1,-54,-170)" stroke="rgb(204,255,204)">
          <rect x="599.3888" width="159.793" height="30" y="536.6565" stroke="none"/>
        </g>
        <g text-rendering="geometricPrecision" stroke-miterlimit="1.45" shape-rendering="geometricPrecision" transform="matrix(1,0,0,1,-54,-170)" stroke-linecap="butt">
          <rect fill="none" x="599.3888" width="159.793" height="30" y="536.6565"/>
        </g>
        <g>
          <g text-rendering="geometricPrecision" stroke-miterlimit="1.45" shape-rendering="geometricPrecision" font-family="sans-serif" transform="matrix(1,0,0,1,-54,-170)" stroke-linecap="butt">
            <text x="606.3888" xml:space="preserve" y="556.1917" stroke="none">schema:DigitalDocument</text>
          </g>
        </g>
      </a>
    </g>
    <g id="y.node.4">
      <a target="_blank" xlink:type="simple" xlink:href="https://schema.org/Place" xlink:show="new">
        <g fill="rgb(204,255,204)" text-rendering="geometricPrecision" shape-rendering="geometricPrecision" transform="matrix(1,0,0,1,-54,-170)" stroke="rgb(204,255,204)">
          <rect x="336.1971" width="91.584" height="30" y="438.4726" stroke="none"/>
        </g>
        <g text-rendering="geometricPrecision" stroke-miterlimit="1.45" shape-rendering="geometricPrecision" transform="matrix(1,0,0,1,-54,-170)" stroke-linecap="butt">
          <rect fill="none" x="336.1971" width="91.584" height="30" y="438.4726"/>
        </g>
        <g>
          <g text-rendering="geometricPrecision" stroke-miterlimit="1.45" shape-rendering="geometricPrecision" font-family="sans-serif" transform="matrix(1,0,0,1,-54,-170)" stroke-linecap="butt">
            <text x="343.1971" xml:space="preserve" y="458.0078" stroke="none">schema:Place</text>
          </g>
        </g>
      </a>
    </g>
    <g id="y.node.5">
      <a target="_blank" xlink:type="simple" xlink:href="https://schema.org/GeoShape" xlink:show="new">
        <g fill="rgb(204,255,204)" text-rendering="geometricPrecision" shape-rendering="geometricPrecision" transform="matrix(1,0,0,1,-54,-170)" stroke="rgb(204,255,204)">
          <rect x="106.8566" width="119.5273" height="30" y="415.1063" stroke="none"/>
        </g>
        <g text-rendering="geometricPrecision" stroke-miterlimit="1.45" shape-rendering="geometricPrecision" transform="matrix(1,0,0,1,-54,-170)" stroke-linecap="butt">
          <rect fill="none" x="106.8566" width="119.5273" height="30" y="415.1063"/>
        </g>
        <g>
          <g text-rendering="geometricPrecision" stroke-miterlimit="1.45" shape-rendering="geometricPrecision" font-family="sans-serif" transform="matrix(1,0,0,1,-54,-170)" stroke-linecap="butt">
            <text x="113.8566" xml:space="preserve" y="434.6414" stroke="none">schema:GeoShape</text>
          </g>
        </g>
      </a>
    </g>
    <g id="y.node.6">
      <a target="_blank" xlink:type="simple" xlink:href="https://schema.org/GeoCoordinates" xlink:show="new">
        <g fill="rgb(204,255,204)" text-rendering="geometricPrecision" shape-rendering="geometricPrecision" transform="matrix(1,0,0,1,-54,-170)" stroke="rgb(204,255,204)">
          <rect x="69.3476" width="155.0938" height="30" y="462.8523" stroke="none"/>
        </g>
        <g text-rendering="geometricPrecision" stroke-miterlimit="1.45" shape-rendering="geometricPrecision" transform="matrix(1,0,0,1,-54,-170)" stroke-linecap="butt">
          <rect fill="none" x="69.3476" width="155.0938" height="30" y="462.8523"/>
        </g>
        <g>
          <g text-rendering="geometricPrecision" stroke-miterlimit="1.45" shape-rendering="geometricPrecision" font-family="sans-serif" transform="matrix(1,0,0,1,-54,-170)" stroke-linecap="butt">
            <text x="76.3476" xml:space="preserve" y="482.3875" stroke="none">schema:GeoCoordinates</text>
          </g>
        </g>
      </a>
    </g>
    <g id="y.node.7">
      <a target="_blank" xlink:type="simple" xlink:href="https://schema.org/Organization" xlink:show="new">
        <g fill="rgb(204,255,204)" text-rendering="geometricPrecision" shape-rendering="geometricPrecision" transform="matrix(1,0,0,1,-54,-170)" stroke="rgb(204,255,204)">
          <rect x="670.3051" width="137.5625" height="30" y="395.9306" stroke="none"/>
        </g>
        <g text-rendering="geometricPrecision" stroke-miterlimit="1.45" shape-rendering="geometricPrecision" transform="matrix(1,0,0,1,-54,-170)" stroke-linecap="butt">
          <rect fill="none" x="670.3051" width="137.5625" height="30" y="395.9306"/>
        </g>
        <g>
          <g text-rendering="geometricPrecision" stroke-miterlimit="1.45" shape-rendering="geometricPrecision" font-family="sans-serif" transform="matrix(1,0,0,1,-54,-170)" stroke-linecap="butt">
            <text x="677.3051" xml:space="preserve" y="415.4657" stroke="none">schema:Organization</text>
          </g>
        </g>
      </a>
    </g>
    <g id="y.node.8">
      <a target="_blank" xlink:type="simple" xlink:href="https://schema.org/DataCatalog" xlink:show="new">
        <g fill="rgb(204,255,204)" text-rendering="geometricPrecision" shape-rendering="geometricPrecision" transform="matrix(1,0,0,1,-54,-170)" stroke="rgb(204,255,204)">
          <rect x="727.9367" width="133.1211" height="30" y="455.9306" stroke="none"/>
        </g>
        <g text-rendering="geometricPrecision" stroke-miterlimit="1.45" shape-rendering="geometricPrecision" transform="matrix(1,0,0,1,-54,-170)" stroke-linecap="butt">
          <rect fill="none" x="727.9367" width="133.1211" height="30" y="455.9306"/>
        </g>
        <g>
          <g text-rendering="geometricPrecision" stroke-miterlimit="1.45" shape-rendering="geometricPrecision" font-family="sans-serif" transform="matrix(1,0,0,1,-54,-170)" stroke-linecap="butt">
            <text x="734.9367" xml:space="preserve" y="475.4657" stroke="none">schema:DataCatalog</text>
          </g>
        </g>
      </a>
    </g>
    <g id="y.node.9">
      <a target="_blank" xlink:type="simple" xlink:href="https://schema.org/Event" xlink:show="new">
        <g fill="rgb(204,255,204)" text-rendering="geometricPrecision" shape-rendering="geometricPrecision" transform="matrix(1,0,0,1,-54,-170)" stroke="rgb(204,255,204)">
          <rect x="593.5264" width="93.3594" height="30" y="617.3825" stroke="none"/>
        </g>
        <g text-rendering="geometricPrecision" stroke-miterlimit="1.45" shape-rendering="geometricPrecision" transform="matrix(1,0,0,1,-54,-170)" stroke-linecap="butt">
          <rect fill="none" x="593.5264" width="93.3594" height="30" y="617.3825"/>
        </g>
        <g>
          <g text-rendering="geometricPrecision" stroke-miterlimit="1.45" shape-rendering="geometricPrecision" font-family="sans-serif" transform="matrix(1,0,0,1,-54,-170)" stroke-linecap="butt">
            <text x="600.5264" xml:space="preserve" y="636.9177" stroke="none">schema:Event</text>
          </g>
        </g>
      </a>
    </g>
    <g id="y.node.10">
      <a target="_blank" xlink:type="simple" xlink:href="https://schema.org/DataDownload" xlink:show="new">
        <g fill="rgb(204,255,204)" text-rendering="geometricPrecision" shape-rendering="geometricPrecision" transform="matrix(1,0,0,1,-54,-170)" stroke="rgb(204,255,204)">
          <rect x="176.5762" width="146.8262" height="30" y="282.5" stroke="none"/>
        </g>
        <g text-rendering="geometricPrecision" stroke-miterlimit="1.45" shape-rendering="geometricPrecision" transform="matrix(1,0,0,1,-54,-170)" stroke-linecap="butt">
          <rect fill="none" x="176.5762" width="146.8262" height="30" y="282.5"/>
        </g>
        <g>
          <g text-rendering="geometricPrecision" stroke-miterlimit="1.45" shape-rendering="geometricPrecision" font-family="sans-serif" transform="matrix(1,0,0,1,-54,-170)" stroke-linecap="butt">
            <text x="183.5762" xml:space="preserve" y="302.0352" stroke="none">schema:DataDownload</text>
          </g>
        </g>
      </a>
    </g>
    <g id="y.node.11">
      <a target="_blank" xlink:type="simple" xlink:href="http://www.sparontologies.net/ontologies/datacite/source.html#Identifier" xlink:show="new">
        <g fill="rgb(255,204,0)" text-rendering="geometricPrecision" shape-rendering="geometricPrecision" transform="matrix(1,0,0,1,-54,-170)" stroke="rgb(255,204,0)">
          <rect x="899.3683" width="146.8262" height="41" y="211.5" stroke="none"/>
        </g>
        <g text-rendering="geometricPrecision" stroke-miterlimit="1.45" shape-rendering="geometricPrecision" transform="matrix(1,0,0,1,-54,-170)" stroke-linecap="butt">
          <rect fill="none" x="899.3683" width="146.8262" height="41" y="211.5"/>
        </g>
        <g>
          <g text-rendering="geometricPrecision" stroke-miterlimit="1.45" shape-rendering="geometricPrecision" font-family="sans-serif" transform="matrix(1,0,0,1,-54,-170)" stroke-linecap="butt">
            <text x="919.6544" xml:space="preserve" y="229.4688" stroke="none">datacite:Identifier,</text>
            <text x="923.1261" xml:space="preserve" y="243.6016" stroke="none">geolink:Identifier</text>
          </g>
        </g>
      </a>
    </g>
    <g id="y.node.12">
      <a target="_blank" xlink:type="simple" xlink:href="http://schema.geolink.org/1.0/base/main#Dataset" xlink:show="new">
        <g fill="rgb(255,204,0)" text-rendering="geometricPrecision" shape-rendering="geometricPrecision" transform="matrix(1,0,0,1,-54,-170)" stroke="rgb(255,204,0)">
          <rect x="195.7129" width="108.5527" height="41" y="211.5" stroke="none"/>
        </g>
        <g text-rendering="geometricPrecision" stroke-miterlimit="1.45" shape-rendering="geometricPrecision" transform="matrix(1,0,0,1,-54,-170)" stroke-linecap="butt">
          <rect fill="none" x="195.7129" width="108.5527" height="41" y="211.5"/>
        </g>
        <g>
          <g text-rendering="geometricPrecision" stroke-miterlimit="1.45" shape-rendering="geometricPrecision" font-family="sans-serif" transform="matrix(1,0,0,1,-54,-170)" stroke-linecap="butt">
            <text x="202.7129" xml:space="preserve" y="229.4688" stroke="none">geolink:Dataset,</text>
            <text x="214.4492" xml:space="preserve" y="243.6016" stroke="none">vivo:Dataset</text>
          </g>
        </g>
      </a>
    </g>
    <g id="y.node.13">
      <a target="_blank" xlink:type="simple" xlink:href="http://schema.geolink.org/1.0/base/main#Person" xlink:show="new">
        <g fill="rgb(255,204,0)" text-rendering="geometricPrecision" shape-rendering="geometricPrecision" transform="matrix(1,0,0,1,-54,-170)" stroke="rgb(255,204,0)">
          <rect x="928.0496" width="99.8984" height="30" y="320.1063" stroke="none"/>
        </g>
        <g text-rendering="geometricPrecision" stroke-miterlimit="1.45" shape-rendering="geometricPrecision" transform="matrix(1,0,0,1,-54,-170)" stroke-linecap="butt">
          <rect fill="none" x="928.0496" width="99.8984" height="30" y="320.1063"/>
        </g>
        <g>
          <g text-rendering="geometricPrecision" stroke-miterlimit="1.45" shape-rendering="geometricPrecision" font-family="sans-serif" transform="matrix(1,0,0,1,-54,-170)" stroke-linecap="butt">
            <text x="935.0496" xml:space="preserve" y="339.6414" stroke="none">geolink:Person</text>
          </g>
        </g>
      </a>
    </g>
    <g id="y.node.14">
      <a target="_blank" xlink:type="simple" xlink:href="https://geodex.org/voc/Protocol-License" xlink:show="new">
        <g fill="yellow" text-rendering="geometricPrecision" shape-rendering="geometricPrecision" transform="matrix(1,0,0,1,-54,-170)" stroke="yellow">
          <ellipse rx="68.9219" ry="17.5827" cx="908.014" cy="551.6565" stroke="none"/>
        </g>
        <g text-rendering="geometricPrecision" stroke-miterlimit="1.45" shape-rendering="geometricPrecision" transform="matrix(1,0,0,1,-54,-170)" stroke-linecap="butt">
          <ellipse rx="68.9219" fill="none" ry="17.5827" cx="908.014" cy="551.6565"/>
        </g>
        <g>
          <g text-rendering="geometricPrecision" stroke-miterlimit="1.45" shape-rendering="geometricPrecision" font-family="sans-serif" transform="matrix(1,0,0,1,-54,-170)" stroke-linecap="butt">
            <text x="846.0921" xml:space="preserve" y="556.1917" stroke="none">gdx:Protocol-License</text>
          </g>
        </g>
      </a>
    </g>
    <g id="y.node.15">
      <a target="_blank" xlink:type="simple" xlink:href="https://geodex.org/voc/Protocol-TermsOfUse" xlink:show="new">
        <g fill="yellow" text-rendering="geometricPrecision" shape-rendering="geometricPrecision" transform="matrix(1,0,0,1,-54,-170)" stroke="yellow">
          <ellipse rx="83.125" ry="17.5827" cx="922.2171" cy="697.1877" stroke="none"/>
        </g>
        <g text-rendering="geometricPrecision" stroke-miterlimit="1.45" shape-rendering="geometricPrecision" transform="matrix(1,0,0,1,-54,-170)" stroke-linecap="butt">
          <ellipse rx="83.125" fill="none" ry="17.5827" cx="922.2171" cy="697.1877"/>
        </g>
        <g>
          <g text-rendering="geometricPrecision" stroke-miterlimit="1.45" shape-rendering="geometricPrecision" font-family="sans-serif" transform="matrix(1,0,0,1,-54,-170)" stroke-linecap="butt">
            <text x="846.0921" xml:space="preserve" y="701.7228" stroke="none">gdx:Protocol-TermsOfUse</text>
          </g>
        </g>
      </a>
    </g>
    <g id="y.node.16">
      <a target="_blank" xlink:type="simple" xlink:href="https://geodex.org/voc/Protocol-ResourceSubmissionPolicy" xlink:show="new">
        <g fill="yellow" text-rendering="geometricPrecision" shape-rendering="geometricPrecision" transform="matrix(1,0,0,1,-54,-170)" stroke="yellow">
          <ellipse rx="123.9297" ry="18.5" cx="963.0218" cy="648.9831" stroke="none"/>
        </g>
        <g text-rendering="geometricPrecision" stroke-miterlimit="1.45" shape-rendering="geometricPrecision" transform="matrix(1,0,0,1,-54,-170)" stroke-linecap="butt">
          <ellipse rx="123.9297" fill="none" ry="18.5" cx="963.0218" cy="648.9831"/>
        </g>
        <g>
          <g text-rendering="geometricPrecision" stroke-miterlimit="1.45" shape-rendering="geometricPrecision" font-family="sans-serif" transform="matrix(1,0,0,1,-54,-170)" stroke-linecap="butt">
            <text x="846.0921" xml:space="preserve" y="653.5182" stroke="none">gdx:Protocol-ResourceSubmissionPolicy</text>
          </g>
        </g>
      </a>
    </g>
    <g id="y.node.17">
      <a target="_blank" xlink:type="simple" xlink:href="https://geodex.org/voc/Protocol-PreservationPolicy" xlink:show="new">
        <g fill="yellow" text-rendering="geometricPrecision" shape-rendering="geometricPrecision" transform="matrix(1,0,0,1,-54,-170)" stroke="yellow">
          <ellipse rx="99.9033" ry="18.5" cx="938.9954" cy="599.8611" stroke="none"/>
        </g>
        <g text-rendering="geometricPrecision" stroke-miterlimit="1.45" shape-rendering="geometricPrecision" transform="matrix(1,0,0,1,-54,-170)" stroke-linecap="butt">
          <ellipse rx="99.9033" fill="none" ry="18.5" cx="938.9954" cy="599.8611"/>
        </g>
        <g>
          <g text-rendering="geometricPrecision" stroke-miterlimit="1.45" shape-rendering="geometricPrecision" font-family="sans-serif" transform="matrix(1,0,0,1,-54,-170)" stroke-linecap="butt">
            <text x="846.0921" xml:space="preserve" y="604.3963" stroke="none">gdx:Protocol-PreservationPolicy</text>
          </g>
        </g>
      </a>
    </g>
    <g id="y.node.18">
      <a target="_blank" xlink:type="simple" xlink:href="https://geodex.org/voc/Protocol-Access" xlink:show="new">
        <g fill="yellow" text-rendering="geometricPrecision" shape-rendering="geometricPrecision" transform="matrix(1,0,0,1,-54,-170)" stroke="yellow">
          <ellipse rx="67.1934" ry="15" cx="906.2855" cy="741.8923" stroke="none"/>
        </g>
        <g text-rendering="geometricPrecision" stroke-miterlimit="1.45" shape-rendering="geometricPrecision" transform="matrix(1,0,0,1,-54,-170)" stroke-linecap="butt">
          <ellipse rx="67.1934" fill="none" ry="15" cx="906.2855" cy="741.8923"/>
        </g>
        <g>
          <g text-rendering="geometricPrecision" stroke-miterlimit="1.45" shape-rendering="geometricPrecision" font-family="sans-serif" transform="matrix(1,0,0,1,-54,-170)" stroke-linecap="butt">
            <text x="846.0921" xml:space="preserve" y="746.4274" stroke="none">gdx:Protocol-Access</text>
          </g>
        </g>
      </a>
    </g>
    <g id="y.node.19">
      <a target="_blank" xlink:type="simple" xlink:href="http://schema.geolink.org/1.0/base/main#Organization" xlink:show="new">
        <g fill="rgb(255,204,0)" text-rendering="geometricPrecision" shape-rendering="geometricPrecision" transform="matrix(1,0,0,1,-54,-170)" stroke="rgb(255,204,0)">
          <rect x="891.0578" width="136.2734" height="30" y="395.9306" stroke="none"/>
        </g>
        <g text-rendering="geometricPrecision" stroke-miterlimit="1.45" shape-rendering="geometricPrecision" transform="matrix(1,0,0,1,-54,-170)" stroke-linecap="butt">
          <rect fill="none" x="891.0578" width="136.2734" height="30" y="395.9306"/>
        </g>
        <g>
          <g text-rendering="geometricPrecision" stroke-miterlimit="1.45" shape-rendering="geometricPrecision" font-family="sans-serif" transform="matrix(1,0,0,1,-54,-170)" stroke-linecap="butt">
            <text x="898.0578" xml:space="preserve" y="415.4657" stroke="none">geolink:Organization</text>
          </g>
        </g>
      </a>
    </g>
    <g id="y.node.20">
      <a target="_blank" xlink:type="simple" xlink:href="https://schema.org/CreativeWork" xlink:show="new">
        <g fill="rgb(204,255,204)" text-rendering="geometricPrecision" shape-rendering="geometricPrecision" transform="matrix(1,0,0,1,-54,-170)" stroke="rgb(204,255,204)">
          <rect x="651.0371" width="138.9629" height="30" y="726.8923" stroke="none"/>
        </g>
        <g text-rendering="geometricPrecision" stroke-miterlimit="1.45" shape-rendering="geometricPrecision" transform="matrix(1,0,0,1,-54,-170)" stroke-linecap="butt">
          <rect fill="none" x="651.0371" width="138.9629" height="30" y="726.8923"/>
        </g>
        <g>
          <g text-rendering="geometricPrecision" stroke-miterlimit="1.45" shape-rendering="geometricPrecision" font-family="sans-serif" transform="matrix(1,0,0,1,-54,-170)" stroke-linecap="butt">
            <text x="658.0371" xml:space="preserve" y="746.4274" stroke="none">schema:CreativeWork</text>
          </g>
        </g>
      </a>
    </g>
    <g id="y.node.21">
      <a target="_blank" xlink:type="simple" xlink:href="http://schema.geolink.org/1.0/base/main#Platform" xlink:show="new">
        <g fill="rgb(255,204,0)" text-rendering="geometricPrecision" shape-rendering="geometricPrecision" transform="matrix(1,0,0,1,-54,-170)" stroke="rgb(255,204,0)">
          <rect x="203.6228" width="109.8477" height="30" y="726.8923" stroke="none"/>
        </g>
        <g text-rendering="geometricPrecision" stroke-miterlimit="1.45" shape-rendering="geometricPrecision" transform="matrix(1,0,0,1,-54,-170)" stroke-linecap="butt">
          <rect fill="none" x="203.6228" width="109.8477" height="30" y="726.8923"/>
        </g>
        <g>
          <g text-rendering="geometricPrecision" stroke-miterlimit="1.45" shape-rendering="geometricPrecision" font-family="sans-serif" transform="matrix(1,0,0,1,-54,-170)" stroke-linecap="butt">
            <text x="210.6228" xml:space="preserve" y="746.4274" stroke="none">geolink:Platform</text>
          </g>
        </g>
      </a>
    </g>
    <g id="y.node.22">
      <a target="_blank" xlink:type="simple" xlink:href="https://schema.org/Vehicle" xlink:show="new">
        <g fill="rgb(204,255,204)" text-rendering="geometricPrecision" shape-rendering="geometricPrecision" transform="matrix(1,0,0,1,-54,-170)" stroke="rgb(204,255,204)">
          <rect x="416.0096" width="103.7715" height="30" y="726.8923" stroke="none"/>
        </g>
        <g text-rendering="geometricPrecision" stroke-miterlimit="1.45" shape-rendering="geometricPrecision" transform="matrix(1,0,0,1,-54,-170)" stroke-linecap="butt">
          <rect fill="none" x="416.0096" width="103.7715" height="30" y="726.8923"/>
        </g>
        <g>
          <g text-rendering="geometricPrecision" stroke-miterlimit="1.45" shape-rendering="geometricPrecision" font-family="sans-serif" transform="matrix(1,0,0,1,-54,-170)" stroke-linecap="butt">
            <text x="423.0096" xml:space="preserve" y="746.4274" stroke="none">schema:Vehicle</text>
          </g>
        </g>
      </a>
    </g>
    <g id="y.node.23">
      <a target="_blank" xlink:type="simple" xlink:href="http://schema.geolink.org/1.0/base/main#Cruise" xlink:show="new">
        <g fill="rgb(255,204,0)" text-rendering="geometricPrecision" shape-rendering="geometricPrecision" transform="matrix(1,0,0,1,-54,-170)" stroke="rgb(255,204,0)">
          <rect x="422.1151" width="97.666" height="30" y="662.1182" stroke="none"/>
        </g>
        <g text-rendering="geometricPrecision" stroke-miterlimit="1.45" shape-rendering="geometricPrecision" transform="matrix(1,0,0,1,-54,-170)" stroke-linecap="butt">
          <rect fill="none" x="422.1151" width="97.666" height="30" y="662.1182"/>
        </g>
        <g>
          <g text-rendering="geometricPrecision" stroke-miterlimit="1.45" shape-rendering="geometricPrecision" font-family="sans-serif" transform="matrix(1,0,0,1,-54,-170)" stroke-linecap="butt">
            <text x="429.1151" xml:space="preserve" y="681.6533" stroke="none">geolink:Cruise</text>
          </g>
        </g>
      </a>
    </g>
    <g id="y.node.24">
      <g fill="rgb(0,204,255)" text-rendering="geometricPrecision" shape-rendering="geometricPrecision" transform="matrix(1,0,0,1,-54,-170)" stroke="rgb(0,204,255)">
        <ellipse rx="34.8672" ry="15" cx="241.7411" cy="382.3603" stroke="none"/>
      </g>
      <g text-rendering="geometricPrecision" stroke-miterlimit="1.45" shape-rendering="geometricPrecision" transform="matrix(1,0,0,1,-54,-170)" stroke-linecap="butt">
        <ellipse rx="34.8672" fill="none" ry="15" cx="241.7411" cy="382.3603"/>
      </g>
      <g>
        <g text-rendering="geometricPrecision" stroke-miterlimit="1.45" shape-rendering="geometricPrecision" font-family="sans-serif" transform="matrix(1,0,0,1,-54,-170)" stroke-linecap="butt">
          <text x="213.8739" xml:space="preserve" y="386.8954" stroke="none">DateTime</text>
        </g>
      </g>
    </g>
    <g id="y.node.25">
      <g fill="rgb(0,204,255)" text-rendering="geometricPrecision" shape-rendering="geometricPrecision" transform="matrix(1,0,0,1,-54,-170)" stroke="rgb(0,204,255)">
        <ellipse rx="20.0605" ry="15" cx="256.5478" cy="347.3603" stroke="none"/>
      </g>
      <g text-rendering="geometricPrecision" stroke-miterlimit="1.45" shape-rendering="geometricPrecision" transform="matrix(1,0,0,1,-54,-170)" stroke-linecap="butt">
        <ellipse rx="20.0605" fill="none" ry="15" cx="256.5478" cy="347.3603"/>
      </g>
      <g>
        <g text-rendering="geometricPrecision" stroke-miterlimit="1.45" shape-rendering="geometricPrecision" font-family="sans-serif" transform="matrix(1,0,0,1,-54,-170)" stroke-linecap="butt">
          <text x="243.4872" xml:space="preserve" y="351.8954" stroke="none">Text</text>
        </g>
      </g>
    </g>
    <g id="y.node.26">
      <a target="_blank" xlink:type="simple" xlink:href="https://schema.org/PropertyValue" xlink:show="new">
        <g fill="rgb(204,255,204)" text-rendering="geometricPrecision" shape-rendering="geometricPrecision" transform="matrix(1,0,0,1,-54,-170)" stroke="rgb(204,255,204)">
          <rect x="247.2108" width="142.918" height="30" y="550.2954" stroke="none"/>
        </g>
        <g text-rendering="geometricPrecision" stroke-miterlimit="1.45" shape-rendering="geometricPrecision" transform="matrix(1,0,0,1,-54,-170)" stroke-linecap="butt">
          <rect fill="none" x="247.2108" width="142.918" height="30" y="550.2954"/>
        </g>
        <g>
          <g text-rendering="geometricPrecision" stroke-miterlimit="1.45" shape-rendering="geometricPrecision" font-family="sans-serif" transform="matrix(1,0,0,1,-54,-170)" stroke-linecap="butt">
            <text x="254.2108" xml:space="preserve" y="569.8306" stroke="none">schema:PropertyValue</text>
          </g>
        </g>
      </a>
    </g>
    <g id="y.node.27">
      <a target="_blank" xlink:type="simple" xlink:href="https://library.ucar.edu/earthcollab/schema#Parameter" xlink:show="new">
        <g fill="rgb(255,204,0)" text-rendering="geometricPrecision" shape-rendering="geometricPrecision" transform="matrix(1,0,0,1,-54,-170)" stroke="rgb(255,204,0)">
          <rect x="211.7878" width="166.25" height="53.1658" y="617.3825" stroke="none"/>
        </g>
        <g text-rendering="geometricPrecision" stroke-miterlimit="1.45" shape-rendering="geometricPrecision" transform="matrix(1,0,0,1,-54,-170)" stroke-linecap="butt">
          <rect fill="none" x="211.7878" width="166.25" height="53.1658" y="617.3825"/>
        </g>
        <g>
          <g text-rendering="geometricPrecision" stroke-miterlimit="1.45" shape-rendering="geometricPrecision" font-family="sans-serif" transform="matrix(1,0,0,1,-54,-170)" stroke-linecap="butt">
            <text x="229.3347" xml:space="preserve" y="634.3677" stroke="none">earthcollab:Parameter,</text>
            <text x="236.2077" xml:space="preserve" y="648.5005" stroke="none">geo-upper:Variable,</text>
            <text x="218.1813" xml:space="preserve" y="662.6334" stroke="none">geolink:MeasurementType</text>
          </g>
        </g>
      </a>
    </g>
    <g id="y.edge.0">
      <g text-rendering="geometricPrecision" stroke-miterlimit="1.45" shape-rendering="geometricPrecision" transform="matrix(1,0,0,1,-54,-170)" stroke-linecap="butt">
        <path fill="none" d="M562.0225 232 L677.8149 232"/>
        <path d="M685.8149 232 L673.8149 227 L676.8149 232 L673.8149 237 Z" stroke="none"/>
      </g>
      <g>
        <g text-rendering="geometricPrecision" stroke-miterlimit="1.45" shape-rendering="geometricPrecision" font-family="sans-serif" transform="matrix(1,0,0,1,-54,-170)" stroke-linecap="butt">
          <text x="573.613" xml:space="preserve" y="199.4688" stroke="none">schema:identifier</text>
          <text x="609.1325" xml:space="preserve" y="213.6016" stroke="none">(DOI)</text>
        </g>
      </g>
    </g>
    <g id="y.edge.1">
      <g text-rendering="geometricPrecision" stroke-miterlimit="1.45" shape-rendering="geometricPrecision" transform="matrix(1,0,0,1,-54,-170)" stroke-linecap="butt">
        <path fill="none" d="M549 246.9776 L549 335.1063 L698.6801 335.1063"/>
        <path d="M706.6801 335.1063 L694.6801 330.1063 L697.6801 335.1063 L694.6801 340.1063 Z" stroke="none"/>
      </g>
      <g>
        <g text-rendering="geometricPrecision" stroke-miterlimit="1.45" shape-rendering="geometricPrecision" font-family="sans-serif" transform="matrix(1,0,0,1,-54,-170)" stroke-linecap="butt">
          <text x="553.1875" xml:space="preserve" y="308.4688" stroke="none">schema:creator,</text>
          <text x="553.1875" xml:space="preserve" y="322.6016" stroke="none">schema:contributor</text>
        </g>
      </g>
    </g>
    <g id="y.edge.10">
      <g text-rendering="geometricPrecision" stroke-miterlimit="1.45" shape-rendering="geometricPrecision" transform="matrix(1,0,0,1,-54,-170)" stroke-linecap="butt">
        <path fill="none" d="M757.2739 320.1063 L757.2739 255"/>
        <path d="M757.2739 247 L752.2739 259 L757.2739 256 L762.2739 259 Z" stroke="none"/>
      </g>
      <g>
        <g text-rendering="geometricPrecision" stroke-miterlimit="1.45" shape-rendering="geometricPrecision" font-family="sans-serif" transform="matrix(1,0,0,1,-54,-170)" stroke-linecap="butt">
          <text x="765.2339" xml:space="preserve" y="265.6016" stroke="none">schema:identifier</text>
          <text x="792.8082" xml:space="preserve" y="279.7344" stroke="none">(ORCID)</text>
        </g>
      </g>
    </g>
    <g id="y.edge.2">
      <g text-rendering="geometricPrecision" stroke-miterlimit="1.45" shape-rendering="geometricPrecision" transform="matrix(1,0,0,1,-54,-170)" stroke-linecap="butt">
        <path fill="none" d="M518.9864 247.0229 L518.9864 551.6566 L591.3888 551.6566"/>
        <path d="M599.3888 551.6566 L587.3888 546.6566 L590.3888 551.6566 L587.3888 556.6566 Z" stroke="none"/>
      </g>
      <g>
        <g text-rendering="geometricPrecision" stroke-miterlimit="1.45" shape-rendering="geometricPrecision" font-family="sans-serif" transform="matrix(1,0,0,1,-54,-170)" stroke-linecap="butt">
          <text x="529.3125" xml:space="preserve" y="523.5352" stroke="none">schema:publishingPrinciples</text>
        </g>
      </g>
    </g>
    <g id="y.edge.3">
      <g text-rendering="geometricPrecision" stroke-miterlimit="1.45" shape-rendering="geometricPrecision" transform="matrix(1,0,0,1,-54,-170)" stroke-linecap="butt">
        <path fill="none" d="M488.365 247.0045 L488.365 453.4726 L435.7811 453.4726"/>
        <path d="M427.7811 453.4726 L439.7811 458.4726 L436.7811 453.4726 L439.7811 448.4726 Z" stroke="none"/>
      </g>
      <g>
        <g text-rendering="geometricPrecision" stroke-miterlimit="1.45" shape-rendering="geometricPrecision" font-family="sans-serif" transform="matrix(1,0,0,1,-54,-170)" stroke-linecap="butt">
          <text x="342.6758" xml:space="preserve" y="427.5352" stroke="none">schema:spatialCoverage</text>
        </g>
      </g>
    </g>
    <g id="y.edge.4">
      <g text-rendering="geometricPrecision" stroke-miterlimit="1.45" shape-rendering="geometricPrecision" transform="matrix(1,0,0,1,-54,-170)" stroke-linecap="butt">
        <path fill="none" d="M336.2182 453.9793 L244.4414 453.9793 L244.4414 430.1063 L234.384 430.1063"/>
        <path d="M226.384 430.1063 L238.384 435.1063 L235.384 430.1063 L238.384 425.1063 Z" stroke="none"/>
      </g>
      <g>
        <g text-rendering="geometricPrecision" stroke-miterlimit="1.45" shape-rendering="geometricPrecision" font-family="sans-serif" transform="matrix(1,0,0,1,-54,-170)" stroke-linecap="butt">
          <text x="255.2188" xml:space="preserve" y="467.5352" stroke="none">schema:geo</text>
        </g>
      </g>
    </g>
    <g id="y.edge.5">
      <g text-rendering="geometricPrecision" stroke-miterlimit="1.45" shape-rendering="geometricPrecision" transform="matrix(1,0,0,1,-54,-170)" stroke-linecap="butt">
        <path fill="none" d="M336.2182 453.9793 L244.4414 453.9793 L244.4414 477.8523 L232.4414 477.8523"/>
        <path d="M224.4414 477.8523 L236.4414 482.8523 L233.4414 477.8523 L236.4414 472.8523 Z" stroke="none"/>
      </g>
      <g/>
    </g>
    <g id="y.edge.6">
      <g text-rendering="geometricPrecision" stroke-miterlimit="1.45" shape-rendering="geometricPrecision" transform="matrix(1,0,0,1,-54,-170)" stroke-linecap="butt">
        <path fill="none" d="M538.7161 246.9837 L538.7161 410.9306 L662.3051 410.9306"/>
        <path d="M670.3051 410.9306 L658.3051 405.9306 L661.3051 410.9306 L658.3051 415.9306 Z" stroke="none"/>
      </g>
      <g>
        <g text-rendering="geometricPrecision" stroke-miterlimit="1.45" shape-rendering="geometricPrecision" font-family="sans-serif" transform="matrix(1,0,0,1,-54,-170)" stroke-linecap="butt">
          <text x="550.7646" xml:space="preserve" y="375.4023" stroke="none">schema:publisher,</text>
          <text x="550.7646" xml:space="preserve" y="389.5352" stroke="none">schema:provider,</text>
          <text x="550.7646" xml:space="preserve" y="403.668" stroke="none">schema:funder</text>
        </g>
      </g>
    </g>
    <g id="y.edge.7">
      <g text-rendering="geometricPrecision" stroke-miterlimit="1.45" shape-rendering="geometricPrecision" transform="matrix(1,0,0,1,-54,-170)" stroke-linecap="butt">
        <path fill="none" d="M529 247.0207 L529 470.9306 L719.9367 470.9306"/>
        <path d="M727.9367 470.9306 L715.9367 465.9306 L718.9367 470.9306 L715.9367 475.9306 Z" stroke="none"/>
      </g>
      <g>
        <g text-rendering="geometricPrecision" stroke-miterlimit="1.45" shape-rendering="geometricPrecision" font-family="sans-serif" transform="matrix(1,0,0,1,-54,-170)" stroke-linecap="butt">
          <text x="537.1025" xml:space="preserve" y="460.5352" stroke="none">schema:includedInDataCatalog</text>
        </g>
      </g>
    </g>
    <g id="y.edge.8">
      <g text-rendering="geometricPrecision" stroke-miterlimit="1.45" shape-rendering="geometricPrecision" transform="matrix(1,0,0,1,-54,-170)" stroke-linecap="butt">
        <path fill="none" d="M509 247 L509 632.3825 L585.5264 632.3825"/>
        <path d="M593.5264 632.3825 L581.5264 627.3825 L584.5264 632.3825 L581.5264 637.3825 Z" stroke="none"/>
      </g>
      <g>
        <g text-rendering="geometricPrecision" stroke-miterlimit="1.45" shape-rendering="geometricPrecision" font-family="sans-serif" transform="matrix(1,0,0,1,-54,-170)" stroke-linecap="butt">
          <text x="516.9727" xml:space="preserve" y="604.6423" stroke="none">schema:recordedAt</text>
        </g>
      </g>
    </g>
    <g id="y.edge.9">
      <g text-rendering="geometricPrecision" stroke-miterlimit="1.45" shape-rendering="geometricPrecision" transform="matrix(1,0,0,1,-54,-170)" stroke-linecap="butt">
        <path fill="none" d="M468.365 246.9998 L468.365 297.5 L331.4023 297.5"/>
        <path d="M323.4023 297.5 L335.4023 302.5 L332.4023 297.5 L335.4023 292.5 Z" stroke="none"/>
      </g>
      <g>
        <g text-rendering="geometricPrecision" stroke-miterlimit="1.45" shape-rendering="geometricPrecision" font-family="sans-serif" transform="matrix(1,0,0,1,-54,-170)" stroke-linecap="butt">
          <text x="342.0965" xml:space="preserve" y="288.2158" stroke="none">schema:distribution</text>
        </g>
      </g>
    </g>
    <g id="y.edge.21">
      <g text-rendering="geometricPrecision" stroke-miterlimit="1.45" shape-rendering="geometricPrecision" transform="matrix(1,0,0,1,-54,-170)" stroke-linecap="butt">
        <path fill="none" d="M828.7328 232 L891.3683 232"/>
        <path d="M899.3683 232 L887.3683 227 L890.3683 232 L887.3683 237 Z" stroke="none"/>
      </g>
      <g>
        <g text-rendering="geometricPrecision" stroke-miterlimit="1.45" shape-rendering="geometricPrecision" font-family="sans-serif" transform="matrix(1,0,0,1,-54,-170)" stroke-linecap="butt">
          <text x="804.2376" xml:space="preserve" y="204.5352" stroke="none">schema:additionalType</text>
        </g>
      </g>
    </g>
    <g id="y.edge.16">
      <g text-rendering="geometricPrecision" stroke-miterlimit="1.45" shape-rendering="geometricPrecision" transform="matrix(1,0,0,1,-54,-170)" stroke-linecap="butt">
        <path fill="none" d="M455.9775 232 L312.2656 232"/>
        <path d="M304.2656 232 L316.2656 237 L313.2656 232 L316.2656 227 Z" stroke="none"/>
      </g>
      <g>
        <g text-rendering="geometricPrecision" stroke-miterlimit="1.45" shape-rendering="geometricPrecision" font-family="sans-serif" transform="matrix(1,0,0,1,-54,-170)" stroke-linecap="butt">
          <text x="311.2656" xml:space="preserve" y="206.5352" stroke="none">schema:additionalType</text>
        </g>
      </g>
    </g>
    <g id="y.edge.20">
      <g text-rendering="geometricPrecision" stroke-miterlimit="1.45" shape-rendering="geometricPrecision" transform="matrix(1,0,0,1,-54,-170)" stroke-linecap="butt">
        <path fill="none" d="M807.8676 335.1063 L920.0496 335.1063"/>
        <path d="M928.0496 335.1063 L916.0496 330.1063 L919.0496 335.1063 L916.0496 340.1063 Z" stroke="none"/>
      </g>
      <g>
        <g text-rendering="geometricPrecision" stroke-miterlimit="1.45" shape-rendering="geometricPrecision" font-family="sans-serif" transform="matrix(1,0,0,1,-54,-170)" stroke-linecap="butt">
          <text x="801.2376" xml:space="preserve" y="313.5352" stroke="none">schema:additionalType</text>
        </g>
      </g>
    </g>
    <g id="y.edge.22">
      <g text-rendering="geometricPrecision" stroke-miterlimit="1.45" shape-rendering="geometricPrecision" transform="matrix(1,0,0,1,-54,-170)" stroke-linecap="butt">
        <path fill="none" d="M759.1818 551.6566 L831.0921 551.6566"/>
        <path d="M839.0921 551.6566 L827.0921 546.6566 L830.0921 551.6566 L827.0921 556.6566 Z" stroke="none"/>
      </g>
      <g>
        <g text-rendering="geometricPrecision" stroke-miterlimit="1.45" shape-rendering="geometricPrecision" font-family="sans-serif" transform="matrix(1,0,0,1,-54,-170)" stroke-linecap="butt">
          <text x="764.9043" xml:space="preserve" y="524.5352" stroke="none">schema:additionalType</text>
        </g>
      </g>
    </g>
    <g id="y.edge.24">
      <g text-rendering="geometricPrecision" stroke-miterlimit="1.45" shape-rendering="geometricPrecision" transform="matrix(1,0,0,1,-54,-170)" stroke-linecap="butt">
        <path fill="none" d="M759.1818 551.6566 L810 551.6566 L810 697.1877 L831.0921 697.1877"/>
        <path d="M839.0921 697.1877 L827.0921 692.1877 L830.0921 697.1877 L827.0921 702.1877 Z" stroke="none"/>
      </g>
      <g/>
    </g>
    <g id="y.edge.25">
      <g text-rendering="geometricPrecision" stroke-miterlimit="1.45" shape-rendering="geometricPrecision" transform="matrix(1,0,0,1,-54,-170)" stroke-linecap="butt">
        <path fill="none" d="M759.1818 551.6566 L810 551.6566 L810 648.983 L831.0921 648.983"/>
        <path d="M839.0921 648.983 L827.0921 643.983 L830.0921 648.983 L827.0921 653.983 Z" stroke="none"/>
      </g>
      <g/>
    </g>
    <g id="y.edge.26">
      <g text-rendering="geometricPrecision" stroke-miterlimit="1.45" shape-rendering="geometricPrecision" transform="matrix(1,0,0,1,-54,-170)" stroke-linecap="butt">
        <path fill="none" d="M759.1818 551.6566 L810 551.6566 L810 599.8611 L831.0921 599.8611"/>
        <path d="M839.0921 599.8611 L827.0921 594.8611 L830.0921 599.8611 L827.0921 604.8611 Z" stroke="none"/>
      </g>
      <g/>
    </g>
    <g id="y.edge.23">
      <g text-rendering="geometricPrecision" stroke-miterlimit="1.45" shape-rendering="geometricPrecision" transform="matrix(1,0,0,1,-54,-170)" stroke-linecap="butt">
        <path fill="none" d="M759.1818 551.6566 L810 551.6566 L810 741.8923 L831.0921 741.8923"/>
        <path d="M839.0921 741.8923 L827.0921 736.8923 L830.0921 741.8923 L827.0921 746.8923 Z" stroke="none"/>
      </g>
      <g/>
    </g>
    <g id="y.edge.19">
      <g text-rendering="geometricPrecision" stroke-miterlimit="1.45" shape-rendering="geometricPrecision" transform="matrix(1,0,0,1,-54,-170)" stroke-linecap="butt">
        <path fill="none" d="M807.886 410.9306 L883.0817 410.9306"/>
        <path d="M891.0817 410.9306 L879.0817 405.9306 L882.0817 410.9306 L879.0817 415.9306 Z" stroke="none"/>
      </g>
      <g>
        <g text-rendering="geometricPrecision" stroke-miterlimit="1.45" shape-rendering="geometricPrecision" font-family="sans-serif" transform="matrix(1,0,0,1,-54,-170)" stroke-linecap="butt">
          <text x="780.9043" xml:space="preserve" y="386.5352" stroke="none">schema:additionalType</text>
        </g>
      </g>
    </g>
    <g id="y.edge.11">
      <g text-rendering="geometricPrecision" stroke-miterlimit="1.45" shape-rendering="geometricPrecision" transform="matrix(1,0,0,1,-54,-170)" stroke-linecap="butt">
        <path fill="none" d="M686.8857 632.3825 L754.5186 632.3825 L754.5186 718.8935"/>
        <path d="M754.5186 726.8935 L759.5186 714.8935 L754.5186 717.8935 L749.5186 714.8935 Z" stroke="none"/>
      </g>
      <g>
        <g text-rendering="geometricPrecision" stroke-miterlimit="1.45" shape-rendering="geometricPrecision" font-family="sans-serif" transform="matrix(1,0,0,1,-54,-170)" stroke-linecap="butt">
          <text x="634.6289" xml:space="preserve" y="712.5352" stroke="none">schema:recordedIn</text>
        </g>
      </g>
    </g>
    <g id="y.edge.12">
      <g text-rendering="geometricPrecision" stroke-miterlimit="1.45" shape-rendering="geometricPrecision" transform="matrix(1,0,0,1,-54,-170)" stroke-linecap="butt">
        <path fill="none" d="M651.0371 741.8923 L527.7698 741.8923"/>
        <path d="M519.7698 741.8923 L531.7698 746.8923 L528.7698 741.8923 L531.7698 736.8923 Z" stroke="none"/>
      </g>
      <g>
        <g text-rendering="geometricPrecision" stroke-miterlimit="1.45" shape-rendering="geometricPrecision" font-family="sans-serif" transform="matrix(1,0,0,1,-54,-170)" stroke-linecap="butt">
          <text x="535.7734" xml:space="preserve" y="766.9597" stroke="none">schema:isBasedOn</text>
        </g>
      </g>
    </g>
    <g id="y.edge.18">
      <g text-rendering="geometricPrecision" stroke-miterlimit="1.45" shape-rendering="geometricPrecision" transform="matrix(1,0,0,1,-54,-170)" stroke-linecap="butt">
        <path fill="none" d="M416.0096 741.8923 L321.4704 741.8923"/>
        <path d="M313.4704 741.8923 L325.4704 746.8923 L322.4704 741.8923 L325.4704 736.8923 Z" stroke="none"/>
      </g>
      <g>
        <g text-rendering="geometricPrecision" stroke-miterlimit="1.45" shape-rendering="geometricPrecision" font-family="sans-serif" transform="matrix(1,0,0,1,-54,-170)" stroke-linecap="butt">
          <text x="297.6443" xml:space="preserve" y="776.4274" stroke="none">schema:additionalType</text>
        </g>
      </g>
    </g>
    <g id="y.edge.17">
      <g text-rendering="geometricPrecision" stroke-miterlimit="1.45" shape-rendering="geometricPrecision" transform="matrix(1,0,0,1,-54,-170)" stroke-linecap="butt">
        <path fill="none" d="M679.4366 647.3672 L679.4366 677.1182 L527.7532 677.1182"/>
        <path d="M519.7532 677.1182 L531.7532 682.1182 L528.7532 677.1182 L531.7532 672.1182 Z" stroke="none"/>
      </g>
      <g>
        <g text-rendering="geometricPrecision" stroke-miterlimit="1.45" shape-rendering="geometricPrecision" font-family="sans-serif" transform="matrix(1,0,0,1,-54,-170)" stroke-linecap="butt">
          <text x="537.122" xml:space="preserve" y="666.5352" stroke="none">schema:additionalType</text>
        </g>
      </g>
    </g>
    <g id="y.edge.27">
      <g text-rendering="geometricPrecision" stroke-miterlimit="1.45" shape-rendering="geometricPrecision" transform="matrix(1,0,0,1,-54,-170)" stroke-linecap="butt">
        <path fill="none" d="M476 247.0181 L476 364.8603 L308.5135 364.8603 L308.5135 382.3603 L284.6083 382.3603"/>
        <path d="M276.6083 382.3603 L288.6083 387.3603 L285.6083 382.3603 L288.6083 377.3603 Z" stroke="none"/>
      </g>
      <g>
        <g text-rendering="geometricPrecision" stroke-miterlimit="1.45" shape-rendering="geometricPrecision" font-family="sans-serif" transform="matrix(1,0,0,1,-54,-170)" stroke-linecap="butt">
          <text x="315.9937" xml:space="preserve" y="355.8969" stroke="none">schema:temporalCoverage</text>
        </g>
      </g>
    </g>
    <g id="y.edge.13">
      <g text-rendering="geometricPrecision" stroke-miterlimit="1.45" shape-rendering="geometricPrecision" transform="matrix(1,0,0,1,-54,-170)" stroke-linecap="butt">
        <path fill="none" d="M476 247.0181 L476 364.8603 L308.5135 364.8603 L308.5135 347.3603 L284.6083 347.3603"/>
        <path d="M276.6083 347.3603 L288.6083 352.3603 L285.6083 347.3603 L288.6083 342.3603 Z" stroke="none"/>
      </g>
      <g/>
    </g>
    <g id="y.edge.15">
      <g text-rendering="geometricPrecision" stroke-miterlimit="1.45" shape-rendering="geometricPrecision" transform="matrix(1,0,0,1,-54,-170)" stroke-linecap="butt">
        <path fill="none" d="M498.9864 247.0129 L498.9864 565.2954 L398.1288 565.2954"/>
        <path d="M390.1288 565.2954 L402.1288 570.2954 L399.1288 565.2954 L402.1288 560.2954 Z" stroke="none"/>
      </g>
      <g>
        <g text-rendering="geometricPrecision" stroke-miterlimit="1.45" shape-rendering="geometricPrecision" font-family="sans-serif" transform="matrix(1,0,0,1,-54,-170)" stroke-linecap="butt">
          <text x="340.3708" xml:space="preserve" y="539.8306" stroke="none">schema:variableMeasured</text>
        </g>
      </g>
    </g>
    <g id="y.edge.14">
      <g text-rendering="geometricPrecision" stroke-miterlimit="1.45" shape-rendering="geometricPrecision" transform="matrix(1,0,0,1,-54,-170)" stroke-linecap="butt">
        <path fill="none" d="M318.6698 580.2954 L318.6698 609.3844"/>
        <path d="M318.6698 617.3844 L323.6698 605.3844 L318.6698 608.3844 L313.6698 605.3844 Z" stroke="none"/>
      </g>
      <g>
        <g text-rendering="geometricPrecision" stroke-miterlimit="1.45" shape-rendering="geometricPrecision" font-family="sans-serif" transform="matrix(1,0,0,1,-54,-170)" stroke-linecap="butt">
          <text x="175.9652" xml:space="preserve" y="603.6393" stroke="none">schema:additionalType</text>
        </g>
      </g>
    </g>
  </g>
</svg>
