<?xml version="1.0" encoding="UTF-8"?><svg xmlns="http://www.w3.org/2000/svg" xmlns:xlink="http://www.w3.org/1999/xlink" fill-opacity="1" color-rendering="auto" color-interpolation="auto" text-rendering="auto" stroke="black" stroke-linecap="square" width="689" stroke-miterlimit="10" shape-rendering="auto" stroke-opacity="1" fill="black" stroke-dasharray="none" font-weight="normal" stroke-width="1" height="554" font-family="'Dialog'" font-style="normal" stroke-linejoin="miter" font-size="12px" stroke-dashoffset="0" image-rendering="auto">
  <!--Generated by ySVG 2.5-->
  <defs id="genericDefs"/>
  <g>
    <defs id="defs1">
      <clipPath clipPathUnits="userSpaceOnUse" id="clipPath1">
        <path d="M0 0 L689 0 L689 554 L0 554 L0 0 Z"/>
      </clipPath>
    </defs>
    <g id="y.node.0">
      <a target="_blank" xlink:type="simple" xlink:href="https://schema.org/Dataset" xlink:show="new">
        <g fill="rgb(204,255,204)" text-rendering="geometricPrecision" shape-rendering="geometricPrecision" transform="matrix(1,0,0,1,-468,-172)" stroke="rgb(204,255,204)">
          <rect x="483.9241" width="106.0449" height="30" y="509.7039" stroke="none"/>
        </g>
        <g text-rendering="geometricPrecision" stroke-miterlimit="1.45" shape-rendering="geometricPrecision" transform="matrix(1,0,0,1,-468,-172)" stroke-linecap="butt">
          <rect fill="none" x="483.9241" width="106.0449" height="30" y="509.7039"/>
        </g>
        <g>
          <g text-rendering="geometricPrecision" stroke-miterlimit="1.45" shape-rendering="geometricPrecision" font-family="sans-serif" transform="matrix(1,0,0,1,-468,-172)" stroke-linecap="butt">
            <text x="490.9241" xml:space="preserve" y="529.239" stroke="none">schema:Dataset</text>
          </g>
        </g>
      </a>
    </g>
    <g id="y.node.1">
      <a target="_blank" xlink:type="simple" xlink:href="https://schema.org/Organization" xlink:show="new">
        <g fill="rgb(204,255,204)" text-rendering="geometricPrecision" shape-rendering="geometricPrecision" transform="matrix(1,0,0,1,-468,-172)" stroke="rgb(204,255,204)">
          <rect x="804.5186" width="137.5625" height="30" y="595" stroke="none"/>
        </g>
        <g text-rendering="geometricPrecision" stroke-miterlimit="1.45" shape-rendering="geometricPrecision" transform="matrix(1,0,0,1,-468,-172)" stroke-linecap="butt">
          <rect fill="none" x="804.5186" width="137.5625" height="30" y="595"/>
        </g>
        <g>
          <g text-rendering="geometricPrecision" stroke-miterlimit="1.45" shape-rendering="geometricPrecision" font-family="sans-serif" transform="matrix(1,0,0,1,-468,-172)" stroke-linecap="butt">
            <text x="811.5186" xml:space="preserve" y="614.5352" stroke="none">schema:Organization</text>
          </g>
        </g>
      </a>
    </g>
    <g id="y.node.2">
      <a target="_blank" xlink:type="simple" xlink:href="http://schema.geolink.org/1.0/base/main#Organization" xlink:show="new">
        <g fill="rgb(255,204,0)" text-rendering="geometricPrecision" shape-rendering="geometricPrecision" transform="matrix(1,0,0,1,-468,-172)" stroke="rgb(255,204,0)">
          <rect x="805.1631" width="136.2734" height="30" y="681" stroke="none"/>
        </g>
        <g text-rendering="geometricPrecision" stroke-miterlimit="1.45" shape-rendering="geometricPrecision" transform="matrix(1,0,0,1,-468,-172)" stroke-linecap="butt">
          <rect fill="none" x="805.1631" width="136.2734" height="30" y="681"/>
        </g>
        <g>
          <g text-rendering="geometricPrecision" stroke-miterlimit="1.45" shape-rendering="geometricPrecision" font-family="sans-serif" transform="matrix(1,0,0,1,-468,-172)" stroke-linecap="butt">
            <text x="812.1631" xml:space="preserve" y="700.5352" stroke="none">geolink:Organization</text>
          </g>
        </g>
      </a>
    </g>
    <g id="y.node.3">
      <g fill="rgb(0,204,255)" text-rendering="geometricPrecision" shape-rendering="geometricPrecision" transform="matrix(1,0,0,1,-468,-172)" stroke="rgb(0,204,255)">
        <ellipse rx="20.0605" ry="15" cx="1092.2781" cy="524.7039" stroke="none"/>
      </g>
      <g text-rendering="geometricPrecision" stroke-miterlimit="1.45" shape-rendering="geometricPrecision" transform="matrix(1,0,0,1,-468,-172)" stroke-linecap="butt">
        <ellipse rx="20.0605" fill="none" ry="15" cx="1092.2781" cy="524.7039"/>
      </g>
      <g>
        <g text-rendering="geometricPrecision" stroke-miterlimit="1.45" shape-rendering="geometricPrecision" font-family="sans-serif" transform="matrix(1,0,0,1,-468,-172)" stroke-linecap="butt">
          <text x="1079.2175" xml:space="preserve" y="529.239" stroke="none">Text</text>
        </g>
      </g>
    </g>
    <g id="y.node.4">
      <g fill="rgb(0,204,255)" text-rendering="geometricPrecision" shape-rendering="geometricPrecision" transform="matrix(1,0,0,1,-468,-172)" stroke="rgb(0,204,255)">
        <ellipse rx="18.1504" ry="15" cx="1092.2781" cy="480.8835" stroke="none"/>
      </g>
      <g text-rendering="geometricPrecision" stroke-miterlimit="1.45" shape-rendering="geometricPrecision" transform="matrix(1,0,0,1,-468,-172)" stroke-linecap="butt">
        <ellipse rx="18.1504" fill="none" ry="15" cx="1092.2781" cy="480.8835"/>
      </g>
      <g>
        <g text-rendering="geometricPrecision" stroke-miterlimit="1.45" shape-rendering="geometricPrecision" font-family="sans-serif" transform="matrix(1,0,0,1,-468,-172)" stroke-linecap="butt">
          <text x="1081.1277" xml:space="preserve" y="485.4186" stroke="none">URL</text>
        </g>
      </g>
    </g>
    <g id="y.node.5">
      <a target="_blank" xlink:type="simple" xlink:href="https://schema.org/Offer" xlink:show="new">
        <g fill="rgb(204,255,204)" text-rendering="geometricPrecision" shape-rendering="geometricPrecision" transform="matrix(1,0,0,1,-468,-172)" stroke="rgb(204,255,204)">
          <rect x="804.5186" width="91.7656" height="30" y="369.199" stroke="none"/>
        </g>
        <g text-rendering="geometricPrecision" stroke-miterlimit="1.45" shape-rendering="geometricPrecision" transform="matrix(1,0,0,1,-468,-172)" stroke-linecap="butt">
          <rect fill="none" x="804.5186" width="91.7656" height="30" y="369.199"/>
        </g>
        <g>
          <g text-rendering="geometricPrecision" stroke-miterlimit="1.45" shape-rendering="geometricPrecision" font-family="sans-serif" transform="matrix(1,0,0,1,-468,-172)" stroke-linecap="butt">
            <text x="811.5186" xml:space="preserve" y="388.7342" stroke="none">schema:Offer</text>
          </g>
        </g>
      </a>
    </g>
    <g id="y.node.6">
      <g fill="rgb(0,204,255)" text-rendering="geometricPrecision" shape-rendering="geometricPrecision" transform="matrix(1,0,0,1,-468,-172)" stroke="rgb(0,204,255)">
        <ellipse rx="34.8672" ry="15" cx="1107.0848" cy="337.6165" stroke="none"/>
      </g>
      <g text-rendering="geometricPrecision" stroke-miterlimit="1.45" shape-rendering="geometricPrecision" transform="matrix(1,0,0,1,-468,-172)" stroke-linecap="butt">
        <ellipse rx="34.8672" fill="none" ry="15" cx="1107.0848" cy="337.6165"/>
      </g>
      <g>
        <g text-rendering="geometricPrecision" stroke-miterlimit="1.45" shape-rendering="geometricPrecision" font-family="sans-serif" transform="matrix(1,0,0,1,-468,-172)" stroke-linecap="butt">
          <text x="1079.2175" xml:space="preserve" y="342.1517" stroke="none">DateTime</text>
        </g>
      </g>
    </g>
    <g id="y.node.7">
      <a target="_blank" xlink:type="simple" xlink:href="http://schema.geolink.org/1.0/base/main#Award" xlink:show="new">
        <g fill="rgb(255,204,0)" text-rendering="geometricPrecision" shape-rendering="geometricPrecision" transform="matrix(1,0,0,1,-468,-172)" stroke="rgb(255,204,0)">
          <rect x="558.5551" width="97.3496" height="30" y="369.199" stroke="none"/>
        </g>
        <g text-rendering="geometricPrecision" stroke-miterlimit="1.45" shape-rendering="geometricPrecision" transform="matrix(1,0,0,1,-468,-172)" stroke-linecap="butt">
          <rect fill="none" x="558.5551" width="97.3496" height="30" y="369.199"/>
        </g>
        <g>
          <g text-rendering="geometricPrecision" stroke-miterlimit="1.45" shape-rendering="geometricPrecision" font-family="sans-serif" transform="matrix(1,0,0,1,-468,-172)" stroke-linecap="butt">
            <text x="565.5551" xml:space="preserve" y="388.7342" stroke="none">geolink:Award</text>
          </g>
        </g>
      </a>
    </g>
    <g id="y.node.8">
      <g fill="rgb(0,204,255)" text-rendering="geometricPrecision" shape-rendering="geometricPrecision" transform="matrix(1,0,0,1,-468,-172)" stroke="rgb(0,204,255)">
        <ellipse rx="20.0605" ry="15" cx="1092.2781" cy="277.6165" stroke="none"/>
      </g>
      <g text-rendering="geometricPrecision" stroke-miterlimit="1.45" shape-rendering="geometricPrecision" transform="matrix(1,0,0,1,-468,-172)" stroke-linecap="butt">
        <ellipse rx="20.0605" fill="none" ry="15" cx="1092.2781" cy="277.6165"/>
      </g>
      <g>
        <g text-rendering="geometricPrecision" stroke-miterlimit="1.45" shape-rendering="geometricPrecision" font-family="sans-serif" transform="matrix(1,0,0,1,-468,-172)" stroke-linecap="butt">
          <text x="1079.2175" xml:space="preserve" y="282.1517" stroke="none">Text</text>
        </g>
      </g>
    </g>
    <g id="y.node.9">
      <g fill="rgb(0,204,255)" text-rendering="geometricPrecision" shape-rendering="geometricPrecision" transform="matrix(1,0,0,1,-468,-172)" stroke="rgb(0,204,255)">
        <ellipse rx="18.1504" ry="15" cx="1092.2781" cy="233.7961" stroke="none"/>
      </g>
      <g text-rendering="geometricPrecision" stroke-miterlimit="1.45" shape-rendering="geometricPrecision" transform="matrix(1,0,0,1,-468,-172)" stroke-linecap="butt">
        <ellipse rx="18.1504" fill="none" ry="15" cx="1092.2781" cy="233.7961"/>
      </g>
      <g>
        <g text-rendering="geometricPrecision" stroke-miterlimit="1.45" shape-rendering="geometricPrecision" font-family="sans-serif" transform="matrix(1,0,0,1,-468,-172)" stroke-linecap="butt">
          <text x="1081.1277" xml:space="preserve" y="238.3313" stroke="none">URL</text>
        </g>
      </g>
    </g>
    <g id="y.edge.0">
      <g text-rendering="geometricPrecision" stroke-miterlimit="1.45" shape-rendering="geometricPrecision" transform="matrix(1,0,0,1,-468,-172)" stroke-linecap="butt">
        <path fill="none" d="M556.9466 539.739 L556.9466 610 L796.5186 610"/>
        <path d="M804.5186 610 L792.5186 605 L795.5186 610 L792.5186 615 Z" stroke="none"/>
      </g>
      <g>
        <g text-rendering="geometricPrecision" stroke-miterlimit="1.45" shape-rendering="geometricPrecision" font-family="sans-serif" transform="matrix(1,0,0,1,-468,-172)" stroke-linecap="butt">
          <text x="637.4933" xml:space="preserve" y="584.5352" stroke="none">schema:funder</text>
        </g>
      </g>
    </g>
    <g id="y.edge.1">
      <g text-rendering="geometricPrecision" stroke-miterlimit="1.45" shape-rendering="geometricPrecision" transform="matrix(1,0,0,1,-468,-172)" stroke-linecap="butt">
        <path fill="none" d="M873.2998 625 L873.2998 673"/>
        <path d="M873.2998 681 L878.2998 669 L873.2998 672 L868.2998 669 Z" stroke="none"/>
      </g>
      <g>
        <g text-rendering="geometricPrecision" stroke-miterlimit="1.45" shape-rendering="geometricPrecision" font-family="sans-serif" transform="matrix(1,0,0,1,-468,-172)" stroke-linecap="butt">
          <text x="885.0488" xml:space="preserve" y="657.5352" stroke="none">schema:additionalType</text>
        </g>
      </g>
    </g>
    <g id="y.edge.2">
      <g text-rendering="geometricPrecision" stroke-miterlimit="1.45" shape-rendering="geometricPrecision" transform="matrix(1,0,0,1,-468,-172)" stroke-linecap="butt">
        <path fill="none" d="M915.9551 594.9649 L915.9551 524.7039 L1064.2175 524.7039"/>
        <path d="M1072.2175 524.7039 L1060.2175 519.7039 L1063.2175 524.7039 L1060.2175 529.7039 Z" stroke="none"/>
      </g>
      <g>
        <g text-rendering="geometricPrecision" stroke-miterlimit="1.45" shape-rendering="geometricPrecision" font-family="sans-serif" transform="matrix(1,0,0,1,-468,-172)" stroke-linecap="butt">
          <text x="939.498" xml:space="preserve" y="546.7543" stroke="none">schema:legalName,</text>
          <text x="939.498" xml:space="preserve" y="560.8871" stroke="none">schema:name</text>
        </g>
      </g>
    </g>
    <g id="y.edge.3">
      <g text-rendering="geometricPrecision" stroke-miterlimit="1.45" shape-rendering="geometricPrecision" transform="matrix(1,0,0,1,-468,-172)" stroke-linecap="butt">
        <path fill="none" d="M888.6116 595.0268 L888.6116 480.8835 L1066.1277 480.8835"/>
        <path d="M1074.1277 480.8835 L1062.1277 475.8835 L1065.1277 480.8835 L1062.1277 485.8835 Z" stroke="none"/>
      </g>
      <g>
        <g text-rendering="geometricPrecision" stroke-miterlimit="1.45" shape-rendering="geometricPrecision" font-family="sans-serif" transform="matrix(1,0,0,1,-468,-172)" stroke-linecap="butt">
          <text x="908.0801" xml:space="preserve" y="448.3522" stroke="none">schema:url,</text>
          <text x="908.0801" xml:space="preserve" y="462.485" stroke="none">schema:sameAs</text>
        </g>
      </g>
    </g>
    <g id="y.edge.4">
      <g text-rendering="geometricPrecision" stroke-miterlimit="1.45" shape-rendering="geometricPrecision" transform="matrix(1,0,0,1,-468,-172)" stroke-linecap="butt">
        <path fill="none" d="M850.4014 594.9778 L850.4014 407.199"/>
        <path d="M850.4014 399.199 L845.4014 411.199 L850.4014 408.199 L855.4014 411.199 Z" stroke="none"/>
      </g>
      <g>
        <g text-rendering="geometricPrecision" stroke-miterlimit="1.45" shape-rendering="geometricPrecision" font-family="sans-serif" transform="matrix(1,0,0,1,-468,-172)" stroke-linecap="butt">
          <text x="718.2632" xml:space="preserve" y="479.5716" stroke="none">schema:makesOffer</text>
        </g>
      </g>
    </g>
    <g id="y.edge.5">
      <g text-rendering="geometricPrecision" stroke-miterlimit="1.45" shape-rendering="geometricPrecision" transform="matrix(1,0,0,1,-468,-172)" stroke-linecap="butt">
        <path fill="none" d="M884.2314 369.2326 L884.2314 337.6165 L1064.2175 337.6165"/>
        <path d="M1072.2175 337.6165 L1060.2175 332.6165 L1063.2175 337.6165 L1060.2175 342.6165 Z" stroke="none"/>
      </g>
      <g>
        <g text-rendering="geometricPrecision" stroke-miterlimit="1.45" shape-rendering="geometricPrecision" font-family="sans-serif" transform="matrix(1,0,0,1,-468,-172)" stroke-linecap="butt">
          <text x="940.1727" xml:space="preserve" y="365.0853" stroke="none">schema:validFrom,</text>
          <text x="940.1727" xml:space="preserve" y="379.2181" stroke="none">schema:validThrough</text>
        </g>
      </g>
    </g>
    <g id="y.edge.6">
      <g text-rendering="geometricPrecision" stroke-miterlimit="1.45" shape-rendering="geometricPrecision" transform="matrix(1,0,0,1,-468,-172)" stroke-linecap="butt">
        <path fill="none" d="M804.5186 384.199 L663.9047 384.199"/>
        <path d="M655.9047 384.199 L667.9047 389.199 L664.9047 384.199 L667.9047 379.199 Z" stroke="none"/>
      </g>
      <g>
        <g text-rendering="geometricPrecision" stroke-miterlimit="1.45" shape-rendering="geometricPrecision" font-family="sans-serif" transform="matrix(1,0,0,1,-468,-172)" stroke-linecap="butt">
          <text x="663.1159" xml:space="preserve" y="358.7342" stroke="none">schema:additionalType</text>
        </g>
      </g>
    </g>
    <g id="y.edge.7">
      <g text-rendering="geometricPrecision" stroke-miterlimit="1.45" shape-rendering="geometricPrecision" transform="matrix(1,0,0,1,-468,-172)" stroke-linecap="butt">
        <path fill="none" d="M870.9612 369.1848 L870.9612 277.6165 L1064.2175 277.6165"/>
        <path d="M1072.2175 277.6165 L1060.2175 272.6165 L1063.2175 277.6165 L1060.2175 282.6165 Z" stroke="none"/>
      </g>
      <g>
        <g text-rendering="geometricPrecision" stroke-miterlimit="1.45" shape-rendering="geometricPrecision" font-family="sans-serif" transform="matrix(1,0,0,1,-468,-172)" stroke-linecap="butt">
          <text x="924.6605" xml:space="preserve" y="299.6265" stroke="none">schema:name,</text>
          <text x="924.6605" xml:space="preserve" y="313.7593" stroke="none">schema:description</text>
        </g>
      </g>
    </g>
    <g id="y.edge.8">
      <g text-rendering="geometricPrecision" stroke-miterlimit="1.45" shape-rendering="geometricPrecision" transform="matrix(1,0,0,1,-468,-172)" stroke-linecap="butt">
        <path fill="none" d="M850.4014 369.199 L850.4014 233.7961 L1066.1277 233.7961"/>
        <path d="M1074.1277 233.7961 L1062.1277 228.7961 L1065.1277 233.7961 L1062.1277 238.7961 Z" stroke="none"/>
      </g>
      <g>
        <g text-rendering="geometricPrecision" stroke-miterlimit="1.45" shape-rendering="geometricPrecision" font-family="sans-serif" transform="matrix(1,0,0,1,-468,-172)" stroke-linecap="butt">
          <text x="922.1274" xml:space="preserve" y="201.2649" stroke="none">schema:url,</text>
          <text x="922.1274" xml:space="preserve" y="215.3977" stroke="none">schema:sameAs</text>
        </g>
      </g>
    </g>
  </g>
</svg>
