<?xml version="1.0" encoding="UTF-8"?><svg xmlns="http://www.w3.org/2000/svg" xmlns:xlink="http://www.w3.org/1999/xlink" fill-opacity="1" color-rendering="auto" color-interpolation="auto" text-rendering="auto" stroke="black" stroke-linecap="square" width="643" stroke-miterlimit="10" shape-rendering="auto" stroke-opacity="1" fill="black" stroke-dasharray="none" font-weight="normal" stroke-width="1" height="307" font-family="'Dialog'" font-style="normal" stroke-linejoin="miter" font-size="12px" stroke-dashoffset="0" image-rendering="auto">
  <!--Generated by ySVG 2.5-->
  <defs id="genericDefs"/>
  <g>
    <defs id="defs1">
      <clipPath clipPathUnits="userSpaceOnUse" id="clipPath1">
        <path d="M0 0 L643 0 L643 307 L0 307 L0 0 Z"/>
      </clipPath>
    </defs>
    <g id="y.node.0">
      <g fill="rgb(204,255,204)" text-rendering="geometricPrecision" shape-rendering="geometricPrecision" transform="matrix(1,0,0,1,-485,-419)" stroke="rgb(204,255,204)">
        <rect x="804.5186" width="137.5625" height="30" y="595" stroke="none"/>
      </g>
      <g text-rendering="geometricPrecision" stroke-miterlimit="1.45" shape-rendering="geometricPrecision" transform="matrix(1,0,0,1,-485,-419)" stroke-linecap="butt">
        <rect fill="none" x="804.5186" width="137.5625" height="30" y="595"/>
      </g>
      <g>
        <g text-rendering="geometricPrecision" stroke-miterlimit="1.45" shape-rendering="geometricPrecision" font-family="sans-serif" transform="matrix(1,0,0,1,-485,-419)" stroke-linecap="butt">
          <text x="811.5186" xml:space="preserve" y="614.5352" stroke="none">schema:Organization</text>
        </g>
      </g>
    </g>
    <g id="y.node.1">
      <a target="_blank" xlink:type="simple" xlink:href="http://schema.geolink.org/1.0/base/main#Organization" xlink:show="new">
        <g fill="rgb(255,204,0)" text-rendering="geometricPrecision" shape-rendering="geometricPrecision" transform="matrix(1,0,0,1,-485,-419)" stroke="rgb(255,204,0)">
          <rect x="805.1631" width="136.2734" height="30" y="681" stroke="none"/>
        </g>
        <g text-rendering="geometricPrecision" stroke-miterlimit="1.45" shape-rendering="geometricPrecision" transform="matrix(1,0,0,1,-485,-419)" stroke-linecap="butt">
          <rect fill="none" x="805.1631" width="136.2734" height="30" y="681"/>
        </g>
        <g>
          <g text-rendering="geometricPrecision" stroke-miterlimit="1.45" shape-rendering="geometricPrecision" font-family="sans-serif" transform="matrix(1,0,0,1,-485,-419)" stroke-linecap="butt">
            <text x="812.1631" xml:space="preserve" y="700.5352" stroke="none">geolink:Organization</text>
          </g>
        </g>
      </a>
    </g>
    <g id="y.node.2">
      <a target="_blank" xlink:type="simple" xlink:href="https://schema.org/Dataset" xlink:show="new">
        <g fill="rgb(204,255,204)" text-rendering="geometricPrecision" shape-rendering="geometricPrecision" transform="matrix(1,0,0,1,-485,-419)" stroke="rgb(204,255,204)">
          <rect x="500.9775" width="106.0449" height="30" y="522" stroke="none"/>
        </g>
        <g text-rendering="geometricPrecision" stroke-miterlimit="1.45" shape-rendering="geometricPrecision" transform="matrix(1,0,0,1,-485,-419)" stroke-linecap="butt">
          <rect fill="none" x="500.9775" width="106.0449" height="30" y="522"/>
        </g>
        <g>
          <g text-rendering="geometricPrecision" stroke-miterlimit="1.45" shape-rendering="geometricPrecision" font-family="sans-serif" transform="matrix(1,0,0,1,-485,-419)" stroke-linecap="butt">
            <text x="507.9775" xml:space="preserve" y="541.5352" stroke="none">schema:Dataset</text>
          </g>
        </g>
      </a>
    </g>
    <g id="y.node.3">
      <a target="_blank" xlink:type="simple" xlink:href="https://schema.org/Organization" xlink:show="new">
        <g fill="rgb(204,255,204)" text-rendering="geometricPrecision" shape-rendering="geometricPrecision" transform="matrix(1,0,0,1,-485,-419)" stroke="rgb(204,255,204)">
          <rect x="804.5186" width="137.5625" height="30" y="595" stroke="none"/>
        </g>
        <g text-rendering="geometricPrecision" stroke-miterlimit="1.45" shape-rendering="geometricPrecision" transform="matrix(1,0,0,1,-485,-419)" stroke-linecap="butt">
          <rect fill="none" x="804.5186" width="137.5625" height="30" y="595"/>
        </g>
        <g>
          <g text-rendering="geometricPrecision" stroke-miterlimit="1.45" shape-rendering="geometricPrecision" font-family="sans-serif" transform="matrix(1,0,0,1,-485,-419)" stroke-linecap="butt">
            <text x="811.5186" xml:space="preserve" y="614.5352" stroke="none">schema:Organization</text>
          </g>
        </g>
      </a>
    </g>
    <g id="y.node.4">
      <g fill="rgb(0,204,255)" text-rendering="geometricPrecision" shape-rendering="geometricPrecision" transform="matrix(1,0,0,1,-485,-419)" stroke="rgb(0,204,255)">
        <ellipse rx="20.0605" ry="15" cx="1092.2781" cy="524.7039" stroke="none"/>
      </g>
      <g text-rendering="geometricPrecision" stroke-miterlimit="1.45" shape-rendering="geometricPrecision" transform="matrix(1,0,0,1,-485,-419)" stroke-linecap="butt">
        <ellipse rx="20.0605" fill="none" ry="15" cx="1092.2781" cy="524.7039"/>
      </g>
      <g>
        <g text-rendering="geometricPrecision" stroke-miterlimit="1.45" shape-rendering="geometricPrecision" font-family="sans-serif" transform="matrix(1,0,0,1,-485,-419)" stroke-linecap="butt">
          <text x="1079.2175" xml:space="preserve" y="529.239" stroke="none">Text</text>
        </g>
      </g>
    </g>
    <g id="y.node.5">
      <g fill="rgb(0,204,255)" text-rendering="geometricPrecision" shape-rendering="geometricPrecision" transform="matrix(1,0,0,1,-485,-419)" stroke="rgb(0,204,255)">
        <ellipse rx="18.1504" ry="15" cx="1092.2781" cy="480.8835" stroke="none"/>
      </g>
      <g text-rendering="geometricPrecision" stroke-miterlimit="1.45" shape-rendering="geometricPrecision" transform="matrix(1,0,0,1,-485,-419)" stroke-linecap="butt">
        <ellipse rx="18.1504" fill="none" ry="15" cx="1092.2781" cy="480.8835"/>
      </g>
      <g>
        <g text-rendering="geometricPrecision" stroke-miterlimit="1.45" shape-rendering="geometricPrecision" font-family="sans-serif" transform="matrix(1,0,0,1,-485,-419)" stroke-linecap="butt">
          <text x="1081.1277" xml:space="preserve" y="485.4186" stroke="none">URL</text>
        </g>
      </g>
    </g>
    <g id="y.edge.1">
      <g text-rendering="geometricPrecision" stroke-miterlimit="1.45" shape-rendering="geometricPrecision" transform="matrix(1,0,0,1,-485,-419)" stroke-linecap="butt">
        <path fill="none" d="M873.2998 625 L873.2998 673"/>
        <path d="M873.2998 681 L878.2998 669 L873.2998 672 L868.2998 669 Z" stroke="none"/>
      </g>
      <g>
        <g text-rendering="geometricPrecision" stroke-miterlimit="1.45" shape-rendering="geometricPrecision" font-family="sans-serif" transform="matrix(1,0,0,1,-485,-419)" stroke-linecap="butt">
          <text x="887.9905" xml:space="preserve" y="657.5352" stroke="none">schema:additionalType</text>
        </g>
      </g>
    </g>
    <g id="y.edge.0">
      <g text-rendering="geometricPrecision" stroke-miterlimit="1.45" shape-rendering="geometricPrecision" transform="matrix(1,0,0,1,-485,-419)" stroke-linecap="butt">
        <path fill="none" d="M574 552.0063 L574 610 L796.5186 610"/>
        <path d="M804.5186 610 L792.5186 605 L795.5186 610 L792.5186 615 Z" stroke="none"/>
      </g>
      <g>
        <g text-rendering="geometricPrecision" stroke-miterlimit="1.45" shape-rendering="geometricPrecision" font-family="sans-serif" transform="matrix(1,0,0,1,-485,-419)" stroke-linecap="butt">
          <text x="635.8823" xml:space="preserve" y="577.4688" stroke="none">schema:publisher,</text>
          <text x="640.7748" xml:space="preserve" y="591.6016" stroke="none">schema:provider</text>
        </g>
      </g>
    </g>
    <g id="y.edge.2">
      <g text-rendering="geometricPrecision" stroke-miterlimit="1.45" shape-rendering="geometricPrecision" transform="matrix(1,0,0,1,-485,-419)" stroke-linecap="butt">
        <path fill="none" d="M915.9551 594.9649 L915.9551 524.7039 L1064.2175 524.7039"/>
        <path d="M1072.2175 524.7039 L1060.2175 519.7039 L1063.2175 524.7039 L1060.2175 529.7039 Z" stroke="none"/>
      </g>
      <g>
        <g text-rendering="geometricPrecision" stroke-miterlimit="1.45" shape-rendering="geometricPrecision" font-family="sans-serif" transform="matrix(1,0,0,1,-485,-419)" stroke-linecap="butt">
          <text x="939.498" xml:space="preserve" y="546.7543" stroke="none">schema:legalName,</text>
          <text x="939.498" xml:space="preserve" y="560.8871" stroke="none">schema:name</text>
        </g>
      </g>
    </g>
    <g id="y.edge.3">
      <g text-rendering="geometricPrecision" stroke-miterlimit="1.45" shape-rendering="geometricPrecision" transform="matrix(1,0,0,1,-485,-419)" stroke-linecap="butt">
        <path fill="none" d="M888.6116 595.0268 L888.6116 480.8835 L1066.1277 480.8835"/>
        <path d="M1074.1277 480.8835 L1062.1277 475.8835 L1065.1277 480.8835 L1062.1277 485.8835 Z" stroke="none"/>
      </g>
      <g>
        <g text-rendering="geometricPrecision" stroke-miterlimit="1.45" shape-rendering="geometricPrecision" font-family="sans-serif" transform="matrix(1,0,0,1,-485,-419)" stroke-linecap="butt">
          <text x="908.0801" xml:space="preserve" y="448.3522" stroke="none">schema:url,</text>
          <text x="908.0801" xml:space="preserve" y="462.485" stroke="none">schema:sameAs</text>
        </g>
      </g>
    </g>
  </g>
</svg>
