<?xml version="1.0" encoding="UTF-8"?><svg xmlns="http://www.w3.org/2000/svg" xmlns:xlink="http://www.w3.org/1999/xlink" fill-opacity="1" color-rendering="auto" color-interpolation="auto" text-rendering="auto" stroke="black" stroke-linecap="square" width="468" stroke-miterlimit="10" shape-rendering="auto" stroke-opacity="1" fill="black" stroke-dasharray="none" font-weight="normal" stroke-width="1" height="194" font-family="'Dialog'" font-style="normal" stroke-linejoin="miter" font-size="12px" stroke-dashoffset="0" image-rendering="auto">
  <!--Generated by ySVG 2.5-->
  <defs id="genericDefs"/>
  <g>
    <defs id="defs1">
      <clipPath clipPathUnits="userSpaceOnUse" id="clipPath1">
        <path d="M0 0 L468 0 L468 194 L0 194 L0 0 Z"/>
      </clipPath>
      <clipPath clipPathUnits="userSpaceOnUse" id="clipPath2">
        <path d="M300 32 L768 32 L768 226 L300 226 L300 32 Z"/>
      </clipPath>
    </defs>
    <g fill="rgb(255,204,0)" text-rendering="geometricPrecision" shape-rendering="geometricPrecision" transform="matrix(1,0,0,1,-300,-32)" stroke="rgb(255,204,0)">
      <rect x="359.7199" width="120.8926" height="30" y="54" clip-path="url(#clipPath2)" stroke="none"/>
    </g>
    <g text-rendering="geometricPrecision" stroke-miterlimit="1.45" shape-rendering="geometricPrecision" transform="matrix(1,0,0,1,-300,-32)" stroke-linecap="butt">
      <rect fill="none" x="359.7199" width="120.8926" height="30" y="54" clip-path="url(#clipPath2)"/>
      <text x="366.7199" xml:space="preserve" y="73.5352" clip-path="url(#clipPath2)" font-family="sans-serif" stroke="none">Class1 (extension)</text>
    </g>
    <g fill="rgb(204,255,204)" text-rendering="geometricPrecision" shape-rendering="geometricPrecision" transform="matrix(1,0,0,1,-300,-32)" stroke="rgb(204,255,204)">
      <rect x="384.5866" width="124.0215" height="30" y="175" clip-path="url(#clipPath2)" stroke="none"/>
    </g>
    <g text-rendering="geometricPrecision" stroke-miterlimit="1.45" shape-rendering="geometricPrecision" transform="matrix(1,0,0,1,-300,-32)" stroke-linecap="butt">
      <rect fill="none" x="384.5866" width="124.0215" height="30" y="175" clip-path="url(#clipPath2)"/>
      <text x="391.5866" xml:space="preserve" y="194.5352" clip-path="url(#clipPath2)" font-family="sans-serif" stroke="none">Class (schema.org)</text>
    </g>
    <g fill="rgb(0,204,255)" text-rendering="geometricPrecision" shape-rendering="geometricPrecision" transform="matrix(1,0,0,1,-300,-32)" stroke="rgb(0,204,255)">
      <ellipse rx="72.5576" ry="15" clip-path="url(#clipPath2)" cx="680.0517" cy="69.2711" stroke="none"/>
    </g>
    <g text-rendering="geometricPrecision" stroke-miterlimit="1.45" shape-rendering="geometricPrecision" transform="matrix(1,0,0,1,-300,-32)" stroke-linecap="butt">
      <ellipse rx="72.5576" fill="none" ry="15" clip-path="url(#clipPath2)" cx="680.0517" cy="69.2711"/>
      <text x="614.4941" xml:space="preserve" y="73.8062" clip-path="url(#clipPath2)" font-family="sans-serif" stroke="none">Datatype (schema.org)</text>
    </g>
    <g fill="yellow" text-rendering="geometricPrecision" shape-rendering="geometricPrecision" transform="matrix(1,0,0,1,-300,-32)" stroke="yellow">
      <ellipse rx="35.3506" ry="17.5827" clip-path="url(#clipPath2)" cx="666.2587" cy="192.5827" stroke="none"/>
    </g>
    <g text-rendering="geometricPrecision" stroke-miterlimit="1.45" shape-rendering="geometricPrecision" transform="matrix(1,0,0,1,-300,-32)" stroke-linecap="butt">
      <ellipse rx="35.3506" fill="none" ry="17.5827" clip-path="url(#clipPath2)" cx="666.2587" cy="192.5827"/>
      <text x="637.9081" xml:space="preserve" y="197.1178" clip-path="url(#clipPath2)" font-family="sans-serif" stroke="none">Individual</text>
      <path fill="none" d="M468.5973 84.0134 L468.5973 167.018" clip-path="url(#clipPath2)"/>
      <path d="M468.5973 175.018 L473.5973 163.018 L468.5973 166.018 L463.5973 163.018 Z" clip-path="url(#clipPath2)" stroke="none"/>
      <text x="478.8359" xml:space="preserve" y="128.0352" clip-path="url(#clipPath2)" font-family="sans-serif" stroke="none">property1</text>
      <path fill="none" stroke-dasharray="6,2" d="M413.0615 83.9773 L413.0615 160.0129" clip-path="url(#clipPath2)"/>
      <path fill="white" stroke-dasharray="6,2" d="M413.0615 175.0129 L419.0615 159.0129 L407.0615 159.0129 Z" clip-path="url(#clipPath2)" stroke="none"/>
      <path fill="none" d="M413.0615 175.0129 L419.0615 159.0129 L407.0615 159.0129 Z" clip-path="url(#clipPath2)"/>
      <text x="317.3633" xml:space="preserve" y="123.0352" clip-path="url(#clipPath2)" font-family="sans-serif" stroke="none">rdfs:subClassOf</text>
      <path fill="none" d="M480.6125 69 L543.2144 69 L543.2144 69.2711 L599.4723 69.2711" clip-path="url(#clipPath2)"/>
      <path d="M607.4723 69.2711 L595.4723 64.2711 L598.4723 69.2711 L595.4723 74.2711 Z" clip-path="url(#clipPath2)" stroke="none"/>
      <text x="516.3359" xml:space="preserve" y="61.2018" clip-path="url(#clipPath2)" font-family="sans-serif" stroke="none">property2</text>
      <path fill="none" d="M631.2632 190 L513.5958 190" clip-path="url(#clipPath2)"/>
      <path d="M509.5958 190 L521.5958 196 L509.5958 190 L521.5958 184 Z" clip-path="url(#clipPath2)" stroke="none"/>
      <path fill="none" stroke-miterlimit="10" d="M509.5958 190 L521.5958 196 L509.5958 190 L521.5958 184 Z" clip-path="url(#clipPath2)" stroke-linecap="square"/>
      <text x="550.666" xml:space="preserve" y="183.0352" clip-path="url(#clipPath2)" font-family="sans-serif" stroke="none">rdf:type</text>
    </g>
  </g>
</svg>
