<?xml version="1.0" encoding="UTF-8"?><svg xmlns="http://www.w3.org/2000/svg" xmlns:xlink="http://www.w3.org/1999/xlink" fill-opacity="1" color-rendering="auto" color-interpolation="auto" text-rendering="auto" stroke="black" stroke-linecap="square" width="902" stroke-miterlimit="10" shape-rendering="auto" stroke-opacity="1" fill="black" stroke-dasharray="none" font-weight="normal" stroke-width="1" height="716" font-family="'Dialog'" font-style="normal" stroke-linejoin="miter" font-size="12px" stroke-dashoffset="0" image-rendering="auto">
  <!--Generated by ySVG 2.5-->
  <defs id="genericDefs"/>
  <g>
    <defs id="defs1">
      <clipPath clipPathUnits="userSpaceOnUse" id="clipPath1">
        <path d="M0 0 L902 0 L902 716 L0 716 L0 0 Z"/>
      </clipPath>
    </defs>
    <g id="y.node.0">
      <a target="_blank" xlink:type="simple" xlink:href="http://schema.org/Service" xlink:show="new">
        <g fill="rgb(204,255,204)" text-rendering="geometricPrecision" shape-rendering="geometricPrecision" transform="matrix(1,0,0,1,-128,638)" stroke="rgb(204,255,204)">
          <rect x="573.6792" width="102.5938" height="30" y="-598.1885" stroke="none"/>
        </g>
        <g text-rendering="geometricPrecision" stroke-miterlimit="1.45" shape-rendering="geometricPrecision" transform="matrix(1,0,0,1,-128,638)" stroke-linecap="butt">
          <rect fill="none" x="573.6792" width="102.5938" height="30" y="-598.1885"/>
        </g>
        <g>
          <g text-rendering="geometricPrecision" stroke-miterlimit="1.45" shape-rendering="geometricPrecision" font-family="sans-serif" transform="matrix(1,0,0,1,-128,638)" stroke-linecap="butt">
            <text x="580.6792" xml:space="preserve" y="-578.6533" stroke="none">schema:Service</text>
          </g>
        </g>
      </a>
    </g>
    <g id="y.node.1">
      <a target="_blank" xlink:type="simple" xlink:href="http://schema.org/OfferCatalog" xlink:show="new">
        <g fill="rgb(204,255,204)" text-rendering="geometricPrecision" shape-rendering="geometricPrecision" transform="matrix(1,0,0,1,-128,638)" stroke="rgb(204,255,204)">
          <rect x="556.3191" width="136.1328" height="30" y="-303.2658" stroke="none"/>
        </g>
        <g text-rendering="geometricPrecision" stroke-miterlimit="1.45" shape-rendering="geometricPrecision" transform="matrix(1,0,0,1,-128,638)" stroke-linecap="butt">
          <rect fill="none" x="556.3191" width="136.1328" height="30" y="-303.2658"/>
        </g>
        <g>
          <g text-rendering="geometricPrecision" stroke-miterlimit="1.45" shape-rendering="geometricPrecision" font-family="sans-serif" transform="matrix(1,0,0,1,-128,638)" stroke-linecap="butt">
            <text x="563.3191" xml:space="preserve" y="-283.7307" stroke="none">schema:OfferCatalog</text>
          </g>
        </g>
      </a>
    </g>
    <g id="y.node.2">
      <a target="_blank" xlink:type="simple" xlink:href="http://schema.org/ServiceChannel" xlink:show="new">
        <g fill="rgb(204,255,204)" text-rendering="geometricPrecision" shape-rendering="geometricPrecision" transform="matrix(1,0,0,1,-128,638)" stroke="rgb(204,255,204)">
          <rect x="728.7129" width="150.0195" height="30" y="-521.5782" stroke="none"/>
        </g>
        <g text-rendering="geometricPrecision" stroke-miterlimit="1.45" shape-rendering="geometricPrecision" transform="matrix(1,0,0,1,-128,638)" stroke-linecap="butt">
          <rect fill="none" x="728.7129" width="150.0195" height="30" y="-521.5782"/>
        </g>
        <g>
          <g text-rendering="geometricPrecision" stroke-miterlimit="1.45" shape-rendering="geometricPrecision" font-family="sans-serif" transform="matrix(1,0,0,1,-128,638)" stroke-linecap="butt">
            <text x="735.7129" xml:space="preserve" y="-502.0431" stroke="none">schema:ServiceChannel</text>
          </g>
        </g>
      </a>
    </g>
    <g id="y.node.3">
      <a target="_blank" xlink:type="simple" xlink:href="http://schema.org/DigitalDocument" xlink:show="new">
        <g fill="rgb(204,255,204)" text-rendering="geometricPrecision" shape-rendering="geometricPrecision" transform="matrix(1,0,0,1,-128,638)" stroke="rgb(204,255,204)">
          <rect x="228.0464" width="159.793" height="30" y="-220.1772" stroke="none"/>
        </g>
        <g text-rendering="geometricPrecision" stroke-miterlimit="1.45" shape-rendering="geometricPrecision" transform="matrix(1,0,0,1,-128,638)" stroke-linecap="butt">
          <rect fill="none" x="228.0464" width="159.793" height="30" y="-220.1772"/>
        </g>
        <g>
          <g text-rendering="geometricPrecision" stroke-miterlimit="1.45" shape-rendering="geometricPrecision" font-family="sans-serif" transform="matrix(1,0,0,1,-128,638)" stroke-linecap="butt">
            <text x="235.0464" xml:space="preserve" y="-200.6421" stroke="none">schema:DigitalDocument</text>
          </g>
        </g>
      </a>
    </g>
    <g id="y.node.4">
      <a target="_blank" xlink:type="simple" xlink:href="https://geodex.org/voc/Protocol-License" xlink:show="new">
        <g fill="yellow" text-rendering="geometricPrecision" shape-rendering="geometricPrecision" transform="matrix(1,0,0,1,-128,638)" stroke="yellow">
          <ellipse rx="68.9219" ry="17.5827" cx="386.0898" cy="-142.5946" stroke="none"/>
        </g>
        <g text-rendering="geometricPrecision" stroke-miterlimit="1.45" shape-rendering="geometricPrecision" transform="matrix(1,0,0,1,-128,638)" stroke-linecap="butt">
          <ellipse rx="68.9219" fill="none" ry="17.5827" cx="386.0898" cy="-142.5946"/>
        </g>
        <g>
          <g text-rendering="geometricPrecision" stroke-miterlimit="1.45" shape-rendering="geometricPrecision" font-family="sans-serif" transform="matrix(1,0,0,1,-128,638)" stroke-linecap="butt">
            <text x="324.1679" xml:space="preserve" y="-138.0594" stroke="none">gdx:Protocol-License</text>
          </g>
        </g>
      </a>
    </g>
    <g id="y.node.5">
      <a target="_blank" xlink:type="simple" xlink:href="https://geodex.org/voc/Protocol-TermsOfUse" xlink:show="new">
        <g fill="yellow" text-rendering="geometricPrecision" shape-rendering="geometricPrecision" transform="matrix(1,0,0,1,-128,638)" stroke="yellow">
          <ellipse rx="83.125" ry="17.5827" cx="404.5215" cy="2.9366" stroke="none"/>
        </g>
        <g text-rendering="geometricPrecision" stroke-miterlimit="1.45" shape-rendering="geometricPrecision" transform="matrix(1,0,0,1,-128,638)" stroke-linecap="butt">
          <ellipse rx="83.125" fill="none" ry="17.5827" cx="404.5215" cy="2.9366"/>
        </g>
        <g>
          <g text-rendering="geometricPrecision" stroke-miterlimit="1.45" shape-rendering="geometricPrecision" font-family="sans-serif" transform="matrix(1,0,0,1,-128,638)" stroke-linecap="butt">
            <text x="328.3965" xml:space="preserve" y="7.4717" stroke="none">gdx:Protocol-TermsOfUse</text>
          </g>
        </g>
      </a>
    </g>
    <g id="y.node.6">
      <a target="_blank" xlink:type="simple" xlink:href="https://geodex.org/voc/Protocol-ResourceSubmissionPolicy" xlink:show="new">
        <g fill="yellow" text-rendering="geometricPrecision" shape-rendering="geometricPrecision" transform="matrix(1,0,0,1,-128,638)" stroke="yellow">
          <ellipse rx="123.9297" ry="18.5" cx="445.7143" cy="-45.268" stroke="none"/>
        </g>
        <g text-rendering="geometricPrecision" stroke-miterlimit="1.45" shape-rendering="geometricPrecision" transform="matrix(1,0,0,1,-128,638)" stroke-linecap="butt">
          <ellipse rx="123.9297" fill="none" ry="18.5" cx="445.7143" cy="-45.268"/>
        </g>
        <g>
          <g text-rendering="geometricPrecision" stroke-miterlimit="1.45" shape-rendering="geometricPrecision" font-family="sans-serif" transform="matrix(1,0,0,1,-128,638)" stroke-linecap="butt">
            <text x="328.7846" xml:space="preserve" y="-40.7329" stroke="none">gdx:Protocol-ResourceSubmissionPolicy</text>
          </g>
        </g>
      </a>
    </g>
    <g id="y.node.7">
      <a target="_blank" xlink:type="simple" xlink:href="https://geodex.org/voc/Protocol-PreservationPolicy" xlink:show="new">
        <g fill="yellow" text-rendering="geometricPrecision" shape-rendering="geometricPrecision" transform="matrix(1,0,0,1,-128,638)" stroke="yellow">
          <ellipse rx="99.9033" ry="18.5" cx="415.7998" cy="-94.39" stroke="none"/>
        </g>
        <g text-rendering="geometricPrecision" stroke-miterlimit="1.45" shape-rendering="geometricPrecision" transform="matrix(1,0,0,1,-128,638)" stroke-linecap="butt">
          <ellipse rx="99.9033" fill="none" ry="18.5" cx="415.7998" cy="-94.39"/>
        </g>
        <g>
          <g text-rendering="geometricPrecision" stroke-miterlimit="1.45" shape-rendering="geometricPrecision" font-family="sans-serif" transform="matrix(1,0,0,1,-128,638)" stroke-linecap="butt">
            <text x="322.8965" xml:space="preserve" y="-89.8548" stroke="none">gdx:Protocol-PreservationPolicy</text>
          </g>
        </g>
      </a>
    </g>
    <g id="y.node.8">
      <a target="_blank" xlink:type="simple" xlink:href="https://geodex.org/voc/Protocol-Access" xlink:show="new">
        <g fill="yellow" text-rendering="geometricPrecision" shape-rendering="geometricPrecision" transform="matrix(1,0,0,1,-128,638)" stroke="yellow">
          <ellipse rx="67.1934" ry="15" cx="386.0898" cy="47.6412" stroke="none"/>
        </g>
        <g text-rendering="geometricPrecision" stroke-miterlimit="1.45" shape-rendering="geometricPrecision" transform="matrix(1,0,0,1,-128,638)" stroke-linecap="butt">
          <ellipse rx="67.1934" fill="none" ry="15" cx="386.0898" cy="47.6412"/>
        </g>
        <g>
          <g text-rendering="geometricPrecision" stroke-miterlimit="1.45" shape-rendering="geometricPrecision" font-family="sans-serif" transform="matrix(1,0,0,1,-128,638)" stroke-linecap="butt">
            <text x="325.8965" xml:space="preserve" y="52.1763" stroke="none">gdx:Protocol-Access</text>
          </g>
        </g>
      </a>
    </g>
    <g id="y.node.9">
      <a target="_blank" xlink:type="simple" xlink:href="http://schema.org/Thing" xlink:show="new">
        <g fill="rgb(204,255,204)" text-rendering="geometricPrecision" shape-rendering="geometricPrecision" transform="matrix(1,0,0,1,-128,638)" stroke="rgb(204,255,204)">
          <rect x="592.2432" width="95.457" height="30" y="-208.2215" stroke="none"/>
        </g>
        <g text-rendering="geometricPrecision" stroke-miterlimit="1.45" shape-rendering="geometricPrecision" transform="matrix(1,0,0,1,-128,638)" stroke-linecap="butt">
          <rect fill="none" x="592.2432" width="95.457" height="30" y="-208.2215"/>
        </g>
        <g>
          <g text-rendering="geometricPrecision" stroke-miterlimit="1.45" shape-rendering="geometricPrecision" font-family="sans-serif" transform="matrix(1,0,0,1,-128,638)" stroke-linecap="butt">
            <text x="599.2432" xml:space="preserve" y="-188.6864" stroke="none">schema:Thing</text>
          </g>
        </g>
      </a>
    </g>
    <g id="y.node.10">
      <a target="_blank" xlink:type="simple" xlink:href="http://schema.org/Organization" xlink:show="new">
        <g fill="rgb(204,255,204)" text-rendering="geometricPrecision" shape-rendering="geometricPrecision" transform="matrix(1,0,0,1,-128,638)" stroke="rgb(204,255,204)">
          <rect x="203.368" width="137.5625" height="30" y="-598.1885" stroke="none"/>
        </g>
        <g text-rendering="geometricPrecision" stroke-miterlimit="1.45" shape-rendering="geometricPrecision" transform="matrix(1,0,0,1,-128,638)" stroke-linecap="butt">
          <rect fill="none" x="203.368" width="137.5625" height="30" y="-598.1885"/>
        </g>
        <g>
          <g text-rendering="geometricPrecision" stroke-miterlimit="1.45" shape-rendering="geometricPrecision" font-family="sans-serif" transform="matrix(1,0,0,1,-128,638)" stroke-linecap="butt">
            <text x="210.368" xml:space="preserve" y="-578.6533" stroke="none">schema:Organization</text>
          </g>
        </g>
      </a>
    </g>
    <g id="y.node.11">
      <a target="_blank" xlink:type="simple" xlink:href="http://schema.org/Organization" xlink:show="new">
        <g fill="rgb(204,255,204)" text-rendering="geometricPrecision" shape-rendering="geometricPrecision" transform="matrix(1,0,0,1,-128,638)" stroke="rgb(204,255,204)">
          <rect x="486.2705" width="137.5625" height="30" y="-529.1885" stroke="none"/>
        </g>
        <g text-rendering="geometricPrecision" stroke-miterlimit="1.45" shape-rendering="geometricPrecision" transform="matrix(1,0,0,1,-128,638)" stroke-linecap="butt">
          <rect fill="none" x="486.2705" width="137.5625" height="30" y="-529.1885"/>
        </g>
        <g>
          <g text-rendering="geometricPrecision" stroke-miterlimit="1.45" shape-rendering="geometricPrecision" font-family="sans-serif" transform="matrix(1,0,0,1,-128,638)" stroke-linecap="butt">
            <text x="493.2705" xml:space="preserve" y="-509.6533" stroke="none">schema:Organization</text>
          </g>
        </g>
      </a>
    </g>
    <g id="y.node.12">
      <a target="_blank" xlink:type="simple" xlink:href="http://schema.org/Person" xlink:show="new">
        <g fill="rgb(204,255,204)" text-rendering="geometricPrecision" shape-rendering="geometricPrecision" transform="matrix(1,0,0,1,-128,638)" stroke="rgb(204,255,204)">
          <rect x="486.2705" width="101.1875" height="30" y="-485.5379" stroke="none"/>
        </g>
        <g text-rendering="geometricPrecision" stroke-miterlimit="1.45" shape-rendering="geometricPrecision" transform="matrix(1,0,0,1,-128,638)" stroke-linecap="butt">
          <rect fill="none" x="486.2705" width="101.1875" height="30" y="-485.5379"/>
        </g>
        <g>
          <g text-rendering="geometricPrecision" stroke-miterlimit="1.45" shape-rendering="geometricPrecision" font-family="sans-serif" transform="matrix(1,0,0,1,-128,638)" stroke-linecap="butt">
            <text x="493.2705" xml:space="preserve" y="-466.0027" stroke="none">schema:Person</text>
          </g>
        </g>
      </a>
    </g>
    <g id="y.node.13">
      <a target="_blank" xlink:type="simple" xlink:href="http://schema.org/ContactPoint" xlink:show="new">
        <g fill="rgb(204,255,204)" text-rendering="geometricPrecision" shape-rendering="geometricPrecision" transform="matrix(1,0,0,1,-128,638)" stroke="rgb(204,255,204)">
          <rect x="168.79" width="136.3027" height="30" y="-435.6069" stroke="none"/>
        </g>
        <g text-rendering="geometricPrecision" stroke-miterlimit="1.45" shape-rendering="geometricPrecision" transform="matrix(1,0,0,1,-128,638)" stroke-linecap="butt">
          <rect fill="none" x="168.79" width="136.3027" height="30" y="-435.6069"/>
        </g>
        <g>
          <g text-rendering="geometricPrecision" stroke-miterlimit="1.45" shape-rendering="geometricPrecision" font-family="sans-serif" transform="matrix(1,0,0,1,-128,638)" stroke-linecap="butt">
            <text x="175.79" xml:space="preserve" y="-416.0717" stroke="none">schema:ContactPoint</text>
          </g>
        </g>
      </a>
    </g>
    <g id="y.node.14">
      <a target="_blank" xlink:type="simple" xlink:href="https://geodex.org/voc/SearchService" xlink:show="new">
        <g fill="yellow" text-rendering="geometricPrecision" shape-rendering="geometricPrecision" transform="matrix(1,0,0,1,-128,638)" stroke="yellow">
          <ellipse rx="59.5205" ry="17.5827" cx="917.2529" cy="-443.9955" stroke="none"/>
        </g>
        <g text-rendering="geometricPrecision" stroke-miterlimit="1.45" shape-rendering="geometricPrecision" transform="matrix(1,0,0,1,-128,638)" stroke-linecap="butt">
          <ellipse rx="59.5205" fill="none" ry="17.5827" cx="917.2529" cy="-443.9955"/>
        </g>
        <g>
          <g text-rendering="geometricPrecision" stroke-miterlimit="1.45" shape-rendering="geometricPrecision" font-family="sans-serif" transform="matrix(1,0,0,1,-128,638)" stroke-linecap="butt">
            <text x="864.7324" xml:space="preserve" y="-439.4604" stroke="none">gdx:SearchService</text>
          </g>
        </g>
      </a>
    </g>
    <g id="y.node.15">
      <a target="_blank" xlink:type="simple" xlink:href="https://geodex.org/voc/SubmissionService" xlink:show="new">
        <g fill="yellow" text-rendering="geometricPrecision" shape-rendering="geometricPrecision" transform="matrix(1,0,0,1,-128,638)" stroke="yellow">
          <ellipse rx="73.709" ry="17.5827" cx="931.4414" cy="-398.0242" stroke="none"/>
        </g>
        <g text-rendering="geometricPrecision" stroke-miterlimit="1.45" shape-rendering="geometricPrecision" transform="matrix(1,0,0,1,-128,638)" stroke-linecap="butt">
          <ellipse rx="73.709" fill="none" ry="17.5827" cx="931.4414" cy="-398.0242"/>
        </g>
        <g>
          <g text-rendering="geometricPrecision" stroke-miterlimit="1.45" shape-rendering="geometricPrecision" font-family="sans-serif" transform="matrix(1,0,0,1,-128,638)" stroke-linecap="butt">
            <text x="864.7324" xml:space="preserve" y="-393.489" stroke="none">gdx:SubmissionService</text>
          </g>
        </g>
      </a>
    </g>
    <g id="y.node.16">
      <a target="_blank" xlink:type="simple" xlink:href="https://geodex.org/voc/SyndicationService" xlink:show="new">
        <g fill="yellow" text-rendering="geometricPrecision" shape-rendering="geometricPrecision" transform="matrix(1,0,0,1,-128,638)" stroke="yellow">
          <ellipse rx="73.7559" ry="17.5827" cx="931.4883" cy="-352.0528" stroke="none"/>
        </g>
        <g text-rendering="geometricPrecision" stroke-miterlimit="1.45" shape-rendering="geometricPrecision" transform="matrix(1,0,0,1,-128,638)" stroke-linecap="butt">
          <ellipse rx="73.7559" fill="none" ry="17.5827" cx="931.4883" cy="-352.0528"/>
        </g>
        <g>
          <g text-rendering="geometricPrecision" stroke-miterlimit="1.45" shape-rendering="geometricPrecision" font-family="sans-serif" transform="matrix(1,0,0,1,-128,638)" stroke-linecap="butt">
            <text x="864.7324" xml:space="preserve" y="-347.5177" stroke="none">gdx:SyndicationService</text>
          </g>
        </g>
      </a>
    </g>
    <g id="y.node.17">
      <a target="_blank" xlink:type="simple" xlink:href="https://geodex.org/voc/ResearchRepositoryService" xlink:show="new">
        <g fill="rgb(255,204,0)" text-rendering="geometricPrecision" shape-rendering="geometricPrecision" transform="matrix(1,0,0,1,-128,638)" stroke="rgb(255,204,0)">
          <rect x="819.8574" width="194.791" height="30" y="-598.1885" stroke="none"/>
        </g>
        <g text-rendering="geometricPrecision" stroke-miterlimit="1.45" shape-rendering="geometricPrecision" transform="matrix(1,0,0,1,-128,638)" stroke-linecap="butt">
          <rect fill="none" x="819.8574" width="194.791" height="30" y="-598.1885"/>
        </g>
        <g>
          <g text-rendering="geometricPrecision" stroke-miterlimit="1.45" shape-rendering="geometricPrecision" font-family="sans-serif" transform="matrix(1,0,0,1,-128,638)" stroke-linecap="butt">
            <text x="826.8574" xml:space="preserve" y="-578.6533" stroke="none">gdx:ResearchRepositoryService</text>
          </g>
        </g>
      </a>
    </g>
    <g id="y.node.18">
      <a target="_blank" xlink:type="simple" xlink:href="https://geodex.org/voc/SitemapXML" xlink:show="new">
        <g fill="yellow" text-rendering="geometricPrecision" shape-rendering="geometricPrecision" transform="matrix(1,0,0,1,-128,638)" stroke="yellow">
          <ellipse rx="55.4629" ry="15" cx="432.2402" cy="-323.2369" stroke="none"/>
        </g>
        <g text-rendering="geometricPrecision" stroke-miterlimit="1.45" shape-rendering="geometricPrecision" transform="matrix(1,0,0,1,-128,638)" stroke-linecap="butt">
          <ellipse rx="55.4629" fill="none" ry="15" cx="432.2402" cy="-323.2369"/>
        </g>
        <g>
          <g text-rendering="geometricPrecision" stroke-miterlimit="1.45" shape-rendering="geometricPrecision" font-family="sans-serif" transform="matrix(1,0,0,1,-128,638)" stroke-linecap="butt">
            <text x="383.7773" xml:space="preserve" y="-318.7018" stroke="none">gdx:SitemapXML</text>
          </g>
        </g>
      </a>
    </g>
    <g id="y.node.19">
      <a target="_blank" xlink:type="simple" xlink:href="http://schema.org/DigitalDocument" xlink:show="new">
        <g fill="rgb(204,255,204)" text-rendering="geometricPrecision" shape-rendering="geometricPrecision" transform="matrix(1,0,0,1,-128,638)" stroke="rgb(204,255,204)">
          <rect x="345.0927" width="159.793" height="30" y="-409.1829" stroke="none"/>
        </g>
        <g text-rendering="geometricPrecision" stroke-miterlimit="1.45" shape-rendering="geometricPrecision" transform="matrix(1,0,0,1,-128,638)" stroke-linecap="butt">
          <rect fill="none" x="345.0927" width="159.793" height="30" y="-409.1829"/>
        </g>
        <g>
          <g text-rendering="geometricPrecision" stroke-miterlimit="1.45" shape-rendering="geometricPrecision" font-family="sans-serif" transform="matrix(1,0,0,1,-128,638)" stroke-linecap="butt">
            <text x="352.0927" xml:space="preserve" y="-389.6477" stroke="none">schema:DigitalDocument</text>
          </g>
        </g>
      </a>
    </g>
    <g id="y.node.20">
      <a target="_blank" xlink:type="simple" xlink:href="http://schema.org/Dataset" xlink:show="new">
        <g fill="rgb(204,255,204)" text-rendering="geometricPrecision" shape-rendering="geometricPrecision" transform="matrix(1,0,0,1,-128,638)" stroke="rgb(204,255,204)">
          <rect x="824.9316" width="106.0449" height="30" y="-139.1772" stroke="none"/>
        </g>
        <g text-rendering="geometricPrecision" stroke-miterlimit="1.45" shape-rendering="geometricPrecision" transform="matrix(1,0,0,1,-128,638)" stroke-linecap="butt">
          <rect fill="none" x="824.9316" width="106.0449" height="30" y="-139.1772"/>
        </g>
        <g>
          <g text-rendering="geometricPrecision" stroke-miterlimit="1.45" shape-rendering="geometricPrecision" font-family="sans-serif" transform="matrix(1,0,0,1,-128,638)" stroke-linecap="butt">
            <text x="831.9316" xml:space="preserve" y="-119.6421" stroke="none">schema:Dataset</text>
          </g>
        </g>
      </a>
    </g>
    <g id="y.node.21">
      <a target="_blank" xlink:type="simple" xlink:href="http://schema.org/DataCatalog" xlink:show="new">
        <g fill="rgb(204,255,204)" text-rendering="geometricPrecision" shape-rendering="geometricPrecision" transform="matrix(1,0,0,1,-128,638)" stroke="rgb(204,255,204)">
          <rect x="824.9316" width="133.1211" height="30" y="-84.9535" stroke="none"/>
        </g>
        <g text-rendering="geometricPrecision" stroke-miterlimit="1.45" shape-rendering="geometricPrecision" transform="matrix(1,0,0,1,-128,638)" stroke-linecap="butt">
          <rect fill="none" x="824.9316" width="133.1211" height="30" y="-84.9535"/>
        </g>
        <g>
          <g text-rendering="geometricPrecision" stroke-miterlimit="1.45" shape-rendering="geometricPrecision" font-family="sans-serif" transform="matrix(1,0,0,1,-128,638)" stroke-linecap="butt">
            <text x="831.9316" xml:space="preserve" y="-65.4183" stroke="none">schema:DataCatalog</text>
          </g>
        </g>
      </a>
    </g>
    <g id="y.node.22">
      <a target="_blank" xlink:type="simple" xlink:href="http://schema.org/WebAPI" xlink:show="new">
        <g fill="rgb(204,255,204)" text-rendering="geometricPrecision" shape-rendering="geometricPrecision" transform="matrix(1,0,0,1,-128,638)" stroke="rgb(204,255,204)">
          <rect x="825.3975" width="104.8965" height="30" y="-30.7297" stroke="none"/>
        </g>
        <g text-rendering="geometricPrecision" stroke-miterlimit="1.45" shape-rendering="geometricPrecision" transform="matrix(1,0,0,1,-128,638)" stroke-linecap="butt">
          <rect fill="none" x="825.3975" width="104.8965" height="30" y="-30.7297"/>
        </g>
        <g>
          <g text-rendering="geometricPrecision" stroke-miterlimit="1.45" shape-rendering="geometricPrecision" font-family="sans-serif" transform="matrix(1,0,0,1,-128,638)" stroke-linecap="butt">
            <text x="832.3975" xml:space="preserve" y="-11.1945" stroke="none">schema:WebAPI</text>
          </g>
        </g>
      </a>
    </g>
    <g id="y.edge.0">
      <g text-rendering="geometricPrecision" stroke-miterlimit="1.45" shape-rendering="geometricPrecision" transform="matrix(1,0,0,1,-128,638)" stroke-linecap="butt">
        <path fill="none" d="M656 -568.1731 L656 -311.235"/>
        <path d="M656 -303.235 L661 -315.235 L656 -312.235 L651 -315.235 Z" stroke="none"/>
      </g>
      <g>
        <g text-rendering="geometricPrecision" stroke-miterlimit="1.45" shape-rendering="geometricPrecision" font-family="sans-serif" transform="matrix(1,0,0,1,-128,638)" stroke-linecap="butt">
          <text x="659.4038" xml:space="preserve" y="-325.4648" stroke="none">schema:hasOfferCatalog</text>
        </g>
      </g>
    </g>
    <g id="y.edge.1">
      <g text-rendering="geometricPrecision" stroke-miterlimit="1.45" shape-rendering="geometricPrecision" transform="matrix(1,0,0,1,-128,638)" stroke-linecap="butt">
        <path fill="none" d="M670.4341 -568.1724 L670.4341 -506.5782 L720.7239 -506.5782"/>
        <path d="M728.7239 -506.5782 L716.7239 -511.5782 L719.7239 -506.5782 L716.7239 -501.5782 Z" stroke="none"/>
      </g>
      <g>
        <g text-rendering="geometricPrecision" stroke-miterlimit="1.45" shape-rendering="geometricPrecision" font-family="sans-serif" transform="matrix(1,0,0,1,-128,638)" stroke-linecap="butt">
          <text x="680.064" xml:space="preserve" y="-535.2764" stroke="none">schema:availableChannel</text>
        </g>
      </g>
    </g>
    <g id="y.edge.2">
      <g text-rendering="geometricPrecision" stroke-miterlimit="1.45" shape-rendering="geometricPrecision" transform="matrix(1,0,0,1,-128,638)" stroke-linecap="butt">
        <path fill="none" d="M317.1679 -142.5946 L248.7012 -142.5946 L248.7012 -185.1733"/>
        <path d="M248.7012 -189.1733 L242.7012 -177.1733 L248.7012 -189.1733 L254.7012 -177.1733 Z" stroke="none"/>
        <path fill="none" stroke-miterlimit="10" d="M248.7012 -189.1733 L242.7012 -177.1733 L248.7012 -189.1733 L254.7012 -177.1733 Z" stroke-linecap="square"/>
      </g>
      <g>
        <g text-rendering="geometricPrecision" stroke-miterlimit="1.45" shape-rendering="geometricPrecision" font-family="sans-serif" transform="matrix(1,0,0,1,-128,638)" stroke-linecap="butt">
          <text x="260.166" xml:space="preserve" y="-156.4648" stroke="none">rdf:type</text>
        </g>
      </g>
    </g>
    <g id="y.edge.4">
      <g text-rendering="geometricPrecision" stroke-miterlimit="1.45" shape-rendering="geometricPrecision" transform="matrix(1,0,0,1,-128,638)" stroke-linecap="butt">
        <path fill="none" d="M321.3965 2.9366 L248.7012 2.9366 L248.7012 -185.1632"/>
        <path d="M248.7012 -189.1632 L242.7012 -177.1632 L248.7012 -189.1632 L254.7012 -177.1632 Z" stroke="none"/>
        <path fill="none" stroke-miterlimit="10" d="M248.7012 -189.1632 L242.7012 -177.1632 L248.7012 -189.1632 L254.7012 -177.1632 Z" stroke-linecap="square"/>
      </g>
      <g/>
    </g>
    <g id="y.edge.11">
      <g text-rendering="geometricPrecision" stroke-miterlimit="1.45" shape-rendering="geometricPrecision" transform="matrix(1,0,0,1,-128,638)" stroke-linecap="butt">
        <path fill="none" d="M321.7579 -45.268 L248.7012 -45.268 L248.7012 -185.1467"/>
        <path d="M248.7012 -189.1467 L242.7012 -177.1467 L248.7012 -189.1467 L254.7012 -177.1467 Z" stroke="none"/>
        <path fill="none" stroke-miterlimit="10" d="M248.7012 -189.1467 L242.7012 -177.1467 L248.7012 -189.1467 L254.7012 -177.1467 Z" stroke-linecap="square"/>
      </g>
      <g/>
    </g>
    <g id="y.edge.12">
      <g text-rendering="geometricPrecision" stroke-miterlimit="1.45" shape-rendering="geometricPrecision" transform="matrix(1,0,0,1,-128,638)" stroke-linecap="butt">
        <path fill="none" d="M315.8965 -94.39 L248.7012 -94.39 L248.7012 -185.1658"/>
        <path d="M248.7012 -189.1658 L242.7012 -177.1658 L248.7012 -189.1658 L254.7012 -177.1658 Z" stroke="none"/>
        <path fill="none" stroke-miterlimit="10" d="M248.7012 -189.1658 L242.7012 -177.1658 L248.7012 -189.1658 L254.7012 -177.1658 Z" stroke-linecap="square"/>
      </g>
      <g/>
    </g>
    <g id="y.edge.3">
      <g text-rendering="geometricPrecision" stroke-miterlimit="1.45" shape-rendering="geometricPrecision" transform="matrix(1,0,0,1,-128,638)" stroke-linecap="butt">
        <path fill="none" d="M318.8965 47.6412 L248.7012 47.6412 L248.7012 -185.1476"/>
        <path d="M248.7012 -189.1476 L242.7012 -177.1476 L248.7012 -189.1476 L254.7012 -177.1476 Z" stroke="none"/>
        <path fill="none" stroke-miterlimit="10" d="M248.7012 -189.1476 L242.7012 -177.1476 L248.7012 -189.1476 L254.7012 -177.1476 Z" stroke-linecap="square"/>
      </g>
      <g/>
    </g>
    <g id="y.edge.5">
      <g text-rendering="geometricPrecision" stroke-miterlimit="1.45" shape-rendering="geometricPrecision" transform="matrix(1,0,0,1,-128,638)" stroke-linecap="butt">
        <path fill="none" d="M606.5903 -273.2669 L607.4727 -216.19"/>
        <path d="M607.5963 -208.191 L612.4102 -220.2668 L607.4572 -217.1899 L602.4114 -220.1122 Z" stroke="none"/>
      </g>
      <g>
        <g text-rendering="geometricPrecision" stroke-miterlimit="1.45" shape-rendering="geometricPrecision" font-family="sans-serif" transform="matrix(1,0,0,1,-128,638)" stroke-linecap="butt">
          <text x="615.5879" xml:space="preserve" y="-228.9648" stroke="none">schema:itemListElement</text>
        </g>
      </g>
    </g>
    <g id="y.edge.14">
      <g text-rendering="geometricPrecision" stroke-miterlimit="1.45" shape-rendering="geometricPrecision" transform="matrix(1,0,0,1,-128,638)" stroke-linecap="butt">
        <path fill="none" d="M592.2707 -193.2215 L395.8573 -193.2215"/>
        <path d="M387.8573 -193.2215 L399.8573 -188.2215 L396.8573 -193.2215 L399.8573 -198.2215 Z" stroke="none"/>
      </g>
      <g>
        <g text-rendering="geometricPrecision" stroke-miterlimit="1.45" shape-rendering="geometricPrecision" font-family="sans-serif" transform="matrix(1,0,0,1,-128,638)" stroke-linecap="butt">
          <text x="409.2477" xml:space="preserve" y="-202.1315" stroke="none">schema:publishingPrinciples</text>
        </g>
      </g>
    </g>
    <g id="y.edge.6">
      <g text-rendering="geometricPrecision" stroke-miterlimit="1.45" shape-rendering="geometricPrecision" transform="matrix(1,0,0,1,-128,638)" stroke-linecap="butt">
        <path fill="none" d="M573.7155 -585 L348.9522 -585"/>
        <path d="M340.9522 -585 L352.9522 -580 L349.9522 -585 L352.9522 -590 Z" stroke="none"/>
      </g>
      <g>
        <g text-rendering="geometricPrecision" stroke-miterlimit="1.45" shape-rendering="geometricPrecision" font-family="sans-serif" transform="matrix(1,0,0,1,-128,638)" stroke-linecap="butt">
          <text x="392.1978" xml:space="preserve" y="-591.2764" stroke="none">schema:provider</text>
        </g>
      </g>
    </g>
    <g id="y.edge.13">
      <g text-rendering="geometricPrecision" stroke-miterlimit="1.45" shape-rendering="geometricPrecision" transform="matrix(1,0,0,1,-128,638)" stroke-linecap="butt">
        <path fill="none" d="M318.8004 -568.1917 L318.8004 -228.1994"/>
        <path d="M318.8004 -220.1994 L323.8004 -232.1994 L318.8004 -229.1994 L313.8004 -232.1994 Z" stroke="none"/>
      </g>
      <g>
        <g text-rendering="geometricPrecision" stroke-miterlimit="1.45" shape-rendering="geometricPrecision" font-family="sans-serif" transform="matrix(1,0,0,1,-128,638)" stroke-linecap="butt">
          <text x="145.0202" xml:space="preserve" y="-241.4648" stroke="none">schema:publishingPrinciples</text>
        </g>
      </g>
    </g>
    <g id="y.edge.7">
      <g text-rendering="geometricPrecision" stroke-miterlimit="1.45" shape-rendering="geometricPrecision" transform="matrix(1,0,0,1,-128,638)" stroke-linecap="butt">
        <path fill="none" d="M329.833 -568.2207 L329.833 -505.1885 L456.0734 -505.1885 L456.0734 -514.1885 L478.2705 -514.1885"/>
        <path d="M486.2705 -514.1885 L474.2705 -519.1885 L477.2705 -514.1885 L474.2705 -509.1885 Z" stroke="none"/>
      </g>
      <g/>
    </g>
    <g id="y.edge.8">
      <g text-rendering="geometricPrecision" stroke-miterlimit="1.45" shape-rendering="geometricPrecision" transform="matrix(1,0,0,1,-128,638)" stroke-linecap="butt">
        <path fill="none" d="M329.833 -568.2207 L329.833 -505.1885 L456.0734 -505.1885 L456.0734 -470.5379 L478.2705 -470.5379"/>
        <path d="M486.2705 -470.5379 L474.2705 -475.5379 L477.2705 -470.5379 L474.2705 -465.5379 Z" stroke="none"/>
      </g>
      <g>
        <g text-rendering="geometricPrecision" stroke-miterlimit="1.45" shape-rendering="geometricPrecision" font-family="sans-serif" transform="matrix(1,0,0,1,-128,638)" stroke-linecap="butt">
          <text x="347.6005" xml:space="preserve" y="-509.7455" stroke="none">schema:funder</text>
        </g>
      </g>
    </g>
    <g id="y.edge.9">
      <g text-rendering="geometricPrecision" stroke-miterlimit="1.45" shape-rendering="geometricPrecision" transform="matrix(1,0,0,1,-128,638)" stroke-linecap="butt">
        <path fill="none" d="M298.8004 -568.2243 L298.8004 -443.6353"/>
        <path d="M298.8004 -435.6353 L303.8004 -447.6353 L298.8004 -444.6353 L293.8004 -447.6353 Z" stroke="none"/>
      </g>
      <g>
        <g text-rendering="geometricPrecision" stroke-miterlimit="1.45" shape-rendering="geometricPrecision" font-family="sans-serif" transform="matrix(1,0,0,1,-128,638)" stroke-linecap="butt">
          <text x="167.9268" xml:space="preserve" y="-458.4648" stroke="none">schema:contactPoint</text>
        </g>
      </g>
    </g>
    <g id="y.edge.15">
      <g text-rendering="geometricPrecision" stroke-miterlimit="1.45" shape-rendering="geometricPrecision" transform="matrix(1,0,0,1,-128,638)" stroke-linecap="butt">
        <path fill="none" d="M857.7324 -443.9955 L803.7227 -443.9955 L803.7227 -486.5597"/>
        <path d="M803.7227 -490.5597 L797.7227 -478.5597 L803.7227 -490.5597 L809.7227 -478.5597 Z" stroke="none"/>
        <path fill="none" stroke-miterlimit="10" d="M803.7227 -490.5597 L797.7227 -478.5597 L803.7227 -490.5597 L809.7227 -478.5597 Z" stroke-linecap="square"/>
      </g>
      <g>
        <g text-rendering="geometricPrecision" stroke-miterlimit="1.45" shape-rendering="geometricPrecision" font-family="sans-serif" transform="matrix(1,0,0,1,-128,638)" stroke-linecap="butt">
          <text x="813.166" xml:space="preserve" y="-465.8546" stroke="none">rdf:type</text>
        </g>
      </g>
    </g>
    <g id="y.edge.10">
      <g text-rendering="geometricPrecision" stroke-miterlimit="1.45" shape-rendering="geometricPrecision" transform="matrix(1,0,0,1,-128,638)" stroke-linecap="butt">
        <path fill="none" d="M857.6954 -398.0242 L803.7227 -398.0242 L803.7227 -486.5782"/>
        <path d="M803.7227 -490.5782 L797.7227 -478.5782 L803.7227 -490.5782 L809.7227 -478.5782 Z" stroke="none"/>
        <path fill="none" stroke-miterlimit="10" d="M803.7227 -490.5782 L797.7227 -478.5782 L803.7227 -490.5782 L809.7227 -478.5782 Z" stroke-linecap="square"/>
      </g>
      <g/>
    </g>
    <g id="y.edge.16">
      <g text-rendering="geometricPrecision" stroke-miterlimit="1.45" shape-rendering="geometricPrecision" transform="matrix(1,0,0,1,-128,638)" stroke-linecap="butt">
        <path fill="none" d="M857.7324 -352.0528 L803.7227 -352.0528 L803.7227 -486.5994"/>
        <path d="M803.7227 -490.5994 L797.7227 -478.5994 L803.7227 -490.5994 L809.7227 -478.5994 Z" stroke="none"/>
        <path fill="none" stroke-miterlimit="10" d="M803.7227 -490.5994 L797.7227 -478.5994 L803.7227 -490.5994 L809.7227 -478.5994 Z" stroke-linecap="square"/>
      </g>
      <g/>
    </g>
    <g id="y.edge.22">
      <g text-rendering="geometricPrecision" stroke-miterlimit="1.45" shape-rendering="geometricPrecision" transform="matrix(1,0,0,1,-128,638)" stroke-linecap="butt">
        <path fill="none" d="M676.2729 -583.1885 L811.8574 -583.1885"/>
        <path d="M819.8574 -583.1885 L807.8574 -588.1885 L810.8574 -583.1885 L807.8574 -578.1885 Z" stroke="none"/>
      </g>
      <g>
        <g text-rendering="geometricPrecision" stroke-miterlimit="1.45" shape-rendering="geometricPrecision" font-family="sans-serif" transform="matrix(1,0,0,1,-128,638)" stroke-linecap="butt">
          <text x="680.9695" xml:space="preserve" y="-608.6533" stroke="none">schema:additionalType</text>
        </g>
      </g>
    </g>
    <g id="y.edge.17">
      <g text-rendering="geometricPrecision" stroke-miterlimit="1.45" shape-rendering="geometricPrecision" transform="matrix(1,0,0,1,-128,638)" stroke-linecap="butt">
        <path fill="none" d="M636 -568.17 L636 -392.7374 L512.8673 -392.7374"/>
        <path d="M504.8673 -392.7374 L516.8673 -387.7374 L513.8673 -392.7374 L516.8673 -397.7374 Z" stroke="none"/>
      </g>
      <g>
        <g text-rendering="geometricPrecision" stroke-miterlimit="1.45" shape-rendering="geometricPrecision" font-family="sans-serif" transform="matrix(1,0,0,1,-128,638)" stroke-linecap="butt">
          <text x="526.0771" xml:space="preserve" y="-400.4648" stroke="none">schema:subjectOf</text>
        </g>
      </g>
    </g>
    <g id="y.edge.18">
      <g text-rendering="geometricPrecision" stroke-miterlimit="1.45" shape-rendering="geometricPrecision" transform="matrix(1,0,0,1,-128,638)" stroke-linecap="butt">
        <path fill="none" d="M432.2402 -338.2071 L432.2402 -374.1496"/>
        <path d="M432.2402 -378.1496 L426.2402 -366.1496 L432.2402 -378.1496 L438.2402 -366.1496 Z" stroke="none"/>
        <path fill="none" stroke-miterlimit="10" d="M432.2402 -378.1496 L426.2402 -366.1496 L432.2402 -378.1496 L438.2402 -366.1496 Z" stroke-linecap="square"/>
      </g>
      <g>
        <g text-rendering="geometricPrecision" stroke-miterlimit="1.45" shape-rendering="geometricPrecision" font-family="sans-serif" transform="matrix(1,0,0,1,-128,638)" stroke-linecap="butt">
          <text x="439.4062" xml:space="preserve" y="-354.1747" stroke="none">rdf:type</text>
        </g>
      </g>
    </g>
    <g id="y.edge.19">
      <g text-rendering="geometricPrecision" stroke-miterlimit="1.45" stroke-dasharray="6,2" shape-rendering="geometricPrecision" transform="matrix(1,0,0,1,-128,638)" stroke-linecap="butt">
        <path fill="none" d="M824.9316 -124.1772 L639.9717 -124.1772 L639.9717 -163.2215"/>
        <path fill="white" d="M639.9717 -178.2215 L633.9717 -162.2215 L645.9717 -162.2215 Z" stroke="none"/>
        <path stroke-dasharray="none" fill="none" d="M639.9717 -178.2215 L633.9717 -162.2215 L645.9717 -162.2215 Z"/>
      </g>
      <g/>
    </g>
    <g id="y.edge.20">
      <g text-rendering="geometricPrecision" stroke-miterlimit="1.45" stroke-dasharray="6,2" shape-rendering="geometricPrecision" transform="matrix(1,0,0,1,-128,638)" stroke-linecap="butt">
        <path fill="none" d="M824.9316 -69.9535 L639.9717 -69.9535 L639.9717 -163.216"/>
        <path fill="white" d="M639.9717 -178.216 L633.9717 -162.216 L645.9717 -162.216 Z" stroke="none"/>
        <path stroke-dasharray="none" fill="none" d="M639.9717 -178.216 L633.9717 -162.216 L645.9717 -162.216 Z"/>
      </g>
      <g/>
    </g>
    <g id="y.edge.21">
      <g text-rendering="geometricPrecision" stroke-miterlimit="1.45" stroke-dasharray="6,2" shape-rendering="geometricPrecision" transform="matrix(1,0,0,1,-128,638)" stroke-linecap="butt">
        <path fill="none" d="M825.3975 -15.7297 L639.9717 -15.7297 L639.9717 -163.2508"/>
        <path fill="white" d="M639.9717 -178.2508 L633.9717 -162.2508 L645.9717 -162.2508 Z" stroke="none"/>
        <path stroke-dasharray="none" fill="none" d="M639.9717 -178.2508 L633.9717 -162.2508 L645.9717 -162.2508 Z"/>
      </g>
      <g>
        <g text-rendering="geometricPrecision" stroke-miterlimit="1.45" shape-rendering="geometricPrecision" font-family="sans-serif" transform="matrix(1,0,0,1,-128,638)" stroke-linecap="butt">
          <text x="657.3149" xml:space="preserve" y="-144.1945" stroke="none">rdfs:subClassOf</text>
        </g>
      </g>
    </g>
  </g>
</svg>
