<?xml version="1.0" encoding="UTF-8"?><svg xmlns="http://www.w3.org/2000/svg" xmlns:xlink="http://www.w3.org/1999/xlink" fill-opacity="1" color-rendering="auto" color-interpolation="auto" text-rendering="auto" stroke="black" stroke-linecap="square" width="801" stroke-miterlimit="10" shape-rendering="auto" stroke-opacity="1" fill="black" stroke-dasharray="none" font-weight="normal" stroke-width="1" height="449" font-family="'Dialog'" font-style="normal" stroke-linejoin="miter" font-size="12px" stroke-dashoffset="0" image-rendering="auto">
  <!--Generated by ySVG 2.5-->
  <defs id="genericDefs"/>
  <g>
    <defs id="defs1">
      <clipPath clipPathUnits="userSpaceOnUse" id="clipPath1">
        <path d="M0 0 L801 0 L801 449 L0 449 L0 0 Z"/>
      </clipPath>
      <clipPath clipPathUnits="userSpaceOnUse" id="clipPath2">
        <path d="M263 -638 L1064 -638 L1064 -189 L263 -189 L263 -638 Z"/>
      </clipPath>
    </defs>
    <g fill="white" text-rendering="geometricPrecision" shape-rendering="geometricPrecision" transform="translate(-263,638)" stroke="white">
      <rect x="263" width="801" height="449" y="-638" clip-path="url(#clipPath2)" stroke="none"/>
    </g>
    <g id="y.node.0">
      <a target="_blank" xlink:type="simple" xlink:href="http://schema.org/Service" xlink:show="new">
        <g fill="rgb(204,255,204)" text-rendering="geometricPrecision" shape-rendering="geometricPrecision" transform="matrix(1,0,0,1,-263,638)" stroke="rgb(204,255,204)">
          <rect x="573.6792" width="102.5938" height="30" y="-598.1885" stroke="none"/>
        </g>
        <g text-rendering="geometricPrecision" stroke-miterlimit="1.45" shape-rendering="geometricPrecision" transform="matrix(1,0,0,1,-263,638)" stroke-linecap="butt">
          <rect fill="none" x="573.6792" width="102.5938" height="30" y="-598.1885"/>
        </g>
        <g>
          <g text-rendering="geometricPrecision" stroke-miterlimit="1.45" shape-rendering="geometricPrecision" font-family="sans-serif" transform="matrix(1,0,0,1,-263,638)" stroke-linecap="butt">
            <text x="580.6792" xml:space="preserve" y="-578.6533" stroke="none">schema:Service</text>
          </g>
        </g>
      </a>
    </g>
    <g id="y.node.1">
      <a target="_blank" xlink:type="simple" xlink:href="https://geodex.org/voc/Protocol-Access" xlink:show="new">
        <g fill="yellow" text-rendering="geometricPrecision" shape-rendering="geometricPrecision" transform="matrix(1,0,0,1,-263,638)" stroke="yellow">
          <ellipse rx="100.7344" ry="15" cx="912.2529" cy="-219.8236" stroke="none"/>
        </g>
        <g text-rendering="geometricPrecision" stroke-miterlimit="1.45" shape-rendering="geometricPrecision" transform="matrix(1,0,0,1,-263,638)" stroke-linecap="butt">
          <ellipse rx="100.7344" fill="none" ry="15" cx="912.2529" cy="-219.8236"/>
        </g>
        <g>
          <g text-rendering="geometricPrecision" stroke-miterlimit="1.45" shape-rendering="geometricPrecision" font-family="sans-serif" transform="matrix(1,0,0,1,-263,638)" stroke-linecap="butt">
            <text x="823.5186" xml:space="preserve" y="-215.2885" stroke="none">gdx:OutreachActivity-Training</text>
          </g>
        </g>
      </a>
    </g>
    <g id="y.node.2">
      <a target="_blank" xlink:type="simple" xlink:href="http://schema.org/Organization" xlink:show="new">
        <g fill="rgb(204,255,204)" text-rendering="geometricPrecision" shape-rendering="geometricPrecision" transform="matrix(1,0,0,1,-263,638)" stroke="rgb(204,255,204)">
          <rect x="278.368" width="137.5625" height="30" y="-598.1885" stroke="none"/>
        </g>
        <g text-rendering="geometricPrecision" stroke-miterlimit="1.45" shape-rendering="geometricPrecision" transform="matrix(1,0,0,1,-263,638)" stroke-linecap="butt">
          <rect fill="none" x="278.368" width="137.5625" height="30" y="-598.1885"/>
        </g>
        <g>
          <g text-rendering="geometricPrecision" stroke-miterlimit="1.45" shape-rendering="geometricPrecision" font-family="sans-serif" transform="matrix(1,0,0,1,-263,638)" stroke-linecap="butt">
            <text x="285.368" xml:space="preserve" y="-578.6533" stroke="none">schema:Organization</text>
          </g>
        </g>
      </a>
    </g>
    <g id="y.node.3">
      <a target="_blank" xlink:type="simple" xlink:href="https://geodex.org/voc/ResearchRepositoryService" xlink:show="new">
        <g fill="rgb(255,204,0)" text-rendering="geometricPrecision" shape-rendering="geometricPrecision" transform="matrix(1,0,0,1,-263,638)" stroke="rgb(255,204,0)">
          <rect x="819.8574" width="194.791" height="30" y="-598.1885" stroke="none"/>
        </g>
        <g text-rendering="geometricPrecision" stroke-miterlimit="1.45" shape-rendering="geometricPrecision" transform="matrix(1,0,0,1,-263,638)" stroke-linecap="butt">
          <rect fill="none" x="819.8574" width="194.791" height="30" y="-598.1885"/>
        </g>
        <g>
          <g text-rendering="geometricPrecision" stroke-miterlimit="1.45" shape-rendering="geometricPrecision" font-family="sans-serif" transform="matrix(1,0,0,1,-263,638)" stroke-linecap="butt">
            <text x="826.8574" xml:space="preserve" y="-578.6533" stroke="none">gdx:ResearchRepositoryService</text>
          </g>
        </g>
      </a>
    </g>
    <g id="y.node.4">
      <a target="_blank" xlink:type="simple" xlink:href="https://geodex.org/voc/ResearchRepositoryService" xlink:show="new">
        <g fill="rgb(255,204,0)" text-rendering="geometricPrecision" shape-rendering="geometricPrecision" transform="matrix(1,0,0,1,-263,638)" stroke="rgb(255,204,0)">
          <rect x="636.8574" width="142.6191" height="30" y="-414.9095" stroke="none"/>
        </g>
        <g text-rendering="geometricPrecision" stroke-miterlimit="1.45" shape-rendering="geometricPrecision" transform="matrix(1,0,0,1,-263,638)" stroke-linecap="butt">
          <rect fill="none" x="636.8574" width="142.6191" height="30" y="-414.9095"/>
        </g>
        <g>
          <g text-rendering="geometricPrecision" stroke-miterlimit="1.45" shape-rendering="geometricPrecision" font-family="sans-serif" transform="matrix(1,0,0,1,-263,638)" stroke-linecap="butt">
            <text x="643.8574" xml:space="preserve" y="-395.3743" stroke="none">gdx:OutreachActivites</text>
          </g>
        </g>
      </a>
    </g>
    <g id="y.node.5">
      <a target="_blank" xlink:type="simple" xlink:href="https://geodex.org/voc/Protocol-Access" xlink:show="new">
        <g fill="yellow" text-rendering="geometricPrecision" shape-rendering="geometricPrecision" transform="matrix(1,0,0,1,-263,638)" stroke="yellow">
          <ellipse rx="112.4209" ry="15" cx="923.9395" cy="-315.208" stroke="none"/>
        </g>
        <g text-rendering="geometricPrecision" stroke-miterlimit="1.45" shape-rendering="geometricPrecision" transform="matrix(1,0,0,1,-263,638)" stroke-linecap="butt">
          <ellipse rx="112.4209" fill="none" ry="15" cx="923.9395" cy="-315.208"/>
        </g>
        <g>
          <g text-rendering="geometricPrecision" stroke-miterlimit="1.45" shape-rendering="geometricPrecision" font-family="sans-serif" transform="matrix(1,0,0,1,-263,638)" stroke-linecap="butt">
            <text x="823.5186" xml:space="preserve" y="-310.6729" stroke="none">gdx:OutreachActivity-UserSupport</text>
          </g>
        </g>
      </a>
    </g>
    <g id="y.node.6">
      <a target="_blank" xlink:type="simple" xlink:href="https://geodex.org/voc/Protocol-Access" xlink:show="new">
        <g fill="yellow" text-rendering="geometricPrecision" shape-rendering="geometricPrecision" transform="matrix(1,0,0,1,-263,638)" stroke="yellow">
          <ellipse rx="118.5527" ry="15" cx="930.0713" cy="-267.5158" stroke="none"/>
        </g>
        <g text-rendering="geometricPrecision" stroke-miterlimit="1.45" shape-rendering="geometricPrecision" transform="matrix(1,0,0,1,-263,638)" stroke-linecap="butt">
          <ellipse rx="118.5527" fill="none" ry="15" cx="930.0713" cy="-267.5158"/>
        </g>
        <g>
          <g text-rendering="geometricPrecision" stroke-miterlimit="1.45" shape-rendering="geometricPrecision" font-family="sans-serif" transform="matrix(1,0,0,1,-263,638)" stroke-linecap="butt">
            <text x="823.5186" xml:space="preserve" y="-262.9807" stroke="none">gdx:OutreachActivity-UserWorkshop</text>
          </g>
        </g>
      </a>
    </g>
    <g id="y.node.7">
      <a target="_blank" xlink:type="simple" xlink:href="http://schema.org/OfferCatalog" xlink:show="new">
        <g fill="rgb(204,255,204)" text-rendering="geometricPrecision" shape-rendering="geometricPrecision" transform="matrix(1,0,0,1,-263,638)" stroke="rgb(204,255,204)">
          <rect x="558.5942" width="99.2246" height="30" y="-282.5158" stroke="none"/>
        </g>
        <g text-rendering="geometricPrecision" stroke-miterlimit="1.45" shape-rendering="geometricPrecision" transform="matrix(1,0,0,1,-263,638)" stroke-linecap="butt">
          <rect fill="none" x="558.5942" width="99.2246" height="30" y="-282.5158"/>
        </g>
        <g>
          <g text-rendering="geometricPrecision" stroke-miterlimit="1.45" shape-rendering="geometricPrecision" font-family="sans-serif" transform="matrix(1,0,0,1,-263,638)" stroke-linecap="butt">
            <text x="565.5942" xml:space="preserve" y="-262.9807" stroke="none">schema:Action</text>
          </g>
        </g>
      </a>
    </g>
    <g id="y.node.8">
      <a target="_blank" xlink:type="simple" xlink:href="http://schema.org/OfferCatalog" xlink:show="new">
        <g fill="rgb(204,255,204)" text-rendering="geometricPrecision" shape-rendering="geometricPrecision" transform="matrix(1,0,0,1,-263,638)" stroke="rgb(204,255,204)">
          <rect x="540.1401" width="136.1328" height="30" y="-485.6063" stroke="none"/>
        </g>
        <g text-rendering="geometricPrecision" stroke-miterlimit="1.45" shape-rendering="geometricPrecision" transform="matrix(1,0,0,1,-263,638)" stroke-linecap="butt">
          <rect fill="none" x="540.1401" width="136.1328" height="30" y="-485.6063"/>
        </g>
        <g>
          <g text-rendering="geometricPrecision" stroke-miterlimit="1.45" shape-rendering="geometricPrecision" font-family="sans-serif" transform="matrix(1,0,0,1,-263,638)" stroke-linecap="butt">
            <text x="547.1401" xml:space="preserve" y="-466.0712" stroke="none">schema:OfferCatalog</text>
          </g>
        </g>
      </a>
    </g>
    <g id="y.edge.0">
      <g text-rendering="geometricPrecision" stroke-miterlimit="1.45" shape-rendering="geometricPrecision" transform="matrix(1,0,0,1,-263,638)" stroke-linecap="butt">
        <path fill="none" d="M573.6606 -585 L423.8958 -585"/>
        <path d="M415.8958 -585 L427.8958 -580 L424.8958 -585 L427.8958 -590 Z" stroke="none"/>
      </g>
      <g>
        <g text-rendering="geometricPrecision" stroke-miterlimit="1.45" shape-rendering="geometricPrecision" font-family="sans-serif" transform="matrix(1,0,0,1,-263,638)" stroke-linecap="butt">
          <text x="454.1572" xml:space="preserve" y="-592.9648" stroke="none">schema:provider</text>
        </g>
      </g>
    </g>
    <g id="y.edge.1">
      <g text-rendering="geometricPrecision" stroke-miterlimit="1.45" shape-rendering="geometricPrecision" transform="matrix(1,0,0,1,-263,638)" stroke-linecap="butt">
        <path fill="none" d="M676.2729 -583.1885 L811.8574 -583.1885"/>
        <path d="M819.8574 -583.1885 L807.8574 -588.1885 L810.8574 -583.1885 L807.8574 -578.1885 Z" stroke="none"/>
      </g>
      <g>
        <g text-rendering="geometricPrecision" stroke-miterlimit="1.45" shape-rendering="geometricPrecision" font-family="sans-serif" transform="matrix(1,0,0,1,-263,638)" stroke-linecap="butt">
          <text x="680.9695" xml:space="preserve" y="-608.6533" stroke="none">schema:additionalType</text>
        </g>
      </g>
    </g>
    <g id="y.edge.5">
      <g text-rendering="geometricPrecision" stroke-miterlimit="1.45" shape-rendering="geometricPrecision" transform="matrix(1,0,0,1,-263,638)" stroke-linecap="butt">
        <path fill="none" d="M811.5186 -219.8236 L699.0872 -219.8236 L699.0872 -267.5158 L665.8188 -267.5158"/>
        <path d="M657.8188 -267.5158 L669.8188 -262.5158 L666.8188 -267.5158 L669.8188 -272.5158 Z" stroke="none"/>
      </g>
      <g>
        <g text-rendering="geometricPrecision" stroke-miterlimit="1.45" shape-rendering="geometricPrecision" font-family="sans-serif" transform="matrix(1,0,0,1,-263,638)" stroke-linecap="butt">
          <text x="703.4043" xml:space="preserve" y="-283.9648" stroke="none">schema:additionalType</text>
        </g>
      </g>
    </g>
    <g id="y.edge.6">
      <g text-rendering="geometricPrecision" stroke-miterlimit="1.45" shape-rendering="geometricPrecision" transform="matrix(1,0,0,1,-263,638)" stroke-linecap="butt">
        <path fill="none" d="M811.5186 -267.5158 L665.7899 -267.5158"/>
        <path d="M657.7899 -267.5158 L669.7899 -262.5158 L666.7899 -267.5158 L669.7899 -272.5158 Z" stroke="none"/>
      </g>
      <g/>
    </g>
    <g id="y.edge.7">
      <g text-rendering="geometricPrecision" stroke-miterlimit="1.45" shape-rendering="geometricPrecision" transform="matrix(1,0,0,1,-263,638)" stroke-linecap="butt">
        <path fill="none" d="M811.5186 -315.208 L699.0872 -315.208 L699.0872 -267.5158 L665.7782 -267.5158"/>
        <path d="M657.7782 -267.5158 L669.7782 -262.5158 L666.7782 -267.5158 L669.7782 -272.5158 Z" stroke="none"/>
      </g>
      <g/>
    </g>
    <g id="y.edge.2">
      <g text-rendering="geometricPrecision" stroke-miterlimit="1.45" shape-rendering="geometricPrecision" transform="matrix(1,0,0,1,-263,638)" stroke-linecap="butt">
        <path fill="none" d="M653.0582 -414.8802 L653.0582 -447.5925"/>
        <path d="M653.0582 -455.5925 L648.0582 -443.5925 L653.0582 -446.5925 L658.0582 -443.5925 Z" stroke="none"/>
      </g>
      <g>
        <g text-rendering="geometricPrecision" stroke-miterlimit="1.45" shape-rendering="geometricPrecision" font-family="sans-serif" transform="matrix(1,0,0,1,-263,638)" stroke-linecap="butt">
          <text x="664.4043" xml:space="preserve" y="-429.9648" stroke="none">schema:additionalType</text>
        </g>
      </g>
    </g>
    <g id="y.edge.3">
      <g text-rendering="geometricPrecision" stroke-miterlimit="1.45" shape-rendering="geometricPrecision" transform="matrix(1,0,0,1,-263,638)" stroke-linecap="butt">
        <path fill="none" d="M399.5 -568.2087 L399.5 -526.8974 L608.2065 -526.8974 L608.2065 -493.6063"/>
        <path d="M608.2065 -485.6063 L613.2065 -497.6063 L608.2065 -494.6063 L603.2065 -497.6063 Z" stroke="none"/>
      </g>
      <g>
        <g text-rendering="geometricPrecision" stroke-miterlimit="1.45" shape-rendering="geometricPrecision" font-family="sans-serif" transform="matrix(1,0,0,1,-263,638)" stroke-linecap="butt">
          <text x="419.3379" xml:space="preserve" y="-539.9648" stroke="none">schema:hasOfferCatalog</text>
        </g>
      </g>
    </g>
    <g id="y.edge.4">
      <g text-rendering="geometricPrecision" stroke-miterlimit="1.45" shape-rendering="geometricPrecision" transform="matrix(1,0,0,1,-263,638)" stroke-linecap="butt">
        <path fill="none" d="M602.1343 -455.5828 L602.1343 -290.53"/>
        <path d="M602.1343 -282.53 L607.1343 -294.53 L602.1343 -291.53 L597.1343 -294.53 Z" stroke="none"/>
      </g>
      <g>
        <g text-rendering="geometricPrecision" stroke-miterlimit="1.45" shape-rendering="geometricPrecision" font-family="sans-serif" transform="matrix(1,0,0,1,-263,638)" stroke-linecap="butt">
          <text x="453.7222" xml:space="preserve" y="-364.5259" stroke="none">schema:itemListElement</text>
        </g>
      </g>
    </g>
  </g>
</svg>
