<?xml version="1.0" encoding="UTF-8"?><svg xmlns="http://www.w3.org/2000/svg" xmlns:xlink="http://www.w3.org/1999/xlink" fill-opacity="1" color-rendering="auto" color-interpolation="auto" text-rendering="auto" stroke="black" stroke-linecap="square" width="870" stroke-miterlimit="10" shape-rendering="auto" stroke-opacity="1" fill="black" stroke-dasharray="none" font-weight="normal" stroke-width="1" height="503" font-family="'Dialog'" font-style="normal" stroke-linejoin="miter" font-size="12px" stroke-dashoffset="0" image-rendering="auto">
  <!--Generated by ySVG 2.5-->
  <defs id="genericDefs"/>
  <g>
    <defs id="defs1">
      <clipPath clipPathUnits="userSpaceOnUse" id="clipPath1">
        <path d="M0 0 L870 0 L870 503 L0 503 L0 0 Z"/>
      </clipPath>
    </defs>
    <g id="y.node.0">
      <a target="_blank" xlink:type="simple" xlink:href="http://schema.org/Service" xlink:show="new">
        <g fill="rgb(204,255,204)" text-rendering="geometricPrecision" shape-rendering="geometricPrecision" transform="matrix(1,0,0,1,-108,500)" stroke="rgb(204,255,204)">
          <rect x="573.6792" width="102.5938" height="30" y="-460.1885" stroke="none"/>
        </g>
        <g text-rendering="geometricPrecision" stroke-miterlimit="1.45" shape-rendering="geometricPrecision" transform="matrix(1,0,0,1,-108,500)" stroke-linecap="butt">
          <rect fill="none" x="573.6792" width="102.5938" height="30" y="-460.1885"/>
        </g>
        <g>
          <g text-rendering="geometricPrecision" stroke-miterlimit="1.45" shape-rendering="geometricPrecision" font-family="sans-serif" transform="matrix(1,0,0,1,-108,500)" stroke-linecap="butt">
            <text x="580.6792" xml:space="preserve" y="-440.6533" stroke="none">schema:Service</text>
          </g>
        </g>
      </a>
    </g>
    <g id="y.node.1">
      <a target="_blank" xlink:type="simple" xlink:href="http://schema.org/OfferCatalog" xlink:show="new">
        <g fill="rgb(204,255,204)" text-rendering="geometricPrecision" shape-rendering="geometricPrecision" transform="matrix(1,0,0,1,-108,500)" stroke="rgb(204,255,204)">
          <rect x="556.3191" width="136.1328" height="30" y="-377.2658" stroke="none"/>
        </g>
        <g text-rendering="geometricPrecision" stroke-miterlimit="1.45" shape-rendering="geometricPrecision" transform="matrix(1,0,0,1,-108,500)" stroke-linecap="butt">
          <rect fill="none" x="556.3191" width="136.1328" height="30" y="-377.2658"/>
        </g>
        <g>
          <g text-rendering="geometricPrecision" stroke-miterlimit="1.45" shape-rendering="geometricPrecision" font-family="sans-serif" transform="matrix(1,0,0,1,-108,500)" stroke-linecap="butt">
            <text x="563.3191" xml:space="preserve" y="-357.7307" stroke="none">schema:OfferCatalog</text>
          </g>
        </g>
      </a>
    </g>
    <g id="y.node.2">
      <a target="_blank" xlink:type="simple" xlink:href="http://schema.org/DigitalDocument" xlink:show="new">
        <g fill="rgb(204,255,204)" text-rendering="geometricPrecision" shape-rendering="geometricPrecision" transform="matrix(1,0,0,1,-108,500)" stroke="rgb(204,255,204)">
          <rect x="242.9482" width="159.793" height="30" y="-294.8482" stroke="none"/>
        </g>
        <g text-rendering="geometricPrecision" stroke-miterlimit="1.45" shape-rendering="geometricPrecision" transform="matrix(1,0,0,1,-108,500)" stroke-linecap="butt">
          <rect fill="none" x="242.9482" width="159.793" height="30" y="-294.8482"/>
        </g>
        <g>
          <g text-rendering="geometricPrecision" stroke-miterlimit="1.45" shape-rendering="geometricPrecision" font-family="sans-serif" transform="matrix(1,0,0,1,-108,500)" stroke-linecap="butt">
            <text x="249.9482" xml:space="preserve" y="-275.313" stroke="none">schema:DigitalDocument</text>
          </g>
        </g>
      </a>
    </g>
    <g id="y.node.3">
      <a target="_blank" xlink:type="simple" xlink:href="https://geodex.org/voc/Protocol-License" xlink:show="new">
        <g fill="yellow" text-rendering="geometricPrecision" shape-rendering="geometricPrecision" transform="matrix(1,0,0,1,-108,500)" stroke="yellow">
          <ellipse rx="68.9219" ry="17.5827" cx="400.9917" cy="-217.2655" stroke="none"/>
        </g>
        <g text-rendering="geometricPrecision" stroke-miterlimit="1.45" shape-rendering="geometricPrecision" transform="matrix(1,0,0,1,-108,500)" stroke-linecap="butt">
          <ellipse rx="68.9219" fill="none" ry="17.5827" cx="400.9917" cy="-217.2655"/>
        </g>
        <g>
          <g text-rendering="geometricPrecision" stroke-miterlimit="1.45" shape-rendering="geometricPrecision" font-family="sans-serif" transform="matrix(1,0,0,1,-108,500)" stroke-linecap="butt">
            <text x="339.0698" xml:space="preserve" y="-212.7304" stroke="none">gdx:Protocol-License</text>
          </g>
        </g>
      </a>
    </g>
    <g id="y.node.4">
      <a target="_blank" xlink:type="simple" xlink:href="https://geodex.org/voc/Protocol-TermsOfUse" xlink:show="new">
        <g fill="yellow" text-rendering="geometricPrecision" shape-rendering="geometricPrecision" transform="matrix(1,0,0,1,-108,500)" stroke="yellow">
          <ellipse rx="83.125" ry="17.5827" cx="419.4233" cy="-71.7344" stroke="none"/>
        </g>
        <g text-rendering="geometricPrecision" stroke-miterlimit="1.45" shape-rendering="geometricPrecision" transform="matrix(1,0,0,1,-108,500)" stroke-linecap="butt">
          <ellipse rx="83.125" fill="none" ry="17.5827" cx="419.4233" cy="-71.7344"/>
        </g>
        <g>
          <g text-rendering="geometricPrecision" stroke-miterlimit="1.45" shape-rendering="geometricPrecision" font-family="sans-serif" transform="matrix(1,0,0,1,-108,500)" stroke-linecap="butt">
            <text x="343.2983" xml:space="preserve" y="-67.1992" stroke="none">gdx:Protocol-TermsOfUse</text>
          </g>
        </g>
      </a>
    </g>
    <g id="y.node.5">
      <a target="_blank" xlink:type="simple" xlink:href="https://geodex.org/voc/Protocol-ResourceSubmissionPolicy" xlink:show="new">
        <g fill="yellow" text-rendering="geometricPrecision" shape-rendering="geometricPrecision" transform="matrix(1,0,0,1,-108,500)" stroke="yellow">
          <ellipse rx="123.9297" ry="18.5" cx="460.6162" cy="-119.939" stroke="none"/>
        </g>
        <g text-rendering="geometricPrecision" stroke-miterlimit="1.45" shape-rendering="geometricPrecision" transform="matrix(1,0,0,1,-108,500)" stroke-linecap="butt">
          <ellipse rx="123.9297" fill="none" ry="18.5" cx="460.6162" cy="-119.939"/>
        </g>
        <g>
          <g text-rendering="geometricPrecision" stroke-miterlimit="1.45" shape-rendering="geometricPrecision" font-family="sans-serif" transform="matrix(1,0,0,1,-108,500)" stroke-linecap="butt">
            <text x="343.6865" xml:space="preserve" y="-115.4039" stroke="none">gdx:Protocol-ResourceSubmissionPolicy</text>
          </g>
        </g>
      </a>
    </g>
    <g id="y.node.6">
      <a target="_blank" xlink:type="simple" xlink:href="https://geodex.org/voc/Protocol-PreservationPolicy" xlink:show="new">
        <g fill="yellow" text-rendering="geometricPrecision" shape-rendering="geometricPrecision" transform="matrix(1,0,0,1,-108,500)" stroke="yellow">
          <ellipse rx="99.9033" ry="18.5" cx="430.7016" cy="-169.0609" stroke="none"/>
        </g>
        <g text-rendering="geometricPrecision" stroke-miterlimit="1.45" shape-rendering="geometricPrecision" transform="matrix(1,0,0,1,-108,500)" stroke-linecap="butt">
          <ellipse rx="99.9033" fill="none" ry="18.5" cx="430.7016" cy="-169.0609"/>
        </g>
        <g>
          <g text-rendering="geometricPrecision" stroke-miterlimit="1.45" shape-rendering="geometricPrecision" font-family="sans-serif" transform="matrix(1,0,0,1,-108,500)" stroke-linecap="butt">
            <text x="337.7983" xml:space="preserve" y="-164.5258" stroke="none">gdx:Protocol-PreservationPolicy</text>
          </g>
        </g>
      </a>
    </g>
    <g id="y.node.7">
      <a target="_blank" xlink:type="simple" xlink:href="https://geodex.org/voc/Protocol-Access" xlink:show="new">
        <g fill="yellow" text-rendering="geometricPrecision" shape-rendering="geometricPrecision" transform="matrix(1,0,0,1,-108,500)" stroke="yellow">
          <ellipse rx="67.1934" ry="15" cx="400.9917" cy="-27.0298" stroke="none"/>
        </g>
        <g text-rendering="geometricPrecision" stroke-miterlimit="1.45" shape-rendering="geometricPrecision" transform="matrix(1,0,0,1,-108,500)" stroke-linecap="butt">
          <ellipse rx="67.1934" fill="none" ry="15" cx="400.9917" cy="-27.0298"/>
        </g>
        <g>
          <g text-rendering="geometricPrecision" stroke-miterlimit="1.45" shape-rendering="geometricPrecision" font-family="sans-serif" transform="matrix(1,0,0,1,-108,500)" stroke-linecap="butt">
            <text x="340.7983" xml:space="preserve" y="-22.4946" stroke="none">gdx:Protocol-Access</text>
          </g>
        </g>
      </a>
    </g>
    <g id="y.node.8">
      <a target="_blank" xlink:type="simple" xlink:href="http://schema.org/Thing" xlink:show="new">
        <g fill="rgb(204,255,204)" text-rendering="geometricPrecision" shape-rendering="geometricPrecision" transform="matrix(1,0,0,1,-108,500)" stroke="rgb(204,255,204)">
          <rect x="592.2432" width="95.457" height="30" y="-282.2215" stroke="none"/>
        </g>
        <g text-rendering="geometricPrecision" stroke-miterlimit="1.45" shape-rendering="geometricPrecision" transform="matrix(1,0,0,1,-108,500)" stroke-linecap="butt">
          <rect fill="none" x="592.2432" width="95.457" height="30" y="-282.2215"/>
        </g>
        <g>
          <g text-rendering="geometricPrecision" stroke-miterlimit="1.45" shape-rendering="geometricPrecision" font-family="sans-serif" transform="matrix(1,0,0,1,-108,500)" stroke-linecap="butt">
            <text x="599.2432" xml:space="preserve" y="-262.6864" stroke="none">schema:Thing</text>
          </g>
        </g>
      </a>
    </g>
    <g id="y.node.9">
      <a target="_blank" xlink:type="simple" xlink:href="https://geodex.org/voc/ResearchRepositoryService" xlink:show="new">
        <g fill="rgb(255,204,0)" text-rendering="geometricPrecision" shape-rendering="geometricPrecision" transform="matrix(1,0,0,1,-108,500)" stroke="rgb(255,204,0)">
          <rect x="767.8574" width="194.791" height="30" y="-460.1885" stroke="none"/>
        </g>
        <g text-rendering="geometricPrecision" stroke-miterlimit="1.45" shape-rendering="geometricPrecision" transform="matrix(1,0,0,1,-108,500)" stroke-linecap="butt">
          <rect fill="none" x="767.8574" width="194.791" height="30" y="-460.1885"/>
        </g>
        <g>
          <g text-rendering="geometricPrecision" stroke-miterlimit="1.45" shape-rendering="geometricPrecision" font-family="sans-serif" transform="matrix(1,0,0,1,-108,500)" stroke-linecap="butt">
            <text x="774.8574" xml:space="preserve" y="-440.6533" stroke="none">gdx:ResearchRepositoryService</text>
          </g>
        </g>
      </a>
    </g>
    <g id="y.node.10">
      <a target="_blank" xlink:type="simple" xlink:href="http://schema.org/Dataset" xlink:show="new">
        <g fill="rgb(204,255,204)" text-rendering="geometricPrecision" shape-rendering="geometricPrecision" transform="matrix(1,0,0,1,-108,500)" stroke="rgb(204,255,204)">
          <rect x="728.7129" width="106.0449" height="30" y="-220.1772" stroke="none"/>
        </g>
        <g text-rendering="geometricPrecision" stroke-miterlimit="1.45" shape-rendering="geometricPrecision" transform="matrix(1,0,0,1,-108,500)" stroke-linecap="butt">
          <rect fill="none" x="728.7129" width="106.0449" height="30" y="-220.1772"/>
        </g>
        <g>
          <g text-rendering="geometricPrecision" stroke-miterlimit="1.45" shape-rendering="geometricPrecision" font-family="sans-serif" transform="matrix(1,0,0,1,-108,500)" stroke-linecap="butt">
            <text x="735.7129" xml:space="preserve" y="-200.6421" stroke="none">schema:Dataset</text>
          </g>
        </g>
      </a>
    </g>
    <g id="y.node.11">
      <a target="_blank" xlink:type="simple" xlink:href="http://schema.org/DataCatalog" xlink:show="new">
        <g fill="rgb(204,255,204)" text-rendering="geometricPrecision" shape-rendering="geometricPrecision" transform="matrix(1,0,0,1,-108,500)" stroke="rgb(204,255,204)">
          <rect x="728.7129" width="133.1211" height="30" y="-165.9535" stroke="none"/>
        </g>
        <g text-rendering="geometricPrecision" stroke-miterlimit="1.45" shape-rendering="geometricPrecision" transform="matrix(1,0,0,1,-108,500)" stroke-linecap="butt">
          <rect fill="none" x="728.7129" width="133.1211" height="30" y="-165.9535"/>
        </g>
        <g>
          <g text-rendering="geometricPrecision" stroke-miterlimit="1.45" shape-rendering="geometricPrecision" font-family="sans-serif" transform="matrix(1,0,0,1,-108,500)" stroke-linecap="butt">
            <text x="735.7129" xml:space="preserve" y="-146.4183" stroke="none">schema:DataCatalog</text>
          </g>
        </g>
      </a>
    </g>
    <g id="y.node.12">
      <a target="_blank" xlink:type="simple" xlink:href="http://schema.org/WebAPI" xlink:show="new">
        <g fill="rgb(204,255,204)" text-rendering="geometricPrecision" shape-rendering="geometricPrecision" transform="matrix(1,0,0,1,-108,500)" stroke="rgb(204,255,204)">
          <rect x="729.1787" width="104.8965" height="30" y="-111.7297" stroke="none"/>
        </g>
        <g text-rendering="geometricPrecision" stroke-miterlimit="1.45" shape-rendering="geometricPrecision" transform="matrix(1,0,0,1,-108,500)" stroke-linecap="butt">
          <rect fill="none" x="729.1787" width="104.8965" height="30" y="-111.7297"/>
        </g>
        <g>
          <g text-rendering="geometricPrecision" stroke-miterlimit="1.45" shape-rendering="geometricPrecision" font-family="sans-serif" transform="matrix(1,0,0,1,-108,500)" stroke-linecap="butt">
            <text x="736.1787" xml:space="preserve" y="-92.1945" stroke="none">schema:WebAPI</text>
          </g>
        </g>
      </a>
    </g>
    <g id="y.node.13">
      <g fill="rgb(0,204,255)" text-rendering="geometricPrecision" shape-rendering="geometricPrecision" transform="matrix(1,0,0,1,-108,500)" stroke="rgb(0,204,255)">
        <ellipse rx="20.0605" ry="15" cx="839.918" cy="-362.2658" stroke="none"/>
      </g>
      <g text-rendering="geometricPrecision" stroke-miterlimit="1.45" shape-rendering="geometricPrecision" transform="matrix(1,0,0,1,-108,500)" stroke-linecap="butt">
        <ellipse rx="20.0605" fill="none" ry="15" cx="839.918" cy="-362.2658"/>
      </g>
      <g>
        <g text-rendering="geometricPrecision" stroke-miterlimit="1.45" shape-rendering="geometricPrecision" font-family="sans-serif" transform="matrix(1,0,0,1,-108,500)" stroke-linecap="butt">
          <text x="826.8574" xml:space="preserve" y="-357.7307" stroke="none">Text</text>
        </g>
      </g>
    </g>
    <g id="y.node.14">
      <a target="_blank" xlink:type="simple" xlink:href="http://schema.org/Dataset" xlink:show="new">
        <g fill="rgb(204,255,204)" text-rendering="geometricPrecision" shape-rendering="geometricPrecision" transform="matrix(1,0,0,1,-108,500)" stroke="rgb(204,255,204)">
          <rect x="313.1772" width="115.7363" height="30" y="-377.2658" stroke="none"/>
        </g>
        <g text-rendering="geometricPrecision" stroke-miterlimit="1.45" shape-rendering="geometricPrecision" transform="matrix(1,0,0,1,-108,500)" stroke-linecap="butt">
          <rect fill="none" x="313.1772" width="115.7363" height="30" y="-377.2658"/>
        </g>
        <g>
          <g text-rendering="geometricPrecision" stroke-miterlimit="1.45" shape-rendering="geometricPrecision" font-family="sans-serif" transform="matrix(1,0,0,1,-108,500)" stroke-linecap="butt">
            <text x="320.1772" xml:space="preserve" y="-357.7307" stroke="none">schema:Audience</text>
          </g>
        </g>
      </a>
    </g>
    <g id="y.node.15">
      <g fill="rgb(0,204,255)" text-rendering="geometricPrecision" shape-rendering="geometricPrecision" transform="matrix(1,0,0,1,-108,500)" stroke="rgb(0,204,255)">
        <ellipse rx="20.0605" ry="15" cx="392.6773" cy="-430.5317" stroke="none"/>
      </g>
      <g text-rendering="geometricPrecision" stroke-miterlimit="1.45" shape-rendering="geometricPrecision" transform="matrix(1,0,0,1,-108,500)" stroke-linecap="butt">
        <ellipse rx="20.0605" fill="none" ry="15" cx="392.6773" cy="-430.5317"/>
      </g>
      <g>
        <g text-rendering="geometricPrecision" stroke-miterlimit="1.45" shape-rendering="geometricPrecision" font-family="sans-serif" transform="matrix(1,0,0,1,-108,500)" stroke-linecap="butt">
          <text x="379.6167" xml:space="preserve" y="-425.9965" stroke="none">Text</text>
        </g>
      </g>
    </g>
    <g id="y.node.16">
      <g fill="rgb(0,204,255)" text-rendering="geometricPrecision" shape-rendering="geometricPrecision" transform="matrix(1,0,0,1,-108,500)" stroke="rgb(0,204,255)">
        <ellipse rx="20.0605" ry="15" cx="196.3921" cy="-362.2658" stroke="none"/>
      </g>
      <g text-rendering="geometricPrecision" stroke-miterlimit="1.45" shape-rendering="geometricPrecision" transform="matrix(1,0,0,1,-108,500)" stroke-linecap="butt">
        <ellipse rx="20.0605" fill="none" ry="15" cx="196.3921" cy="-362.2658"/>
      </g>
      <g>
        <g text-rendering="geometricPrecision" stroke-miterlimit="1.45" shape-rendering="geometricPrecision" font-family="sans-serif" transform="matrix(1,0,0,1,-108,500)" stroke-linecap="butt">
          <text x="183.3315" xml:space="preserve" y="-357.7307" stroke="none">Text</text>
        </g>
      </g>
    </g>
    <g id="y.node.17">
      <g fill="rgb(0,204,255)" text-rendering="geometricPrecision" shape-rendering="geometricPrecision" transform="matrix(1,0,0,1,-108,500)" stroke="rgb(0,204,255)">
        <ellipse rx="18.1504" ry="15" cx="141.8218" cy="-279.8482" stroke="none"/>
      </g>
      <g text-rendering="geometricPrecision" stroke-miterlimit="1.45" shape-rendering="geometricPrecision" transform="matrix(1,0,0,1,-108,500)" stroke-linecap="butt">
        <ellipse rx="18.1504" fill="none" ry="15" cx="141.8218" cy="-279.8482"/>
      </g>
      <g>
        <g text-rendering="geometricPrecision" stroke-miterlimit="1.45" shape-rendering="geometricPrecision" font-family="sans-serif" transform="matrix(1,0,0,1,-108,500)" stroke-linecap="butt">
          <text x="130.6714" xml:space="preserve" y="-275.313" stroke="none">URL</text>
        </g>
      </g>
    </g>
    <g id="y.edge.0">
      <g text-rendering="geometricPrecision" stroke-miterlimit="1.45" shape-rendering="geometricPrecision" transform="matrix(1,0,0,1,-108,500)" stroke-linecap="butt">
        <path fill="none" d="M656 -430.1712 L656 -385.2522"/>
        <path d="M656 -377.2522 L661 -389.2522 L656 -386.2522 L651 -389.2522 Z" stroke="none"/>
      </g>
      <g>
        <g text-rendering="geometricPrecision" stroke-miterlimit="1.45" shape-rendering="geometricPrecision" font-family="sans-serif" transform="matrix(1,0,0,1,-108,500)" stroke-linecap="butt">
          <text x="505.8379" xml:space="preserve" y="-409.9648" stroke="none">schema:hasOfferCatalog</text>
        </g>
      </g>
    </g>
    <g id="y.edge.1">
      <g text-rendering="geometricPrecision" stroke-miterlimit="1.45" shape-rendering="geometricPrecision" transform="matrix(1,0,0,1,-108,500)" stroke-linecap="butt">
        <path fill="none" d="M324.0698 -217.2655 L263.603 -217.2655 L263.603 -264.8443"/>
        <path d="M332.0698 -217.2655 L320.0698 -222.2655 L323.0698 -217.2655 L320.0698 -212.2655 Z" stroke="none"/>
      </g>
      <g>
        <g text-rendering="geometricPrecision" stroke-miterlimit="1.45" shape-rendering="geometricPrecision" font-family="sans-serif" transform="matrix(1,0,0,1,-108,500)" stroke-linecap="butt">
          <text x="280.8062" xml:space="preserve" y="-241.9648" stroke="none">schema:additionalType</text>
        </g>
      </g>
    </g>
    <g id="y.edge.3">
      <g text-rendering="geometricPrecision" stroke-miterlimit="1.45" shape-rendering="geometricPrecision" transform="matrix(1,0,0,1,-108,500)" stroke-linecap="butt">
        <path fill="none" d="M328.2983 -71.7344 L263.603 -71.7344 L263.603 -264.8341"/>
        <path d="M336.2983 -71.7344 L324.2983 -76.7344 L327.2983 -71.7344 L324.2983 -66.7344 Z" stroke="none"/>
      </g>
      <g/>
    </g>
    <g id="y.edge.5">
      <g text-rendering="geometricPrecision" stroke-miterlimit="1.45" shape-rendering="geometricPrecision" transform="matrix(1,0,0,1,-108,500)" stroke-linecap="butt">
        <path fill="none" d="M328.6598 -119.939 L263.603 -119.939 L263.603 -264.8177"/>
        <path d="M336.6598 -119.939 L324.6598 -124.939 L327.6598 -119.939 L324.6598 -114.939 Z" stroke="none"/>
      </g>
      <g/>
    </g>
    <g id="y.edge.6">
      <g text-rendering="geometricPrecision" stroke-miterlimit="1.45" shape-rendering="geometricPrecision" transform="matrix(1,0,0,1,-108,500)" stroke-linecap="butt">
        <path fill="none" d="M322.7983 -169.0609 L263.603 -169.0609 L263.603 -264.8368"/>
        <path d="M330.7983 -169.0609 L318.7983 -174.0609 L321.7983 -169.0609 L318.7983 -164.0609 Z" stroke="none"/>
      </g>
      <g/>
    </g>
    <g id="y.edge.2">
      <g text-rendering="geometricPrecision" stroke-miterlimit="1.45" shape-rendering="geometricPrecision" transform="matrix(1,0,0,1,-108,500)" stroke-linecap="butt">
        <path fill="none" d="M325.7983 -27.0298 L263.603 -27.0298 L263.603 -264.8186"/>
        <path d="M333.7983 -27.0298 L321.7983 -32.0298 L324.7983 -27.0298 L321.7983 -22.0298 Z" stroke="none"/>
      </g>
      <g/>
    </g>
    <g id="y.edge.4">
      <g text-rendering="geometricPrecision" stroke-miterlimit="1.45" shape-rendering="geometricPrecision" transform="matrix(1,0,0,1,-108,500)" stroke-linecap="butt">
        <path fill="none" d="M606.5903 -347.2669 L607.4727 -290.19"/>
        <path d="M607.5963 -282.1909 L612.4102 -294.2668 L607.4572 -291.1899 L602.4114 -294.1122 Z" stroke="none"/>
      </g>
      <g>
        <g text-rendering="geometricPrecision" stroke-miterlimit="1.45" shape-rendering="geometricPrecision" font-family="sans-serif" transform="matrix(1,0,0,1,-108,500)" stroke-linecap="butt">
          <text x="615.5879" xml:space="preserve" y="-302.9648" stroke="none">schema:itemListElement</text>
        </g>
      </g>
    </g>
    <g id="y.edge.7">
      <g text-rendering="geometricPrecision" stroke-miterlimit="1.45" shape-rendering="geometricPrecision" transform="matrix(1,0,0,1,-108,500)" stroke-linecap="butt">
        <path fill="none" d="M592.2149 -267.8925 L410.7221 -267.8925"/>
        <path d="M402.7221 -267.8925 L414.7221 -262.8925 L411.7221 -267.8925 L414.7221 -272.8925 Z" stroke="none"/>
      </g>
      <g>
        <g text-rendering="geometricPrecision" stroke-miterlimit="1.45" shape-rendering="geometricPrecision" font-family="sans-serif" transform="matrix(1,0,0,1,-108,500)" stroke-linecap="butt">
          <text x="416.3125" xml:space="preserve" y="-279.9648" stroke="none">schema:publishingPrinciples</text>
        </g>
      </g>
    </g>
    <g id="y.edge.11">
      <g text-rendering="geometricPrecision" stroke-miterlimit="1.45" shape-rendering="geometricPrecision" transform="matrix(1,0,0,1,-108,500)" stroke-linecap="butt">
        <path fill="none" d="M676.2729 -445.1885 L759.8574 -445.1885"/>
        <path d="M767.8574 -445.1885 L755.8574 -450.1885 L758.8574 -445.1885 L755.8574 -440.1885 Z" stroke="none"/>
      </g>
      <g>
        <g text-rendering="geometricPrecision" stroke-miterlimit="1.45" shape-rendering="geometricPrecision" font-family="sans-serif" transform="matrix(1,0,0,1,-108,500)" stroke-linecap="butt">
          <text x="654.9695" xml:space="preserve" y="-470.6533" stroke="none">schema:additionalType</text>
        </g>
      </g>
    </g>
    <g id="y.edge.8">
      <g text-rendering="geometricPrecision" stroke-miterlimit="1.45" stroke-dasharray="6,2" shape-rendering="geometricPrecision" transform="matrix(1,0,0,1,-108,500)" stroke-linecap="butt">
        <path fill="none" d="M728.7129 -205.1772 L639.9717 -205.1772 L639.9717 -237.2215"/>
        <path fill="white" d="M639.9717 -252.2215 L633.9717 -236.2215 L645.9717 -236.2215 Z" stroke="none"/>
        <path stroke-dasharray="none" fill="none" d="M639.9717 -252.2215 L633.9717 -236.2215 L645.9717 -236.2215 Z"/>
      </g>
      <g/>
    </g>
    <g id="y.edge.9">
      <g text-rendering="geometricPrecision" stroke-miterlimit="1.45" stroke-dasharray="6,2" shape-rendering="geometricPrecision" transform="matrix(1,0,0,1,-108,500)" stroke-linecap="butt">
        <path fill="none" d="M728.7129 -150.9535 L639.9717 -150.9535 L639.9717 -237.2387"/>
        <path fill="white" d="M639.9717 -252.2387 L633.9717 -236.2387 L645.9717 -236.2387 Z" stroke="none"/>
        <path stroke-dasharray="none" fill="none" d="M639.9717 -252.2387 L633.9717 -236.2387 L645.9717 -236.2387 Z"/>
      </g>
      <g/>
    </g>
    <g id="y.edge.10">
      <g text-rendering="geometricPrecision" stroke-miterlimit="1.45" stroke-dasharray="6,2" shape-rendering="geometricPrecision" transform="matrix(1,0,0,1,-108,500)" stroke-linecap="butt">
        <path fill="none" d="M729.1787 -96.7297 L639.9717 -96.7297 L639.9717 -237.2403"/>
        <path fill="white" d="M639.9717 -252.2403 L633.9717 -236.2403 L645.9717 -236.2403 Z" stroke="none"/>
        <path stroke-dasharray="none" fill="none" d="M639.9717 -252.2403 L633.9717 -236.2403 L645.9717 -236.2403 Z"/>
      </g>
      <g>
        <g text-rendering="geometricPrecision" stroke-miterlimit="1.45" shape-rendering="geometricPrecision" font-family="sans-serif" transform="matrix(1,0,0,1,-108,500)" stroke-linecap="butt">
          <text x="657.3149" xml:space="preserve" y="-233.62" stroke="none">rdfs:subClassOf</text>
        </g>
      </g>
    </g>
    <g id="y.edge.12">
      <g text-rendering="geometricPrecision" stroke-miterlimit="1.45" shape-rendering="geometricPrecision" transform="matrix(1,0,0,1,-108,500)" stroke-linecap="butt">
        <path fill="none" d="M692.4519 -362.2658 L811.8574 -362.2658"/>
        <path d="M819.8574 -362.2658 L807.8574 -367.2658 L810.8574 -362.2658 L807.8574 -357.2658 Z" stroke="none"/>
      </g>
      <g>
        <g text-rendering="geometricPrecision" stroke-miterlimit="1.45" shape-rendering="geometricPrecision" font-family="sans-serif" transform="matrix(1,0,0,1,-108,500)" stroke-linecap="butt">
          <text x="710.0068" xml:space="preserve" y="-368.9648" stroke="none">schema:name</text>
        </g>
      </g>
    </g>
    <g id="y.edge.13">
      <g text-rendering="geometricPrecision" stroke-miterlimit="1.45" shape-rendering="geometricPrecision" transform="matrix(1,0,0,1,-108,500)" stroke-linecap="butt">
        <path fill="none" d="M556.3191 -362.2658 L436.9135 -362.2658"/>
        <path d="M428.9135 -362.2658 L440.9135 -357.2658 L437.9135 -362.2658 L440.9135 -367.2658 Z" stroke="none"/>
      </g>
      <g>
        <g text-rendering="geometricPrecision" stroke-miterlimit="1.45" shape-rendering="geometricPrecision" font-family="sans-serif" transform="matrix(1,0,0,1,-108,500)" stroke-linecap="butt">
          <text x="441.958" xml:space="preserve" y="-371.9648" stroke="none">schema:audience</text>
        </g>
      </g>
    </g>
    <g id="y.edge.14">
      <g text-rendering="geometricPrecision" stroke-miterlimit="1.45" shape-rendering="geometricPrecision" transform="matrix(1,0,0,1,-108,500)" stroke-linecap="butt">
        <path fill="none" d="M392.6772 -377.299 L392.6772 -407.5317"/>
        <path d="M392.6772 -415.5317 L387.6772 -403.5317 L392.6772 -406.5317 L397.6772 -403.5317 Z" stroke="none"/>
      </g>
      <g>
        <g text-rendering="geometricPrecision" stroke-miterlimit="1.45" shape-rendering="geometricPrecision" font-family="sans-serif" transform="matrix(1,0,0,1,-108,500)" stroke-linecap="butt">
          <text x="258.5874" xml:space="preserve" y="-392.4952" stroke="none">schema:audienceType</text>
        </g>
      </g>
    </g>
    <g id="y.edge.15">
      <g text-rendering="geometricPrecision" stroke-miterlimit="1.45" shape-rendering="geometricPrecision" transform="matrix(1,0,0,1,-108,500)" stroke-linecap="butt">
        <path fill="none" d="M242.9783 -285.8482 L196.3921 -285.8482 L196.3921 -339.2658"/>
        <path d="M196.3921 -347.2658 L191.3921 -335.2658 L196.3921 -338.2658 L201.3921 -335.2658 Z" stroke="none"/>
      </g>
      <g>
        <g text-rendering="geometricPrecision" stroke-miterlimit="1.45" shape-rendering="geometricPrecision" font-family="sans-serif" transform="matrix(1,0,0,1,-108,500)" stroke-linecap="butt">
          <text x="205.4541" xml:space="preserve" y="-323.0312" stroke="none">schema:name,</text>
          <text x="205.4541" xml:space="preserve" y="-308.8984" stroke="none">schema:fileFormat</text>
        </g>
      </g>
    </g>
    <g id="y.edge.16">
      <g text-rendering="geometricPrecision" stroke-miterlimit="1.45" shape-rendering="geometricPrecision" transform="matrix(1,0,0,1,-108,500)" stroke-linecap="butt">
        <path fill="none" d="M242.9482 -279.8482 L167.9722 -279.8482"/>
        <path d="M159.9722 -279.8482 L171.9722 -274.8482 L168.9722 -279.8482 L171.9722 -284.8482 Z" stroke="none"/>
      </g>
      <g>
        <g text-rendering="geometricPrecision" stroke-miterlimit="1.45" shape-rendering="geometricPrecision" font-family="sans-serif" transform="matrix(1,0,0,1,-108,500)" stroke-linecap="butt">
          <text x="170.9771" xml:space="preserve" y="-258.9648" stroke="none">schema:url</text>
        </g>
      </g>
    </g>
  </g>
</svg>
