<?xml version="1.0" encoding="UTF-8"?><svg xmlns="http://www.w3.org/2000/svg" xmlns:xlink="http://www.w3.org/1999/xlink" fill-opacity="1" color-rendering="auto" color-interpolation="auto" text-rendering="auto" stroke="black" stroke-linecap="square" width="1034" stroke-miterlimit="10" shape-rendering="auto" stroke-opacity="1" fill="black" stroke-dasharray="none" font-weight="normal" stroke-width="1" height="988" font-family="'Dialog'" font-style="normal" stroke-linejoin="miter" font-size="12px" stroke-dashoffset="0" image-rendering="auto">
  <!--Generated by ySVG 2.5-->
  <defs id="genericDefs"/>
  <g>
    <defs id="defs1">
      <clipPath clipPathUnits="userSpaceOnUse" id="clipPath1">
        <path d="M0 0 L1034 0 L1034 988 L0 988 L0 0 Z"/>
      </clipPath>
    </defs>
    <g id="y.node.0">
      <a target="_blank" xlink:type="simple" xlink:href="http://schema.org/Service" xlink:show="new">
        <g fill="rgb(204,255,204)" text-rendering="geometricPrecision" shape-rendering="geometricPrecision" transform="matrix(1,0,0,1,-65,700)" stroke="rgb(204,255,204)">
          <rect x="573.6792" width="102.5938" height="30" y="-598.1885" stroke="none"/>
        </g>
        <g text-rendering="geometricPrecision" stroke-miterlimit="1.45" shape-rendering="geometricPrecision" transform="matrix(1,0,0,1,-65,700)" stroke-linecap="butt">
          <rect fill="none" x="573.6792" width="102.5938" height="30" y="-598.1885"/>
        </g>
        <g>
          <g text-rendering="geometricPrecision" stroke-miterlimit="1.45" shape-rendering="geometricPrecision" font-family="sans-serif" transform="matrix(1,0,0,1,-65,700)" stroke-linecap="butt">
            <text x="580.6792" xml:space="preserve" y="-578.6533" stroke="none">schema:Service</text>
          </g>
        </g>
      </a>
    </g>
    <g id="y.node.1">
      <a target="_blank" xlink:type="simple" xlink:href="http://schema.org/DigitalDocument" xlink:show="new">
        <g fill="rgb(204,255,204)" text-rendering="geometricPrecision" shape-rendering="geometricPrecision" transform="matrix(1,0,0,1,-65,700)" stroke="rgb(204,255,204)">
          <rect x="548.3697" width="159.793" height="30" y="-318.3825" stroke="none"/>
        </g>
        <g text-rendering="geometricPrecision" stroke-miterlimit="1.45" shape-rendering="geometricPrecision" transform="matrix(1,0,0,1,-65,700)" stroke-linecap="butt">
          <rect fill="none" x="548.3697" width="159.793" height="30" y="-318.3825"/>
        </g>
        <g>
          <g text-rendering="geometricPrecision" stroke-miterlimit="1.45" shape-rendering="geometricPrecision" font-family="sans-serif" transform="matrix(1,0,0,1,-65,700)" stroke-linecap="butt">
            <text x="555.3698" xml:space="preserve" y="-298.8473" stroke="none">schema:DigitalDocument</text>
          </g>
        </g>
      </a>
    </g>
    <g id="y.node.2">
      <a target="_blank" xlink:type="simple" xlink:href="https://geodex.org/voc/Protocol-License" xlink:show="new">
        <g fill="yellow" text-rendering="geometricPrecision" shape-rendering="geometricPrecision" transform="matrix(1,0,0,1,-65,700)" stroke="yellow">
          <ellipse rx="68.9219" ry="17.5827" cx="694.4306" cy="-240.7998" stroke="none"/>
        </g>
        <g text-rendering="geometricPrecision" stroke-miterlimit="1.45" shape-rendering="geometricPrecision" transform="matrix(1,0,0,1,-65,700)" stroke-linecap="butt">
          <ellipse rx="68.9219" fill="none" ry="17.5827" cx="694.4306" cy="-240.7998"/>
        </g>
        <g>
          <g text-rendering="geometricPrecision" stroke-miterlimit="1.45" shape-rendering="geometricPrecision" font-family="sans-serif" transform="matrix(1,0,0,1,-65,700)" stroke-linecap="butt">
            <text x="632.5088" xml:space="preserve" y="-236.2646" stroke="none">gdx:Protocol-License</text>
          </g>
        </g>
      </a>
    </g>
    <g id="y.node.3">
      <a target="_blank" xlink:type="simple" xlink:href="https://geodex.org/voc/Protocol-TermsOfUse" xlink:show="new">
        <g fill="yellow" text-rendering="geometricPrecision" shape-rendering="geometricPrecision" transform="matrix(1,0,0,1,-65,700)" stroke="yellow">
          <ellipse rx="83.125" ry="17.5827" cx="712.8623" cy="-95.2687" stroke="none"/>
        </g>
        <g text-rendering="geometricPrecision" stroke-miterlimit="1.45" shape-rendering="geometricPrecision" transform="matrix(1,0,0,1,-65,700)" stroke-linecap="butt">
          <ellipse rx="83.125" fill="none" ry="17.5827" cx="712.8623" cy="-95.2687"/>
        </g>
        <g>
          <g text-rendering="geometricPrecision" stroke-miterlimit="1.45" shape-rendering="geometricPrecision" font-family="sans-serif" transform="matrix(1,0,0,1,-65,700)" stroke-linecap="butt">
            <text x="636.7373" xml:space="preserve" y="-90.7335" stroke="none">gdx:Protocol-TermsOfUse</text>
          </g>
        </g>
      </a>
    </g>
    <g id="y.node.4">
      <a target="_blank" xlink:type="simple" xlink:href="https://geodex.org/voc/Protocol-ResourceSubmissionPolicy" xlink:show="new">
        <g fill="yellow" text-rendering="geometricPrecision" shape-rendering="geometricPrecision" transform="matrix(1,0,0,1,-65,700)" stroke="yellow">
          <ellipse rx="123.9297" ry="18.5" cx="754.0552" cy="-143.4733" stroke="none"/>
        </g>
        <g text-rendering="geometricPrecision" stroke-miterlimit="1.45" shape-rendering="geometricPrecision" transform="matrix(1,0,0,1,-65,700)" stroke-linecap="butt">
          <ellipse rx="123.9297" fill="none" ry="18.5" cx="754.0552" cy="-143.4733"/>
        </g>
        <g>
          <g text-rendering="geometricPrecision" stroke-miterlimit="1.45" shape-rendering="geometricPrecision" font-family="sans-serif" transform="matrix(1,0,0,1,-65,700)" stroke-linecap="butt">
            <text x="637.1255" xml:space="preserve" y="-138.9381" stroke="none">gdx:Protocol-ResourceSubmissionPolicy</text>
          </g>
        </g>
      </a>
    </g>
    <g id="y.node.5">
      <a target="_blank" xlink:type="simple" xlink:href="https://geodex.org/voc/Protocol-PreservationPolicy" xlink:show="new">
        <g fill="yellow" text-rendering="geometricPrecision" shape-rendering="geometricPrecision" transform="matrix(1,0,0,1,-65,700)" stroke="yellow">
          <ellipse rx="99.9033" ry="18.5" cx="724.1406" cy="-192.5952" stroke="none"/>
        </g>
        <g text-rendering="geometricPrecision" stroke-miterlimit="1.45" shape-rendering="geometricPrecision" transform="matrix(1,0,0,1,-65,700)" stroke-linecap="butt">
          <ellipse rx="99.9033" fill="none" ry="18.5" cx="724.1406" cy="-192.5952"/>
        </g>
        <g>
          <g text-rendering="geometricPrecision" stroke-miterlimit="1.45" shape-rendering="geometricPrecision" font-family="sans-serif" transform="matrix(1,0,0,1,-65,700)" stroke-linecap="butt">
            <text x="631.2373" xml:space="preserve" y="-188.0601" stroke="none">gdx:Protocol-PreservationPolicy</text>
          </g>
        </g>
      </a>
    </g>
    <g id="y.node.6">
      <a target="_blank" xlink:type="simple" xlink:href="https://geodex.org/voc/Protocol-Access" xlink:show="new">
        <g fill="yellow" text-rendering="geometricPrecision" shape-rendering="geometricPrecision" transform="matrix(1,0,0,1,-65,700)" stroke="yellow">
          <ellipse rx="67.1934" ry="15" cx="694.4306" cy="-50.5641" stroke="none"/>
        </g>
        <g text-rendering="geometricPrecision" stroke-miterlimit="1.45" shape-rendering="geometricPrecision" transform="matrix(1,0,0,1,-65,700)" stroke-linecap="butt">
          <ellipse rx="67.1934" fill="none" ry="15" cx="694.4306" cy="-50.5641"/>
        </g>
        <g>
          <g text-rendering="geometricPrecision" stroke-miterlimit="1.45" shape-rendering="geometricPrecision" font-family="sans-serif" transform="matrix(1,0,0,1,-65,700)" stroke-linecap="butt">
            <text x="634.2373" xml:space="preserve" y="-46.0289" stroke="none">gdx:Protocol-Access</text>
          </g>
        </g>
      </a>
    </g>
    <g id="y.node.7">
      <a target="_blank" xlink:type="simple" xlink:href="http://schema.org/Organization" xlink:show="new">
        <g fill="rgb(204,255,204)" text-rendering="geometricPrecision" shape-rendering="geometricPrecision" transform="matrix(1,0,0,1,-65,700)" stroke="rgb(204,255,204)">
          <rect x="302.6474" width="137.5625" height="30" y="-598.1885" stroke="none"/>
        </g>
        <g text-rendering="geometricPrecision" stroke-miterlimit="1.45" shape-rendering="geometricPrecision" transform="matrix(1,0,0,1,-65,700)" stroke-linecap="butt">
          <rect fill="none" x="302.6474" width="137.5625" height="30" y="-598.1885"/>
        </g>
        <g>
          <g text-rendering="geometricPrecision" stroke-miterlimit="1.45" shape-rendering="geometricPrecision" font-family="sans-serif" transform="matrix(1,0,0,1,-65,700)" stroke-linecap="butt">
            <text x="309.6474" xml:space="preserve" y="-578.6533" stroke="none">schema:Organization</text>
          </g>
        </g>
      </a>
    </g>
    <g id="y.node.8">
      <a target="_blank" xlink:type="simple" xlink:href="http://schema.org/Organization" xlink:show="new">
        <g fill="rgb(204,255,204)" text-rendering="geometricPrecision" shape-rendering="geometricPrecision" transform="matrix(1,0,0,1,-65,700)" stroke="rgb(204,255,204)">
          <rect x="537.5563" width="137.5625" height="30" y="-531.9758" stroke="none"/>
        </g>
        <g text-rendering="geometricPrecision" stroke-miterlimit="1.45" shape-rendering="geometricPrecision" transform="matrix(1,0,0,1,-65,700)" stroke-linecap="butt">
          <rect fill="none" x="537.5563" width="137.5625" height="30" y="-531.9758"/>
        </g>
        <g>
          <g text-rendering="geometricPrecision" stroke-miterlimit="1.45" shape-rendering="geometricPrecision" font-family="sans-serif" transform="matrix(1,0,0,1,-65,700)" stroke-linecap="butt">
            <text x="544.5563" xml:space="preserve" y="-512.4406" stroke="none">schema:Organization</text>
          </g>
        </g>
      </a>
    </g>
    <g id="y.node.9">
      <a target="_blank" xlink:type="simple" xlink:href="http://schema.org/ContactPoint" xlink:show="new">
        <g fill="rgb(204,255,204)" text-rendering="geometricPrecision" shape-rendering="geometricPrecision" transform="matrix(1,0,0,1,-65,700)" stroke="rgb(204,255,204)">
          <rect x="322.496" width="136.3027" height="30" y="-318.3825" stroke="none"/>
        </g>
        <g text-rendering="geometricPrecision" stroke-miterlimit="1.45" shape-rendering="geometricPrecision" transform="matrix(1,0,0,1,-65,700)" stroke-linecap="butt">
          <rect fill="none" x="322.496" width="136.3027" height="30" y="-318.3825"/>
        </g>
        <g>
          <g text-rendering="geometricPrecision" stroke-miterlimit="1.45" shape-rendering="geometricPrecision" font-family="sans-serif" transform="matrix(1,0,0,1,-65,700)" stroke-linecap="butt">
            <text x="329.4961" xml:space="preserve" y="-298.8473" stroke="none">schema:ContactPoint</text>
          </g>
        </g>
      </a>
    </g>
    <g id="y.node.10">
      <a target="_blank" xlink:type="simple" xlink:href="https://geodex.org/voc/ResearchRepositoryService" xlink:show="new">
        <g fill="rgb(255,204,0)" text-rendering="geometricPrecision" shape-rendering="geometricPrecision" transform="matrix(1,0,0,1,-65,700)" stroke="rgb(255,204,0)">
          <rect x="819.8574" width="194.791" height="30" y="-598.1885" stroke="none"/>
        </g>
        <g text-rendering="geometricPrecision" stroke-miterlimit="1.45" shape-rendering="geometricPrecision" transform="matrix(1,0,0,1,-65,700)" stroke-linecap="butt">
          <rect fill="none" x="819.8574" width="194.791" height="30" y="-598.1885"/>
        </g>
        <g>
          <g text-rendering="geometricPrecision" stroke-miterlimit="1.45" shape-rendering="geometricPrecision" font-family="sans-serif" transform="matrix(1,0,0,1,-65,700)" stroke-linecap="butt">
            <text x="826.8574" xml:space="preserve" y="-578.6533" stroke="none">gdx:ResearchRepositoryService</text>
          </g>
        </g>
      </a>
    </g>
    <g id="y.node.11">
      <a target="_blank" xlink:type="simple" xlink:href="http://schema.geolink.org/1.0/base/main#Organization" xlink:show="new">
        <g fill="rgb(255,204,0)" text-rendering="geometricPrecision" shape-rendering="geometricPrecision" transform="matrix(1,0,0,1,-65,700)" stroke="rgb(255,204,0)">
          <rect x="421.2919" width="136.2734" height="30" y="-684.6933" stroke="none"/>
        </g>
        <g text-rendering="geometricPrecision" stroke-miterlimit="1.45" shape-rendering="geometricPrecision" transform="matrix(1,0,0,1,-65,700)" stroke-linecap="butt">
          <rect fill="none" x="421.2919" width="136.2734" height="30" y="-684.6933"/>
        </g>
        <g>
          <g text-rendering="geometricPrecision" stroke-miterlimit="1.45" shape-rendering="geometricPrecision" font-family="sans-serif" transform="matrix(1,0,0,1,-65,700)" stroke-linecap="butt">
            <text x="428.292" xml:space="preserve" y="-665.1581" stroke="none">geolink:Organization</text>
          </g>
        </g>
      </a>
    </g>
    <g id="y.node.12">
      <g fill="rgb(0,204,255)" text-rendering="geometricPrecision" shape-rendering="geometricPrecision" transform="matrix(1,0,0,1,-65,700)" stroke="rgb(0,204,255)">
        <ellipse rx="20.0605" ry="15" cx="138.2781" cy="-559.3681" stroke="none"/>
      </g>
      <g text-rendering="geometricPrecision" stroke-miterlimit="1.45" shape-rendering="geometricPrecision" transform="matrix(1,0,0,1,-65,700)" stroke-linecap="butt">
        <ellipse rx="20.0605" fill="none" ry="15" cx="138.2781" cy="-559.3681"/>
      </g>
      <g>
        <g text-rendering="geometricPrecision" stroke-miterlimit="1.45" shape-rendering="geometricPrecision" font-family="sans-serif" transform="matrix(1,0,0,1,-65,700)" stroke-linecap="butt">
          <text x="125.2176" xml:space="preserve" y="-554.8329" stroke="none">Text</text>
        </g>
      </g>
    </g>
    <g id="y.node.13">
      <g fill="rgb(0,204,255)" text-rendering="geometricPrecision" shape-rendering="geometricPrecision" transform="matrix(1,0,0,1,-65,700)" stroke="rgb(0,204,255)">
        <ellipse rx="18.1504" ry="15" cx="138.2781" cy="-594.3681" stroke="none"/>
      </g>
      <g text-rendering="geometricPrecision" stroke-miterlimit="1.45" shape-rendering="geometricPrecision" transform="matrix(1,0,0,1,-65,700)" stroke-linecap="butt">
        <ellipse rx="18.1504" fill="none" ry="15" cx="138.2781" cy="-594.3681"/>
      </g>
      <g>
        <g text-rendering="geometricPrecision" stroke-miterlimit="1.45" shape-rendering="geometricPrecision" font-family="sans-serif" transform="matrix(1,0,0,1,-65,700)" stroke-linecap="butt">
          <text x="127.1277" xml:space="preserve" y="-589.8329" stroke="none">URL</text>
        </g>
      </g>
    </g>
    <g id="y.node.14">
      <a target="_blank" xlink:type="simple" xlink:href="http://schema.org/ImageObject" xlink:show="new">
        <g fill="rgb(204,255,204)" text-rendering="geometricPrecision" shape-rendering="geometricPrecision" transform="matrix(1,0,0,1,-65,700)" stroke="rgb(204,255,204)">
          <rect x="80.0315" width="135.3242" height="30" y="-495.0758" stroke="none"/>
        </g>
        <g text-rendering="geometricPrecision" stroke-miterlimit="1.45" shape-rendering="geometricPrecision" transform="matrix(1,0,0,1,-65,700)" stroke-linecap="butt">
          <rect fill="none" x="80.0315" width="135.3242" height="30" y="-495.0758"/>
        </g>
        <g>
          <g text-rendering="geometricPrecision" stroke-miterlimit="1.45" shape-rendering="geometricPrecision" font-family="sans-serif" transform="matrix(1,0,0,1,-65,700)" stroke-linecap="butt">
            <text x="87.0315" xml:space="preserve" y="-475.5406" stroke="none">schema:ImageObject</text>
          </g>
        </g>
      </a>
    </g>
    <g id="y.node.15">
      <g fill="rgb(0,204,255)" text-rendering="geometricPrecision" shape-rendering="geometricPrecision" transform="matrix(1,0,0,1,-65,700)" stroke="rgb(0,204,255)">
        <ellipse rx="18.1504" ry="15" cx="107.4059" cy="-411.377" stroke="none"/>
      </g>
      <g text-rendering="geometricPrecision" stroke-miterlimit="1.45" shape-rendering="geometricPrecision" transform="matrix(1,0,0,1,-65,700)" stroke-linecap="butt">
        <ellipse rx="18.1504" fill="none" ry="15" cx="107.4059" cy="-411.377"/>
      </g>
      <g>
        <g text-rendering="geometricPrecision" stroke-miterlimit="1.45" shape-rendering="geometricPrecision" font-family="sans-serif" transform="matrix(1,0,0,1,-65,700)" stroke-linecap="butt">
          <text x="96.2555" xml:space="preserve" y="-406.8418" stroke="none">URL</text>
        </g>
      </g>
    </g>
    <g id="y.node.16">
      <a target="_blank" xlink:type="simple" xlink:href="http://schema.org/Address" xlink:show="new">
        <g fill="rgb(204,255,204)" text-rendering="geometricPrecision" shape-rendering="geometricPrecision" transform="matrix(1,0,0,1,-65,700)" stroke="rgb(204,255,204)">
          <rect x="168.106" width="109.2383" height="30" y="-403.377" stroke="none"/>
        </g>
        <g text-rendering="geometricPrecision" stroke-miterlimit="1.45" shape-rendering="geometricPrecision" transform="matrix(1,0,0,1,-65,700)" stroke-linecap="butt">
          <rect fill="none" x="168.106" width="109.2383" height="30" y="-403.377"/>
        </g>
        <g>
          <g text-rendering="geometricPrecision" stroke-miterlimit="1.45" shape-rendering="geometricPrecision" font-family="sans-serif" transform="matrix(1,0,0,1,-65,700)" stroke-linecap="butt">
            <text x="175.106" xml:space="preserve" y="-383.8418" stroke="none">schema:Address</text>
          </g>
        </g>
      </a>
    </g>
    <g id="y.node.17">
      <g fill="rgb(0,204,255)" text-rendering="geometricPrecision" shape-rendering="geometricPrecision" transform="matrix(1,0,0,1,-65,700)" stroke="rgb(0,204,255)">
        <ellipse rx="63.2852" ry="15" cx="180.4857" cy="-243.3825" stroke="none"/>
      </g>
      <g text-rendering="geometricPrecision" stroke-miterlimit="1.45" shape-rendering="geometricPrecision" transform="matrix(1,0,0,1,-65,700)" stroke-linecap="butt">
        <ellipse rx="63.2852" fill="none" ry="15" cx="180.4857" cy="-243.3825"/>
      </g>
      <g>
        <g text-rendering="geometricPrecision" stroke-miterlimit="1.45" shape-rendering="geometricPrecision" font-family="sans-serif" transform="matrix(1,0,0,1,-65,700)" stroke-linecap="butt">
          <text x="124.2006" xml:space="preserve" y="-238.8473" stroke="none">"customer support"</text>
        </g>
      </g>
    </g>
    <g id="y.node.18">
      <g fill="rgb(0,204,255)" text-rendering="geometricPrecision" shape-rendering="geometricPrecision" transform="matrix(1,0,0,1,-65,700)" stroke="rgb(0,204,255)">
        <ellipse rx="18.1504" ry="15" cx="279.4028" cy="-208.3825" stroke="none"/>
      </g>
      <g text-rendering="geometricPrecision" stroke-miterlimit="1.45" shape-rendering="geometricPrecision" transform="matrix(1,0,0,1,-65,700)" stroke-linecap="butt">
        <ellipse rx="18.1504" fill="none" ry="15" cx="279.4028" cy="-208.3825"/>
      </g>
      <g>
        <g text-rendering="geometricPrecision" stroke-miterlimit="1.45" shape-rendering="geometricPrecision" font-family="sans-serif" transform="matrix(1,0,0,1,-65,700)" stroke-linecap="butt">
          <text x="268.2524" xml:space="preserve" y="-203.8473" stroke="none">URL</text>
        </g>
      </g>
    </g>
    <g id="y.node.19">
      <g fill="rgb(0,204,255)" text-rendering="geometricPrecision" shape-rendering="geometricPrecision" transform="matrix(1,0,0,1,-65,700)" stroke="rgb(0,204,255)">
        <ellipse rx="20.0605" ry="15" cx="279.4028" cy="-158.388" stroke="none"/>
      </g>
      <g text-rendering="geometricPrecision" stroke-miterlimit="1.45" shape-rendering="geometricPrecision" transform="matrix(1,0,0,1,-65,700)" stroke-linecap="butt">
        <ellipse rx="20.0605" fill="none" ry="15" cx="279.4028" cy="-158.388"/>
      </g>
      <g>
        <g text-rendering="geometricPrecision" stroke-miterlimit="1.45" shape-rendering="geometricPrecision" font-family="sans-serif" transform="matrix(1,0,0,1,-65,700)" stroke-linecap="butt">
          <text x="266.3423" xml:space="preserve" y="-153.8528" stroke="none">Text</text>
        </g>
      </g>
    </g>
    <g id="y.node.20">
      <g fill="rgb(0,204,255)" text-rendering="geometricPrecision" shape-rendering="geometricPrecision" transform="matrix(1,0,0,1,-65,700)" stroke="rgb(0,204,255)">
        <ellipse rx="20.0605" ry="15" cx="857.9243" cy="-509.9758" stroke="none"/>
      </g>
      <g text-rendering="geometricPrecision" stroke-miterlimit="1.45" shape-rendering="geometricPrecision" transform="matrix(1,0,0,1,-65,700)" stroke-linecap="butt">
        <ellipse rx="20.0605" fill="none" ry="15" cx="857.9243" cy="-509.9758"/>
      </g>
      <g>
        <g text-rendering="geometricPrecision" stroke-miterlimit="1.45" shape-rendering="geometricPrecision" font-family="sans-serif" transform="matrix(1,0,0,1,-65,700)" stroke-linecap="butt">
          <text x="844.8638" xml:space="preserve" y="-505.4406" stroke="none">Text</text>
        </g>
      </g>
    </g>
    <g id="y.node.21">
      <g fill="rgb(0,204,255)" text-rendering="geometricPrecision" shape-rendering="geometricPrecision" transform="matrix(1,0,0,1,-65,700)" stroke="rgb(0,204,255)">
        <ellipse rx="18.1504" ry="15" cx="795.0141" cy="-473.3252" stroke="none"/>
      </g>
      <g text-rendering="geometricPrecision" stroke-miterlimit="1.45" shape-rendering="geometricPrecision" transform="matrix(1,0,0,1,-65,700)" stroke-linecap="butt">
        <ellipse rx="18.1504" fill="none" ry="15" cx="795.0141" cy="-473.3252"/>
      </g>
      <g>
        <g text-rendering="geometricPrecision" stroke-miterlimit="1.45" shape-rendering="geometricPrecision" font-family="sans-serif" transform="matrix(1,0,0,1,-65,700)" stroke-linecap="butt">
          <text x="783.8638" xml:space="preserve" y="-468.79" stroke="none">URL</text>
        </g>
      </g>
    </g>
    <g id="y.node.22">
      <a target="_blank" xlink:type="simple" xlink:href="https://schema.org/PropertyValue" xlink:show="new">
        <g fill="rgb(204,255,204)" text-rendering="geometricPrecision" shape-rendering="geometricPrecision" transform="matrix(1,0,0,1,-65,700)" stroke="rgb(204,255,204)">
          <rect x="723.5552" width="142.918" height="30" y="-428.3252" stroke="none"/>
        </g>
        <g text-rendering="geometricPrecision" stroke-miterlimit="1.45" shape-rendering="geometricPrecision" transform="matrix(1,0,0,1,-65,700)" stroke-linecap="butt">
          <rect fill="none" x="723.5552" width="142.918" height="30" y="-428.3252"/>
        </g>
        <g>
          <g text-rendering="geometricPrecision" stroke-miterlimit="1.45" shape-rendering="geometricPrecision" font-family="sans-serif" transform="matrix(1,0,0,1,-65,700)" stroke-linecap="butt">
            <text x="730.5552" xml:space="preserve" y="-408.79" stroke="none">schema:PropertyValue</text>
          </g>
        </g>
      </a>
    </g>
    <g id="y.node.23">
      <a target="_blank" xlink:type="simple" xlink:href="http://www.sparontologies.net/ontologies/datacite/source.html#Identifier" xlink:show="new">
        <g fill="rgb(255,204,0)" text-rendering="geometricPrecision" shape-rendering="geometricPrecision" transform="matrix(1,0,0,1,-65,700)" stroke="rgb(255,204,0)">
          <rect x="937.1086" width="146.8262" height="41" y="-433.8252" stroke="none"/>
        </g>
        <g text-rendering="geometricPrecision" stroke-miterlimit="1.45" shape-rendering="geometricPrecision" transform="matrix(1,0,0,1,-65,700)" stroke-linecap="butt">
          <rect fill="none" x="937.1086" width="146.8262" height="41" y="-433.8252"/>
        </g>
        <g>
          <g text-rendering="geometricPrecision" stroke-miterlimit="1.45" shape-rendering="geometricPrecision" font-family="sans-serif" transform="matrix(1,0,0,1,-65,700)" stroke-linecap="butt">
            <text x="957.3947" xml:space="preserve" y="-415.8564" stroke="none">datacite:Identifier,</text>
            <text x="960.8664" xml:space="preserve" y="-401.7236" stroke="none">geolink:Identifier</text>
          </g>
        </g>
      </a>
    </g>
    <g id="y.node.24">
      <a target="_blank" xlink:type="simple" xlink:href="https://schema.org/PropertyValue" xlink:show="new">
        <g fill="rgb(204,255,204)" text-rendering="geometricPrecision" shape-rendering="geometricPrecision" transform="matrix(1,0,0,1,-65,700)" stroke="rgb(204,255,204)">
          <rect x="808.6866" width="142.918" height="30" y="242.9309" stroke="none"/>
        </g>
        <g text-rendering="geometricPrecision" stroke-miterlimit="1.45" shape-rendering="geometricPrecision" transform="matrix(1,0,0,1,-65,700)" stroke-linecap="butt">
          <rect fill="none" x="808.6866" width="142.918" height="30" y="242.9309"/>
        </g>
        <g>
          <g text-rendering="geometricPrecision" stroke-miterlimit="1.45" shape-rendering="geometricPrecision" font-family="sans-serif" transform="matrix(1,0,0,1,-65,700)" stroke-linecap="butt">
            <text x="815.6866" xml:space="preserve" y="262.4661" stroke="none">schema:PropertyValue</text>
          </g>
        </g>
      </a>
    </g>
    <g id="y.node.25">
      <g fill="rgb(0,204,255)" text-rendering="geometricPrecision" shape-rendering="geometricPrecision" transform="matrix(1,0,0,1,-65,700)" stroke="rgb(0,204,255)">
        <ellipse rx="45.6191" ry="20.5" cx="1038.3156" cy="-336.4158" stroke="none"/>
      </g>
      <g text-rendering="geometricPrecision" stroke-miterlimit="1.45" shape-rendering="geometricPrecision" transform="matrix(1,0,0,1,-65,700)" stroke-linecap="butt">
        <ellipse rx="45.6191" fill="none" ry="20.5" cx="1038.3156" cy="-336.4158"/>
      </g>
      <g>
        <g text-rendering="geometricPrecision" stroke-miterlimit="1.45" shape-rendering="geometricPrecision" font-family="sans-serif" transform="matrix(1,0,0,1,-65,700)" stroke-linecap="butt">
          <text x="999.6965" xml:space="preserve" y="-331.8806" stroke="none">"datacite:doi"</text>
        </g>
      </g>
    </g>
    <g id="y.node.26">
      <g fill="rgb(0,204,255)" text-rendering="geometricPrecision" shape-rendering="geometricPrecision" transform="matrix(1,0,0,1,-65,700)" stroke="rgb(0,204,255)">
        <ellipse rx="20.0605" ry="15" cx="1012.757" cy="-289.0044" stroke="none"/>
      </g>
      <g text-rendering="geometricPrecision" stroke-miterlimit="1.45" shape-rendering="geometricPrecision" transform="matrix(1,0,0,1,-65,700)" stroke-linecap="butt">
        <ellipse rx="20.0605" fill="none" ry="15" cx="1012.757" cy="-289.0044"/>
      </g>
      <g>
        <g text-rendering="geometricPrecision" stroke-miterlimit="1.45" shape-rendering="geometricPrecision" font-family="sans-serif" transform="matrix(1,0,0,1,-65,700)" stroke-linecap="butt">
          <text x="999.6965" xml:space="preserve" y="-284.4693" stroke="none">Text</text>
        </g>
      </g>
    </g>
    <g id="y.node.27">
      <g fill="rgb(0,204,255)" text-rendering="geometricPrecision" shape-rendering="geometricPrecision" transform="matrix(1,0,0,1,-65,700)" stroke="rgb(0,204,255)">
        <ellipse rx="18.1504" ry="15" cx="1010.8469" cy="-243.3825" stroke="none"/>
      </g>
      <g text-rendering="geometricPrecision" stroke-miterlimit="1.45" shape-rendering="geometricPrecision" transform="matrix(1,0,0,1,-65,700)" stroke-linecap="butt">
        <ellipse rx="18.1504" fill="none" ry="15" cx="1010.8469" cy="-243.3825"/>
      </g>
      <g>
        <g text-rendering="geometricPrecision" stroke-miterlimit="1.45" shape-rendering="geometricPrecision" font-family="sans-serif" transform="matrix(1,0,0,1,-65,700)" stroke-linecap="butt">
          <text x="999.6965" xml:space="preserve" y="-238.8473" stroke="none">URL</text>
        </g>
      </g>
    </g>
    <g id="y.edge.0">
      <g text-rendering="geometricPrecision" stroke-miterlimit="1.45" shape-rendering="geometricPrecision" transform="matrix(1,0,0,1,-65,700)" stroke-linecap="butt">
        <path fill="none" d="M617.5088 -240.7998 L557.042 -240.7998 L557.042 -288.3785"/>
        <path d="M625.5088 -240.7998 L613.5088 -245.7998 L616.5088 -240.7998 L613.5088 -235.7998 Z" stroke="none"/>
      </g>
      <g>
        <g text-rendering="geometricPrecision" stroke-miterlimit="1.45" shape-rendering="geometricPrecision" font-family="sans-serif" transform="matrix(1,0,0,1,-65,700)" stroke-linecap="butt">
          <text x="562.9482" xml:space="preserve" y="-268.4648" stroke="none">schema:additionalType</text>
        </g>
      </g>
    </g>
    <g id="y.edge.2">
      <g text-rendering="geometricPrecision" stroke-miterlimit="1.45" shape-rendering="geometricPrecision" transform="matrix(1,0,0,1,-65,700)" stroke-linecap="butt">
        <path fill="none" d="M621.7373 -95.2687 L557.042 -95.2687 L557.042 -288.3684"/>
        <path d="M629.7373 -95.2687 L617.7373 -100.2687 L620.7373 -95.2687 L617.7373 -90.2687 Z" stroke="none"/>
      </g>
      <g/>
    </g>
    <g id="y.edge.6">
      <g text-rendering="geometricPrecision" stroke-miterlimit="1.45" shape-rendering="geometricPrecision" transform="matrix(1,0,0,1,-65,700)" stroke-linecap="butt">
        <path fill="none" d="M622.0988 -143.4733 L557.042 -143.4733 L557.042 -288.352"/>
        <path d="M630.0988 -143.4733 L618.0988 -148.4733 L621.0988 -143.4733 L618.0988 -138.4733 Z" stroke="none"/>
      </g>
      <g/>
    </g>
    <g id="y.edge.7">
      <g text-rendering="geometricPrecision" stroke-miterlimit="1.45" shape-rendering="geometricPrecision" transform="matrix(1,0,0,1,-65,700)" stroke-linecap="butt">
        <path fill="none" d="M616.2373 -192.5952 L557.042 -192.5952 L557.042 -288.371"/>
        <path d="M624.2373 -192.5952 L612.2373 -197.5952 L615.2373 -192.5952 L612.2373 -187.5952 Z" stroke="none"/>
      </g>
      <g/>
    </g>
    <g id="y.edge.1">
      <g text-rendering="geometricPrecision" stroke-miterlimit="1.45" shape-rendering="geometricPrecision" transform="matrix(1,0,0,1,-65,700)" stroke-linecap="butt">
        <path fill="none" d="M619.2373 -50.5641 L557.042 -50.5641 L557.042 -288.3529"/>
        <path d="M627.2373 -50.5641 L615.2373 -55.5641 L618.2373 -50.5641 L615.2373 -45.5641 Z" stroke="none"/>
      </g>
      <g/>
    </g>
    <g id="y.edge.3">
      <g text-rendering="geometricPrecision" stroke-miterlimit="1.45" shape-rendering="geometricPrecision" transform="matrix(1,0,0,1,-65,700)" stroke-linecap="butt">
        <path fill="none" d="M573.6431 -585 L448.2245 -585"/>
        <path d="M440.2245 -585 L452.2245 -580 L449.2245 -585 L452.2245 -590 Z" stroke="none"/>
      </g>
      <g>
        <g text-rendering="geometricPrecision" stroke-miterlimit="1.45" shape-rendering="geometricPrecision" font-family="sans-serif" transform="matrix(1,0,0,1,-65,700)" stroke-linecap="butt">
          <text x="459.6572" xml:space="preserve" y="-593.4648" stroke="none">schema:provider</text>
        </g>
      </g>
    </g>
    <g id="y.edge.15">
      <g text-rendering="geometricPrecision" stroke-miterlimit="1.45" shape-rendering="geometricPrecision" transform="matrix(1,0,0,1,-65,700)" stroke-linecap="butt">
        <path fill="none" d="M325 -598.2067 L325 -649.3333 L382 -649.3333 L382 -606.1663"/>
        <path d="M382 -598.1663 L387 -610.1663 L382 -607.1663 L377 -610.1663 Z" stroke="none"/>
      </g>
      <g>
        <g text-rendering="geometricPrecision" stroke-miterlimit="1.45" shape-rendering="geometricPrecision" font-family="sans-serif" transform="matrix(1,0,0,1,-65,700)" stroke-linecap="butt">
          <text x="243.3633" xml:space="preserve" y="-657.7982" stroke="none">schema:parentOrganization</text>
        </g>
      </g>
    </g>
    <g id="y.edge.8">
      <g text-rendering="geometricPrecision" stroke-miterlimit="1.45" shape-rendering="geometricPrecision" transform="matrix(1,0,0,1,-65,700)" stroke-linecap="butt">
        <path fill="none" d="M418.0798 -568.1989 L418.0798 -365.0809 L639.1238 -365.0809 L639.1238 -326.3552"/>
        <path d="M639.1238 -318.3552 L644.1238 -330.3552 L639.1238 -327.3552 L634.1238 -330.3552 Z" stroke="none"/>
      </g>
      <g>
        <g text-rendering="geometricPrecision" stroke-miterlimit="1.45" shape-rendering="geometricPrecision" font-family="sans-serif" transform="matrix(1,0,0,1,-65,700)" stroke-linecap="butt">
          <text x="476.3125" xml:space="preserve" y="-373.4648" stroke="none">schema:publishingPrinciples</text>
        </g>
      </g>
    </g>
    <g id="y.edge.4">
      <g text-rendering="geometricPrecision" stroke-miterlimit="1.45" shape-rendering="geometricPrecision" transform="matrix(1,0,0,1,-65,700)" stroke-linecap="butt">
        <path fill="none" d="M429.1124 -568.2141 L429.1124 -515.7873 L529.5574 -515.7873"/>
        <path d="M537.5574 -515.7873 L525.5574 -520.7873 L528.5574 -515.7873 L525.5574 -510.7873 Z" stroke="none"/>
      </g>
      <g>
        <g text-rendering="geometricPrecision" stroke-miterlimit="1.45" shape-rendering="geometricPrecision" font-family="sans-serif" transform="matrix(1,0,0,1,-65,700)" stroke-linecap="butt">
          <text x="434.7607" xml:space="preserve" y="-526.7982" stroke="none">schema:funder</text>
        </g>
      </g>
    </g>
    <g id="y.edge.22">
      <g text-rendering="geometricPrecision" stroke-miterlimit="1.45" shape-rendering="geometricPrecision" transform="matrix(1,0,0,1,-65,700)" stroke-linecap="butt">
        <path fill="none" d="M554.0063 -502.0135 L554.0063 -473.3252 L606.3375 -473.3252 L606.3375 -493.9782"/>
        <path d="M606.3375 -501.9782 L601.3375 -489.9782 L606.3375 -492.9782 L611.3375 -489.9782 Z" stroke="none"/>
      </g>
      <g>
        <g text-rendering="geometricPrecision" stroke-miterlimit="1.45" shape-rendering="geometricPrecision" font-family="sans-serif" transform="matrix(1,0,0,1,-65,700)" stroke-linecap="butt">
          <text x="482.9122" xml:space="preserve" y="-460.2521" stroke="none">schema:parentOrganization</text>
        </g>
      </g>
    </g>
    <g id="y.edge.5">
      <g text-rendering="geometricPrecision" stroke-miterlimit="1.45" shape-rendering="geometricPrecision" transform="matrix(1,0,0,1,-65,700)" stroke-linecap="butt">
        <path fill="none" d="M357.074 -568.194 L357.074 -326.4139"/>
        <path d="M357.074 -318.4139 L362.074 -330.4139 L357.074 -327.4139 L352.074 -330.4139 Z" stroke="none"/>
      </g>
      <g>
        <g text-rendering="geometricPrecision" stroke-miterlimit="1.45" shape-rendering="geometricPrecision" font-family="sans-serif" transform="matrix(1,0,0,1,-65,700)" stroke-linecap="butt">
          <text x="331.3534" xml:space="preserve" y="-331.4648" stroke="none">schema:contactPoint</text>
        </g>
      </g>
    </g>
    <g id="y.edge.9">
      <g text-rendering="geometricPrecision" stroke-miterlimit="1.45" shape-rendering="geometricPrecision" transform="matrix(1,0,0,1,-65,700)" stroke-linecap="butt">
        <path fill="none" d="M676.2729 -583.1885 L811.8574 -583.1885"/>
        <path d="M819.8574 -583.1885 L807.8574 -588.1885 L810.8574 -583.1885 L807.8574 -578.1885 Z" stroke="none"/>
      </g>
      <g>
        <g text-rendering="geometricPrecision" stroke-miterlimit="1.45" shape-rendering="geometricPrecision" font-family="sans-serif" transform="matrix(1,0,0,1,-65,700)" stroke-linecap="butt">
          <text x="680.9695" xml:space="preserve" y="-608.6533" stroke="none">schema:additionalType</text>
        </g>
      </g>
    </g>
    <g id="y.edge.10">
      <g text-rendering="geometricPrecision" stroke-miterlimit="1.45" shape-rendering="geometricPrecision" transform="matrix(1,0,0,1,-65,700)" stroke-linecap="butt">
        <path fill="none" d="M430.4287 -598.1832 L430.4287 -646.7139"/>
        <path d="M430.4287 -654.7139 L425.4287 -642.7139 L430.4287 -645.7139 L435.4287 -642.7139 Z" stroke="none"/>
      </g>
      <g>
        <g text-rendering="geometricPrecision" stroke-miterlimit="1.45" shape-rendering="geometricPrecision" font-family="sans-serif" transform="matrix(1,0,0,1,-65,700)" stroke-linecap="butt">
          <text x="445.1194" xml:space="preserve" y="-636.0917" stroke="none">schema:additionalType</text>
        </g>
      </g>
    </g>
    <g id="y.edge.11">
      <g text-rendering="geometricPrecision" stroke-miterlimit="1.45" shape-rendering="geometricPrecision" transform="matrix(1,0,0,1,-65,700)" stroke-linecap="butt">
        <path fill="none" d="M302.6006 -579.3681 L277 -579.3681 L277 -559.3681 L166.3387 -559.3681"/>
        <path d="M158.3387 -559.3681 L170.3387 -554.3681 L167.3387 -559.3681 L170.3387 -564.3681 Z" stroke="none"/>
      </g>
      <g>
        <g text-rendering="geometricPrecision" stroke-miterlimit="1.45" shape-rendering="geometricPrecision" font-family="sans-serif" transform="matrix(1,0,0,1,-65,700)" stroke-linecap="butt">
          <text x="170.0312" xml:space="preserve" y="-546.9755" stroke="none">schema:legalName,</text>
          <text x="170.0312" xml:space="preserve" y="-532.8427" stroke="none">schema:name,</text>
          <text x="170.0312" xml:space="preserve" y="-518.7098" stroke="none">schema:description</text>
        </g>
      </g>
    </g>
    <g id="y.edge.12">
      <g text-rendering="geometricPrecision" stroke-miterlimit="1.45" shape-rendering="geometricPrecision" transform="matrix(1,0,0,1,-65,700)" stroke-linecap="butt">
        <path fill="none" d="M302.6868 -594.3681 L164.4285 -594.3681"/>
        <path d="M156.4285 -594.3681 L168.4285 -589.3681 L165.4285 -594.3681 L168.4285 -599.3681 Z" stroke="none"/>
      </g>
      <g>
        <g text-rendering="geometricPrecision" stroke-miterlimit="1.45" shape-rendering="geometricPrecision" font-family="sans-serif" transform="matrix(1,0,0,1,-65,700)" stroke-linecap="butt">
          <text x="170.8822" xml:space="preserve" y="-617.8994" stroke="none">schema:url,</text>
          <text x="170.8822" xml:space="preserve" y="-603.7665" stroke="none">schema:sameAs</text>
        </g>
      </g>
    </g>
    <g id="y.edge.13">
      <g text-rendering="geometricPrecision" stroke-miterlimit="1.45" shape-rendering="geometricPrecision" transform="matrix(1,0,0,1,-65,700)" stroke-linecap="butt">
        <path fill="none" d="M315 -568.21 L315 -480.0758 L223.3557 -480.0758"/>
        <path d="M215.3557 -480.0758 L227.3557 -475.0758 L224.3557 -480.0758 L227.3557 -485.0758 Z" stroke="none"/>
      </g>
      <g>
        <g text-rendering="geometricPrecision" stroke-miterlimit="1.45" shape-rendering="geometricPrecision" font-family="sans-serif" transform="matrix(1,0,0,1,-65,700)" stroke-linecap="butt">
          <text x="235.1416" xml:space="preserve" y="-486.4648" stroke="none">schema:logo</text>
        </g>
      </g>
    </g>
    <g id="y.edge.14">
      <g text-rendering="geometricPrecision" stroke-miterlimit="1.45" shape-rendering="geometricPrecision" transform="matrix(1,0,0,1,-65,700)" stroke-linecap="butt">
        <path fill="none" d="M107.4059 -465.0815 L107.4059 -434.377"/>
        <path d="M107.4059 -426.377 L112.4059 -438.377 L107.4059 -435.377 L102.4059 -438.377 Z" stroke="none"/>
      </g>
      <g>
        <g text-rendering="geometricPrecision" stroke-miterlimit="1.45" shape-rendering="geometricPrecision" font-family="sans-serif" transform="matrix(1,0,0,1,-65,700)" stroke-linecap="butt">
          <text x="114.0752" xml:space="preserve" y="-445.4648" stroke="none">schema:url</text>
        </g>
      </g>
    </g>
    <g id="y.edge.16">
      <g text-rendering="geometricPrecision" stroke-miterlimit="1.45" shape-rendering="geometricPrecision" transform="matrix(1,0,0,1,-65,700)" stroke-linecap="butt">
        <path fill="none" d="M335 -568.1686 L335 -434.2264 L222.7251 -434.2264 L222.7251 -411.377"/>
        <path d="M222.7251 -403.377 L227.7251 -415.377 L222.7251 -412.377 L217.7251 -415.377 Z" stroke="none"/>
      </g>
      <g>
        <g text-rendering="geometricPrecision" stroke-miterlimit="1.45" shape-rendering="geometricPrecision" font-family="sans-serif" transform="matrix(1,0,0,1,-65,700)" stroke-linecap="butt">
          <text x="233.207" xml:space="preserve" y="-441.7982" stroke="none">schema:address</text>
        </g>
      </g>
    </g>
    <g id="y.edge.17">
      <g text-rendering="geometricPrecision" stroke-miterlimit="1.45" shape-rendering="geometricPrecision" transform="matrix(1,0,0,1,-65,700)" stroke-linecap="butt">
        <path fill="none" d="M390.6474 -288.3825 L390.6474 -243.3825 L251.7709 -243.3825"/>
        <path d="M243.7709 -243.3825 L255.7709 -238.3825 L252.7709 -243.3825 L255.7709 -248.3825 Z" stroke="none"/>
      </g>
      <g>
        <g text-rendering="geometricPrecision" stroke-miterlimit="1.45" shape-rendering="geometricPrecision" font-family="sans-serif" transform="matrix(1,0,0,1,-65,700)" stroke-linecap="butt">
          <text x="259.6546" xml:space="preserve" y="-253.7982" stroke="none">schema:contactType</text>
        </g>
      </g>
    </g>
    <g id="y.edge.18">
      <g text-rendering="geometricPrecision" stroke-miterlimit="1.45" shape-rendering="geometricPrecision" transform="matrix(1,0,0,1,-65,700)" stroke-linecap="butt">
        <path fill="none" d="M408.4266 -288.3996 L408.4266 -208.3825 L305.5532 -208.3825"/>
        <path d="M297.5532 -208.3825 L309.5532 -203.3825 L306.5532 -208.3825 L309.5532 -213.3825 Z" stroke="none"/>
      </g>
      <g>
        <g text-rendering="geometricPrecision" stroke-miterlimit="1.45" shape-rendering="geometricPrecision" font-family="sans-serif" transform="matrix(1,0,0,1,-65,700)" stroke-linecap="butt">
          <text x="312.5018" xml:space="preserve" y="-215.7982" stroke="none">schema:url</text>
        </g>
      </g>
    </g>
    <g id="y.edge.19">
      <g text-rendering="geometricPrecision" stroke-miterlimit="1.45" shape-rendering="geometricPrecision" transform="matrix(1,0,0,1,-65,700)" stroke-linecap="butt">
        <path fill="none" d="M438.4266 -288.4087 L438.4266 -158.388 L307.4633 -158.388"/>
        <path d="M299.4633 -158.388 L311.4633 -153.388 L308.4633 -158.388 L311.4633 -163.388 Z" stroke="none"/>
      </g>
      <g>
        <g text-rendering="geometricPrecision" stroke-miterlimit="1.45" shape-rendering="geometricPrecision" font-family="sans-serif" transform="matrix(1,0,0,1,-65,700)" stroke-linecap="butt">
          <text x="312.535" xml:space="preserve" y="-180.8646" stroke="none">schema:name,</text>
          <text x="312.535" xml:space="preserve" y="-166.7318" stroke="none">schema:email</text>
        </g>
      </g>
    </g>
    <g id="y.edge.20">
      <g text-rendering="geometricPrecision" stroke-miterlimit="1.45" shape-rendering="geometricPrecision" transform="matrix(1,0,0,1,-65,700)" stroke-linecap="butt">
        <path fill="none" d="M675.1001 -509.9758 L829.8638 -509.9758"/>
        <path d="M837.8638 -509.9758 L825.8638 -514.9758 L828.8638 -509.9758 L825.8638 -504.9758 Z" stroke="none"/>
      </g>
      <g>
        <g text-rendering="geometricPrecision" stroke-miterlimit="1.45" shape-rendering="geometricPrecision" font-family="sans-serif" transform="matrix(1,0,0,1,-65,700)" stroke-linecap="butt">
          <text x="688.5903" xml:space="preserve" y="-526.6519" stroke="none">schema:legalName,</text>
          <text x="688.5903" xml:space="preserve" y="-512.519" stroke="none">schema:alternateName</text>
        </g>
      </g>
    </g>
    <g id="y.edge.21">
      <g text-rendering="geometricPrecision" stroke-miterlimit="1.45" shape-rendering="geometricPrecision" transform="matrix(1,0,0,1,-65,700)" stroke-linecap="butt">
        <path fill="none" d="M669.3375 -502.0135 L669.3375 -473.3252 L768.8638 -473.3252"/>
        <path d="M776.8638 -473.3252 L764.8638 -478.3252 L767.8638 -473.3252 L764.8638 -468.3252 Z" stroke="none"/>
      </g>
      <g>
        <g text-rendering="geometricPrecision" stroke-miterlimit="1.45" shape-rendering="geometricPrecision" font-family="sans-serif" transform="matrix(1,0,0,1,-65,700)" stroke-linecap="butt">
          <text x="692.0815" xml:space="preserve" y="-478.5854" stroke="none">schema:url</text>
        </g>
      </g>
    </g>
    <g id="y.edge.24">
      <g text-rendering="geometricPrecision" stroke-miterlimit="1.45" shape-rendering="geometricPrecision" transform="matrix(1,0,0,1,-65,700)" stroke-linecap="butt">
        <path fill="none" d="M654.6288 -501.9697 L654.6288 -413.3252 L715.5552 -413.3252"/>
        <path d="M723.5552 -413.3252 L711.5552 -418.3252 L714.5552 -413.3252 L711.5552 -408.3252 Z" stroke="none"/>
      </g>
      <g>
        <g text-rendering="geometricPrecision" stroke-miterlimit="1.45" shape-rendering="geometricPrecision" font-family="sans-serif" transform="matrix(1,0,0,1,-65,700)" stroke-linecap="butt">
          <text x="657.3231" xml:space="preserve" y="-438.79" stroke="none">schema:identifier</text>
        </g>
      </g>
    </g>
    <g id="y.edge.23">
      <g text-rendering="geometricPrecision" stroke-miterlimit="1.45" shape-rendering="geometricPrecision" transform="matrix(1,0,0,1,-65,700)" stroke-linecap="butt">
        <path fill="none" d="M866.4731 -413.3252 L929.1086 -413.3252"/>
        <path d="M937.1086 -413.3252 L925.1086 -418.3252 L928.1086 -413.3252 L925.1086 -408.3252 Z" stroke="none"/>
      </g>
      <g>
        <g text-rendering="geometricPrecision" stroke-miterlimit="1.45" shape-rendering="geometricPrecision" font-family="sans-serif" transform="matrix(1,0,0,1,-65,700)" stroke-linecap="butt">
          <text x="841.9779" xml:space="preserve" y="-440.79" stroke="none">schema:additionalType</text>
        </g>
      </g>
    </g>
    <g id="y.edge.25">
      <g text-rendering="geometricPrecision" stroke-miterlimit="1.45" shape-rendering="geometricPrecision" transform="matrix(1,0,0,1,-65,700)" stroke-linecap="butt">
        <path fill="none" d="M856.549 -398.3085 L856.549 -336.4158 L984.6965 -336.4158"/>
        <path d="M992.6965 -336.4158 L980.6965 -341.4158 L983.6965 -336.4158 L980.6965 -331.4158 Z" stroke="none"/>
      </g>
      <g>
        <g text-rendering="geometricPrecision" stroke-miterlimit="1.45" shape-rendering="geometricPrecision" font-family="sans-serif" transform="matrix(1,0,0,1,-65,700)" stroke-linecap="butt">
          <text x="865.5707" xml:space="preserve" y="-344.1235" stroke="none">schema:propertyID</text>
        </g>
      </g>
    </g>
    <g id="y.edge.27">
      <g text-rendering="geometricPrecision" stroke-miterlimit="1.45" shape-rendering="geometricPrecision" transform="matrix(1,0,0,1,-65,700)" stroke-linecap="butt">
        <path fill="none" d="M848.1821 -398.3295 L848.1821 -289.0044 L984.7234 -289.0044"/>
        <path d="M992.7234 -289.0044 L980.7234 -294.0044 L983.7234 -289.0044 L980.7234 -284.0044 Z" stroke="none"/>
      </g>
      <g>
        <g text-rendering="geometricPrecision" stroke-miterlimit="1.45" shape-rendering="geometricPrecision" font-family="sans-serif" transform="matrix(1,0,0,1,-65,700)" stroke-linecap="butt">
          <text x="862.0833" xml:space="preserve" y="-296.2521" stroke="none">schema:value</text>
        </g>
      </g>
    </g>
    <g id="y.edge.26">
      <g text-rendering="geometricPrecision" stroke-miterlimit="1.45" shape-rendering="geometricPrecision" transform="matrix(1,0,0,1,-65,700)" stroke-linecap="butt">
        <path fill="none" d="M839.549 -398.2901 L839.549 -243.3825 L984.6965 -243.3825"/>
        <path d="M992.6965 -243.3825 L980.6965 -248.3825 L983.6965 -243.3825 L980.6965 -238.3825 Z" stroke="none"/>
      </g>
      <g>
        <g text-rendering="geometricPrecision" stroke-miterlimit="1.45" shape-rendering="geometricPrecision" font-family="sans-serif" transform="matrix(1,0,0,1,-65,700)" stroke-linecap="butt">
          <text x="868.6241" xml:space="preserve" y="-251.2521" stroke="none">schema:url</text>
        </g>
      </g>
    </g>
  </g>
</svg>
