<?xml version="1.0" encoding="UTF-8"?><svg xmlns="http://www.w3.org/2000/svg" xmlns:xlink="http://www.w3.org/1999/xlink" fill-opacity="1" color-rendering="auto" color-interpolation="auto" text-rendering="auto" stroke="black" stroke-linecap="square" width="939" stroke-miterlimit="10" shape-rendering="auto" stroke-opacity="1" fill="black" stroke-dasharray="none" font-weight="normal" stroke-width="1" height="597" font-family="'Dialog'" font-style="normal" stroke-linejoin="miter" font-size="12px" stroke-dashoffset="0" image-rendering="auto">
  <!--Generated by ySVG 2.5-->
  <defs id="genericDefs"/>
  <g>
    <defs id="defs1">
      <clipPath clipPathUnits="userSpaceOnUse" id="clipPath1">
        <path d="M0 0 L939 0 L939 597 L0 597 L0 0 Z"/>
      </clipPath>
    </defs>
    <g id="y.node.0">
      <a target="_blank" xlink:type="simple" xlink:href="http://schema.org/Service" xlink:show="new">
        <g fill="rgb(204,255,204)" text-rendering="geometricPrecision" shape-rendering="geometricPrecision" transform="matrix(1,0,0,1,-583,648)" stroke="rgb(204,255,204)">
          <rect x="625.0916" width="102.5938" height="30" y="-598.1885" stroke="none"/>
        </g>
        <g text-rendering="geometricPrecision" stroke-miterlimit="1.45" shape-rendering="geometricPrecision" transform="matrix(1,0,0,1,-583,648)" stroke-linecap="butt">
          <rect fill="none" x="625.0916" width="102.5938" height="30" y="-598.1885"/>
        </g>
        <g>
          <g text-rendering="geometricPrecision" stroke-miterlimit="1.45" shape-rendering="geometricPrecision" font-family="sans-serif" transform="matrix(1,0,0,1,-583,648)" stroke-linecap="butt">
            <text x="632.0916" xml:space="preserve" y="-578.6533" stroke="none">schema:Service</text>
          </g>
        </g>
      </a>
    </g>
    <g id="y.node.1">
      <a target="_blank" xlink:type="simple" xlink:href="http://schema.org/ServiceChannel" xlink:show="new">
        <g fill="rgb(204,255,204)" text-rendering="geometricPrecision" shape-rendering="geometricPrecision" transform="matrix(1,0,0,1,-583,648)" stroke="rgb(204,255,204)">
          <rect x="728.7129" width="150.0195" height="30" y="-521.5782" stroke="none"/>
        </g>
        <g text-rendering="geometricPrecision" stroke-miterlimit="1.45" shape-rendering="geometricPrecision" transform="matrix(1,0,0,1,-583,648)" stroke-linecap="butt">
          <rect fill="none" x="728.7129" width="150.0195" height="30" y="-521.5782"/>
        </g>
        <g>
          <g text-rendering="geometricPrecision" stroke-miterlimit="1.45" shape-rendering="geometricPrecision" font-family="sans-serif" transform="matrix(1,0,0,1,-583,648)" stroke-linecap="butt">
            <text x="735.7129" xml:space="preserve" y="-502.0431" stroke="none">schema:ServiceChannel</text>
          </g>
        </g>
      </a>
    </g>
    <g id="y.node.2">
      <a target="_blank" xlink:type="simple" xlink:href="https://geodex.org/voc/ResearchRepositoryService" xlink:show="new">
        <g fill="rgb(255,204,0)" text-rendering="geometricPrecision" shape-rendering="geometricPrecision" transform="matrix(1,0,0,1,-583,648)" stroke="rgb(255,204,0)">
          <rect x="855.4328" width="194.791" height="30" y="-598.1885" stroke="none"/>
        </g>
        <g text-rendering="geometricPrecision" stroke-miterlimit="1.45" shape-rendering="geometricPrecision" transform="matrix(1,0,0,1,-583,648)" stroke-linecap="butt">
          <rect fill="none" x="855.4328" width="194.791" height="30" y="-598.1885"/>
        </g>
        <g>
          <g text-rendering="geometricPrecision" stroke-miterlimit="1.45" shape-rendering="geometricPrecision" font-family="sans-serif" transform="matrix(1,0,0,1,-583,648)" stroke-linecap="butt">
            <text x="862.4328" xml:space="preserve" y="-578.6533" stroke="none">gdx:ResearchRepositoryService</text>
          </g>
        </g>
      </a>
    </g>
    <g id="y.node.3">
      <g fill="rgb(0,204,255)" text-rendering="geometricPrecision" shape-rendering="geometricPrecision" transform="matrix(1,0,0,1,-583,648)" stroke="rgb(0,204,255)">
        <ellipse rx="20.0605" ry="15" cx="671.3249" cy="-324.2137" stroke="none"/>
      </g>
      <g text-rendering="geometricPrecision" stroke-miterlimit="1.45" shape-rendering="geometricPrecision" transform="matrix(1,0,0,1,-583,648)" stroke-linecap="butt">
        <ellipse rx="20.0605" fill="none" ry="15" cx="671.3249" cy="-324.2137"/>
      </g>
      <g>
        <g text-rendering="geometricPrecision" stroke-miterlimit="1.45" shape-rendering="geometricPrecision" font-family="sans-serif" transform="matrix(1,0,0,1,-583,648)" stroke-linecap="butt">
          <text x="658.2644" xml:space="preserve" y="-319.6786" stroke="none">Text</text>
        </g>
      </g>
    </g>
    <g id="y.node.4">
      <g fill="rgb(0,204,255)" text-rendering="geometricPrecision" shape-rendering="geometricPrecision" transform="matrix(1,0,0,1,-583,648)" stroke="rgb(0,204,255)">
        <ellipse rx="18.1504" ry="15" cx="616.696" cy="-463.7919" stroke="none"/>
      </g>
      <g text-rendering="geometricPrecision" stroke-miterlimit="1.45" shape-rendering="geometricPrecision" transform="matrix(1,0,0,1,-583,648)" stroke-linecap="butt">
        <ellipse rx="18.1504" fill="none" ry="15" cx="616.696" cy="-463.7919"/>
      </g>
      <g>
        <g text-rendering="geometricPrecision" stroke-miterlimit="1.45" shape-rendering="geometricPrecision" font-family="sans-serif" transform="matrix(1,0,0,1,-583,648)" stroke-linecap="butt">
          <text x="605.5457" xml:space="preserve" y="-459.2568" stroke="none">URL</text>
        </g>
      </g>
    </g>
    <g id="y.node.5">
      <a target="_blank" xlink:type="simple" xlink:href="https://geodex.org/voc/SearchService" xlink:show="new">
        <g fill="yellow" text-rendering="geometricPrecision" shape-rendering="geometricPrecision" transform="matrix(1,0,0,1,-583,648)" stroke="yellow">
          <ellipse rx="59.5205" ry="17.5827" cx="971.8838" cy="-321.631" stroke="none"/>
        </g>
        <g text-rendering="geometricPrecision" stroke-miterlimit="1.45" shape-rendering="geometricPrecision" transform="matrix(1,0,0,1,-583,648)" stroke-linecap="butt">
          <ellipse rx="59.5205" fill="none" ry="17.5827" cx="971.8838" cy="-321.631"/>
        </g>
        <g>
          <g text-rendering="geometricPrecision" stroke-miterlimit="1.45" shape-rendering="geometricPrecision" font-family="sans-serif" transform="matrix(1,0,0,1,-583,648)" stroke-linecap="butt">
            <text x="919.3633" xml:space="preserve" y="-317.0959" stroke="none">gdx:SearchService</text>
          </g>
        </g>
      </a>
    </g>
    <g id="y.node.6">
      <a target="_blank" xlink:type="simple" xlink:href="https://geodex.org/voc/SubmissionService" xlink:show="new">
        <g fill="yellow" text-rendering="geometricPrecision" shape-rendering="geometricPrecision" transform="matrix(1,0,0,1,-583,648)" stroke="yellow">
          <ellipse rx="73.709" ry="17.5827" cx="986.0723" cy="-275.6597" stroke="none"/>
        </g>
        <g text-rendering="geometricPrecision" stroke-miterlimit="1.45" shape-rendering="geometricPrecision" transform="matrix(1,0,0,1,-583,648)" stroke-linecap="butt">
          <ellipse rx="73.709" fill="none" ry="17.5827" cx="986.0723" cy="-275.6597"/>
        </g>
        <g>
          <g text-rendering="geometricPrecision" stroke-miterlimit="1.45" shape-rendering="geometricPrecision" font-family="sans-serif" transform="matrix(1,0,0,1,-583,648)" stroke-linecap="butt">
            <text x="919.3633" xml:space="preserve" y="-271.1245" stroke="none">gdx:SubmissionService</text>
          </g>
        </g>
      </a>
    </g>
    <g id="y.node.7">
      <a target="_blank" xlink:type="simple" xlink:href="https://geodex.org/voc/SyndicationService" xlink:show="new">
        <g fill="yellow" text-rendering="geometricPrecision" shape-rendering="geometricPrecision" transform="matrix(1,0,0,1,-583,648)" stroke="yellow">
          <ellipse rx="73.7559" ry="17.5827" cx="986.1191" cy="-229.6883" stroke="none"/>
        </g>
        <g text-rendering="geometricPrecision" stroke-miterlimit="1.45" shape-rendering="geometricPrecision" transform="matrix(1,0,0,1,-583,648)" stroke-linecap="butt">
          <ellipse rx="73.7559" fill="none" ry="17.5827" cx="986.1191" cy="-229.6883"/>
        </g>
        <g>
          <g text-rendering="geometricPrecision" stroke-miterlimit="1.45" shape-rendering="geometricPrecision" font-family="sans-serif" transform="matrix(1,0,0,1,-583,648)" stroke-linecap="butt">
            <text x="919.3633" xml:space="preserve" y="-225.1532" stroke="none">gdx:SyndicationService</text>
          </g>
        </g>
      </a>
    </g>
    <g id="y.node.8">
      <a target="_blank" xlink:type="simple" xlink:href="http://schema.org/Service" xlink:show="new">
        <g fill="rgb(204,255,204)" text-rendering="geometricPrecision" shape-rendering="geometricPrecision" transform="matrix(1,0,0,1,-583,648)" stroke="rgb(204,255,204)">
          <rect x="801.8516" width="102.5938" height="30" y="-410.1851" stroke="none"/>
        </g>
        <g text-rendering="geometricPrecision" stroke-miterlimit="1.45" shape-rendering="geometricPrecision" transform="matrix(1,0,0,1,-583,648)" stroke-linecap="butt">
          <rect fill="none" x="801.8516" width="102.5938" height="30" y="-410.1851"/>
        </g>
        <g>
          <g text-rendering="geometricPrecision" stroke-miterlimit="1.45" shape-rendering="geometricPrecision" font-family="sans-serif" transform="matrix(1,0,0,1,-583,648)" stroke-linecap="butt">
            <text x="808.8516" xml:space="preserve" y="-390.6499" stroke="none">schema:Service</text>
          </g>
        </g>
      </a>
    </g>
    <g id="y.node.9">
      <a target="_blank" xlink:type="simple" xlink:href="http://schema.org/Service" xlink:show="new">
        <g fill="rgb(204,255,204)" text-rendering="geometricPrecision" shape-rendering="geometricPrecision" transform="matrix(1,0,0,1,-583,648)" stroke="rgb(204,255,204)">
          <rect x="1101.9114" width="99.2246" height="30" y="-410.1851" stroke="none"/>
        </g>
        <g text-rendering="geometricPrecision" stroke-miterlimit="1.45" shape-rendering="geometricPrecision" transform="matrix(1,0,0,1,-583,648)" stroke-linecap="butt">
          <rect fill="none" x="1101.9114" width="99.2246" height="30" y="-410.1851"/>
        </g>
        <g>
          <g text-rendering="geometricPrecision" stroke-miterlimit="1.45" shape-rendering="geometricPrecision" font-family="sans-serif" transform="matrix(1,0,0,1,-583,648)" stroke-linecap="butt">
            <text x="1108.9114" xml:space="preserve" y="-390.6499" stroke="none">schema:Action</text>
          </g>
        </g>
      </a>
    </g>
    <g id="y.node.10">
      <a target="_blank" xlink:type="simple" xlink:href="https://schema.org/SearchAction" xlink:show="new">
        <g fill="yellow" text-rendering="geometricPrecision" shape-rendering="geometricPrecision" transform="matrix(1,0,0,1,-583,648)" stroke="yellow">
          <ellipse rx="68.752" ry="17.5827" cx="1250.1231" cy="-321.631" stroke="none"/>
        </g>
        <g text-rendering="geometricPrecision" stroke-miterlimit="1.45" shape-rendering="geometricPrecision" transform="matrix(1,0,0,1,-583,648)" stroke-linecap="butt">
          <ellipse rx="68.752" fill="none" ry="17.5827" cx="1250.1231" cy="-321.631"/>
        </g>
        <g>
          <g text-rendering="geometricPrecision" stroke-miterlimit="1.45" shape-rendering="geometricPrecision" font-family="sans-serif" transform="matrix(1,0,0,1,-583,648)" stroke-linecap="butt">
            <text x="1188.3711" xml:space="preserve" y="-317.0959" stroke="none">schema:SearchAction</text>
          </g>
        </g>
      </a>
    </g>
    <g id="y.node.11">
      <a target="_blank" xlink:type="simple" xlink:href="https://schema.org/CreateAction" xlink:show="new">
        <g fill="yellow" text-rendering="geometricPrecision" shape-rendering="geometricPrecision" transform="matrix(1,0,0,1,-583,648)" stroke="yellow">
          <ellipse rx="68.4619" ry="17.5827" cx="1250.4131" cy="-275.6597" stroke="none"/>
        </g>
        <g text-rendering="geometricPrecision" stroke-miterlimit="1.45" shape-rendering="geometricPrecision" transform="matrix(1,0,0,1,-583,648)" stroke-linecap="butt">
          <ellipse rx="68.4619" fill="none" ry="17.5827" cx="1250.4131" cy="-275.6597"/>
        </g>
        <g>
          <g text-rendering="geometricPrecision" stroke-miterlimit="1.45" shape-rendering="geometricPrecision" font-family="sans-serif" transform="matrix(1,0,0,1,-583,648)" stroke-linecap="butt">
            <text x="1188.9512" xml:space="preserve" y="-271.1245" stroke="none">schema:CreateAction</text>
          </g>
        </g>
      </a>
    </g>
    <g id="y.node.12">
      <a target="_blank" xlink:type="simple" xlink:href="https://schema.org/ConsumeAction" xlink:show="new">
        <g fill="yellow" text-rendering="geometricPrecision" shape-rendering="geometricPrecision" transform="matrix(1,0,0,1,-583,648)" stroke="yellow">
          <ellipse rx="76.8994" ry="17.5827" cx="1241.9756" cy="-229.6883" stroke="none"/>
        </g>
        <g text-rendering="geometricPrecision" stroke-miterlimit="1.45" shape-rendering="geometricPrecision" transform="matrix(1,0,0,1,-583,648)" stroke-linecap="butt">
          <ellipse rx="76.8994" fill="none" ry="17.5827" cx="1241.9756" cy="-229.6883"/>
        </g>
        <g>
          <g text-rendering="geometricPrecision" stroke-miterlimit="1.45" shape-rendering="geometricPrecision" font-family="sans-serif" transform="matrix(1,0,0,1,-583,648)" stroke-linecap="butt">
            <text x="1172.0762" xml:space="preserve" y="-225.1532" stroke="none">schema:ConsumeAction</text>
          </g>
        </g>
      </a>
    </g>
    <g id="y.node.13">
      <a target="_blank" xlink:type="simple" xlink:href="https://geodex.org/voc/SitemapXML" xlink:show="new">
        <g fill="yellow" text-rendering="geometricPrecision" shape-rendering="geometricPrecision" transform="matrix(1,0,0,1,-583,648)" stroke="yellow">
          <ellipse rx="91.9482" ry="15" cx="1143.172" cy="-167.1056" stroke="none"/>
        </g>
        <g text-rendering="geometricPrecision" stroke-miterlimit="1.45" shape-rendering="geometricPrecision" transform="matrix(1,0,0,1,-583,648)" stroke-linecap="butt">
          <ellipse rx="91.9482" fill="none" ry="15" cx="1143.172" cy="-167.1056"/>
        </g>
        <g>
          <g text-rendering="geometricPrecision" stroke-miterlimit="1.45" shape-rendering="geometricPrecision" font-family="sans-serif" transform="matrix(1,0,0,1,-583,648)" stroke-linecap="butt">
            <text x="1061.7238" xml:space="preserve" y="-162.5705" stroke="none">gdx:EntryPoint-SitemapXML</text>
          </g>
        </g>
      </a>
    </g>
    <g id="y.node.14">
      <a target="_blank" xlink:type="simple" xlink:href="http://schema.org/EntryPoint" xlink:show="new">
        <g fill="rgb(204,255,204)" text-rendering="geometricPrecision" shape-rendering="geometricPrecision" transform="matrix(1,0,0,1,-583,648)" stroke="rgb(204,255,204)">
          <rect x="1385.8706" width="121.0508" height="30" y="-191.1868" stroke="none"/>
        </g>
        <g text-rendering="geometricPrecision" stroke-miterlimit="1.45" shape-rendering="geometricPrecision" transform="matrix(1,0,0,1,-583,648)" stroke-linecap="butt">
          <rect fill="none" x="1385.8706" width="121.0508" height="30" y="-191.1868"/>
        </g>
        <g>
          <g text-rendering="geometricPrecision" stroke-miterlimit="1.45" shape-rendering="geometricPrecision" font-family="sans-serif" transform="matrix(1,0,0,1,-583,648)" stroke-linecap="butt">
            <text x="1392.8706" xml:space="preserve" y="-171.6516" stroke="none">schema:EntryPoint</text>
          </g>
        </g>
      </a>
    </g>
    <g id="y.node.15">
      <a target="_blank" xlink:type="simple" xlink:href="https://schema.org/PropertyValueSpecification" xlink:show="new">
        <g fill="rgb(204,255,204)" text-rendering="geometricPrecision" shape-rendering="geometricPrecision" transform="matrix(1,0,0,1,-583,648)" stroke="rgb(204,255,204)">
          <rect x="1086.2986" width="216.6641" height="30" y="-521.5782" stroke="none"/>
        </g>
        <g text-rendering="geometricPrecision" stroke-miterlimit="1.45" shape-rendering="geometricPrecision" transform="matrix(1,0,0,1,-583,648)" stroke-linecap="butt">
          <rect fill="none" x="1086.2986" width="216.6641" height="30" y="-521.5782"/>
        </g>
        <g>
          <g text-rendering="geometricPrecision" stroke-miterlimit="1.45" shape-rendering="geometricPrecision" font-family="sans-serif" transform="matrix(1,0,0,1,-583,648)" stroke-linecap="butt">
            <text x="1093.2986" xml:space="preserve" y="-502.0431" stroke="none">schema:PropertyValueSpecification</text>
          </g>
        </g>
      </a>
    </g>
    <g id="y.node.16">
      <g fill="rgb(0,204,255)" text-rendering="geometricPrecision" shape-rendering="geometricPrecision" transform="matrix(1,0,0,1,-583,648)" stroke="rgb(0,204,255)">
        <ellipse rx="20.0605" ry="15" cx="1106.3591" cy="-617.9714" stroke="none"/>
      </g>
      <g text-rendering="geometricPrecision" stroke-miterlimit="1.45" shape-rendering="geometricPrecision" transform="matrix(1,0,0,1,-583,648)" stroke-linecap="butt">
        <ellipse rx="20.0605" fill="none" ry="15" cx="1106.3591" cy="-617.9714"/>
      </g>
      <g>
        <g text-rendering="geometricPrecision" stroke-miterlimit="1.45" shape-rendering="geometricPrecision" font-family="sans-serif" transform="matrix(1,0,0,1,-583,648)" stroke-linecap="butt">
          <text x="1093.2986" xml:space="preserve" y="-613.4362" stroke="none">Text</text>
        </g>
      </g>
    </g>
    <g id="y.node.17">
      <g fill="rgb(0,204,255)" text-rendering="geometricPrecision" shape-rendering="geometricPrecision" transform="matrix(1,0,0,1,-583,648)" stroke="rgb(0,204,255)">
        <ellipse rx="29.9365" ry="15" cx="1434.9385" cy="-506.5782" stroke="none"/>
      </g>
      <g text-rendering="geometricPrecision" stroke-miterlimit="1.45" shape-rendering="geometricPrecision" transform="matrix(1,0,0,1,-583,648)" stroke-linecap="butt">
        <ellipse rx="29.9365" fill="none" ry="15" cx="1434.9385" cy="-506.5782"/>
      </g>
      <g>
        <g text-rendering="geometricPrecision" stroke-miterlimit="1.45" shape-rendering="geometricPrecision" font-family="sans-serif" transform="matrix(1,0,0,1,-583,648)" stroke-linecap="butt">
          <text x="1412.002" xml:space="preserve" y="-502.0431" stroke="none">Boolean</text>
        </g>
      </g>
    </g>
    <g id="y.node.18">
      <g fill="rgb(0,204,255)" text-rendering="geometricPrecision" shape-rendering="geometricPrecision" transform="matrix(1,0,0,1,-583,648)" stroke="rgb(0,204,255)">
        <ellipse rx="30.332" ry="15" cx="1288.543" cy="-617.9714" stroke="none"/>
      </g>
      <g text-rendering="geometricPrecision" stroke-miterlimit="1.45" shape-rendering="geometricPrecision" transform="matrix(1,0,0,1,-583,648)" stroke-linecap="butt">
        <ellipse rx="30.332" fill="none" ry="15" cx="1288.543" cy="-617.9714"/>
      </g>
      <g>
        <g text-rendering="geometricPrecision" stroke-miterlimit="1.45" shape-rendering="geometricPrecision" font-family="sans-serif" transform="matrix(1,0,0,1,-583,648)" stroke-linecap="butt">
          <text x="1265.2109" xml:space="preserve" y="-613.4362" stroke="none">Number</text>
        </g>
      </g>
    </g>
    <g id="y.node.19">
      <g fill="rgb(0,204,255)" text-rendering="geometricPrecision" shape-rendering="geometricPrecision" transform="matrix(1,0,0,1,-583,648)" stroke="rgb(0,204,255)">
        <ellipse rx="20.0605" ry="15" cx="1268.5329" cy="-130.1876" stroke="none"/>
      </g>
      <g text-rendering="geometricPrecision" stroke-miterlimit="1.45" shape-rendering="geometricPrecision" transform="matrix(1,0,0,1,-583,648)" stroke-linecap="butt">
        <ellipse rx="20.0605" fill="none" ry="15" cx="1268.5329" cy="-130.1876"/>
      </g>
      <g>
        <g text-rendering="geometricPrecision" stroke-miterlimit="1.45" shape-rendering="geometricPrecision" font-family="sans-serif" transform="matrix(1,0,0,1,-583,648)" stroke-linecap="butt">
          <text x="1255.4724" xml:space="preserve" y="-125.6525" stroke="none">Text</text>
        </g>
      </g>
    </g>
    <g id="y.node.20">
      <g fill="rgb(0,204,255)" text-rendering="geometricPrecision" shape-rendering="geometricPrecision" transform="matrix(1,0,0,1,-583,648)" stroke="rgb(0,204,255)">
        <ellipse rx="18.1504" ry="15" cx="1470.9395" cy="-244.1851" stroke="none"/>
      </g>
      <g text-rendering="geometricPrecision" stroke-miterlimit="1.45" shape-rendering="geometricPrecision" transform="matrix(1,0,0,1,-583,648)" stroke-linecap="butt">
        <ellipse rx="18.1504" fill="none" ry="15" cx="1470.9395" cy="-244.1851"/>
      </g>
      <g>
        <g text-rendering="geometricPrecision" stroke-miterlimit="1.45" shape-rendering="geometricPrecision" font-family="sans-serif" transform="matrix(1,0,0,1,-583,648)" stroke-linecap="butt">
          <text x="1459.7891" xml:space="preserve" y="-239.6499" stroke="none">URL</text>
        </g>
      </g>
    </g>
    <g id="y.edge.0">
      <g text-rendering="geometricPrecision" stroke-miterlimit="1.45" shape-rendering="geometricPrecision" transform="matrix(1,0,0,1,-583,648)" stroke-linecap="butt">
        <path fill="none" d="M654.8464 -568.192 L654.8464 -511.7891 L720.6858 -511.7891"/>
        <path d="M728.6858 -511.7891 L716.6858 -516.7891 L719.6858 -511.7891 L716.6858 -506.7891 Z" stroke="none"/>
      </g>
      <g>
        <g text-rendering="geometricPrecision" stroke-miterlimit="1.45" shape-rendering="geometricPrecision" font-family="sans-serif" transform="matrix(1,0,0,1,-583,648)" stroke-linecap="butt">
          <text x="669.9072" xml:space="preserve" y="-531.9648" stroke="none">schema:availableChannel</text>
        </g>
      </g>
    </g>
    <g id="y.edge.1">
      <g text-rendering="geometricPrecision" stroke-miterlimit="1.45" shape-rendering="geometricPrecision" transform="matrix(1,0,0,1,-583,648)" stroke-linecap="butt">
        <path fill="none" d="M727.6853 -583.1885 L847.4328 -583.1885"/>
        <path d="M855.4328 -583.1885 L843.4328 -588.1885 L846.4328 -583.1885 L843.4328 -578.1885 Z" stroke="none"/>
      </g>
      <g>
        <g text-rendering="geometricPrecision" stroke-miterlimit="1.45" shape-rendering="geometricPrecision" font-family="sans-serif" transform="matrix(1,0,0,1,-583,648)" stroke-linecap="butt">
          <text x="724.4633" xml:space="preserve" y="-608.6533" stroke="none">schema:additionalType</text>
        </g>
      </g>
    </g>
    <g id="y.edge.3">
      <g text-rendering="geometricPrecision" stroke-miterlimit="1.45" shape-rendering="geometricPrecision" transform="matrix(1,0,0,1,-583,648)" stroke-linecap="butt">
        <path fill="none" d="M785 -491.5953 L785 -463.7919 L642.8464 -463.7919"/>
        <path d="M634.8464 -463.7919 L646.8464 -458.7919 L643.8464 -463.7919 L646.8464 -468.7919 Z" stroke="none"/>
      </g>
      <g>
        <g text-rendering="geometricPrecision" stroke-miterlimit="1.45" shape-rendering="geometricPrecision" font-family="sans-serif" transform="matrix(1,0,0,1,-583,648)" stroke-linecap="butt">
          <text x="661.4341" xml:space="preserve" y="-450.4648" stroke="none">schema:serviceUrl</text>
        </g>
      </g>
    </g>
    <g id="y.edge.4">
      <g text-rendering="geometricPrecision" stroke-miterlimit="1.45" shape-rendering="geometricPrecision" transform="matrix(1,0,0,1,-583,648)" stroke-linecap="butt">
        <path fill="none" d="M829.4355 -491.5786 L829.4355 -437.8425 L829.4355 -418.2235"/>
        <path d="M829.4355 -410.2235 L834.4355 -422.2235 L829.4355 -419.2235 L824.4355 -422.2235 Z" stroke="none"/>
      </g>
      <g>
        <g text-rendering="geometricPrecision" stroke-miterlimit="1.45" shape-rendering="geometricPrecision" font-family="sans-serif" transform="matrix(1,0,0,1,-583,648)" stroke-linecap="butt">
          <text x="839.2041" xml:space="preserve" y="-453.142" stroke="none">schema:providesService</text>
        </g>
      </g>
    </g>
    <g id="y.edge.2">
      <g text-rendering="geometricPrecision" stroke-miterlimit="1.45" shape-rendering="geometricPrecision" transform="matrix(1,0,0,1,-583,648)" stroke-linecap="butt">
        <path fill="none" d="M818 -380.1652 L818 -324.2137 L699.3855 -324.2137"/>
        <path d="M691.3855 -324.2137 L703.3855 -319.2137 L700.3855 -324.2137 L703.3855 -329.2137 Z" stroke="none"/>
      </g>
      <g>
        <g text-rendering="geometricPrecision" stroke-miterlimit="1.45" shape-rendering="geometricPrecision" font-family="sans-serif" transform="matrix(1,0,0,1,-583,648)" stroke-linecap="butt">
          <text x="699.3838" xml:space="preserve" y="-351.0312" stroke="none">schema:name,</text>
          <text x="699.3838" xml:space="preserve" y="-336.8984" stroke="none">schema:description</text>
        </g>
      </g>
    </g>
    <g id="y.edge.9">
      <g text-rendering="geometricPrecision" stroke-miterlimit="1.45" shape-rendering="geometricPrecision" transform="matrix(1,0,0,1,-583,648)" stroke-linecap="butt">
        <path fill="none" d="M853.1484 -380.1851 L853.1484 -321.631 L904.3633 -321.631"/>
        <path d="M912.3633 -321.631 L900.3633 -326.631 L903.3633 -321.631 L900.3633 -316.631 Z" stroke="none"/>
      </g>
      <g>
        <g text-rendering="geometricPrecision" stroke-miterlimit="1.45" shape-rendering="geometricPrecision" font-family="sans-serif" transform="matrix(1,0,0,1,-583,648)" stroke-linecap="butt">
          <text x="866.0527" xml:space="preserve" y="-356.2477" stroke="none">schema:additionalType</text>
        </g>
      </g>
    </g>
    <g id="y.edge.10">
      <g text-rendering="geometricPrecision" stroke-miterlimit="1.45" shape-rendering="geometricPrecision" transform="matrix(1,0,0,1,-583,648)" stroke-linecap="butt">
        <path fill="none" d="M853.1484 -380.1851 L853.1484 -275.6597 L904.3633 -275.6597"/>
        <path d="M912.3633 -275.6597 L900.3633 -280.6597 L903.3633 -275.6597 L900.3633 -270.6597 Z" stroke="none"/>
      </g>
      <g/>
    </g>
    <g id="y.edge.11">
      <g text-rendering="geometricPrecision" stroke-miterlimit="1.45" shape-rendering="geometricPrecision" transform="matrix(1,0,0,1,-583,648)" stroke-linecap="butt">
        <path fill="none" d="M853.1484 -380.1851 L853.1484 -229.6883 L904.3633 -229.6883"/>
        <path d="M912.3633 -229.6883 L900.3633 -234.6883 L903.3633 -229.6883 L900.3633 -224.6883 Z" stroke="none"/>
      </g>
      <g/>
    </g>
    <g id="y.edge.5">
      <g text-rendering="geometricPrecision" stroke-miterlimit="1.45" shape-rendering="geometricPrecision" transform="matrix(1,0,0,1,-583,648)" stroke-linecap="butt">
        <path fill="none" d="M904.4567 -395.1851 L1093.9114 -395.1851"/>
        <path d="M1101.9114 -395.1851 L1089.9114 -400.1851 L1092.9114 -395.1851 L1089.9114 -390.1851 Z" stroke="none"/>
      </g>
      <g>
        <g text-rendering="geometricPrecision" stroke-miterlimit="1.45" shape-rendering="geometricPrecision" font-family="sans-serif" transform="matrix(1,0,0,1,-583,648)" stroke-linecap="butt">
          <text x="927.9222" xml:space="preserve" y="-400.9648" stroke="none">schema:potentialAction</text>
        </g>
      </g>
    </g>
    <g id="y.edge.12">
      <g text-rendering="geometricPrecision" stroke-miterlimit="1.45" shape-rendering="geometricPrecision" transform="matrix(1,0,0,1,-583,648)" stroke-linecap="butt">
        <path fill="none" d="M1201.136 -395.1851 L1350 -395.1851 L1350 -321.631 L1326.875 -321.631"/>
        <path d="M1318.875 -321.631 L1330.875 -316.631 L1327.875 -321.631 L1330.875 -326.631 Z" stroke="none"/>
      </g>
      <g>
        <g text-rendering="geometricPrecision" stroke-miterlimit="1.45" shape-rendering="geometricPrecision" font-family="sans-serif" transform="matrix(1,0,0,1,-583,648)" stroke-linecap="butt">
          <text x="1305.2565" xml:space="preserve" y="-364.4648" stroke="none">@type</text>
        </g>
      </g>
    </g>
    <g id="y.edge.8">
      <g text-rendering="geometricPrecision" stroke-miterlimit="1.45" shape-rendering="geometricPrecision" transform="matrix(1,0,0,1,-583,648)" stroke-linecap="butt">
        <path fill="none" d="M1173.3711 -321.631 L1031.4043 -321.631"/>
        <path d="M1181.3711 -321.631 L1169.3711 -326.631 L1172.3711 -321.631 L1169.3711 -316.631 Z" stroke="none"/>
      </g>
      <g>
        <g text-rendering="geometricPrecision" stroke-miterlimit="1.45" shape-rendering="geometricPrecision" font-family="sans-serif" transform="matrix(1,0,0,1,-583,648)" stroke-linecap="butt">
          <text x="1068.583" xml:space="preserve" y="-326.7808" stroke="none">skos:related</text>
        </g>
      </g>
    </g>
    <g id="y.edge.13">
      <g text-rendering="geometricPrecision" stroke-miterlimit="1.45" shape-rendering="geometricPrecision" transform="matrix(1,0,0,1,-583,648)" stroke-linecap="butt">
        <path fill="none" d="M1201.136 -395.1851 L1350 -395.1851 L1350 -275.6597 L1326.875 -275.6597"/>
        <path d="M1318.875 -275.6597 L1330.875 -270.6597 L1327.875 -275.6597 L1330.875 -280.6597 Z" stroke="none"/>
      </g>
      <g/>
    </g>
    <g id="y.edge.7">
      <g text-rendering="geometricPrecision" stroke-miterlimit="1.45" shape-rendering="geometricPrecision" transform="matrix(1,0,0,1,-583,648)" stroke-linecap="butt">
        <path fill="none" d="M1173.9512 -275.6597 L1059.7812 -275.6597"/>
        <path d="M1181.9512 -275.6597 L1169.9512 -280.6597 L1172.9512 -275.6597 L1169.9512 -270.6597 Z" stroke="none"/>
      </g>
      <g>
        <g text-rendering="geometricPrecision" stroke-miterlimit="1.45" shape-rendering="geometricPrecision" font-family="sans-serif" transform="matrix(1,0,0,1,-583,648)" stroke-linecap="butt">
          <text x="1069.583" xml:space="preserve" y="-282.7808" stroke="none">skos:related</text>
        </g>
      </g>
    </g>
    <g id="y.edge.14">
      <g text-rendering="geometricPrecision" stroke-miterlimit="1.45" shape-rendering="geometricPrecision" transform="matrix(1,0,0,1,-583,648)" stroke-linecap="butt">
        <path fill="none" d="M1201.136 -395.1851 L1350 -395.1851 L1350 -229.6883 L1326.875 -229.6883"/>
        <path d="M1318.875 -229.6883 L1330.875 -224.6883 L1327.875 -229.6883 L1330.875 -234.6883 Z" stroke="none"/>
      </g>
      <g/>
    </g>
    <g id="y.edge.6">
      <g text-rendering="geometricPrecision" stroke-miterlimit="1.45" shape-rendering="geometricPrecision" transform="matrix(1,0,0,1,-583,648)" stroke-linecap="butt">
        <path fill="none" d="M1157.0762 -229.6883 L1059.875 -229.6883"/>
        <path d="M1165.0762 -229.6883 L1153.0762 -234.6883 L1156.0762 -229.6883 L1153.0762 -224.6883 Z" stroke="none"/>
      </g>
      <g>
        <g text-rendering="geometricPrecision" stroke-miterlimit="1.45" shape-rendering="geometricPrecision" font-family="sans-serif" transform="matrix(1,0,0,1,-583,648)" stroke-linecap="butt">
          <text x="1070.583" xml:space="preserve" y="-237.7808" stroke="none">skos:related</text>
        </g>
      </g>
    </g>
    <g id="y.edge.21">
      <g text-rendering="geometricPrecision" stroke-miterlimit="1.45" shape-rendering="geometricPrecision" transform="matrix(1,0,0,1,-583,648)" stroke-linecap="butt">
        <path fill="none" d="M1051.2238 -167.1057 L969 -167.1057 L969 -204.6012"/>
        <path d="M969 -212.6012 L964 -200.6012 L969 -203.6012 L974 -200.6012 Z" stroke="none"/>
      </g>
      <g>
        <g text-rendering="geometricPrecision" stroke-miterlimit="1.45" shape-rendering="geometricPrecision" font-family="sans-serif" transform="matrix(1,0,0,1,-583,648)" stroke-linecap="butt">
          <text x="977.4399" xml:space="preserve" y="-173.1854" stroke="none">skos:related</text>
        </g>
      </g>
    </g>
    <g id="y.edge.15">
      <g text-rendering="geometricPrecision" stroke-miterlimit="1.45" shape-rendering="geometricPrecision" transform="matrix(1,0,0,1,-583,648)" stroke-linecap="butt">
        <path fill="none" d="M1201.158 -403.488 L1397.832 -403.488 L1397.832 -199.1978"/>
        <path d="M1397.832 -191.1978 L1402.832 -203.1978 L1397.832 -200.1978 L1392.832 -203.1978 Z" stroke="none"/>
      </g>
      <g>
        <g text-rendering="geometricPrecision" stroke-miterlimit="1.45" shape-rendering="geometricPrecision" font-family="sans-serif" transform="matrix(1,0,0,1,-583,648)" stroke-linecap="butt">
          <text x="1406.5524" xml:space="preserve" y="-363.4648" stroke="none">schema:target</text>
        </g>
      </g>
    </g>
    <g id="y.edge.16">
      <g text-rendering="geometricPrecision" stroke-miterlimit="1.45" shape-rendering="geometricPrecision" transform="matrix(1,0,0,1,-583,648)" stroke-linecap="butt">
        <path fill="none" d="M1385.8364 -167.1057 L1243.1074 -167.1057"/>
        <path d="M1235.1074 -167.1057 L1247.1074 -162.1057 L1244.1074 -167.1057 L1247.1074 -172.1057 Z" stroke="none"/>
      </g>
      <g>
        <g text-rendering="geometricPrecision" stroke-miterlimit="1.45" shape-rendering="geometricPrecision" font-family="sans-serif" transform="matrix(1,0,0,1,-583,648)" stroke-linecap="butt">
          <text x="1244.55" xml:space="preserve" y="-174.8502" stroke="none">schema:additionalType</text>
        </g>
      </g>
    </g>
    <g id="y.edge.17">
      <g text-rendering="geometricPrecision" stroke-miterlimit="1.45" shape-rendering="geometricPrecision" transform="matrix(1,0,0,1,-583,648)" stroke-linecap="butt">
        <path fill="none" d="M1129.6813 -410.1382 L1129.6813 -483.5565"/>
        <path d="M1129.6813 -491.5565 L1124.6813 -479.5565 L1129.6813 -482.5565 L1134.6813 -479.5565 Z" stroke="none"/>
      </g>
      <g>
        <g text-rendering="geometricPrecision" stroke-miterlimit="1.45" shape-rendering="geometricPrecision" font-family="sans-serif" transform="matrix(1,0,0,1,-583,648)" stroke-linecap="butt">
          <text x="1130.71" xml:space="preserve" y="-457.0312" stroke="none">schema:&lt;property&gt;-input,</text>
          <text x="1130.71" xml:space="preserve" y="-442.8984" stroke="none">schema:&lt;property&gt;-output</text>
        </g>
      </g>
    </g>
    <g id="y.edge.18">
      <g text-rendering="geometricPrecision" stroke-miterlimit="1.45" shape-rendering="geometricPrecision" transform="matrix(1,0,0,1,-583,648)" stroke-linecap="butt">
        <path fill="none" d="M1106.3591 -521.563 L1106.3591 -594.9714"/>
        <path d="M1106.3591 -602.9714 L1101.3591 -590.9714 L1106.3591 -593.9714 L1111.3591 -590.9714 Z" stroke="none"/>
      </g>
      <g>
        <g text-rendering="geometricPrecision" stroke-miterlimit="1.45" shape-rendering="geometricPrecision" font-family="sans-serif" transform="matrix(1,0,0,1,-583,648)" stroke-linecap="butt">
          <text x="1112.4404" xml:space="preserve" y="-573.6641" stroke="none">schema:description,</text>
          <text x="1112.4404" xml:space="preserve" y="-559.5312" stroke="none">schema:defaultValue,</text>
          <text x="1112.4404" xml:space="preserve" y="-545.3984" stroke="none">schema:valueName,</text>
          <text x="1112.4404" xml:space="preserve" y="-531.2656" stroke="none">schema:valuePattern</text>
        </g>
      </g>
    </g>
    <g id="y.edge.19">
      <g text-rendering="geometricPrecision" stroke-miterlimit="1.45" shape-rendering="geometricPrecision" transform="matrix(1,0,0,1,-583,648)" stroke-linecap="butt">
        <path fill="none" d="M1302.9468 -506.5782 L1397.002 -506.5782"/>
        <path d="M1405.002 -506.5782 L1393.002 -511.5782 L1396.002 -506.5782 L1393.002 -501.5782 Z" stroke="none"/>
      </g>
      <g>
        <g text-rendering="geometricPrecision" stroke-miterlimit="1.45" shape-rendering="geometricPrecision" font-family="sans-serif" transform="matrix(1,0,0,1,-583,648)" stroke-linecap="butt">
          <text x="1333.1025" xml:space="preserve" y="-477.5977" stroke="none">schema:valueRequired,</text>
          <text x="1333.1025" xml:space="preserve" y="-463.4648" stroke="none">schema:multipleValues,</text>
          <text x="1333.1025" xml:space="preserve" y="-449.332" stroke="none">schema:readOnlyValue</text>
        </g>
      </g>
    </g>
    <g id="y.edge.20">
      <g text-rendering="geometricPrecision" stroke-miterlimit="1.45" shape-rendering="geometricPrecision" transform="matrix(1,0,0,1,-583,648)" stroke-linecap="butt">
        <path fill="none" d="M1288.543 -521.563 L1288.543 -594.9714"/>
        <path d="M1288.543 -602.9714 L1283.543 -590.9714 L1288.543 -593.9714 L1293.543 -590.9714 Z" stroke="none"/>
      </g>
      <g>
        <g text-rendering="geometricPrecision" stroke-miterlimit="1.45" shape-rendering="geometricPrecision" font-family="sans-serif" transform="matrix(1,0,0,1,-583,648)" stroke-linecap="butt">
          <text x="1298.7344" xml:space="preserve" y="-586.7305" stroke="none">schema:valueMinLength,</text>
          <text x="1298.7344" xml:space="preserve" y="-572.5977" stroke="none">schema:valueMaxLength,</text>
          <text x="1298.7344" xml:space="preserve" y="-558.4648" stroke="none">schema:stepValue,</text>
          <text x="1298.7344" xml:space="preserve" y="-544.332" stroke="none">schema:minValue,</text>
          <text x="1298.7344" xml:space="preserve" y="-530.1992" stroke="none">schema:maxValue</text>
        </g>
      </g>
    </g>
    <g id="y.edge.22">
      <g text-rendering="geometricPrecision" stroke-miterlimit="1.45" shape-rendering="geometricPrecision" transform="matrix(1,0,0,1,-583,648)" stroke-linecap="butt">
        <path fill="none" d="M1406 -161.2281 L1406 -130.1876 L1296.5935 -130.1876"/>
        <path d="M1288.5935 -130.1876 L1300.5935 -125.1876 L1297.5935 -130.1876 L1300.5935 -135.1876 Z" stroke="none"/>
      </g>
      <g>
        <g text-rendering="geometricPrecision" stroke-miterlimit="1.45" shape-rendering="geometricPrecision" font-family="sans-serif" transform="matrix(1,0,0,1,-583,648)" stroke-linecap="butt">
          <text x="1291.0957" xml:space="preserve" y="-113.9196" stroke="none">schema:description,</text>
          <text x="1291.0957" xml:space="preserve" y="-99.7868" stroke="none">schema:urlTemplate,</text>
          <text x="1291.0957" xml:space="preserve" y="-85.654" stroke="none">schema:httpMethod,</text>
          <text x="1291.0957" xml:space="preserve" y="-71.5212" stroke="none">schema:contentType</text>
        </g>
      </g>
    </g>
    <g id="y.edge.23">
      <g text-rendering="geometricPrecision" stroke-miterlimit="1.45" shape-rendering="geometricPrecision" transform="matrix(1,0,0,1,-583,648)" stroke-linecap="butt">
        <path fill="none" d="M1201.1642 -404 L1397.832 -404 L1397.832 -244.1851 L1444.7891 -244.1851"/>
        <path d="M1452.7891 -244.1851 L1440.7891 -249.1851 L1443.7891 -244.1851 L1440.7891 -239.1851 Z" stroke="none"/>
      </g>
      <g/>
    </g>
  </g>
</svg>
