<?xml version="1.0" encoding="UTF-8"?><svg xmlns="http://www.w3.org/2000/svg" xmlns:xlink="http://www.w3.org/1999/xlink" fill-opacity="1" color-rendering="auto" color-interpolation="auto" text-rendering="auto" stroke="black" stroke-linecap="square" width="707" stroke-miterlimit="10" shape-rendering="auto" stroke-opacity="1" fill="black" stroke-dasharray="none" font-weight="normal" stroke-width="1" height="191" font-family="'Dialog'" font-style="normal" stroke-linejoin="miter" font-size="12px" stroke-dashoffset="0" image-rendering="auto">
  <!--Generated by ySVG 2.5-->
  <defs id="genericDefs"/>
  <g>
    <defs id="defs1">
      <clipPath clipPathUnits="userSpaceOnUse" id="clipPath1">
        <path d="M0 0 L707 0 L707 191 L0 191 L0 0 Z"/>
      </clipPath>
      <clipPath clipPathUnits="userSpaceOnUse" id="clipPath2">
        <path d="M323 -638 L1030 -638 L1030 -447 L323 -447 L323 -638 Z"/>
      </clipPath>
    </defs>
    <g fill="white" text-rendering="geometricPrecision" shape-rendering="geometricPrecision" transform="translate(-323,638)" stroke="white">
      <rect x="323" width="707" height="191" y="-638" clip-path="url(#clipPath2)" stroke="none"/>
    </g>
    <g id="y.node.0">
      <a target="_blank" xlink:type="simple" xlink:href="http://schema.org/Service" xlink:show="new">
        <g fill="rgb(204,255,204)" text-rendering="geometricPrecision" shape-rendering="geometricPrecision" transform="matrix(1,0,0,1,-323,638)" stroke="rgb(204,255,204)">
          <rect x="573.6792" width="102.5938" height="30" y="-598.1885" stroke="none"/>
        </g>
        <g text-rendering="geometricPrecision" stroke-miterlimit="1.45" shape-rendering="geometricPrecision" transform="matrix(1,0,0,1,-323,638)" stroke-linecap="butt">
          <rect fill="none" x="573.6792" width="102.5938" height="30" y="-598.1885"/>
        </g>
        <g>
          <g text-rendering="geometricPrecision" stroke-miterlimit="1.45" shape-rendering="geometricPrecision" font-family="sans-serif" transform="matrix(1,0,0,1,-323,638)" stroke-linecap="butt">
            <text x="580.6792" xml:space="preserve" y="-578.6533" stroke="none">schema:Service</text>
          </g>
        </g>
      </a>
    </g>
    <g id="y.node.1">
      <a target="_blank" xlink:type="simple" xlink:href="https://geodex.org/voc/ResearchRepositoryService" xlink:show="new">
        <g fill="rgb(255,204,0)" text-rendering="geometricPrecision" shape-rendering="geometricPrecision" transform="matrix(1,0,0,1,-323,638)" stroke="rgb(255,204,0)">
          <rect x="819.8574" width="194.791" height="30" y="-598.1885" stroke="none"/>
        </g>
        <g text-rendering="geometricPrecision" stroke-miterlimit="1.45" shape-rendering="geometricPrecision" transform="matrix(1,0,0,1,-323,638)" stroke-linecap="butt">
          <rect fill="none" x="819.8574" width="194.791" height="30" y="-598.1885"/>
        </g>
        <g>
          <g text-rendering="geometricPrecision" stroke-miterlimit="1.45" shape-rendering="geometricPrecision" font-family="sans-serif" transform="matrix(1,0,0,1,-323,638)" stroke-linecap="butt">
            <text x="826.8574" xml:space="preserve" y="-578.6533" stroke="none">gdx:ResearchRepositoryService</text>
          </g>
        </g>
      </a>
    </g>
    <g id="y.node.2">
      <g fill="rgb(0,204,255)" text-rendering="geometricPrecision" shape-rendering="geometricPrecision" transform="matrix(1,0,0,1,-323,638)" stroke="rgb(0,204,255)">
        <ellipse rx="20.0605" ry="15" cx="358.5255" cy="-519.5636" stroke="none"/>
      </g>
      <g text-rendering="geometricPrecision" stroke-miterlimit="1.45" shape-rendering="geometricPrecision" transform="matrix(1,0,0,1,-323,638)" stroke-linecap="butt">
        <ellipse rx="20.0605" fill="none" ry="15" cx="358.5255" cy="-519.5636"/>
      </g>
      <g>
        <g text-rendering="geometricPrecision" stroke-miterlimit="1.45" shape-rendering="geometricPrecision" font-family="sans-serif" transform="matrix(1,0,0,1,-323,638)" stroke-linecap="butt">
          <text x="345.465" xml:space="preserve" y="-515.0284" stroke="none">Text</text>
        </g>
      </g>
    </g>
    <g id="y.node.3">
      <g fill="rgb(0,204,255)" text-rendering="geometricPrecision" shape-rendering="geometricPrecision" transform="matrix(1,0,0,1,-323,638)" stroke="rgb(0,204,255)">
        <ellipse rx="18.1504" ry="15" cx="358.5255" cy="-477.5636" stroke="none"/>
      </g>
      <g text-rendering="geometricPrecision" stroke-miterlimit="1.45" shape-rendering="geometricPrecision" transform="matrix(1,0,0,1,-323,638)" stroke-linecap="butt">
        <ellipse rx="18.1504" fill="none" ry="15" cx="358.5255" cy="-477.5636"/>
      </g>
      <g>
        <g text-rendering="geometricPrecision" stroke-miterlimit="1.45" shape-rendering="geometricPrecision" font-family="sans-serif" transform="matrix(1,0,0,1,-323,638)" stroke-linecap="butt">
          <text x="347.3752" xml:space="preserve" y="-473.0284" stroke="none">URL</text>
        </g>
      </g>
    </g>
    <g id="y.edge.0">
      <g text-rendering="geometricPrecision" stroke-miterlimit="1.45" shape-rendering="geometricPrecision" transform="matrix(1,0,0,1,-323,638)" stroke-linecap="butt">
        <path fill="none" d="M676.2729 -583.1885 L811.8574 -583.1885"/>
        <path d="M819.8574 -583.1885 L807.8574 -588.1885 L810.8574 -583.1885 L807.8574 -578.1885 Z" stroke="none"/>
      </g>
      <g>
        <g text-rendering="geometricPrecision" stroke-miterlimit="1.45" shape-rendering="geometricPrecision" font-family="sans-serif" transform="matrix(1,0,0,1,-323,638)" stroke-linecap="butt">
          <text x="680.9695" xml:space="preserve" y="-608.6533" stroke="none">schema:additionalType</text>
        </g>
      </g>
    </g>
    <g id="y.edge.1">
      <g text-rendering="geometricPrecision" stroke-miterlimit="1.45" shape-rendering="geometricPrecision" transform="matrix(1,0,0,1,-323,638)" stroke-linecap="butt">
        <path fill="none" d="M585.9761 -568.2095 L585.9761 -518.876 L389.7619 -518.876 L389.7619 -519.5636 L386.5861 -519.5636"/>
        <path d="M378.5861 -519.5636 L390.5861 -514.5636 L387.5861 -519.5636 L390.5861 -524.5636 Z" stroke="none"/>
      </g>
      <g>
        <g text-rendering="geometricPrecision" stroke-miterlimit="1.45" shape-rendering="geometricPrecision" font-family="sans-serif" transform="matrix(1,0,0,1,-323,638)" stroke-linecap="butt">
          <text x="411.4854" xml:space="preserve" y="-560.0977" stroke="none">schema:name,</text>
          <text x="411.4854" xml:space="preserve" y="-545.9648" stroke="none">schema:description,</text>
          <text x="411.4854" xml:space="preserve" y="-531.832" stroke="none">schema:category</text>
        </g>
      </g>
    </g>
    <g id="y.edge.2">
      <g text-rendering="geometricPrecision" stroke-miterlimit="1.45" shape-rendering="geometricPrecision" transform="matrix(1,0,0,1,-323,638)" stroke-linecap="butt">
        <path fill="none" d="M597 -568.2061 L597 -477.5636 L384.6759 -477.5636"/>
        <path d="M376.6759 -477.5636 L388.6759 -472.5636 L385.6759 -477.5636 L388.6759 -482.5636 Z" stroke="none"/>
      </g>
      <g>
        <g text-rendering="geometricPrecision" stroke-miterlimit="1.45" shape-rendering="geometricPrecision" font-family="sans-serif" transform="matrix(1,0,0,1,-323,638)" stroke-linecap="butt">
          <text x="410.4736" xml:space="preserve" y="-497.0312" stroke="none">schema:url,</text>
          <text x="410.4736" xml:space="preserve" y="-482.8984" stroke="none">schema:sameAs</text>
        </g>
      </g>
    </g>
  </g>
</svg>
