<?xml version="1.0" encoding="UTF-8"?><svg xmlns="http://www.w3.org/2000/svg" xmlns:xlink="http://www.w3.org/1999/xlink" fill-opacity="1" color-rendering="auto" color-interpolation="auto" text-rendering="auto" stroke="black" stroke-linecap="square" width="794" stroke-miterlimit="10" shape-rendering="auto" stroke-opacity="1" fill="black" stroke-dasharray="none" font-weight="normal" stroke-width="1" height="538" font-family="'Dialog'" font-style="normal" stroke-linejoin="miter" font-size="12px" stroke-dashoffset="0" image-rendering="auto">
  <!--Generated by ySVG 2.5-->
  <defs id="genericDefs"/>
  <g>
    <defs id="defs1">
      <clipPath clipPathUnits="userSpaceOnUse" id="clipPath1">
        <path d="M0 0 L794 0 L794 538 L0 538 L0 0 Z"/>
      </clipPath>
      <clipPath clipPathUnits="userSpaceOnUse" id="clipPath2">
        <path d="M184 -500 L978 -500 L978 38 L184 38 L184 -500 Z"/>
      </clipPath>
    </defs>
    <g fill="white" text-rendering="geometricPrecision" shape-rendering="geometricPrecision" transform="translate(-184,500)" stroke="white">
      <rect x="184" width="794" height="538" y="-500" clip-path="url(#clipPath2)" stroke="none"/>
    </g>
    <g id="y.node.0">
      <a target="_blank" xlink:type="simple" xlink:href="http://schema.org/Service" xlink:show="new">
        <g fill="rgb(204,255,204)" text-rendering="geometricPrecision" shape-rendering="geometricPrecision" transform="matrix(1,0,0,1,-184,500)" stroke="rgb(204,255,204)">
          <rect x="573.6792" width="102.5938" height="30" y="-460.1885" stroke="none"/>
        </g>
        <g text-rendering="geometricPrecision" stroke-miterlimit="1.45" shape-rendering="geometricPrecision" transform="matrix(1,0,0,1,-184,500)" stroke-linecap="butt">
          <rect fill="none" x="573.6792" width="102.5938" height="30" y="-460.1885"/>
        </g>
        <g>
          <g text-rendering="geometricPrecision" stroke-miterlimit="1.45" shape-rendering="geometricPrecision" font-family="sans-serif" transform="matrix(1,0,0,1,-184,500)" stroke-linecap="butt">
            <text x="580.6792" xml:space="preserve" y="-440.6533" stroke="none">schema:Service</text>
          </g>
        </g>
      </a>
    </g>
    <g id="y.node.1">
      <a target="_blank" xlink:type="simple" xlink:href="http://schema.org/OfferCatalog" xlink:show="new">
        <g fill="rgb(204,255,204)" text-rendering="geometricPrecision" shape-rendering="geometricPrecision" transform="matrix(1,0,0,1,-184,500)" stroke="rgb(204,255,204)">
          <rect x="556.3191" width="136.1328" height="30" y="-390.2658" stroke="none"/>
        </g>
        <g text-rendering="geometricPrecision" stroke-miterlimit="1.45" shape-rendering="geometricPrecision" transform="matrix(1,0,0,1,-184,500)" stroke-linecap="butt">
          <rect fill="none" x="556.3191" width="136.1328" height="30" y="-390.2658"/>
        </g>
        <g>
          <g text-rendering="geometricPrecision" stroke-miterlimit="1.45" shape-rendering="geometricPrecision" font-family="sans-serif" transform="matrix(1,0,0,1,-184,500)" stroke-linecap="butt">
            <text x="563.3191" xml:space="preserve" y="-370.7307" stroke="none">schema:OfferCatalog</text>
          </g>
        </g>
      </a>
    </g>
    <g id="y.node.2">
      <a target="_blank" xlink:type="simple" xlink:href="http://schema.org/DigitalDocument" xlink:show="new">
        <g fill="rgb(204,255,204)" text-rendering="geometricPrecision" shape-rendering="geometricPrecision" transform="matrix(1,0,0,1,-184,500)" stroke="rgb(204,255,204)">
          <rect x="302.2441" width="159.793" height="30" y="-259.8482" stroke="none"/>
        </g>
        <g text-rendering="geometricPrecision" stroke-miterlimit="1.45" shape-rendering="geometricPrecision" transform="matrix(1,0,0,1,-184,500)" stroke-linecap="butt">
          <rect fill="none" x="302.2441" width="159.793" height="30" y="-259.8482"/>
        </g>
        <g>
          <g text-rendering="geometricPrecision" stroke-miterlimit="1.45" shape-rendering="geometricPrecision" font-family="sans-serif" transform="matrix(1,0,0,1,-184,500)" stroke-linecap="butt">
            <text x="309.2441" xml:space="preserve" y="-240.3131" stroke="none">schema:DigitalDocument</text>
          </g>
        </g>
      </a>
    </g>
    <g id="y.node.3">
      <a target="_blank" xlink:type="simple" xlink:href="https://geodex.org/voc/Protocol-License" xlink:show="new">
        <g fill="yellow" text-rendering="geometricPrecision" shape-rendering="geometricPrecision" transform="matrix(1,0,0,1,-184,500)" stroke="yellow">
          <ellipse rx="68.9219" ry="17.5827" cx="460.2876" cy="-182.2655" stroke="none"/>
        </g>
        <g text-rendering="geometricPrecision" stroke-miterlimit="1.45" shape-rendering="geometricPrecision" transform="matrix(1,0,0,1,-184,500)" stroke-linecap="butt">
          <ellipse rx="68.9219" fill="none" ry="17.5827" cx="460.2876" cy="-182.2655"/>
        </g>
        <g>
          <g text-rendering="geometricPrecision" stroke-miterlimit="1.45" shape-rendering="geometricPrecision" font-family="sans-serif" transform="matrix(1,0,0,1,-184,500)" stroke-linecap="butt">
            <text x="398.3657" xml:space="preserve" y="-177.7304" stroke="none">gdx:Protocol-License</text>
          </g>
        </g>
      </a>
    </g>
    <g id="y.node.4">
      <a target="_blank" xlink:type="simple" xlink:href="https://geodex.org/voc/Protocol-TermsOfUse" xlink:show="new">
        <g fill="yellow" text-rendering="geometricPrecision" shape-rendering="geometricPrecision" transform="matrix(1,0,0,1,-184,500)" stroke="yellow">
          <ellipse rx="83.125" ry="17.5827" cx="478.7192" cy="-36.7344" stroke="none"/>
        </g>
        <g text-rendering="geometricPrecision" stroke-miterlimit="1.45" shape-rendering="geometricPrecision" transform="matrix(1,0,0,1,-184,500)" stroke-linecap="butt">
          <ellipse rx="83.125" fill="none" ry="17.5827" cx="478.7192" cy="-36.7344"/>
        </g>
        <g>
          <g text-rendering="geometricPrecision" stroke-miterlimit="1.45" shape-rendering="geometricPrecision" font-family="sans-serif" transform="matrix(1,0,0,1,-184,500)" stroke-linecap="butt">
            <text x="402.5942" xml:space="preserve" y="-32.1992" stroke="none">gdx:Protocol-TermsOfUse</text>
          </g>
        </g>
      </a>
    </g>
    <g id="y.node.5">
      <a target="_blank" xlink:type="simple" xlink:href="https://geodex.org/voc/Protocol-ResourceSubmissionPolicy" xlink:show="new">
        <g fill="yellow" text-rendering="geometricPrecision" shape-rendering="geometricPrecision" transform="matrix(1,0,0,1,-184,500)" stroke="yellow">
          <ellipse rx="123.9297" ry="18.5" cx="519.9121" cy="-84.939" stroke="none"/>
        </g>
        <g text-rendering="geometricPrecision" stroke-miterlimit="1.45" shape-rendering="geometricPrecision" transform="matrix(1,0,0,1,-184,500)" stroke-linecap="butt">
          <ellipse rx="123.9297" fill="none" ry="18.5" cx="519.9121" cy="-84.939"/>
        </g>
        <g>
          <g text-rendering="geometricPrecision" stroke-miterlimit="1.45" shape-rendering="geometricPrecision" font-family="sans-serif" transform="matrix(1,0,0,1,-184,500)" stroke-linecap="butt">
            <text x="402.9824" xml:space="preserve" y="-80.4039" stroke="none">gdx:Protocol-ResourceSubmissionPolicy</text>
          </g>
        </g>
      </a>
    </g>
    <g id="y.node.6">
      <a target="_blank" xlink:type="simple" xlink:href="https://geodex.org/voc/Protocol-PreservationPolicy" xlink:show="new">
        <g fill="yellow" text-rendering="geometricPrecision" shape-rendering="geometricPrecision" transform="matrix(1,0,0,1,-184,500)" stroke="yellow">
          <ellipse rx="99.9033" ry="18.5" cx="489.9976" cy="-134.0609" stroke="none"/>
        </g>
        <g text-rendering="geometricPrecision" stroke-miterlimit="1.45" shape-rendering="geometricPrecision" transform="matrix(1,0,0,1,-184,500)" stroke-linecap="butt">
          <ellipse rx="99.9033" fill="none" ry="18.5" cx="489.9976" cy="-134.0609"/>
        </g>
        <g>
          <g text-rendering="geometricPrecision" stroke-miterlimit="1.45" shape-rendering="geometricPrecision" font-family="sans-serif" transform="matrix(1,0,0,1,-184,500)" stroke-linecap="butt">
            <text x="397.0942" xml:space="preserve" y="-129.5258" stroke="none">gdx:Protocol-PreservationPolicy</text>
          </g>
        </g>
      </a>
    </g>
    <g id="y.node.7">
      <a target="_blank" xlink:type="simple" xlink:href="https://geodex.org/voc/Protocol-Access" xlink:show="new">
        <g fill="yellow" text-rendering="geometricPrecision" shape-rendering="geometricPrecision" transform="matrix(1,0,0,1,-184,500)" stroke="yellow">
          <ellipse rx="67.1934" ry="15" cx="460.2876" cy="7.9702" stroke="none"/>
        </g>
        <g text-rendering="geometricPrecision" stroke-miterlimit="1.45" shape-rendering="geometricPrecision" transform="matrix(1,0,0,1,-184,500)" stroke-linecap="butt">
          <ellipse rx="67.1934" fill="none" ry="15" cx="460.2876" cy="7.9702"/>
        </g>
        <g>
          <g text-rendering="geometricPrecision" stroke-miterlimit="1.45" shape-rendering="geometricPrecision" font-family="sans-serif" transform="matrix(1,0,0,1,-184,500)" stroke-linecap="butt">
            <text x="400.0942" xml:space="preserve" y="12.5054" stroke="none">gdx:Protocol-Access</text>
          </g>
        </g>
      </a>
    </g>
    <g id="y.node.8">
      <a target="_blank" xlink:type="simple" xlink:href="http://schema.org/Thing" xlink:show="new">
        <g fill="rgb(204,255,204)" text-rendering="geometricPrecision" shape-rendering="geometricPrecision" transform="matrix(1,0,0,1,-184,500)" stroke="rgb(204,255,204)">
          <rect x="592.2432" width="95.457" height="30" y="-282.2215" stroke="none"/>
        </g>
        <g text-rendering="geometricPrecision" stroke-miterlimit="1.45" shape-rendering="geometricPrecision" transform="matrix(1,0,0,1,-184,500)" stroke-linecap="butt">
          <rect fill="none" x="592.2432" width="95.457" height="30" y="-282.2215"/>
        </g>
        <g>
          <g text-rendering="geometricPrecision" stroke-miterlimit="1.45" shape-rendering="geometricPrecision" font-family="sans-serif" transform="matrix(1,0,0,1,-184,500)" stroke-linecap="butt">
            <text x="599.2432" xml:space="preserve" y="-262.6864" stroke="none">schema:Thing</text>
          </g>
        </g>
      </a>
    </g>
    <g id="y.node.9">
      <a target="_blank" xlink:type="simple" xlink:href="https://geodex.org/voc/ResearchRepositoryService" xlink:show="new">
        <g fill="rgb(255,204,0)" text-rendering="geometricPrecision" shape-rendering="geometricPrecision" transform="matrix(1,0,0,1,-184,500)" stroke="rgb(255,204,0)">
          <rect x="767.8574" width="194.791" height="30" y="-460.1885" stroke="none"/>
        </g>
        <g text-rendering="geometricPrecision" stroke-miterlimit="1.45" shape-rendering="geometricPrecision" transform="matrix(1,0,0,1,-184,500)" stroke-linecap="butt">
          <rect fill="none" x="767.8574" width="194.791" height="30" y="-460.1885"/>
        </g>
        <g>
          <g text-rendering="geometricPrecision" stroke-miterlimit="1.45" shape-rendering="geometricPrecision" font-family="sans-serif" transform="matrix(1,0,0,1,-184,500)" stroke-linecap="butt">
            <text x="774.8574" xml:space="preserve" y="-440.6533" stroke="none">gdx:ResearchRepositoryService</text>
          </g>
        </g>
      </a>
    </g>
    <g id="y.node.10">
      <a target="_blank" xlink:type="simple" xlink:href="http://schema.org/Dataset" xlink:show="new">
        <g fill="rgb(204,255,204)" text-rendering="geometricPrecision" shape-rendering="geometricPrecision" transform="matrix(1,0,0,1,-184,500)" stroke="rgb(204,255,204)">
          <rect x="728.7129" width="106.0449" height="30" y="-220.1772" stroke="none"/>
        </g>
        <g text-rendering="geometricPrecision" stroke-miterlimit="1.45" shape-rendering="geometricPrecision" transform="matrix(1,0,0,1,-184,500)" stroke-linecap="butt">
          <rect fill="none" x="728.7129" width="106.0449" height="30" y="-220.1772"/>
        </g>
        <g>
          <g text-rendering="geometricPrecision" stroke-miterlimit="1.45" shape-rendering="geometricPrecision" font-family="sans-serif" transform="matrix(1,0,0,1,-184,500)" stroke-linecap="butt">
            <text x="735.7129" xml:space="preserve" y="-200.6421" stroke="none">schema:Dataset</text>
          </g>
        </g>
      </a>
    </g>
    <g id="y.node.11">
      <a target="_blank" xlink:type="simple" xlink:href="http://schema.org/DataCatalog" xlink:show="new">
        <g fill="rgb(204,255,204)" text-rendering="geometricPrecision" shape-rendering="geometricPrecision" transform="matrix(1,0,0,1,-184,500)" stroke="rgb(204,255,204)">
          <rect x="728.7129" width="133.1211" height="30" y="-174.1772" stroke="none"/>
        </g>
        <g text-rendering="geometricPrecision" stroke-miterlimit="1.45" shape-rendering="geometricPrecision" transform="matrix(1,0,0,1,-184,500)" stroke-linecap="butt">
          <rect fill="none" x="728.7129" width="133.1211" height="30" y="-174.1772"/>
        </g>
        <g>
          <g text-rendering="geometricPrecision" stroke-miterlimit="1.45" shape-rendering="geometricPrecision" font-family="sans-serif" transform="matrix(1,0,0,1,-184,500)" stroke-linecap="butt">
            <text x="735.7129" xml:space="preserve" y="-154.6421" stroke="none">schema:DataCatalog</text>
          </g>
        </g>
      </a>
    </g>
    <g id="y.node.12">
      <a target="_blank" xlink:type="simple" xlink:href="http://schema.org/WebAPI" xlink:show="new">
        <g fill="rgb(204,255,204)" text-rendering="geometricPrecision" shape-rendering="geometricPrecision" transform="matrix(1,0,0,1,-184,500)" stroke="rgb(204,255,204)">
          <rect x="729.1787" width="104.8965" height="30" y="-132.7237" stroke="none"/>
        </g>
        <g text-rendering="geometricPrecision" stroke-miterlimit="1.45" shape-rendering="geometricPrecision" transform="matrix(1,0,0,1,-184,500)" stroke-linecap="butt">
          <rect fill="none" x="729.1787" width="104.8965" height="30" y="-132.7237"/>
        </g>
        <g>
          <g text-rendering="geometricPrecision" stroke-miterlimit="1.45" shape-rendering="geometricPrecision" font-family="sans-serif" transform="matrix(1,0,0,1,-184,500)" stroke-linecap="butt">
            <text x="736.1787" xml:space="preserve" y="-113.1886" stroke="none">schema:WebAPI</text>
          </g>
        </g>
      </a>
    </g>
    <g id="y.node.13">
      <g fill="rgb(0,204,255)" text-rendering="geometricPrecision" shape-rendering="geometricPrecision" transform="matrix(1,0,0,1,-184,500)" stroke="rgb(0,204,255)">
        <ellipse rx="20.0605" ry="15" cx="839.918" cy="-375.2658" stroke="none"/>
      </g>
      <g text-rendering="geometricPrecision" stroke-miterlimit="1.45" shape-rendering="geometricPrecision" transform="matrix(1,0,0,1,-184,500)" stroke-linecap="butt">
        <ellipse rx="20.0605" fill="none" ry="15" cx="839.918" cy="-375.2658"/>
      </g>
      <g>
        <g text-rendering="geometricPrecision" stroke-miterlimit="1.45" shape-rendering="geometricPrecision" font-family="sans-serif" transform="matrix(1,0,0,1,-184,500)" stroke-linecap="butt">
          <text x="826.8574" xml:space="preserve" y="-370.7307" stroke="none">Text</text>
        </g>
      </g>
    </g>
    <g id="y.node.14">
      <a target="_blank" xlink:type="simple" xlink:href="http://schema.org/Dataset" xlink:show="new">
        <g fill="rgb(204,255,204)" text-rendering="geometricPrecision" shape-rendering="geometricPrecision" transform="matrix(1,0,0,1,-184,500)" stroke="rgb(204,255,204)">
          <rect x="351.353" width="115.7363" height="30" y="-342.2658" stroke="none"/>
        </g>
        <g text-rendering="geometricPrecision" stroke-miterlimit="1.45" shape-rendering="geometricPrecision" transform="matrix(1,0,0,1,-184,500)" stroke-linecap="butt">
          <rect fill="none" x="351.353" width="115.7363" height="30" y="-342.2658"/>
        </g>
        <g>
          <g text-rendering="geometricPrecision" stroke-miterlimit="1.45" shape-rendering="geometricPrecision" font-family="sans-serif" transform="matrix(1,0,0,1,-184,500)" stroke-linecap="butt">
            <text x="358.353" xml:space="preserve" y="-322.7307" stroke="none">schema:Audience</text>
          </g>
        </g>
      </a>
    </g>
    <g id="y.node.15">
      <g fill="rgb(0,204,255)" text-rendering="geometricPrecision" shape-rendering="geometricPrecision" transform="matrix(1,0,0,1,-184,500)" stroke="rgb(0,204,255)">
        <ellipse rx="20.0605" ry="15" cx="430.853" cy="-395.5317" stroke="none"/>
      </g>
      <g text-rendering="geometricPrecision" stroke-miterlimit="1.45" shape-rendering="geometricPrecision" transform="matrix(1,0,0,1,-184,500)" stroke-linecap="butt">
        <ellipse rx="20.0605" fill="none" ry="15" cx="430.853" cy="-395.5317"/>
      </g>
      <g>
        <g text-rendering="geometricPrecision" stroke-miterlimit="1.45" shape-rendering="geometricPrecision" font-family="sans-serif" transform="matrix(1,0,0,1,-184,500)" stroke-linecap="butt">
          <text x="417.7924" xml:space="preserve" y="-390.9965" stroke="none">Text</text>
        </g>
      </g>
    </g>
    <g id="y.node.16">
      <g fill="rgb(0,204,255)" text-rendering="geometricPrecision" shape-rendering="geometricPrecision" transform="matrix(1,0,0,1,-184,500)" stroke="rgb(0,204,255)">
        <ellipse rx="20.0605" ry="15" cx="219.688" cy="-250.8482" stroke="none"/>
      </g>
      <g text-rendering="geometricPrecision" stroke-miterlimit="1.45" shape-rendering="geometricPrecision" transform="matrix(1,0,0,1,-184,500)" stroke-linecap="butt">
        <ellipse rx="20.0605" fill="none" ry="15" cx="219.688" cy="-250.8482"/>
      </g>
      <g>
        <g text-rendering="geometricPrecision" stroke-miterlimit="1.45" shape-rendering="geometricPrecision" font-family="sans-serif" transform="matrix(1,0,0,1,-184,500)" stroke-linecap="butt">
          <text x="206.6275" xml:space="preserve" y="-246.3131" stroke="none">Text</text>
        </g>
      </g>
    </g>
    <g id="y.node.17">
      <g fill="rgb(0,204,255)" text-rendering="geometricPrecision" shape-rendering="geometricPrecision" transform="matrix(1,0,0,1,-184,500)" stroke="rgb(0,204,255)">
        <ellipse rx="18.1504" ry="15" cx="284.7486" cy="-137.5609" stroke="none"/>
      </g>
      <g text-rendering="geometricPrecision" stroke-miterlimit="1.45" shape-rendering="geometricPrecision" transform="matrix(1,0,0,1,-184,500)" stroke-linecap="butt">
        <ellipse rx="18.1504" fill="none" ry="15" cx="284.7486" cy="-137.5609"/>
      </g>
      <g>
        <g text-rendering="geometricPrecision" stroke-miterlimit="1.45" shape-rendering="geometricPrecision" font-family="sans-serif" transform="matrix(1,0,0,1,-184,500)" stroke-linecap="butt">
          <text x="273.5982" xml:space="preserve" y="-133.0258" stroke="none">URL</text>
        </g>
      </g>
    </g>
    <g id="y.edge.0">
      <g text-rendering="geometricPrecision" stroke-miterlimit="1.45" shape-rendering="geometricPrecision" transform="matrix(1,0,0,1,-184,500)" stroke-linecap="butt">
        <path fill="none" d="M656 -430.2179 L656 -398.2888"/>
        <path d="M656 -390.2888 L661 -402.2888 L656 -399.2888 L651 -402.2888 Z" stroke="none"/>
      </g>
      <g>
        <g text-rendering="geometricPrecision" stroke-miterlimit="1.45" shape-rendering="geometricPrecision" font-family="sans-serif" transform="matrix(1,0,0,1,-184,500)" stroke-linecap="butt">
          <text x="505.8379" xml:space="preserve" y="-409.9648" stroke="none">schema:hasOfferCatalog</text>
        </g>
      </g>
    </g>
    <g id="y.edge.1">
      <g text-rendering="geometricPrecision" stroke-miterlimit="1.45" shape-rendering="geometricPrecision" transform="matrix(1,0,0,1,-184,500)" stroke-linecap="butt">
        <path fill="none" d="M383.3657 -182.2655 L322.899 -182.2655 L322.899 -229.8443"/>
        <path d="M391.3657 -182.2655 L379.3657 -187.2655 L382.3657 -182.2655 L379.3657 -177.2655 Z" stroke="none"/>
      </g>
      <g>
        <g text-rendering="geometricPrecision" stroke-miterlimit="1.45" shape-rendering="geometricPrecision" font-family="sans-serif" transform="matrix(1,0,0,1,-184,500)" stroke-linecap="butt">
          <text x="340.1021" xml:space="preserve" y="-206.9648" stroke="none">schema:additionalType</text>
        </g>
      </g>
    </g>
    <g id="y.edge.3">
      <g text-rendering="geometricPrecision" stroke-miterlimit="1.45" shape-rendering="geometricPrecision" transform="matrix(1,0,0,1,-184,500)" stroke-linecap="butt">
        <path fill="none" d="M387.5942 -36.7344 L322.899 -36.7344 L322.899 -229.8342"/>
        <path d="M395.5942 -36.7344 L383.5942 -41.7344 L386.5942 -36.7344 L383.5942 -31.7344 Z" stroke="none"/>
      </g>
      <g/>
    </g>
    <g id="y.edge.5">
      <g text-rendering="geometricPrecision" stroke-miterlimit="1.45" shape-rendering="geometricPrecision" transform="matrix(1,0,0,1,-184,500)" stroke-linecap="butt">
        <path fill="none" d="M387.9557 -84.939 L322.899 -84.939 L322.899 -229.8177"/>
        <path d="M395.9557 -84.939 L383.9557 -89.939 L386.9557 -84.939 L383.9557 -79.939 Z" stroke="none"/>
      </g>
      <g/>
    </g>
    <g id="y.edge.6">
      <g text-rendering="geometricPrecision" stroke-miterlimit="1.45" shape-rendering="geometricPrecision" transform="matrix(1,0,0,1,-184,500)" stroke-linecap="butt">
        <path fill="none" d="M382.0942 -134.0609 L322.899 -134.0609 L322.899 -229.8368"/>
        <path d="M390.0942 -134.0609 L378.0942 -139.0609 L381.0942 -134.0609 L378.0942 -129.0609 Z" stroke="none"/>
      </g>
      <g/>
    </g>
    <g id="y.edge.2">
      <g text-rendering="geometricPrecision" stroke-miterlimit="1.45" shape-rendering="geometricPrecision" transform="matrix(1,0,0,1,-184,500)" stroke-linecap="butt">
        <path fill="none" d="M385.0942 7.9702 L322.899 7.9702 L322.899 -229.8186"/>
        <path d="M393.0942 7.9702 L381.0942 2.9702 L384.0942 7.9702 L381.0942 12.9702 Z" stroke="none"/>
      </g>
      <g/>
    </g>
    <g id="y.edge.4">
      <g text-rendering="geometricPrecision" stroke-miterlimit="1.45" shape-rendering="geometricPrecision" transform="matrix(1,0,0,1,-184,500)" stroke-linecap="butt">
        <path fill="none" d="M660 -360.2634 L660 -290.1904"/>
        <path d="M660 -282.1904 L665 -294.1904 L660 -291.1904 L655 -294.1904 Z" stroke="none"/>
      </g>
      <g>
        <g text-rendering="geometricPrecision" stroke-miterlimit="1.45" shape-rendering="geometricPrecision" font-family="sans-serif" transform="matrix(1,0,0,1,-184,500)" stroke-linecap="butt">
          <text x="672.5879" xml:space="preserve" y="-297.4648" stroke="none">schema:itemListElement</text>
        </g>
      </g>
    </g>
    <g id="y.edge.7">
      <g text-rendering="geometricPrecision" stroke-miterlimit="1.45" shape-rendering="geometricPrecision" transform="matrix(1,0,0,1,-184,500)" stroke-linecap="butt">
        <path fill="none" d="M592.2329 -267.8925 L572.2432 -267.8925 L572.2432 -244.8482 L470.0268 -244.8482"/>
        <path d="M462.0268 -244.8482 L474.0268 -239.8482 L471.0268 -244.8482 L474.0268 -249.8482 Z" stroke="none"/>
      </g>
      <g>
        <g text-rendering="geometricPrecision" stroke-miterlimit="1.45" shape-rendering="geometricPrecision" font-family="sans-serif" transform="matrix(1,0,0,1,-184,500)" stroke-linecap="butt">
          <text x="399.3125" xml:space="preserve" y="-269.4648" stroke="none">schema:publishingPrinciples</text>
        </g>
      </g>
    </g>
    <g id="y.edge.11">
      <g text-rendering="geometricPrecision" stroke-miterlimit="1.45" shape-rendering="geometricPrecision" transform="matrix(1,0,0,1,-184,500)" stroke-linecap="butt">
        <path fill="none" d="M676.2729 -445.1885 L759.8574 -445.1885"/>
        <path d="M767.8574 -445.1885 L755.8574 -450.1885 L758.8574 -445.1885 L755.8574 -440.1885 Z" stroke="none"/>
      </g>
      <g>
        <g text-rendering="geometricPrecision" stroke-miterlimit="1.45" shape-rendering="geometricPrecision" font-family="sans-serif" transform="matrix(1,0,0,1,-184,500)" stroke-linecap="butt">
          <text x="654.9695" xml:space="preserve" y="-470.6533" stroke="none">schema:additionalType</text>
        </g>
      </g>
    </g>
    <g id="y.edge.8">
      <g text-rendering="geometricPrecision" stroke-miterlimit="1.45" stroke-dasharray="6,2" shape-rendering="geometricPrecision" transform="matrix(1,0,0,1,-184,500)" stroke-linecap="butt">
        <path fill="none" d="M728.7129 -205.1772 L639.9717 -205.1772 L639.9717 -237.2215"/>
        <path fill="white" d="M639.9717 -252.2215 L633.9717 -236.2215 L645.9717 -236.2215 Z" stroke="none"/>
        <path stroke-dasharray="none" fill="none" d="M639.9717 -252.2215 L633.9717 -236.2215 L645.9717 -236.2215 Z"/>
      </g>
      <g/>
    </g>
    <g id="y.edge.9">
      <g text-rendering="geometricPrecision" stroke-miterlimit="1.45" stroke-dasharray="6,2" shape-rendering="geometricPrecision" transform="matrix(1,0,0,1,-184,500)" stroke-linecap="butt">
        <path fill="none" d="M728.7129 -159.1772 L639.9717 -159.1772 L639.9717 -237.2411"/>
        <path fill="white" d="M639.9717 -252.2411 L633.9717 -236.2411 L645.9717 -236.2411 Z" stroke="none"/>
        <path stroke-dasharray="none" fill="none" d="M639.9717 -252.2411 L633.9717 -236.2411 L645.9717 -236.2411 Z"/>
      </g>
      <g/>
    </g>
    <g id="y.edge.10">
      <g text-rendering="geometricPrecision" stroke-miterlimit="1.45" stroke-dasharray="6,2" shape-rendering="geometricPrecision" transform="matrix(1,0,0,1,-184,500)" stroke-linecap="butt">
        <path fill="none" d="M729.1787 -117.7237 L639.9717 -117.7237 L639.9717 -237.2399"/>
        <path fill="white" d="M639.9717 -252.2399 L633.9717 -236.2399 L645.9717 -236.2399 Z" stroke="none"/>
        <path stroke-dasharray="none" fill="none" d="M639.9717 -252.2399 L633.9717 -236.2399 L645.9717 -236.2399 Z"/>
      </g>
      <g>
        <g text-rendering="geometricPrecision" stroke-miterlimit="1.45" shape-rendering="geometricPrecision" font-family="sans-serif" transform="matrix(1,0,0,1,-184,500)" stroke-linecap="butt">
          <text x="657.3149" xml:space="preserve" y="-233.62" stroke="none">rdfs:subClassOf</text>
        </g>
      </g>
    </g>
    <g id="y.edge.12">
      <g text-rendering="geometricPrecision" stroke-miterlimit="1.45" shape-rendering="geometricPrecision" transform="matrix(1,0,0,1,-184,500)" stroke-linecap="butt">
        <path fill="none" d="M692.4519 -375.2658 L811.8574 -375.2658"/>
        <path d="M819.8574 -375.2658 L807.8574 -380.2658 L810.8574 -375.2658 L807.8574 -370.2658 Z" stroke="none"/>
      </g>
      <g>
        <g text-rendering="geometricPrecision" stroke-miterlimit="1.45" shape-rendering="geometricPrecision" font-family="sans-serif" transform="matrix(1,0,0,1,-184,500)" stroke-linecap="butt">
          <text x="710.0068" xml:space="preserve" y="-381.9648" stroke="none">schema:name</text>
        </g>
      </g>
    </g>
    <g id="y.edge.13">
      <g text-rendering="geometricPrecision" stroke-miterlimit="1.45" shape-rendering="geometricPrecision" transform="matrix(1,0,0,1,-184,500)" stroke-linecap="butt">
        <path fill="none" d="M609.9009 -282.1951 L609.9009 -327.2658 L475.0893 -327.2658"/>
        <path d="M467.0893 -327.2658 L479.0893 -322.2658 L476.0893 -327.2658 L479.0893 -332.2658 Z" stroke="none"/>
      </g>
      <g>
        <g text-rendering="geometricPrecision" stroke-miterlimit="1.45" shape-rendering="geometricPrecision" font-family="sans-serif" transform="matrix(1,0,0,1,-184,500)" stroke-linecap="butt">
          <text x="483.958" xml:space="preserve" y="-333.4648" stroke="none">schema:audience</text>
        </g>
      </g>
    </g>
    <g id="y.edge.14">
      <g text-rendering="geometricPrecision" stroke-miterlimit="1.45" shape-rendering="geometricPrecision" transform="matrix(1,0,0,1,-184,500)" stroke-linecap="butt">
        <path fill="none" d="M430.853 -342.299 L430.853 -372.5317"/>
        <path d="M430.853 -380.5317 L425.853 -368.5317 L430.853 -371.5317 L435.853 -368.5317 Z" stroke="none"/>
      </g>
      <g>
        <g text-rendering="geometricPrecision" stroke-miterlimit="1.45" shape-rendering="geometricPrecision" font-family="sans-serif" transform="matrix(1,0,0,1,-184,500)" stroke-linecap="butt">
          <text x="296.7632" xml:space="preserve" y="-357.4952" stroke="none">schema:audienceType</text>
        </g>
      </g>
    </g>
    <g id="y.edge.15">
      <g text-rendering="geometricPrecision" stroke-miterlimit="1.45" shape-rendering="geometricPrecision" transform="matrix(1,0,0,1,-184,500)" stroke-linecap="butt">
        <path fill="none" d="M302.2231 -250.8482 L247.7486 -250.8482"/>
        <path d="M239.7486 -250.8482 L251.7486 -245.8482 L248.7486 -250.8482 L251.7486 -255.8482 Z" stroke="none"/>
      </g>
      <g>
        <g text-rendering="geometricPrecision" stroke-miterlimit="1.45" shape-rendering="geometricPrecision" font-family="sans-serif" transform="matrix(1,0,0,1,-184,500)" stroke-linecap="butt">
          <text x="219.4541" xml:space="preserve" y="-292.5312" stroke="none">schema:name,</text>
          <text x="219.4541" xml:space="preserve" y="-278.3984" stroke="none">schema:fileFormat</text>
        </g>
      </g>
    </g>
    <g id="y.edge.16">
      <g text-rendering="geometricPrecision" stroke-miterlimit="1.45" shape-rendering="geometricPrecision" transform="matrix(1,0,0,1,-184,500)" stroke-linecap="butt">
        <path fill="none" d="M302.2441 -244.8482 L284.7486 -244.8482 L284.7486 -160.5609"/>
        <path d="M284.7486 -152.5609 L289.7486 -164.5609 L284.7486 -161.5609 L279.7486 -164.5609 Z" stroke="none"/>
      </g>
      <g>
        <g text-rendering="geometricPrecision" stroke-miterlimit="1.45" shape-rendering="geometricPrecision" font-family="sans-serif" transform="matrix(1,0,0,1,-184,500)" stroke-linecap="butt">
          <text x="212.0752" xml:space="preserve" y="-179.4648" stroke="none">schema:url</text>
        </g>
      </g>
    </g>
  </g>
</svg>
