<?xml version="1.0" encoding="UTF-8"?><svg xmlns="http://www.w3.org/2000/svg" xmlns:xlink="http://www.w3.org/1999/xlink" fill-opacity="1" color-rendering="auto" color-interpolation="auto" text-rendering="auto" stroke="black" stroke-linecap="square" width="1003" stroke-miterlimit="10" shape-rendering="auto" stroke-opacity="1" fill="black" stroke-dasharray="none" font-weight="normal" stroke-width="1" height="503" font-family="'Dialog'" font-style="normal" stroke-linejoin="miter" font-size="12px" stroke-dashoffset="0" image-rendering="auto">
  <!--Generated by ySVG 2.5-->
  <defs id="genericDefs"/>
  <g>
    <defs id="defs1">
      <clipPath clipPathUnits="userSpaceOnUse" id="clipPath1">
        <path d="M0 0 L1003 0 L1003 503 L0 503 L0 0 Z"/>
      </clipPath>
      <clipPath clipPathUnits="userSpaceOnUse" id="clipPath2">
        <path d="M188 -903 L1191 -903 L1191 -400 L188 -400 L188 -903 Z"/>
      </clipPath>
    </defs>
    <g fill="white" text-rendering="geometricPrecision" shape-rendering="geometricPrecision" transform="translate(-188,903)" stroke="white">
      <rect x="188" width="1003" height="503" y="-903" clip-path="url(#clipPath2)" stroke="none"/>
    </g>
    <g id="y.node.0">
      <a target="_blank" xlink:type="simple" xlink:href="http://schema.org/Organization" xlink:show="new">
        <g fill="rgb(204,255,204)" text-rendering="geometricPrecision" shape-rendering="geometricPrecision" transform="matrix(1,0,0,1,-188,903)" stroke="rgb(204,255,204)">
          <rect x="463.1474" width="137.5625" height="30" y="-800.6885" stroke="none"/>
        </g>
        <g text-rendering="geometricPrecision" stroke-miterlimit="1.45" shape-rendering="geometricPrecision" transform="matrix(1,0,0,1,-188,903)" stroke-linecap="butt">
          <rect fill="none" x="463.1474" width="137.5625" height="30" y="-800.6885"/>
        </g>
        <g>
          <g text-rendering="geometricPrecision" stroke-miterlimit="1.45" shape-rendering="geometricPrecision" font-family="sans-serif" transform="matrix(1,0,0,1,-188,903)" stroke-linecap="butt">
            <text x="470.1474" xml:space="preserve" y="-781.1533" stroke="none">schema:Organization</text>
          </g>
        </g>
      </a>
    </g>
    <g id="y.node.1">
      <a target="_blank" xlink:type="simple" xlink:href="http://schema.org/ContactPoint" xlink:show="new">
        <g fill="rgb(204,255,204)" text-rendering="geometricPrecision" shape-rendering="geometricPrecision" transform="matrix(1,0,0,1,-188,903)" stroke="rgb(204,255,204)">
          <rect x="560.106" width="136.3027" height="30" y="-675.7855" stroke="none"/>
        </g>
        <g text-rendering="geometricPrecision" stroke-miterlimit="1.45" shape-rendering="geometricPrecision" transform="matrix(1,0,0,1,-188,903)" stroke-linecap="butt">
          <rect fill="none" x="560.106" width="136.3027" height="30" y="-675.7855"/>
        </g>
        <g>
          <g text-rendering="geometricPrecision" stroke-miterlimit="1.45" shape-rendering="geometricPrecision" font-family="sans-serif" transform="matrix(1,0,0,1,-188,903)" stroke-linecap="butt">
            <text x="567.106" xml:space="preserve" y="-656.2503" stroke="none">schema:ContactPoint</text>
          </g>
        </g>
      </a>
    </g>
    <g id="y.node.2">
      <a target="_blank" xlink:type="simple" xlink:href="https://geodex.org/voc/ResearchRepositoryService" xlink:show="new">
        <g fill="rgb(255,204,0)" text-rendering="geometricPrecision" shape-rendering="geometricPrecision" transform="matrix(1,0,0,1,-188,903)" stroke="rgb(255,204,0)">
          <rect x="980.3574" width="194.791" height="30" y="-800.6885" stroke="none"/>
        </g>
        <g text-rendering="geometricPrecision" stroke-miterlimit="1.45" shape-rendering="geometricPrecision" transform="matrix(1,0,0,1,-188,903)" stroke-linecap="butt">
          <rect fill="none" x="980.3574" width="194.791" height="30" y="-800.6885"/>
        </g>
        <g>
          <g text-rendering="geometricPrecision" stroke-miterlimit="1.45" shape-rendering="geometricPrecision" font-family="sans-serif" transform="matrix(1,0,0,1,-188,903)" stroke-linecap="butt">
            <text x="987.3574" xml:space="preserve" y="-781.1533" stroke="none">gdx:ResearchRepositoryService</text>
          </g>
        </g>
      </a>
    </g>
    <g id="y.node.3">
      <a target="_blank" xlink:type="simple" xlink:href="http://schema.geolink.org/1.0/base/main#Organization" xlink:show="new">
        <g fill="rgb(255,204,0)" text-rendering="geometricPrecision" shape-rendering="geometricPrecision" transform="matrix(1,0,0,1,-188,903)" stroke="rgb(255,204,0)">
          <rect x="581.7919" width="136.2734" height="30" y="-887.1933" stroke="none"/>
        </g>
        <g text-rendering="geometricPrecision" stroke-miterlimit="1.45" shape-rendering="geometricPrecision" transform="matrix(1,0,0,1,-188,903)" stroke-linecap="butt">
          <rect fill="none" x="581.7919" width="136.2734" height="30" y="-887.1933"/>
        </g>
        <g>
          <g text-rendering="geometricPrecision" stroke-miterlimit="1.45" shape-rendering="geometricPrecision" font-family="sans-serif" transform="matrix(1,0,0,1,-188,903)" stroke-linecap="butt">
            <text x="588.7919" xml:space="preserve" y="-867.6581" stroke="none">geolink:Organization</text>
          </g>
        </g>
      </a>
    </g>
    <g id="y.node.4">
      <g fill="rgb(0,204,255)" text-rendering="geometricPrecision" shape-rendering="geometricPrecision" transform="matrix(1,0,0,1,-188,903)" stroke="rgb(0,204,255)">
        <ellipse rx="20.0605" ry="15" cx="298.7781" cy="-761.8681" stroke="none"/>
      </g>
      <g text-rendering="geometricPrecision" stroke-miterlimit="1.45" shape-rendering="geometricPrecision" transform="matrix(1,0,0,1,-188,903)" stroke-linecap="butt">
        <ellipse rx="20.0605" fill="none" ry="15" cx="298.7781" cy="-761.8681"/>
      </g>
      <g>
        <g text-rendering="geometricPrecision" stroke-miterlimit="1.45" shape-rendering="geometricPrecision" font-family="sans-serif" transform="matrix(1,0,0,1,-188,903)" stroke-linecap="butt">
          <text x="285.7176" xml:space="preserve" y="-757.3329" stroke="none">Text</text>
        </g>
      </g>
    </g>
    <g id="y.node.5">
      <g fill="rgb(0,204,255)" text-rendering="geometricPrecision" shape-rendering="geometricPrecision" transform="matrix(1,0,0,1,-188,903)" stroke="rgb(0,204,255)">
        <ellipse rx="18.1504" ry="15" cx="298.7781" cy="-796.8681" stroke="none"/>
      </g>
      <g text-rendering="geometricPrecision" stroke-miterlimit="1.45" shape-rendering="geometricPrecision" transform="matrix(1,0,0,1,-188,903)" stroke-linecap="butt">
        <ellipse rx="18.1504" fill="none" ry="15" cx="298.7781" cy="-796.8681"/>
      </g>
      <g>
        <g text-rendering="geometricPrecision" stroke-miterlimit="1.45" shape-rendering="geometricPrecision" font-family="sans-serif" transform="matrix(1,0,0,1,-188,903)" stroke-linecap="butt">
          <text x="287.6277" xml:space="preserve" y="-792.3329" stroke="none">URL</text>
        </g>
      </g>
    </g>
    <g id="y.node.6">
      <a target="_blank" xlink:type="simple" xlink:href="http://schema.org/ImageObject" xlink:show="new">
        <g fill="rgb(204,255,204)" text-rendering="geometricPrecision" shape-rendering="geometricPrecision" transform="matrix(1,0,0,1,-188,903)" stroke="rgb(204,255,204)">
          <rect x="240.5315" width="135.3242" height="30" y="-697.5758" stroke="none"/>
        </g>
        <g text-rendering="geometricPrecision" stroke-miterlimit="1.45" shape-rendering="geometricPrecision" transform="matrix(1,0,0,1,-188,903)" stroke-linecap="butt">
          <rect fill="none" x="240.5315" width="135.3242" height="30" y="-697.5758"/>
        </g>
        <g>
          <g text-rendering="geometricPrecision" stroke-miterlimit="1.45" shape-rendering="geometricPrecision" font-family="sans-serif" transform="matrix(1,0,0,1,-188,903)" stroke-linecap="butt">
            <text x="247.5315" xml:space="preserve" y="-678.0406" stroke="none">schema:ImageObject</text>
          </g>
        </g>
      </a>
    </g>
    <g id="y.node.7">
      <g fill="rgb(0,204,255)" text-rendering="geometricPrecision" shape-rendering="geometricPrecision" transform="matrix(1,0,0,1,-188,903)" stroke="rgb(0,204,255)">
        <ellipse rx="18.1504" ry="15" cx="267.9059" cy="-613.877" stroke="none"/>
      </g>
      <g text-rendering="geometricPrecision" stroke-miterlimit="1.45" shape-rendering="geometricPrecision" transform="matrix(1,0,0,1,-188,903)" stroke-linecap="butt">
        <ellipse rx="18.1504" fill="none" ry="15" cx="267.9059" cy="-613.877"/>
      </g>
      <g>
        <g text-rendering="geometricPrecision" stroke-miterlimit="1.45" shape-rendering="geometricPrecision" font-family="sans-serif" transform="matrix(1,0,0,1,-188,903)" stroke-linecap="butt">
          <text x="256.7555" xml:space="preserve" y="-609.3418" stroke="none">URL</text>
        </g>
      </g>
    </g>
    <g id="y.node.8">
      <a target="_blank" xlink:type="simple" xlink:href="http://schema.org/Address" xlink:show="new">
        <g fill="rgb(204,255,204)" text-rendering="geometricPrecision" shape-rendering="geometricPrecision" transform="matrix(1,0,0,1,-188,903)" stroke="rgb(204,255,204)">
          <rect x="328.606" width="109.2383" height="30" y="-628.877" stroke="none"/>
        </g>
        <g text-rendering="geometricPrecision" stroke-miterlimit="1.45" shape-rendering="geometricPrecision" transform="matrix(1,0,0,1,-188,903)" stroke-linecap="butt">
          <rect fill="none" x="328.606" width="109.2383" height="30" y="-628.877"/>
        </g>
        <g>
          <g text-rendering="geometricPrecision" stroke-miterlimit="1.45" shape-rendering="geometricPrecision" font-family="sans-serif" transform="matrix(1,0,0,1,-188,903)" stroke-linecap="butt">
            <text x="335.606" xml:space="preserve" y="-609.3418" stroke="none">schema:Address</text>
          </g>
        </g>
      </a>
    </g>
    <g id="y.node.9">
      <g fill="rgb(0,204,255)" text-rendering="geometricPrecision" shape-rendering="geometricPrecision" transform="matrix(1,0,0,1,-188,903)" stroke="rgb(0,204,255)">
        <ellipse rx="63.2852" ry="15" cx="905.4874" cy="-573.2808" stroke="none"/>
      </g>
      <g text-rendering="geometricPrecision" stroke-miterlimit="1.45" shape-rendering="geometricPrecision" transform="matrix(1,0,0,1,-188,903)" stroke-linecap="butt">
        <ellipse rx="63.2852" fill="none" ry="15" cx="905.4874" cy="-573.2808"/>
      </g>
      <g>
        <g text-rendering="geometricPrecision" stroke-miterlimit="1.45" shape-rendering="geometricPrecision" font-family="sans-serif" transform="matrix(1,0,0,1,-188,903)" stroke-linecap="butt">
          <text x="849.2023" xml:space="preserve" y="-568.7457" stroke="none">"customer support"</text>
        </g>
      </g>
    </g>
    <g id="y.node.10">
      <g fill="rgb(0,204,255)" text-rendering="geometricPrecision" shape-rendering="geometricPrecision" transform="matrix(1,0,0,1,-188,903)" stroke="rgb(0,204,255)">
        <ellipse rx="18.1504" ry="15" cx="777.7946" cy="-613.877" stroke="none"/>
      </g>
      <g text-rendering="geometricPrecision" stroke-miterlimit="1.45" shape-rendering="geometricPrecision" transform="matrix(1,0,0,1,-188,903)" stroke-linecap="butt">
        <ellipse rx="18.1504" fill="none" ry="15" cx="777.7946" cy="-613.877"/>
      </g>
      <g>
        <g text-rendering="geometricPrecision" stroke-miterlimit="1.45" shape-rendering="geometricPrecision" font-family="sans-serif" transform="matrix(1,0,0,1,-188,903)" stroke-linecap="butt">
          <text x="766.6442" xml:space="preserve" y="-609.3418" stroke="none">URL</text>
        </g>
      </g>
    </g>
    <g id="y.node.11">
      <g fill="rgb(0,204,255)" text-rendering="geometricPrecision" shape-rendering="geometricPrecision" transform="matrix(1,0,0,1,-188,903)" stroke="rgb(0,204,255)">
        <ellipse rx="20.0605" ry="15" cx="777.7946" cy="-530.3825" stroke="none"/>
      </g>
      <g text-rendering="geometricPrecision" stroke-miterlimit="1.45" shape-rendering="geometricPrecision" transform="matrix(1,0,0,1,-188,903)" stroke-linecap="butt">
        <ellipse rx="20.0605" fill="none" ry="15" cx="777.7946" cy="-530.3825"/>
      </g>
      <g>
        <g text-rendering="geometricPrecision" stroke-miterlimit="1.45" shape-rendering="geometricPrecision" font-family="sans-serif" transform="matrix(1,0,0,1,-188,903)" stroke-linecap="butt">
          <text x="764.734" xml:space="preserve" y="-525.8474" stroke="none">Text</text>
        </g>
      </g>
    </g>
    <g id="y.node.12">
      <g fill="rgb(0,204,255)" text-rendering="geometricPrecision" shape-rendering="geometricPrecision" transform="matrix(1,0,0,1,-188,903)" stroke="rgb(0,204,255)">
        <ellipse rx="45.6191" ry="20.5" cx="286.1507" cy="-480.8825" stroke="none"/>
      </g>
      <g text-rendering="geometricPrecision" stroke-miterlimit="1.45" shape-rendering="geometricPrecision" transform="matrix(1,0,0,1,-188,903)" stroke-linecap="butt">
        <ellipse rx="45.6191" fill="none" ry="20.5" cx="286.1507" cy="-480.8825"/>
      </g>
      <g>
        <g text-rendering="geometricPrecision" stroke-miterlimit="1.45" shape-rendering="geometricPrecision" font-family="sans-serif" transform="matrix(1,0,0,1,-188,903)" stroke-linecap="butt">
          <text x="247.5315" xml:space="preserve" y="-476.3473" stroke="none">"datacite:doi"</text>
        </g>
      </g>
    </g>
    <g id="y.node.13">
      <g fill="rgb(0,204,255)" text-rendering="geometricPrecision" shape-rendering="geometricPrecision" transform="matrix(1,0,0,1,-188,903)" stroke="rgb(0,204,255)">
        <ellipse rx="18.1504" ry="15" cx="553.6288" cy="-460.7766" stroke="none"/>
      </g>
      <g text-rendering="geometricPrecision" stroke-miterlimit="1.45" shape-rendering="geometricPrecision" transform="matrix(1,0,0,1,-188,903)" stroke-linecap="butt">
        <ellipse rx="18.1504" fill="none" ry="15" cx="553.6288" cy="-460.7766"/>
      </g>
      <g>
        <g text-rendering="geometricPrecision" stroke-miterlimit="1.45" shape-rendering="geometricPrecision" font-family="sans-serif" transform="matrix(1,0,0,1,-188,903)" stroke-linecap="butt">
          <text x="542.4784" xml:space="preserve" y="-456.2415" stroke="none">URL</text>
        </g>
      </g>
    </g>
    <g id="y.node.14">
      <g fill="rgb(0,204,255)" text-rendering="geometricPrecision" shape-rendering="geometricPrecision" transform="matrix(1,0,0,1,-188,903)" stroke="rgb(0,204,255)">
        <ellipse rx="20.0605" ry="15" cx="367.5736" cy="-443.2998" stroke="none"/>
      </g>
      <g text-rendering="geometricPrecision" stroke-miterlimit="1.45" shape-rendering="geometricPrecision" transform="matrix(1,0,0,1,-188,903)" stroke-linecap="butt">
        <ellipse rx="20.0605" fill="none" ry="15" cx="367.5736" cy="-443.2998"/>
      </g>
      <g>
        <g text-rendering="geometricPrecision" stroke-miterlimit="1.45" shape-rendering="geometricPrecision" font-family="sans-serif" transform="matrix(1,0,0,1,-188,903)" stroke-linecap="butt">
          <text x="355.5131" xml:space="preserve" y="-438.7646" stroke="none">Text</text>
        </g>
      </g>
    </g>
    <g id="y.node.15">
      <a target="_blank" xlink:type="simple" xlink:href="https://schema.org/PropertyValue" xlink:show="new">
        <g fill="rgb(204,255,204)" text-rendering="geometricPrecision" shape-rendering="geometricPrecision" transform="matrix(1,0,0,1,-188,903)" stroke="rgb(204,255,204)">
          <rect x="415.7848" width="142.918" height="30" y="-550.8825" stroke="none"/>
        </g>
        <g text-rendering="geometricPrecision" stroke-miterlimit="1.45" shape-rendering="geometricPrecision" transform="matrix(1,0,0,1,-188,903)" stroke-linecap="butt">
          <rect fill="none" x="415.7848" width="142.918" height="30" y="-550.8825"/>
        </g>
        <g>
          <g text-rendering="geometricPrecision" stroke-miterlimit="1.45" shape-rendering="geometricPrecision" font-family="sans-serif" transform="matrix(1,0,0,1,-188,903)" stroke-linecap="butt">
            <text x="422.7848" xml:space="preserve" y="-531.3474" stroke="none">schema:PropertyValue</text>
          </g>
        </g>
      </a>
    </g>
    <g id="y.node.16">
      <a target="_blank" xlink:type="simple" xlink:href="http://www.sparontologies.net/ontologies/datacite/source.html#Identifier" xlink:show="new">
        <g fill="rgb(255,204,0)" text-rendering="geometricPrecision" shape-rendering="geometricPrecision" transform="matrix(1,0,0,1,-188,903)" stroke="rgb(255,204,0)">
          <rect x="203.3019" width="146.8262" height="41" y="-556.3825" stroke="none"/>
        </g>
        <g text-rendering="geometricPrecision" stroke-miterlimit="1.45" shape-rendering="geometricPrecision" transform="matrix(1,0,0,1,-188,903)" stroke-linecap="butt">
          <rect fill="none" x="203.3019" width="146.8262" height="41" y="-556.3825"/>
        </g>
        <g>
          <g text-rendering="geometricPrecision" stroke-miterlimit="1.45" shape-rendering="geometricPrecision" font-family="sans-serif" transform="matrix(1,0,0,1,-188,903)" stroke-linecap="butt">
            <text x="223.588" xml:space="preserve" y="-538.4138" stroke="none">datacite:Identifier,</text>
            <text x="227.0597" xml:space="preserve" y="-524.2809" stroke="none">geolink:Identifier</text>
          </g>
        </g>
      </a>
    </g>
    <g id="y.node.17">
      <a target="_blank" xlink:type="simple" xlink:href="http://schema.org/Service" xlink:show="new">
        <g fill="rgb(204,255,204)" text-rendering="geometricPrecision" shape-rendering="geometricPrecision" transform="matrix(1,0,0,1,-188,903)" stroke="rgb(204,255,204)">
          <rect x="759.6442" width="102.5938" height="30" y="-798.0359" stroke="none"/>
        </g>
        <g text-rendering="geometricPrecision" stroke-miterlimit="1.45" shape-rendering="geometricPrecision" transform="matrix(1,0,0,1,-188,903)" stroke-linecap="butt">
          <rect fill="none" x="759.6442" width="102.5938" height="30" y="-798.0359"/>
        </g>
        <g>
          <g text-rendering="geometricPrecision" stroke-miterlimit="1.45" shape-rendering="geometricPrecision" font-family="sans-serif" transform="matrix(1,0,0,1,-188,903)" stroke-linecap="butt">
            <text x="766.6442" xml:space="preserve" y="-778.5007" stroke="none">schema:Service</text>
          </g>
        </g>
      </a>
    </g>
    <g id="y.node.18">
      <g fill="rgb(0,204,255)" text-rendering="geometricPrecision" shape-rendering="geometricPrecision" transform="matrix(1,0,0,1,-188,903)" stroke="rgb(0,204,255)">
        <ellipse rx="20.0605" ry="15" cx="1018.4243" cy="-686.4592" stroke="none"/>
      </g>
      <g text-rendering="geometricPrecision" stroke-miterlimit="1.45" shape-rendering="geometricPrecision" transform="matrix(1,0,0,1,-188,903)" stroke-linecap="butt">
        <ellipse rx="20.0605" fill="none" ry="15" cx="1018.4243" cy="-686.4592"/>
      </g>
      <g>
        <g text-rendering="geometricPrecision" stroke-miterlimit="1.45" shape-rendering="geometricPrecision" font-family="sans-serif" transform="matrix(1,0,0,1,-188,903)" stroke-linecap="butt">
          <text x="1005.3638" xml:space="preserve" y="-681.924" stroke="none">Text</text>
        </g>
      </g>
    </g>
    <g id="y.node.19">
      <g fill="rgb(0,204,255)" text-rendering="geometricPrecision" shape-rendering="geometricPrecision" transform="matrix(1,0,0,1,-188,903)" stroke="rgb(0,204,255)">
        <ellipse rx="18.1504" ry="15" cx="1018.4243" cy="-644.4592" stroke="none"/>
      </g>
      <g text-rendering="geometricPrecision" stroke-miterlimit="1.45" shape-rendering="geometricPrecision" transform="matrix(1,0,0,1,-188,903)" stroke-linecap="butt">
        <ellipse rx="18.1504" fill="none" ry="15" cx="1018.4243" cy="-644.4592"/>
      </g>
      <g>
        <g text-rendering="geometricPrecision" stroke-miterlimit="1.45" shape-rendering="geometricPrecision" font-family="sans-serif" transform="matrix(1,0,0,1,-188,903)" stroke-linecap="butt">
          <text x="1007.2739" xml:space="preserve" y="-639.924" stroke="none">URL</text>
        </g>
      </g>
    </g>
    <g id="y.edge.8">
      <g text-rendering="geometricPrecision" stroke-miterlimit="1.45" shape-rendering="geometricPrecision" transform="matrix(1,0,0,1,-188,903)" stroke-linecap="butt">
        <path fill="none" d="M485.5 -800.7067 L485.5 -851.8333 L542.5 -851.8333 L542.5 -808.6663"/>
        <path d="M542.5 -800.6663 L547.5 -812.6663 L542.5 -809.6663 L537.5 -812.6663 Z" stroke="none"/>
      </g>
      <g>
        <g text-rendering="geometricPrecision" stroke-miterlimit="1.45" shape-rendering="geometricPrecision" font-family="sans-serif" transform="matrix(1,0,0,1,-188,903)" stroke-linecap="butt">
          <text x="403.8633" xml:space="preserve" y="-860.2982" stroke="none">schema:parentOrganization</text>
        </g>
      </g>
    </g>
    <g id="y.edge.1">
      <g text-rendering="geometricPrecision" stroke-miterlimit="1.45" shape-rendering="geometricPrecision" transform="matrix(1,0,0,1,-188,903)" stroke-linecap="butt">
        <path fill="none" d="M579.2407 -770.716 L579.2407 -683.7882"/>
        <path d="M579.2407 -675.7882 L584.2407 -687.7882 L579.2407 -684.7882 L574.2407 -687.7882 Z" stroke="none"/>
      </g>
      <g>
        <g text-rendering="geometricPrecision" stroke-miterlimit="1.45" shape-rendering="geometricPrecision" font-family="sans-serif" transform="matrix(1,0,0,1,-188,903)" stroke-linecap="butt">
          <text x="585.318" xml:space="preserve" y="-692.2022" stroke="none">schema:contactPoint</text>
        </g>
      </g>
    </g>
    <g id="y.edge.3">
      <g text-rendering="geometricPrecision" stroke-miterlimit="1.45" shape-rendering="geometricPrecision" transform="matrix(1,0,0,1,-188,903)" stroke-linecap="butt">
        <path fill="none" d="M590.9286 -800.6832 L590.9286 -849.2139"/>
        <path d="M590.9286 -857.2139 L585.9286 -845.2139 L590.9286 -848.2139 L595.9286 -845.2139 Z" stroke="none"/>
      </g>
      <g>
        <g text-rendering="geometricPrecision" stroke-miterlimit="1.45" shape-rendering="geometricPrecision" font-family="sans-serif" transform="matrix(1,0,0,1,-188,903)" stroke-linecap="butt">
          <text x="605.6194" xml:space="preserve" y="-838.5917" stroke="none">schema:additionalType</text>
        </g>
      </g>
    </g>
    <g id="y.edge.4">
      <g text-rendering="geometricPrecision" stroke-miterlimit="1.45" shape-rendering="geometricPrecision" transform="matrix(1,0,0,1,-188,903)" stroke-linecap="butt">
        <path fill="none" d="M463.1006 -781.8681 L437.5 -781.8681 L437.5 -761.8681 L326.8387 -761.8681"/>
        <path d="M318.8387 -761.8681 L330.8387 -756.8681 L327.8387 -761.8681 L330.8387 -766.8681 Z" stroke="none"/>
      </g>
      <g>
        <g text-rendering="geometricPrecision" stroke-miterlimit="1.45" shape-rendering="geometricPrecision" font-family="sans-serif" transform="matrix(1,0,0,1,-188,903)" stroke-linecap="butt">
          <text x="351.2184" xml:space="preserve" y="-749.4755" stroke="none">schema:legalName,</text>
          <text x="351.2184" xml:space="preserve" y="-735.3427" stroke="none">schema:name,</text>
          <text x="351.2184" xml:space="preserve" y="-721.2098" stroke="none">schema:description</text>
        </g>
      </g>
    </g>
    <g id="y.edge.5">
      <g text-rendering="geometricPrecision" stroke-miterlimit="1.45" shape-rendering="geometricPrecision" transform="matrix(1,0,0,1,-188,903)" stroke-linecap="butt">
        <path fill="none" d="M463.1868 -796.8681 L324.9285 -796.8681"/>
        <path d="M316.9285 -796.8681 L328.9285 -791.8681 L325.9285 -796.8681 L328.9285 -801.8681 Z" stroke="none"/>
      </g>
      <g>
        <g text-rendering="geometricPrecision" stroke-miterlimit="1.45" shape-rendering="geometricPrecision" font-family="sans-serif" transform="matrix(1,0,0,1,-188,903)" stroke-linecap="butt">
          <text x="331.3822" xml:space="preserve" y="-820.3994" stroke="none">schema:url,</text>
          <text x="331.3822" xml:space="preserve" y="-806.2665" stroke="none">schema:sameAs</text>
        </g>
      </g>
    </g>
    <g id="y.edge.6">
      <g text-rendering="geometricPrecision" stroke-miterlimit="1.45" shape-rendering="geometricPrecision" transform="matrix(1,0,0,1,-188,903)" stroke-linecap="butt">
        <path fill="none" d="M475.5 -770.71 L475.5 -682.5757 L383.8557 -682.5757"/>
        <path d="M375.8557 -682.5757 L387.8557 -677.5757 L384.8557 -682.5757 L387.8557 -687.5757 Z" stroke="none"/>
      </g>
      <g>
        <g text-rendering="geometricPrecision" stroke-miterlimit="1.45" shape-rendering="geometricPrecision" font-family="sans-serif" transform="matrix(1,0,0,1,-188,903)" stroke-linecap="butt">
          <text x="395.6416" xml:space="preserve" y="-688.9648" stroke="none">schema:logo</text>
        </g>
      </g>
    </g>
    <g id="y.edge.7">
      <g text-rendering="geometricPrecision" stroke-miterlimit="1.45" shape-rendering="geometricPrecision" transform="matrix(1,0,0,1,-188,903)" stroke-linecap="butt">
        <path fill="none" d="M267.9059 -667.5815 L267.9059 -636.877"/>
        <path d="M267.9059 -628.877 L272.9059 -640.877 L267.9059 -637.877 L262.9059 -640.877 Z" stroke="none"/>
      </g>
      <g>
        <g text-rendering="geometricPrecision" stroke-miterlimit="1.45" shape-rendering="geometricPrecision" font-family="sans-serif" transform="matrix(1,0,0,1,-188,903)" stroke-linecap="butt">
          <text x="274.5752" xml:space="preserve" y="-647.9648" stroke="none">schema:url</text>
        </g>
      </g>
    </g>
    <g id="y.edge.9">
      <g text-rendering="geometricPrecision" stroke-miterlimit="1.45" shape-rendering="geometricPrecision" transform="matrix(1,0,0,1,-188,903)" stroke-linecap="butt">
        <path fill="none" d="M517.7845 -770.7137 L517.7845 -613.877 L445.8443 -613.877"/>
        <path d="M437.8443 -613.877 L449.8443 -608.877 L446.8443 -613.877 L449.8443 -618.877 Z" stroke="none"/>
      </g>
      <g>
        <g text-rendering="geometricPrecision" stroke-miterlimit="1.45" shape-rendering="geometricPrecision" font-family="sans-serif" transform="matrix(1,0,0,1,-188,903)" stroke-linecap="butt">
          <text x="416.0779" xml:space="preserve" y="-633.8381" stroke="none">schema:address</text>
        </g>
      </g>
    </g>
    <g id="y.edge.10">
      <g text-rendering="geometricPrecision" stroke-miterlimit="1.45" shape-rendering="geometricPrecision" transform="matrix(1,0,0,1,-188,903)" stroke-linecap="butt">
        <path fill="none" d="M655.3266 -645.7883 L655.3266 -573.2808 L834.2024 -573.2808"/>
        <path d="M842.2024 -573.2808 L830.2024 -578.2808 L833.2024 -573.2808 L830.2024 -568.2808 Z" stroke="none"/>
      </g>
      <g>
        <g text-rendering="geometricPrecision" stroke-miterlimit="1.45" shape-rendering="geometricPrecision" font-family="sans-serif" transform="matrix(1,0,0,1,-188,903)" stroke-linecap="butt">
          <text x="664.5005" xml:space="preserve" y="-580.7799" stroke="none">schema:contactType</text>
        </g>
      </g>
    </g>
    <g id="y.edge.11">
      <g text-rendering="geometricPrecision" stroke-miterlimit="1.45" shape-rendering="geometricPrecision" transform="matrix(1,0,0,1,-188,903)" stroke-linecap="butt">
        <path fill="none" d="M680.7946 -645.8059 L680.7946 -613.877 L751.6442 -613.877"/>
        <path d="M759.6442 -613.877 L747.6442 -618.877 L750.6442 -613.877 L747.6442 -608.877 Z" stroke="none"/>
      </g>
      <g>
        <g text-rendering="geometricPrecision" stroke-miterlimit="1.45" shape-rendering="geometricPrecision" font-family="sans-serif" transform="matrix(1,0,0,1,-188,903)" stroke-linecap="butt">
          <text x="688.8092" xml:space="preserve" y="-621.1042" stroke="none">schema:url</text>
        </g>
      </g>
    </g>
    <g id="y.edge.12">
      <g text-rendering="geometricPrecision" stroke-miterlimit="1.45" shape-rendering="geometricPrecision" transform="matrix(1,0,0,1,-188,903)" stroke-linecap="butt">
        <path fill="none" d="M628.2574 -645.7855 L628.2574 -530.3825 L749.734 -530.3825"/>
        <path d="M757.734 -530.3825 L745.734 -535.3825 L748.734 -530.3825 L745.734 -525.3825 Z" stroke="none"/>
      </g>
      <g>
        <g text-rendering="geometricPrecision" stroke-miterlimit="1.45" shape-rendering="geometricPrecision" font-family="sans-serif" transform="matrix(1,0,0,1,-188,903)" stroke-linecap="butt">
          <text x="633.2123" xml:space="preserve" y="-549.6443" stroke="none">schema:name,</text>
          <text x="633.2123" xml:space="preserve" y="-535.5115" stroke="none">schema:email</text>
        </g>
      </g>
    </g>
    <g id="y.edge.17">
      <g text-rendering="geometricPrecision" stroke-miterlimit="1.45" shape-rendering="geometricPrecision" transform="matrix(1,0,0,1,-188,903)" stroke-linecap="butt">
        <path fill="none" d="M546.7578 -770.716 L546.7578 -558.8749"/>
        <path d="M546.7578 -550.8749 L551.7578 -562.8749 L546.7578 -559.8749 L541.7578 -562.8749 Z" stroke="none"/>
      </g>
      <g>
        <g text-rendering="geometricPrecision" stroke-miterlimit="1.45" shape-rendering="geometricPrecision" font-family="sans-serif" transform="matrix(1,0,0,1,-188,903)" stroke-linecap="butt">
          <text x="426.2553" xml:space="preserve" y="-566.9648" stroke="none">schema:identifier</text>
        </g>
      </g>
    </g>
    <g id="y.edge.14">
      <g text-rendering="geometricPrecision" stroke-miterlimit="1.45" shape-rendering="geometricPrecision" transform="matrix(1,0,0,1,-188,903)" stroke-linecap="butt">
        <path fill="none" d="M487.2438 -520.8825 L487.2438 -480.8825 L339.7748 -480.8825"/>
        <path d="M331.7748 -480.8825 L343.7748 -475.8825 L340.7748 -480.8825 L343.7748 -485.8825 Z" stroke="none"/>
      </g>
      <g>
        <g text-rendering="geometricPrecision" stroke-miterlimit="1.45" shape-rendering="geometricPrecision" font-family="sans-serif" transform="matrix(1,0,0,1,-188,903)" stroke-linecap="butt">
          <text x="370.2848" xml:space="preserve" y="-485.7921" stroke="none">schema:propertyID</text>
        </g>
      </g>
    </g>
    <g id="y.edge.15">
      <g text-rendering="geometricPrecision" stroke-miterlimit="1.45" shape-rendering="geometricPrecision" transform="matrix(1,0,0,1,-188,903)" stroke-linecap="butt">
        <path fill="none" d="M549.5101 -520.8833 L549.5101 -483.363"/>
        <path d="M549.5101 -475.363 L554.5101 -487.363 L549.5101 -484.363 L544.5101 -487.363 Z" stroke="none"/>
      </g>
      <g>
        <g text-rendering="geometricPrecision" stroke-miterlimit="1.45" shape-rendering="geometricPrecision" font-family="sans-serif" transform="matrix(1,0,0,1,-188,903)" stroke-linecap="butt">
          <text x="516.6442" xml:space="preserve" y="-420.3303" stroke="none">schema:url</text>
        </g>
      </g>
    </g>
    <g id="y.edge.16">
      <g text-rendering="geometricPrecision" stroke-miterlimit="1.45" shape-rendering="geometricPrecision" transform="matrix(1,0,0,1,-188,903)" stroke-linecap="butt">
        <path fill="none" d="M502.9546 -520.9192 L502.9546 -443.2998 L395.6342 -443.2998"/>
        <path d="M387.6342 -443.2998 L399.6342 -438.2998 L396.6342 -443.2998 L399.6342 -448.2998 Z" stroke="none"/>
      </g>
      <g>
        <g text-rendering="geometricPrecision" stroke-miterlimit="1.45" shape-rendering="geometricPrecision" font-family="sans-serif" transform="matrix(1,0,0,1,-188,903)" stroke-linecap="butt">
          <text x="417.6909" xml:space="preserve" y="-428.1857" stroke="none">schema:value</text>
        </g>
      </g>
    </g>
    <g id="y.edge.13">
      <g text-rendering="geometricPrecision" stroke-miterlimit="1.45" shape-rendering="geometricPrecision" transform="matrix(1,0,0,1,-188,903)" stroke-linecap="butt">
        <path fill="none" d="M415.7454 -535.8825 L358.1576 -535.8825"/>
        <path d="M350.1576 -535.8825 L362.1576 -530.8825 L359.1576 -535.8825 L362.1576 -540.8825 Z" stroke="none"/>
      </g>
      <g>
        <g text-rendering="geometricPrecision" stroke-miterlimit="1.45" shape-rendering="geometricPrecision" font-family="sans-serif" transform="matrix(1,0,0,1,-188,903)" stroke-linecap="butt">
          <text x="270.6861" xml:space="preserve" y="-565.6556" stroke="none">schema:additionalType</text>
        </g>
      </g>
    </g>
    <g id="y.edge.0">
      <g text-rendering="geometricPrecision" stroke-miterlimit="1.45" shape-rendering="geometricPrecision" transform="matrix(1,0,0,1,-188,903)" stroke-linecap="butt">
        <path fill="none" d="M759.6225 -787.5 L608.6868 -787.5"/>
        <path d="M600.6868 -787.5 L612.6868 -782.5 L609.6868 -787.5 L612.6868 -792.5 Z" stroke="none"/>
      </g>
      <g>
        <g text-rendering="geometricPrecision" stroke-miterlimit="1.45" shape-rendering="geometricPrecision" font-family="sans-serif" transform="matrix(1,0,0,1,-188,903)" stroke-linecap="butt">
          <text x="624.3652" xml:space="preserve" y="-795.9648" stroke="none">schema:provider</text>
        </g>
      </g>
    </g>
    <g id="y.edge.2">
      <g text-rendering="geometricPrecision" stroke-miterlimit="1.45" shape-rendering="geometricPrecision" transform="matrix(1,0,0,1,-188,903)" stroke-linecap="butt">
        <path fill="none" d="M862.2562 -785.6885 L972.3574 -785.6885"/>
        <path d="M980.3574 -785.6885 L968.3574 -790.6885 L971.3574 -785.6885 L968.3574 -780.6885 Z" stroke="none"/>
      </g>
      <g>
        <g text-rendering="geometricPrecision" stroke-miterlimit="1.45" shape-rendering="geometricPrecision" font-family="sans-serif" transform="matrix(1,0,0,1,-188,903)" stroke-linecap="butt">
          <text x="854.202" xml:space="preserve" y="-811.1533" stroke="none">schema:additionalType</text>
        </g>
      </g>
    </g>
    <g id="y.edge.18">
      <g text-rendering="geometricPrecision" stroke-miterlimit="1.45" shape-rendering="geometricPrecision" transform="matrix(1,0,0,1,-188,903)" stroke-linecap="butt">
        <path fill="none" d="M810.941 -768.0358 L810.941 -686.4592 L990.3638 -686.4592"/>
        <path d="M998.3638 -686.4592 L986.3638 -691.4592 L989.3638 -686.4592 L986.3638 -681.4592 Z" stroke="none"/>
      </g>
      <g>
        <g text-rendering="geometricPrecision" stroke-miterlimit="1.45" shape-rendering="geometricPrecision" font-family="sans-serif" transform="matrix(1,0,0,1,-188,903)" stroke-linecap="butt">
          <text x="835.1892" xml:space="preserve" y="-730.7418" stroke="none">schema:name,</text>
          <text x="835.1892" xml:space="preserve" y="-716.609" stroke="none">schema:description,</text>
          <text x="835.1892" xml:space="preserve" y="-702.4762" stroke="none">schema:category</text>
        </g>
      </g>
    </g>
    <g id="y.edge.19">
      <g text-rendering="geometricPrecision" stroke-miterlimit="1.45" shape-rendering="geometricPrecision" transform="matrix(1,0,0,1,-188,903)" stroke-linecap="butt">
        <path fill="none" d="M782.965 -768.0482 L782.965 -644.4592 L992.2739 -644.4592"/>
        <path d="M1000.2739 -644.4592 L988.2739 -649.4592 L991.2739 -644.4592 L988.2739 -639.4592 Z" stroke="none"/>
      </g>
      <g>
        <g text-rendering="geometricPrecision" stroke-miterlimit="1.45" shape-rendering="geometricPrecision" font-family="sans-serif" transform="matrix(1,0,0,1,-188,903)" stroke-linecap="butt">
          <text x="854.6057" xml:space="preserve" y="-665.3113" stroke="none">schema:url,</text>
          <text x="854.6057" xml:space="preserve" y="-651.1785" stroke="none">schema:sameAs</text>
        </g>
      </g>
    </g>
  </g>
</svg>
