<?xml version="1.0" encoding="UTF-8"?><svg xmlns="http://www.w3.org/2000/svg" xmlns:xlink="http://www.w3.org/1999/xlink" fill-opacity="1" color-rendering="auto" color-interpolation="auto" text-rendering="auto" stroke="black" stroke-linecap="square" width="914" stroke-miterlimit="10" shape-rendering="auto" stroke-opacity="1" fill="black" stroke-dasharray="none" font-weight="normal" stroke-width="1" height="618" font-family="'Dialog'" font-style="normal" stroke-linejoin="miter" font-size="12px" stroke-dashoffset="0" image-rendering="auto">
  <!--Generated by ySVG 2.5-->
  <defs id="genericDefs"/>
  <g>
    <defs id="defs1">
      <clipPath clipPathUnits="userSpaceOnUse" id="clipPath1">
        <path d="M0 0 L914 0 L914 618 L0 618 L0 0 Z"/>
      </clipPath>
      <clipPath clipPathUnits="userSpaceOnUse" id="clipPath2">
        <path d="M148 -638 L1062 -638 L1062 -20 L148 -20 L148 -638 Z"/>
      </clipPath>
    </defs>
    <g fill="white" text-rendering="geometricPrecision" shape-rendering="geometricPrecision" transform="translate(-148,638)" stroke="white">
      <rect x="148" width="914" height="618" y="-638" clip-path="url(#clipPath2)" stroke="none"/>
    </g>
    <g id="y.node.0">
      <a target="_blank" xlink:type="simple" xlink:href="http://schema.org/Service" xlink:show="new">
        <g fill="rgb(204,255,204)" text-rendering="geometricPrecision" shape-rendering="geometricPrecision" transform="matrix(1,0,0,1,-148,638)" stroke="rgb(204,255,204)">
          <rect x="573.6792" width="102.5938" height="30" y="-598.1885" stroke="none"/>
        </g>
        <g text-rendering="geometricPrecision" stroke-miterlimit="1.45" shape-rendering="geometricPrecision" transform="matrix(1,0,0,1,-148,638)" stroke-linecap="butt">
          <rect fill="none" x="573.6792" width="102.5938" height="30" y="-598.1885"/>
        </g>
        <g>
          <g text-rendering="geometricPrecision" stroke-miterlimit="1.45" shape-rendering="geometricPrecision" font-family="sans-serif" transform="matrix(1,0,0,1,-148,638)" stroke-linecap="butt">
            <text x="580.6792" xml:space="preserve" y="-578.6533" stroke="none">schema:Service</text>
          </g>
        </g>
      </a>
    </g>
    <g id="y.node.1">
      <a target="_blank" xlink:type="simple" xlink:href="http://schema.org/OfferCatalog" xlink:show="new">
        <g fill="rgb(204,255,204)" text-rendering="geometricPrecision" shape-rendering="geometricPrecision" transform="matrix(1,0,0,1,-148,638)" stroke="rgb(204,255,204)">
          <rect x="583.3953" width="136.1328" height="30" y="-400.8001" stroke="none"/>
        </g>
        <g text-rendering="geometricPrecision" stroke-miterlimit="1.45" shape-rendering="geometricPrecision" transform="matrix(1,0,0,1,-148,638)" stroke-linecap="butt">
          <rect fill="none" x="583.3953" width="136.1328" height="30" y="-400.8001"/>
        </g>
        <g>
          <g text-rendering="geometricPrecision" stroke-miterlimit="1.45" shape-rendering="geometricPrecision" font-family="sans-serif" transform="matrix(1,0,0,1,-148,638)" stroke-linecap="butt">
            <text x="590.3953" xml:space="preserve" y="-381.265" stroke="none">schema:OfferCatalog</text>
          </g>
        </g>
      </a>
    </g>
    <g id="y.node.2">
      <a target="_blank" xlink:type="simple" xlink:href="http://schema.org/ServiceChannel" xlink:show="new">
        <g fill="rgb(204,255,204)" text-rendering="geometricPrecision" shape-rendering="geometricPrecision" transform="matrix(1,0,0,1,-148,638)" stroke="rgb(204,255,204)">
          <rect x="728.7129" width="150.0195" height="30" y="-521.5782" stroke="none"/>
        </g>
        <g text-rendering="geometricPrecision" stroke-miterlimit="1.45" shape-rendering="geometricPrecision" transform="matrix(1,0,0,1,-148,638)" stroke-linecap="butt">
          <rect fill="none" x="728.7129" width="150.0195" height="30" y="-521.5782"/>
        </g>
        <g>
          <g text-rendering="geometricPrecision" stroke-miterlimit="1.45" shape-rendering="geometricPrecision" font-family="sans-serif" transform="matrix(1,0,0,1,-148,638)" stroke-linecap="butt">
            <text x="735.7129" xml:space="preserve" y="-502.0431" stroke="none">schema:ServiceChannel</text>
          </g>
        </g>
      </a>
    </g>
    <g id="y.node.3">
      <a target="_blank" xlink:type="simple" xlink:href="http://schema.org/DigitalDocument" xlink:show="new">
        <g fill="rgb(204,255,204)" text-rendering="geometricPrecision" shape-rendering="geometricPrecision" transform="matrix(1,0,0,1,-148,638)" stroke="rgb(204,255,204)">
          <rect x="228.0464" width="159.793" height="30" y="-318.3825" stroke="none"/>
        </g>
        <g text-rendering="geometricPrecision" stroke-miterlimit="1.45" shape-rendering="geometricPrecision" transform="matrix(1,0,0,1,-148,638)" stroke-linecap="butt">
          <rect fill="none" x="228.0464" width="159.793" height="30" y="-318.3825"/>
        </g>
        <g>
          <g text-rendering="geometricPrecision" stroke-miterlimit="1.45" shape-rendering="geometricPrecision" font-family="sans-serif" transform="matrix(1,0,0,1,-148,638)" stroke-linecap="butt">
            <text x="235.0464" xml:space="preserve" y="-298.8473" stroke="none">schema:DigitalDocument</text>
          </g>
        </g>
      </a>
    </g>
    <g id="y.node.4">
      <a target="_blank" xlink:type="simple" xlink:href="https://geodex.org/voc/Protocol-License" xlink:show="new">
        <g fill="yellow" text-rendering="geometricPrecision" shape-rendering="geometricPrecision" transform="matrix(1,0,0,1,-148,638)" stroke="yellow">
          <ellipse rx="68.9219" ry="17.5827" cx="386.0898" cy="-240.7998" stroke="none"/>
        </g>
        <g text-rendering="geometricPrecision" stroke-miterlimit="1.45" shape-rendering="geometricPrecision" transform="matrix(1,0,0,1,-148,638)" stroke-linecap="butt">
          <ellipse rx="68.9219" fill="none" ry="17.5827" cx="386.0898" cy="-240.7998"/>
        </g>
        <g>
          <g text-rendering="geometricPrecision" stroke-miterlimit="1.45" shape-rendering="geometricPrecision" font-family="sans-serif" transform="matrix(1,0,0,1,-148,638)" stroke-linecap="butt">
            <text x="324.1679" xml:space="preserve" y="-236.2646" stroke="none">gdx:Protocol-License</text>
          </g>
        </g>
      </a>
    </g>
    <g id="y.node.5">
      <a target="_blank" xlink:type="simple" xlink:href="https://geodex.org/voc/Protocol-TermsOfUse" xlink:show="new">
        <g fill="yellow" text-rendering="geometricPrecision" shape-rendering="geometricPrecision" transform="matrix(1,0,0,1,-148,638)" stroke="yellow">
          <ellipse rx="83.125" ry="17.5827" cx="404.5215" cy="-95.2687" stroke="none"/>
        </g>
        <g text-rendering="geometricPrecision" stroke-miterlimit="1.45" shape-rendering="geometricPrecision" transform="matrix(1,0,0,1,-148,638)" stroke-linecap="butt">
          <ellipse rx="83.125" fill="none" ry="17.5827" cx="404.5215" cy="-95.2687"/>
        </g>
        <g>
          <g text-rendering="geometricPrecision" stroke-miterlimit="1.45" shape-rendering="geometricPrecision" font-family="sans-serif" transform="matrix(1,0,0,1,-148,638)" stroke-linecap="butt">
            <text x="328.3965" xml:space="preserve" y="-90.7335" stroke="none">gdx:Protocol-TermsOfUse</text>
          </g>
        </g>
      </a>
    </g>
    <g id="y.node.6">
      <a target="_blank" xlink:type="simple" xlink:href="https://geodex.org/voc/Protocol-ResourceSubmissionPolicy" xlink:show="new">
        <g fill="yellow" text-rendering="geometricPrecision" shape-rendering="geometricPrecision" transform="matrix(1,0,0,1,-148,638)" stroke="yellow">
          <ellipse rx="123.9297" ry="18.5" cx="445.7143" cy="-143.4733" stroke="none"/>
        </g>
        <g text-rendering="geometricPrecision" stroke-miterlimit="1.45" shape-rendering="geometricPrecision" transform="matrix(1,0,0,1,-148,638)" stroke-linecap="butt">
          <ellipse rx="123.9297" fill="none" ry="18.5" cx="445.7143" cy="-143.4733"/>
        </g>
        <g>
          <g text-rendering="geometricPrecision" stroke-miterlimit="1.45" shape-rendering="geometricPrecision" font-family="sans-serif" transform="matrix(1,0,0,1,-148,638)" stroke-linecap="butt">
            <text x="328.7846" xml:space="preserve" y="-138.9381" stroke="none">gdx:Protocol-ResourceSubmissionPolicy</text>
          </g>
        </g>
      </a>
    </g>
    <g id="y.node.7">
      <a target="_blank" xlink:type="simple" xlink:href="https://geodex.org/voc/Protocol-PreservationPolicy" xlink:show="new">
        <g fill="yellow" text-rendering="geometricPrecision" shape-rendering="geometricPrecision" transform="matrix(1,0,0,1,-148,638)" stroke="yellow">
          <ellipse rx="99.9033" ry="18.5" cx="415.7998" cy="-192.5952" stroke="none"/>
        </g>
        <g text-rendering="geometricPrecision" stroke-miterlimit="1.45" shape-rendering="geometricPrecision" transform="matrix(1,0,0,1,-148,638)" stroke-linecap="butt">
          <ellipse rx="99.9033" fill="none" ry="18.5" cx="415.7998" cy="-192.5952"/>
        </g>
        <g>
          <g text-rendering="geometricPrecision" stroke-miterlimit="1.45" shape-rendering="geometricPrecision" font-family="sans-serif" transform="matrix(1,0,0,1,-148,638)" stroke-linecap="butt">
            <text x="322.8965" xml:space="preserve" y="-188.0601" stroke="none">gdx:Protocol-PreservationPolicy</text>
          </g>
        </g>
      </a>
    </g>
    <g id="y.node.8">
      <a target="_blank" xlink:type="simple" xlink:href="https://geodex.org/voc/Protocol-Access" xlink:show="new">
        <g fill="yellow" text-rendering="geometricPrecision" shape-rendering="geometricPrecision" transform="matrix(1,0,0,1,-148,638)" stroke="yellow">
          <ellipse rx="67.1934" ry="15" cx="386.0898" cy="-50.5641" stroke="none"/>
        </g>
        <g text-rendering="geometricPrecision" stroke-miterlimit="1.45" shape-rendering="geometricPrecision" transform="matrix(1,0,0,1,-148,638)" stroke-linecap="butt">
          <ellipse rx="67.1934" fill="none" ry="15" cx="386.0898" cy="-50.5641"/>
        </g>
        <g>
          <g text-rendering="geometricPrecision" stroke-miterlimit="1.45" shape-rendering="geometricPrecision" font-family="sans-serif" transform="matrix(1,0,0,1,-148,638)" stroke-linecap="butt">
            <text x="325.8965" xml:space="preserve" y="-46.0289" stroke="none">gdx:Protocol-Access</text>
          </g>
        </g>
      </a>
    </g>
    <g id="y.node.9">
      <a target="_blank" xlink:type="simple" xlink:href="http://schema.org/Thing" xlink:show="new">
        <g fill="rgb(204,255,204)" text-rendering="geometricPrecision" shape-rendering="geometricPrecision" transform="matrix(1,0,0,1,-148,638)" stroke="rgb(204,255,204)">
          <rect x="561.6423" width="138.9629" height="30" y="-315.2614" stroke="none"/>
        </g>
        <g text-rendering="geometricPrecision" stroke-miterlimit="1.45" shape-rendering="geometricPrecision" transform="matrix(1,0,0,1,-148,638)" stroke-linecap="butt">
          <rect fill="none" x="561.6423" width="138.9629" height="30" y="-315.2614"/>
        </g>
        <g>
          <g text-rendering="geometricPrecision" stroke-miterlimit="1.45" shape-rendering="geometricPrecision" font-family="sans-serif" transform="matrix(1,0,0,1,-148,638)" stroke-linecap="butt">
            <text x="568.6423" xml:space="preserve" y="-295.7263" stroke="none">schema:CreativeWork</text>
          </g>
        </g>
      </a>
    </g>
    <g id="y.node.10">
      <a target="_blank" xlink:type="simple" xlink:href="http://schema.org/Organization" xlink:show="new">
        <g fill="rgb(204,255,204)" text-rendering="geometricPrecision" shape-rendering="geometricPrecision" transform="matrix(1,0,0,1,-148,638)" stroke="rgb(204,255,204)">
          <rect x="203.368" width="137.5625" height="30" y="-598.1885" stroke="none"/>
        </g>
        <g text-rendering="geometricPrecision" stroke-miterlimit="1.45" shape-rendering="geometricPrecision" transform="matrix(1,0,0,1,-148,638)" stroke-linecap="butt">
          <rect fill="none" x="203.368" width="137.5625" height="30" y="-598.1885"/>
        </g>
        <g>
          <g text-rendering="geometricPrecision" stroke-miterlimit="1.45" shape-rendering="geometricPrecision" font-family="sans-serif" transform="matrix(1,0,0,1,-148,638)" stroke-linecap="butt">
            <text x="210.368" xml:space="preserve" y="-578.6533" stroke="none">schema:Organization</text>
          </g>
        </g>
      </a>
    </g>
    <g id="y.node.11">
      <a target="_blank" xlink:type="simple" xlink:href="http://schema.org/Organization" xlink:show="new">
        <g fill="rgb(204,255,204)" text-rendering="geometricPrecision" shape-rendering="geometricPrecision" transform="matrix(1,0,0,1,-148,638)" stroke="rgb(204,255,204)">
          <rect x="455.332" width="137.5625" height="30" y="-521.5782" stroke="none"/>
        </g>
        <g text-rendering="geometricPrecision" stroke-miterlimit="1.45" shape-rendering="geometricPrecision" transform="matrix(1,0,0,1,-148,638)" stroke-linecap="butt">
          <rect fill="none" x="455.332" width="137.5625" height="30" y="-521.5782"/>
        </g>
        <g>
          <g text-rendering="geometricPrecision" stroke-miterlimit="1.45" shape-rendering="geometricPrecision" font-family="sans-serif" transform="matrix(1,0,0,1,-148,638)" stroke-linecap="butt">
            <text x="462.332" xml:space="preserve" y="-502.0431" stroke="none">schema:Organization</text>
          </g>
        </g>
      </a>
    </g>
    <g id="y.node.12">
      <a target="_blank" xlink:type="simple" xlink:href="http://schema.org/ContactPoint" xlink:show="new">
        <g fill="rgb(204,255,204)" text-rendering="geometricPrecision" shape-rendering="geometricPrecision" transform="matrix(1,0,0,1,-148,638)" stroke="rgb(204,255,204)">
          <rect x="168.79" width="136.3027" height="30" y="-459.1411" stroke="none"/>
        </g>
        <g text-rendering="geometricPrecision" stroke-miterlimit="1.45" shape-rendering="geometricPrecision" transform="matrix(1,0,0,1,-148,638)" stroke-linecap="butt">
          <rect fill="none" x="168.79" width="136.3027" height="30" y="-459.1411"/>
        </g>
        <g>
          <g text-rendering="geometricPrecision" stroke-miterlimit="1.45" shape-rendering="geometricPrecision" font-family="sans-serif" transform="matrix(1,0,0,1,-148,638)" stroke-linecap="butt">
            <text x="175.79" xml:space="preserve" y="-439.606" stroke="none">schema:ContactPoint</text>
          </g>
        </g>
      </a>
    </g>
    <g id="y.node.13">
      <a target="_blank" xlink:type="simple" xlink:href="https://geodex.org/voc/SearchService" xlink:show="new">
        <g fill="yellow" text-rendering="geometricPrecision" shape-rendering="geometricPrecision" transform="matrix(1,0,0,1,-148,638)" stroke="yellow">
          <ellipse rx="59.5205" ry="17.5827" cx="958.5847" cy="-358.0242" stroke="none"/>
        </g>
        <g text-rendering="geometricPrecision" stroke-miterlimit="1.45" shape-rendering="geometricPrecision" transform="matrix(1,0,0,1,-148,638)" stroke-linecap="butt">
          <ellipse rx="59.5205" fill="none" ry="17.5827" cx="958.5847" cy="-358.0242"/>
        </g>
        <g>
          <g text-rendering="geometricPrecision" stroke-miterlimit="1.45" shape-rendering="geometricPrecision" font-family="sans-serif" transform="matrix(1,0,0,1,-148,638)" stroke-linecap="butt">
            <text x="906.0642" xml:space="preserve" y="-353.489" stroke="none">gdx:SearchService</text>
          </g>
        </g>
      </a>
    </g>
    <g id="y.node.14">
      <a target="_blank" xlink:type="simple" xlink:href="https://geodex.org/voc/SubmissionService" xlink:show="new">
        <g fill="yellow" text-rendering="geometricPrecision" shape-rendering="geometricPrecision" transform="matrix(1,0,0,1,-148,638)" stroke="yellow">
          <ellipse rx="73.709" ry="17.5827" cx="972.7732" cy="-312.0528" stroke="none"/>
        </g>
        <g text-rendering="geometricPrecision" stroke-miterlimit="1.45" shape-rendering="geometricPrecision" transform="matrix(1,0,0,1,-148,638)" stroke-linecap="butt">
          <ellipse rx="73.709" fill="none" ry="17.5827" cx="972.7732" cy="-312.0528"/>
        </g>
        <g>
          <g text-rendering="geometricPrecision" stroke-miterlimit="1.45" shape-rendering="geometricPrecision" font-family="sans-serif" transform="matrix(1,0,0,1,-148,638)" stroke-linecap="butt">
            <text x="906.0642" xml:space="preserve" y="-307.5177" stroke="none">gdx:SubmissionService</text>
          </g>
        </g>
      </a>
    </g>
    <g id="y.node.15">
      <a target="_blank" xlink:type="simple" xlink:href="https://geodex.org/voc/SyndicationService" xlink:show="new">
        <g fill="yellow" text-rendering="geometricPrecision" shape-rendering="geometricPrecision" transform="matrix(1,0,0,1,-148,638)" stroke="yellow">
          <ellipse rx="73.7559" ry="17.5827" cx="972.8201" cy="-266.0815" stroke="none"/>
        </g>
        <g text-rendering="geometricPrecision" stroke-miterlimit="1.45" shape-rendering="geometricPrecision" transform="matrix(1,0,0,1,-148,638)" stroke-linecap="butt">
          <ellipse rx="73.7559" fill="none" ry="17.5827" cx="972.8201" cy="-266.0815"/>
        </g>
        <g>
          <g text-rendering="geometricPrecision" stroke-miterlimit="1.45" shape-rendering="geometricPrecision" font-family="sans-serif" transform="matrix(1,0,0,1,-148,638)" stroke-linecap="butt">
            <text x="906.0642" xml:space="preserve" y="-261.5463" stroke="none">gdx:SyndicationService</text>
          </g>
        </g>
      </a>
    </g>
    <g id="y.node.16">
      <a target="_blank" xlink:type="simple" xlink:href="https://geodex.org/voc/ResearchRepositoryService" xlink:show="new">
        <g fill="rgb(255,204,0)" text-rendering="geometricPrecision" shape-rendering="geometricPrecision" transform="matrix(1,0,0,1,-148,638)" stroke="rgb(255,204,0)">
          <rect x="819.8574" width="194.791" height="30" y="-598.1885" stroke="none"/>
        </g>
        <g text-rendering="geometricPrecision" stroke-miterlimit="1.45" shape-rendering="geometricPrecision" transform="matrix(1,0,0,1,-148,638)" stroke-linecap="butt">
          <rect fill="none" x="819.8574" width="194.791" height="30" y="-598.1885"/>
        </g>
        <g>
          <g text-rendering="geometricPrecision" stroke-miterlimit="1.45" shape-rendering="geometricPrecision" font-family="sans-serif" transform="matrix(1,0,0,1,-148,638)" stroke-linecap="butt">
            <text x="826.8574" xml:space="preserve" y="-578.6533" stroke="none">gdx:ResearchRepositoryService</text>
          </g>
        </g>
      </a>
    </g>
    <g id="y.node.17">
      <a target="_blank" xlink:type="simple" xlink:href="http://schema.org/Dataset" xlink:show="new">
        <g fill="rgb(204,255,204)" text-rendering="geometricPrecision" shape-rendering="geometricPrecision" transform="matrix(1,0,0,1,-148,638)" stroke="rgb(204,255,204)">
          <rect x="684.031" width="106.0449" height="30" y="-243.7115" stroke="none"/>
        </g>
        <g text-rendering="geometricPrecision" stroke-miterlimit="1.45" shape-rendering="geometricPrecision" transform="matrix(1,0,0,1,-148,638)" stroke-linecap="butt">
          <rect fill="none" x="684.031" width="106.0449" height="30" y="-243.7115"/>
        </g>
        <g>
          <g text-rendering="geometricPrecision" stroke-miterlimit="1.45" shape-rendering="geometricPrecision" font-family="sans-serif" transform="matrix(1,0,0,1,-148,638)" stroke-linecap="butt">
            <text x="691.031" xml:space="preserve" y="-224.1764" stroke="none">schema:Dataset</text>
          </g>
        </g>
      </a>
    </g>
    <g id="y.node.18">
      <a target="_blank" xlink:type="simple" xlink:href="http://schema.org/DataCatalog" xlink:show="new">
        <g fill="rgb(204,255,204)" text-rendering="geometricPrecision" shape-rendering="geometricPrecision" transform="matrix(1,0,0,1,-148,638)" stroke="rgb(204,255,204)">
          <rect x="684.031" width="133.1211" height="30" y="-198.9934" stroke="none"/>
        </g>
        <g text-rendering="geometricPrecision" stroke-miterlimit="1.45" shape-rendering="geometricPrecision" transform="matrix(1,0,0,1,-148,638)" stroke-linecap="butt">
          <rect fill="none" x="684.031" width="133.1211" height="30" y="-198.9934"/>
        </g>
        <g>
          <g text-rendering="geometricPrecision" stroke-miterlimit="1.45" shape-rendering="geometricPrecision" font-family="sans-serif" transform="matrix(1,0,0,1,-148,638)" stroke-linecap="butt">
            <text x="691.031" xml:space="preserve" y="-179.4582" stroke="none">schema:DataCatalog</text>
          </g>
        </g>
      </a>
    </g>
    <g id="y.node.19">
      <a target="_blank" xlink:type="simple" xlink:href="http://schema.org/Service" xlink:show="new">
        <g fill="rgb(204,255,204)" text-rendering="geometricPrecision" shape-rendering="geometricPrecision" transform="matrix(1,0,0,1,-148,638)" stroke="rgb(204,255,204)">
          <rect x="776.1387" width="102.5938" height="30" y="-435.6069" stroke="none"/>
        </g>
        <g text-rendering="geometricPrecision" stroke-miterlimit="1.45" shape-rendering="geometricPrecision" transform="matrix(1,0,0,1,-148,638)" stroke-linecap="butt">
          <rect fill="none" x="776.1387" width="102.5938" height="30" y="-435.6069"/>
        </g>
        <g>
          <g text-rendering="geometricPrecision" stroke-miterlimit="1.45" shape-rendering="geometricPrecision" font-family="sans-serif" transform="matrix(1,0,0,1,-148,638)" stroke-linecap="butt">
            <text x="783.1387" xml:space="preserve" y="-416.0717" stroke="none">schema:Service</text>
          </g>
        </g>
      </a>
    </g>
    <g id="y.edge.0">
      <g text-rendering="geometricPrecision" stroke-miterlimit="1.45" shape-rendering="geometricPrecision" transform="matrix(1,0,0,1,-148,638)" stroke-linecap="butt">
        <path fill="none" d="M656 -568.2307 L656 -408.7958"/>
        <path d="M656 -400.7958 L661 -412.7958 L656 -409.7958 L651 -412.7958 Z" stroke="none"/>
      </g>
      <g>
        <g text-rendering="geometricPrecision" stroke-miterlimit="1.45" shape-rendering="geometricPrecision" font-family="sans-serif" transform="matrix(1,0,0,1,-148,638)" stroke-linecap="butt">
          <text x="505.1712" xml:space="preserve" y="-417.4648" stroke="none">schema:hasOfferCatalog</text>
        </g>
      </g>
    </g>
    <g id="y.edge.1">
      <g text-rendering="geometricPrecision" stroke-miterlimit="1.45" shape-rendering="geometricPrecision" transform="matrix(1,0,0,1,-148,638)" stroke-linecap="butt">
        <path fill="none" d="M670.4341 -568.1724 L670.4341 -506.5782 L720.7239 -506.5782"/>
        <path d="M728.7239 -506.5782 L716.7239 -511.5782 L719.7239 -506.5782 L716.7239 -501.5782 Z" stroke="none"/>
      </g>
      <g>
        <g text-rendering="geometricPrecision" stroke-miterlimit="1.45" shape-rendering="geometricPrecision" font-family="sans-serif" transform="matrix(1,0,0,1,-148,638)" stroke-linecap="butt">
          <text x="680.064" xml:space="preserve" y="-535.2764" stroke="none">schema:availableChannel</text>
        </g>
      </g>
    </g>
    <g id="y.edge.2">
      <g text-rendering="geometricPrecision" stroke-miterlimit="1.45" shape-rendering="geometricPrecision" transform="matrix(1,0,0,1,-148,638)" stroke-linecap="butt">
        <path fill="none" d="M309.1679 -240.7998 L248.7012 -240.7998 L248.7012 -288.3785"/>
        <path d="M317.1679 -240.7998 L305.1679 -245.7998 L308.1679 -240.7998 L305.1679 -235.7998 Z" stroke="none"/>
      </g>
      <g>
        <g text-rendering="geometricPrecision" stroke-miterlimit="1.45" shape-rendering="geometricPrecision" font-family="sans-serif" transform="matrix(1,0,0,1,-148,638)" stroke-linecap="butt">
          <text x="255.9043" xml:space="preserve" y="-269.4648" stroke="none">schema:additionalType</text>
        </g>
      </g>
    </g>
    <g id="y.edge.4">
      <g text-rendering="geometricPrecision" stroke-miterlimit="1.45" shape-rendering="geometricPrecision" transform="matrix(1,0,0,1,-148,638)" stroke-linecap="butt">
        <path fill="none" d="M313.3965 -95.2687 L248.7012 -95.2687 L248.7012 -288.3684"/>
        <path d="M321.3965 -95.2687 L309.3965 -100.2687 L312.3965 -95.2687 L309.3965 -90.2687 Z" stroke="none"/>
      </g>
      <g/>
    </g>
    <g id="y.edge.10">
      <g text-rendering="geometricPrecision" stroke-miterlimit="1.45" shape-rendering="geometricPrecision" transform="matrix(1,0,0,1,-148,638)" stroke-linecap="butt">
        <path fill="none" d="M313.7579 -143.4733 L248.7012 -143.4733 L248.7012 -288.352"/>
        <path d="M321.7579 -143.4733 L309.7579 -148.4733 L312.7579 -143.4733 L309.7579 -138.4733 Z" stroke="none"/>
      </g>
      <g/>
    </g>
    <g id="y.edge.11">
      <g text-rendering="geometricPrecision" stroke-miterlimit="1.45" shape-rendering="geometricPrecision" transform="matrix(1,0,0,1,-148,638)" stroke-linecap="butt">
        <path fill="none" d="M307.8965 -192.5952 L248.7012 -192.5952 L248.7012 -288.371"/>
        <path d="M315.8965 -192.5952 L303.8965 -197.5952 L306.8965 -192.5952 L303.8965 -187.5952 Z" stroke="none"/>
      </g>
      <g/>
    </g>
    <g id="y.edge.3">
      <g text-rendering="geometricPrecision" stroke-miterlimit="1.45" shape-rendering="geometricPrecision" transform="matrix(1,0,0,1,-148,638)" stroke-linecap="butt">
        <path fill="none" d="M310.8965 -50.5641 L248.7012 -50.5641 L248.7012 -288.3529"/>
        <path d="M318.8965 -50.5641 L306.8965 -55.5641 L309.8965 -50.5641 L306.8965 -45.5641 Z" stroke="none"/>
      </g>
      <g/>
    </g>
    <g id="y.edge.5">
      <g text-rendering="geometricPrecision" stroke-miterlimit="1.45" shape-rendering="geometricPrecision" transform="matrix(1,0,0,1,-148,638)" stroke-linecap="butt">
        <path fill="none" d="M619.3177 -370.7945 L619.3177 -323.2849"/>
        <path d="M619.3177 -315.2849 L624.3177 -327.2849 L619.3177 -324.2849 L614.3177 -327.2849 Z" stroke="none"/>
      </g>
      <g>
        <g text-rendering="geometricPrecision" stroke-miterlimit="1.45" shape-rendering="geometricPrecision" font-family="sans-serif" transform="matrix(1,0,0,1,-148,638)" stroke-linecap="butt">
          <text x="622.9212" xml:space="preserve" y="-336.4648" stroke="none">schema:itemListElement</text>
        </g>
      </g>
    </g>
    <g id="y.edge.13">
      <g text-rendering="geometricPrecision" stroke-miterlimit="1.45" shape-rendering="geometricPrecision" transform="matrix(1,0,0,1,-148,638)" stroke-linecap="butt">
        <path fill="none" d="M561.6426 -303.3825 L395.872 -303.3825"/>
        <path d="M387.872 -303.3825 L399.872 -298.3825 L396.872 -303.3825 L399.872 -308.3825 Z" stroke="none"/>
      </g>
      <g>
        <g text-rendering="geometricPrecision" stroke-miterlimit="1.45" shape-rendering="geometricPrecision" font-family="sans-serif" transform="matrix(1,0,0,1,-148,638)" stroke-linecap="butt">
          <text x="394.3125" xml:space="preserve" y="-321.9648" stroke="none">schema:publishingPrinciples</text>
        </g>
      </g>
    </g>
    <g id="y.edge.6">
      <g text-rendering="geometricPrecision" stroke-miterlimit="1.45" shape-rendering="geometricPrecision" transform="matrix(1,0,0,1,-148,638)" stroke-linecap="butt">
        <path fill="none" d="M573.7155 -585 L348.9522 -585"/>
        <path d="M340.9522 -585 L352.9522 -580 L349.9522 -585 L352.9522 -590 Z" stroke="none"/>
      </g>
      <g>
        <g text-rendering="geometricPrecision" stroke-miterlimit="1.45" shape-rendering="geometricPrecision" font-family="sans-serif" transform="matrix(1,0,0,1,-148,638)" stroke-linecap="butt">
          <text x="392.1978" xml:space="preserve" y="-591.2764" stroke="none">schema:provider</text>
        </g>
      </g>
    </g>
    <g id="y.edge.12">
      <g text-rendering="geometricPrecision" stroke-miterlimit="1.45" shape-rendering="geometricPrecision" transform="matrix(1,0,0,1,-148,638)" stroke-linecap="butt">
        <path fill="none" d="M318.8004 -568.194 L318.8004 -326.4139"/>
        <path d="M318.8004 -318.4139 L323.8004 -330.4139 L318.8004 -327.4139 L313.8004 -330.4139 Z" stroke="none"/>
      </g>
      <g>
        <g text-rendering="geometricPrecision" stroke-miterlimit="1.45" shape-rendering="geometricPrecision" font-family="sans-serif" transform="matrix(1,0,0,1,-148,638)" stroke-linecap="butt">
          <text x="324.9183" xml:space="preserve" y="-364.0329" stroke="none">schema:publishingPrinciples</text>
        </g>
      </g>
    </g>
    <g id="y.edge.7">
      <g text-rendering="geometricPrecision" stroke-miterlimit="1.45" shape-rendering="geometricPrecision" transform="matrix(1,0,0,1,-148,638)" stroke-linecap="butt">
        <path fill="none" d="M329.833 -568.1881 L329.833 -506.5782 L447.2996 -506.5782"/>
        <path d="M455.2996 -506.5782 L443.2996 -511.5782 L446.2996 -506.5782 L443.2996 -501.5782 Z" stroke="none"/>
      </g>
      <g>
        <g text-rendering="geometricPrecision" stroke-miterlimit="1.45" shape-rendering="geometricPrecision" font-family="sans-serif" transform="matrix(1,0,0,1,-148,638)" stroke-linecap="butt">
          <text x="351.7607" xml:space="preserve" y="-519.9648" stroke="none">schema:funder</text>
        </g>
      </g>
    </g>
    <g id="y.edge.8">
      <g text-rendering="geometricPrecision" stroke-miterlimit="1.45" shape-rendering="geometricPrecision" transform="matrix(1,0,0,1,-148,638)" stroke-linecap="butt">
        <path fill="none" d="M298.8004 -568.2178 L298.8004 -467.1357"/>
        <path d="M298.8004 -459.1357 L303.8004 -471.1357 L298.8004 -468.1357 L293.8004 -471.1357 Z" stroke="none"/>
      </g>
      <g>
        <g text-rendering="geometricPrecision" stroke-miterlimit="1.45" shape-rendering="geometricPrecision" font-family="sans-serif" transform="matrix(1,0,0,1,-148,638)" stroke-linecap="butt">
          <text x="165.9268" xml:space="preserve" y="-477.4648" stroke="none">schema:contactPoint</text>
        </g>
      </g>
    </g>
    <g id="y.edge.18">
      <g text-rendering="geometricPrecision" stroke-miterlimit="1.45" shape-rendering="geometricPrecision" transform="matrix(1,0,0,1,-148,638)" stroke-linecap="butt">
        <path fill="none" d="M676.2729 -583.1885 L811.8574 -583.1885"/>
        <path d="M819.8574 -583.1885 L807.8574 -588.1885 L810.8574 -583.1885 L807.8574 -578.1885 Z" stroke="none"/>
      </g>
      <g>
        <g text-rendering="geometricPrecision" stroke-miterlimit="1.45" shape-rendering="geometricPrecision" font-family="sans-serif" transform="matrix(1,0,0,1,-148,638)" stroke-linecap="butt">
          <text x="680.9695" xml:space="preserve" y="-608.6533" stroke="none">schema:additionalType</text>
        </g>
      </g>
    </g>
    <g id="y.edge.16">
      <g text-rendering="geometricPrecision" stroke-miterlimit="1.45" stroke-dasharray="6,2" shape-rendering="geometricPrecision" transform="matrix(1,0,0,1,-148,638)" stroke-linecap="butt">
        <path fill="none" d="M684.031 -228.7115 L631.1238 -228.7115 L631.1238 -270.2614"/>
        <path fill="white" d="M631.1238 -285.2614 L625.1238 -269.2614 L637.1238 -269.2614 Z" stroke="none"/>
        <path stroke-dasharray="none" fill="none" d="M631.1238 -285.2614 L625.1238 -269.2614 L637.1238 -269.2614 Z"/>
      </g>
      <g>
        <g text-rendering="geometricPrecision" stroke-miterlimit="1.45" shape-rendering="geometricPrecision" font-family="sans-serif" transform="matrix(1,0,0,1,-148,638)" stroke-linecap="butt">
          <text x="669.4407" xml:space="preserve" y="-261.1764" stroke="none">rdfs:subClassOf</text>
        </g>
      </g>
    </g>
    <g id="y.edge.17">
      <g text-rendering="geometricPrecision" stroke-miterlimit="1.45" stroke-dasharray="6,2" shape-rendering="geometricPrecision" transform="matrix(1,0,0,1,-148,638)" stroke-linecap="butt">
        <path fill="none" d="M684.031 -183.9934 L631.1238 -183.9934 L631.1238 -270.2786"/>
        <path fill="white" d="M631.1238 -285.2786 L625.1238 -269.2786 L637.1238 -269.2786 Z" stroke="none"/>
        <path stroke-dasharray="none" fill="none" d="M631.1238 -285.2786 L625.1238 -269.2786 L637.1238 -269.2786 Z"/>
      </g>
      <g/>
    </g>
    <g id="y.edge.9">
      <g text-rendering="geometricPrecision" stroke-miterlimit="1.45" shape-rendering="geometricPrecision" transform="matrix(1,0,0,1,-148,638)" stroke-linecap="butt">
        <path fill="none" d="M891.076 -312.0528 L830.4138 -312.0528 L830.4138 -405.5715"/>
        <path d="M899.076 -312.0528 L887.076 -317.0528 L890.076 -312.0528 L887.076 -307.0528 Z" stroke="none"/>
      </g>
      <g/>
    </g>
    <g id="y.edge.14">
      <g text-rendering="geometricPrecision" stroke-miterlimit="1.45" shape-rendering="geometricPrecision" transform="matrix(1,0,0,1,-148,638)" stroke-linecap="butt">
        <path fill="none" d="M891.0642 -358.0242 L830.4138 -358.0242 L830.4138 -405.6016"/>
        <path d="M899.0642 -358.0242 L887.0642 -363.0242 L890.0642 -358.0242 L887.0642 -353.0242 Z" stroke="none"/>
      </g>
      <g>
        <g text-rendering="geometricPrecision" stroke-miterlimit="1.45" shape-rendering="geometricPrecision" font-family="sans-serif" transform="matrix(1,0,0,1,-148,638)" stroke-linecap="butt">
          <text x="838.2376" xml:space="preserve" y="-383.4648" stroke="none">schema:additionalType</text>
        </g>
      </g>
    </g>
    <g id="y.edge.15">
      <g text-rendering="geometricPrecision" stroke-miterlimit="1.45" shape-rendering="geometricPrecision" transform="matrix(1,0,0,1,-148,638)" stroke-linecap="butt">
        <path fill="none" d="M891.0642 -266.0815 L830.4138 -266.0815 L830.4138 -405.6016"/>
        <path d="M899.0642 -266.0815 L887.0642 -271.0815 L890.0642 -266.0815 L887.0642 -261.0815 Z" stroke="none"/>
      </g>
      <g/>
    </g>
    <g id="y.edge.19">
      <g text-rendering="geometricPrecision" stroke-miterlimit="1.45" shape-rendering="geometricPrecision" transform="matrix(1,0,0,1,-148,638)" stroke-linecap="butt">
        <path fill="none" d="M803.7227 -491.5782 L803.7227 -443.612"/>
        <path d="M803.7227 -435.612 L808.7227 -447.612 L803.7227 -444.612 L798.7227 -447.612 Z" stroke="none"/>
      </g>
      <g>
        <g text-rendering="geometricPrecision" stroke-miterlimit="1.45" shape-rendering="geometricPrecision" font-family="sans-serif" transform="matrix(1,0,0,1,-148,638)" stroke-linecap="butt">
          <text x="813.4912" xml:space="preserve" y="-455.0574" stroke="none">schema:providesService</text>
        </g>
      </g>
    </g>
  </g>
</svg>
