<?xml version="1.0" encoding="UTF-8"?><svg xmlns="http://www.w3.org/2000/svg" xmlns:xlink="http://www.w3.org/1999/xlink" fill-opacity="1" color-rendering="auto" color-interpolation="auto" text-rendering="auto" stroke="black" stroke-linecap="square" width="707" stroke-miterlimit="10" shape-rendering="auto" stroke-opacity="1" fill="black" stroke-dasharray="none" font-weight="normal" stroke-width="1" height="377" font-family="'Dialog'" font-style="normal" stroke-linejoin="miter" font-size="12px" stroke-dashoffset="0" image-rendering="auto">
  <!--Generated by ySVG 2.5-->
  <defs id="genericDefs"/>
  <g>
    <defs id="defs1">
      <clipPath clipPathUnits="userSpaceOnUse" id="clipPath1">
        <path d="M0 0 L707 0 L707 377 L0 377 L0 0 Z"/>
      </clipPath>
      <clipPath clipPathUnits="userSpaceOnUse" id="clipPath2">
        <path d="M323 -638 L1030 -638 L1030 -261 L323 -261 L323 -638 Z"/>
      </clipPath>
    </defs>
    <g fill="white" text-rendering="geometricPrecision" shape-rendering="geometricPrecision" transform="translate(-323,638)" stroke="white">
      <rect x="323" width="707" height="377" y="-638" clip-path="url(#clipPath2)" stroke="none"/>
    </g>
    <g id="y.node.0">
      <a target="_blank" xlink:type="simple" xlink:href="http://schema.org/Service" xlink:show="new">
        <g fill="rgb(204,255,204)" text-rendering="geometricPrecision" shape-rendering="geometricPrecision" transform="matrix(1,0,0,1,-323,638)" stroke="rgb(204,255,204)">
          <rect x="573.6792" width="102.5938" height="30" y="-598.1885" stroke="none"/>
        </g>
        <g text-rendering="geometricPrecision" stroke-miterlimit="1.45" shape-rendering="geometricPrecision" transform="matrix(1,0,0,1,-323,638)" stroke-linecap="butt">
          <rect fill="none" x="573.6792" width="102.5938" height="30" y="-598.1885"/>
        </g>
        <g>
          <g text-rendering="geometricPrecision" stroke-miterlimit="1.45" shape-rendering="geometricPrecision" font-family="sans-serif" transform="matrix(1,0,0,1,-323,638)" stroke-linecap="butt">
            <text x="580.6792" xml:space="preserve" y="-578.6533" stroke="none">schema:Service</text>
          </g>
        </g>
      </a>
    </g>
    <g id="y.node.1">
      <a target="_blank" xlink:type="simple" xlink:href="https://geodex.org/voc/ResearchRepositoryService" xlink:show="new">
        <g fill="rgb(255,204,0)" text-rendering="geometricPrecision" shape-rendering="geometricPrecision" transform="matrix(1,0,0,1,-323,638)" stroke="rgb(255,204,0)">
          <rect x="819.8574" width="194.791" height="30" y="-598.1885" stroke="none"/>
        </g>
        <g text-rendering="geometricPrecision" stroke-miterlimit="1.45" shape-rendering="geometricPrecision" transform="matrix(1,0,0,1,-323,638)" stroke-linecap="butt">
          <rect fill="none" x="819.8574" width="194.791" height="30" y="-598.1885"/>
        </g>
        <g>
          <g text-rendering="geometricPrecision" stroke-miterlimit="1.45" shape-rendering="geometricPrecision" font-family="sans-serif" transform="matrix(1,0,0,1,-323,638)" stroke-linecap="butt">
            <text x="826.8574" xml:space="preserve" y="-578.6533" stroke="none">gdx:ResearchRepositoryService</text>
          </g>
        </g>
      </a>
    </g>
    <g id="y.node.2">
      <g fill="rgb(0,204,255)" text-rendering="geometricPrecision" shape-rendering="geometricPrecision" transform="matrix(1,0,0,1,-323,638)" stroke="rgb(0,204,255)">
        <ellipse rx="20.0605" ry="15" cx="358.5255" cy="-519.5636" stroke="none"/>
      </g>
      <g text-rendering="geometricPrecision" stroke-miterlimit="1.45" shape-rendering="geometricPrecision" transform="matrix(1,0,0,1,-323,638)" stroke-linecap="butt">
        <ellipse rx="20.0605" fill="none" ry="15" cx="358.5255" cy="-519.5636"/>
      </g>
      <g>
        <g text-rendering="geometricPrecision" stroke-miterlimit="1.45" shape-rendering="geometricPrecision" font-family="sans-serif" transform="matrix(1,0,0,1,-323,638)" stroke-linecap="butt">
          <text x="345.465" xml:space="preserve" y="-515.0284" stroke="none">Text</text>
        </g>
      </g>
    </g>
    <g id="y.node.3">
      <g fill="rgb(0,204,255)" text-rendering="geometricPrecision" shape-rendering="geometricPrecision" transform="matrix(1,0,0,1,-323,638)" stroke="rgb(0,204,255)">
        <ellipse rx="18.1504" ry="15" cx="358.5255" cy="-477.5636" stroke="none"/>
      </g>
      <g text-rendering="geometricPrecision" stroke-miterlimit="1.45" shape-rendering="geometricPrecision" transform="matrix(1,0,0,1,-323,638)" stroke-linecap="butt">
        <ellipse rx="18.1504" fill="none" ry="15" cx="358.5255" cy="-477.5636"/>
      </g>
      <g>
        <g text-rendering="geometricPrecision" stroke-miterlimit="1.45" shape-rendering="geometricPrecision" font-family="sans-serif" transform="matrix(1,0,0,1,-323,638)" stroke-linecap="butt">
          <text x="347.3752" xml:space="preserve" y="-473.0284" stroke="none">URL</text>
        </g>
      </g>
    </g>
    <g id="y.node.4">
      <a target="_blank" xlink:type="simple" xlink:href="http://www.sparontologies.net/ontologies/datacite/source.html#Identifier" xlink:show="new">
        <g fill="rgb(255,204,0)" text-rendering="geometricPrecision" shape-rendering="geometricPrecision" transform="matrix(1,0,0,1,-323,638)" stroke="rgb(255,204,0)">
          <rect x="867.8223" width="146.8262" height="41" y="-485.1288" stroke="none"/>
        </g>
        <g text-rendering="geometricPrecision" stroke-miterlimit="1.45" shape-rendering="geometricPrecision" transform="matrix(1,0,0,1,-323,638)" stroke-linecap="butt">
          <rect fill="none" x="867.8223" width="146.8262" height="41" y="-485.1288"/>
        </g>
        <g>
          <g text-rendering="geometricPrecision" stroke-miterlimit="1.45" shape-rendering="geometricPrecision" font-family="sans-serif" transform="matrix(1,0,0,1,-323,638)" stroke-linecap="butt">
            <text x="888.1084" xml:space="preserve" y="-467.16" stroke="none">datacite:Identifier,</text>
            <text x="891.5801" xml:space="preserve" y="-453.0272" stroke="none">geolink:Identifier</text>
          </g>
        </g>
      </a>
    </g>
    <g id="y.node.5">
      <a target="_blank" xlink:type="simple" xlink:href="https://schema.org/PropertyValue" xlink:show="new">
        <g fill="rgb(204,255,204)" text-rendering="geometricPrecision" shape-rendering="geometricPrecision" transform="matrix(1,0,0,1,-323,638)" stroke="rgb(204,255,204)">
          <rect x="632.9806" width="142.918" height="30" y="-485.0942" stroke="none"/>
        </g>
        <g text-rendering="geometricPrecision" stroke-miterlimit="1.45" shape-rendering="geometricPrecision" transform="matrix(1,0,0,1,-323,638)" stroke-linecap="butt">
          <rect fill="none" x="632.9806" width="142.918" height="30" y="-485.0942"/>
        </g>
        <g>
          <g text-rendering="geometricPrecision" stroke-miterlimit="1.45" shape-rendering="geometricPrecision" font-family="sans-serif" transform="matrix(1,0,0,1,-323,638)" stroke-linecap="butt">
            <text x="639.9806" xml:space="preserve" y="-465.5591" stroke="none">schema:PropertyValue</text>
          </g>
        </g>
      </a>
    </g>
    <g id="y.node.6">
      <g fill="rgb(0,204,255)" text-rendering="geometricPrecision" shape-rendering="geometricPrecision" transform="matrix(1,0,0,1,-323,638)" stroke="rgb(0,204,255)">
        <ellipse rx="45.6191" ry="20.5" cx="565.6524" cy="-351.5" stroke="none"/>
      </g>
      <g text-rendering="geometricPrecision" stroke-miterlimit="1.45" shape-rendering="geometricPrecision" transform="matrix(1,0,0,1,-323,638)" stroke-linecap="butt">
        <ellipse rx="45.6191" fill="none" ry="20.5" cx="565.6524" cy="-351.5"/>
      </g>
      <g>
        <g text-rendering="geometricPrecision" stroke-miterlimit="1.45" shape-rendering="geometricPrecision" font-family="sans-serif" transform="matrix(1,0,0,1,-323,638)" stroke-linecap="butt">
          <text x="527.0333" xml:space="preserve" y="-346.9648" stroke="none">"datacite:doi"</text>
        </g>
      </g>
    </g>
    <g id="y.node.7">
      <g fill="rgb(0,204,255)" text-rendering="geometricPrecision" shape-rendering="geometricPrecision" transform="matrix(1,0,0,1,-323,638)" stroke="rgb(0,204,255)">
        <ellipse rx="20.0605" ry="15" cx="717.4396" cy="-291.0691" stroke="none"/>
      </g>
      <g text-rendering="geometricPrecision" stroke-miterlimit="1.45" shape-rendering="geometricPrecision" transform="matrix(1,0,0,1,-323,638)" stroke-linecap="butt">
        <ellipse rx="20.0605" fill="none" ry="15" cx="717.4396" cy="-291.0691"/>
      </g>
      <g>
        <g text-rendering="geometricPrecision" stroke-miterlimit="1.45" shape-rendering="geometricPrecision" font-family="sans-serif" transform="matrix(1,0,0,1,-323,638)" stroke-linecap="butt">
          <text x="704.379" xml:space="preserve" y="-286.5339" stroke="none">Text</text>
        </g>
      </g>
    </g>
    <g id="y.node.8">
      <g fill="rgb(0,204,255)" text-rendering="geometricPrecision" shape-rendering="geometricPrecision" transform="matrix(1,0,0,1,-323,638)" stroke="rgb(0,204,255)">
        <ellipse rx="18.1504" ry="15" cx="885.9727" cy="-378.0817" stroke="none"/>
      </g>
      <g text-rendering="geometricPrecision" stroke-miterlimit="1.45" shape-rendering="geometricPrecision" transform="matrix(1,0,0,1,-323,638)" stroke-linecap="butt">
        <ellipse rx="18.1504" fill="none" ry="15" cx="885.9727" cy="-378.0817"/>
      </g>
      <g>
        <g text-rendering="geometricPrecision" stroke-miterlimit="1.45" shape-rendering="geometricPrecision" font-family="sans-serif" transform="matrix(1,0,0,1,-323,638)" stroke-linecap="butt">
          <text x="874.8223" xml:space="preserve" y="-373.5465" stroke="none">URL</text>
        </g>
      </g>
    </g>
    <g id="y.edge.0">
      <g text-rendering="geometricPrecision" stroke-miterlimit="1.45" shape-rendering="geometricPrecision" transform="matrix(1,0,0,1,-323,638)" stroke-linecap="butt">
        <path fill="none" d="M676.2729 -583.1885 L811.8574 -583.1885"/>
        <path d="M819.8574 -583.1885 L807.8574 -588.1885 L810.8574 -583.1885 L807.8574 -578.1885 Z" stroke="none"/>
      </g>
      <g>
        <g text-rendering="geometricPrecision" stroke-miterlimit="1.45" shape-rendering="geometricPrecision" font-family="sans-serif" transform="matrix(1,0,0,1,-323,638)" stroke-linecap="butt">
          <text x="680.9695" xml:space="preserve" y="-608.6533" stroke="none">schema:additionalType</text>
        </g>
      </g>
    </g>
    <g id="y.edge.1">
      <g text-rendering="geometricPrecision" stroke-miterlimit="1.45" shape-rendering="geometricPrecision" transform="matrix(1,0,0,1,-323,638)" stroke-linecap="butt">
        <path fill="none" d="M585.9761 -568.2095 L585.9761 -518.876 L389.7619 -518.876 L389.7619 -519.5636 L386.5861 -519.5636"/>
        <path d="M378.5861 -519.5636 L390.5861 -514.5636 L387.5861 -519.5636 L390.5861 -524.5636 Z" stroke="none"/>
      </g>
      <g>
        <g text-rendering="geometricPrecision" stroke-miterlimit="1.45" shape-rendering="geometricPrecision" font-family="sans-serif" transform="matrix(1,0,0,1,-323,638)" stroke-linecap="butt">
          <text x="411.4854" xml:space="preserve" y="-560.0977" stroke="none">schema:name,</text>
          <text x="411.4854" xml:space="preserve" y="-545.9648" stroke="none">schema:description,</text>
          <text x="411.4854" xml:space="preserve" y="-531.832" stroke="none">schema:category</text>
        </g>
      </g>
    </g>
    <g id="y.edge.4">
      <g text-rendering="geometricPrecision" stroke-miterlimit="1.45" shape-rendering="geometricPrecision" transform="matrix(1,0,0,1,-323,638)" stroke-linecap="butt">
        <path fill="none" d="M597 -568.2061 L597 -477.5636 L384.6759 -477.5636"/>
        <path d="M376.6759 -477.5636 L388.6759 -472.5636 L385.6759 -477.5636 L388.6759 -482.5636 Z" stroke="none"/>
      </g>
      <g>
        <g text-rendering="geometricPrecision" stroke-miterlimit="1.45" shape-rendering="geometricPrecision" font-family="sans-serif" transform="matrix(1,0,0,1,-323,638)" stroke-linecap="butt">
          <text x="410.4736" xml:space="preserve" y="-497.0312" stroke="none">schema:url,</text>
          <text x="410.4736" xml:space="preserve" y="-482.8984" stroke="none">schema:sameAs</text>
        </g>
      </g>
    </g>
    <g id="y.edge.3">
      <g text-rendering="geometricPrecision" stroke-miterlimit="1.45" shape-rendering="geometricPrecision" transform="matrix(1,0,0,1,-323,638)" stroke-linecap="butt">
        <path fill="none" d="M665.2739 -568.2097 L665.2739 -493.1187"/>
        <path d="M665.2739 -485.1187 L670.2739 -497.1187 L665.2739 -494.1187 L660.2739 -497.1187 Z" stroke="none"/>
      </g>
      <g>
        <g text-rendering="geometricPrecision" stroke-miterlimit="1.45" shape-rendering="geometricPrecision" font-family="sans-serif" transform="matrix(1,0,0,1,-323,638)" stroke-linecap="butt">
          <text x="677.6943" xml:space="preserve" y="-535.9648" stroke="none">schema:identifier</text>
        </g>
      </g>
    </g>
    <g id="y.edge.2">
      <g text-rendering="geometricPrecision" stroke-miterlimit="1.45" shape-rendering="geometricPrecision" transform="matrix(1,0,0,1,-323,638)" stroke-linecap="butt">
        <path fill="none" d="M775.8746 -470.0942 L859.8019 -470.0942"/>
        <path d="M867.8019 -470.0942 L855.8019 -475.0942 L858.8019 -470.0942 L855.8019 -465.0942 Z" stroke="none"/>
      </g>
      <g>
        <g text-rendering="geometricPrecision" stroke-miterlimit="1.45" shape-rendering="geometricPrecision" font-family="sans-serif" transform="matrix(1,0,0,1,-323,638)" stroke-linecap="butt">
          <text x="795.291" xml:space="preserve" y="-497.5591" stroke="none">schema:additionalType</text>
        </g>
      </g>
    </g>
    <g id="y.edge.5">
      <g text-rendering="geometricPrecision" stroke-miterlimit="1.45" shape-rendering="geometricPrecision" transform="matrix(1,0,0,1,-323,638)" stroke-linecap="butt">
        <path fill="none" d="M665.2739 -455.0673 L665.2739 -351.5 L619.2773 -351.5"/>
        <path d="M611.2773 -351.5 L623.2773 -346.5 L620.2773 -351.5 L623.2773 -356.5 Z" stroke="none"/>
      </g>
      <g>
        <g text-rendering="geometricPrecision" stroke-miterlimit="1.45" shape-rendering="geometricPrecision" font-family="sans-serif" transform="matrix(1,0,0,1,-323,638)" stroke-linecap="butt">
          <text x="542.8955" xml:space="preserve" y="-383.9648" stroke="none">schema:propertyID</text>
        </g>
      </g>
    </g>
    <g id="y.edge.7">
      <g text-rendering="geometricPrecision" stroke-miterlimit="1.45" shape-rendering="geometricPrecision" transform="matrix(1,0,0,1,-323,638)" stroke-linecap="butt">
        <path fill="none" d="M717.4396 -455.1026 L717.4396 -314.0691"/>
        <path d="M717.4396 -306.0691 L722.4396 -318.0691 L717.4396 -315.0691 L712.4396 -318.0691 Z" stroke="none"/>
      </g>
      <g>
        <g text-rendering="geometricPrecision" stroke-miterlimit="1.45" shape-rendering="geometricPrecision" font-family="sans-serif" transform="matrix(1,0,0,1,-323,638)" stroke-linecap="butt">
          <text x="720.7686" xml:space="preserve" y="-332.9648" stroke="none">schema:value</text>
        </g>
      </g>
    </g>
    <g id="y.edge.6">
      <g text-rendering="geometricPrecision" stroke-miterlimit="1.45" shape-rendering="geometricPrecision" transform="matrix(1,0,0,1,-323,638)" stroke-linecap="butt">
        <path fill="none" d="M766.7059 -455.1332 L766.7059 -378.0817 L859.8223 -378.0817"/>
        <path d="M867.8223 -378.0817 L855.8223 -383.0817 L858.8223 -378.0817 L855.8223 -373.0817 Z" stroke="none"/>
      </g>
      <g>
        <g text-rendering="geometricPrecision" stroke-miterlimit="1.45" shape-rendering="geometricPrecision" font-family="sans-serif" transform="matrix(1,0,0,1,-323,638)" stroke-linecap="butt">
          <text x="777.0752" xml:space="preserve" y="-391.9648" stroke="none">schema:url</text>
        </g>
      </g>
    </g>
  </g>
</svg>
