<?xml version="1.0" encoding="UTF-8"?><svg xmlns="http://www.w3.org/2000/svg" xmlns:xlink="http://www.w3.org/1999/xlink" fill-opacity="1" color-rendering="auto" color-interpolation="auto" text-rendering="auto" stroke="black" stroke-linecap="square" width="767" stroke-miterlimit="10" shape-rendering="auto" stroke-opacity="1" fill="black" stroke-dasharray="none" font-weight="normal" stroke-width="1" height="443" font-family="'Dialog'" font-style="normal" stroke-linejoin="miter" font-size="12px" stroke-dashoffset="0" image-rendering="auto">
  <!--Generated by ySVG 2.5-->
  <defs id="genericDefs"/>
  <g>
    <defs id="defs1">
      <clipPath clipPathUnits="userSpaceOnUse" id="clipPath1">
        <path d="M0 0 L767 0 L767 443 L0 443 L0 0 Z"/>
      </clipPath>
      <clipPath clipPathUnits="userSpaceOnUse" id="clipPath2">
        <path d="M188 -638 L955 -638 L955 -195 L188 -195 L188 -638 Z"/>
      </clipPath>
    </defs>
    <g fill="white" text-rendering="geometricPrecision" shape-rendering="geometricPrecision" transform="translate(-188,638)" stroke="white">
      <rect x="188" width="767" height="443" y="-638" clip-path="url(#clipPath2)" stroke="none"/>
    </g>
    <g id="y.node.0">
      <a target="_blank" xlink:type="simple" xlink:href="http://schema.org/Service" xlink:show="new">
        <g fill="rgb(204,255,204)" text-rendering="geometricPrecision" shape-rendering="geometricPrecision" transform="matrix(1,0,0,1,-188,638)" stroke="rgb(204,255,204)">
          <rect x="498.6792" width="102.5938" height="30" y="-598.1885" stroke="none"/>
        </g>
        <g text-rendering="geometricPrecision" stroke-miterlimit="1.45" shape-rendering="geometricPrecision" transform="matrix(1,0,0,1,-188,638)" stroke-linecap="butt">
          <rect fill="none" x="498.6792" width="102.5938" height="30" y="-598.1885"/>
        </g>
        <g>
          <g text-rendering="geometricPrecision" stroke-miterlimit="1.45" shape-rendering="geometricPrecision" font-family="sans-serif" transform="matrix(1,0,0,1,-188,638)" stroke-linecap="butt">
            <text x="505.6792" xml:space="preserve" y="-578.6533" stroke="none">schema:Service</text>
          </g>
        </g>
      </a>
    </g>
    <g id="y.node.1">
      <a target="_blank" xlink:type="simple" xlink:href="http://schema.org/DigitalDocument" xlink:show="new">
        <g fill="rgb(204,255,204)" text-rendering="geometricPrecision" shape-rendering="geometricPrecision" transform="matrix(1,0,0,1,-188,638)" stroke="rgb(204,255,204)">
          <rect x="276.0464" width="159.793" height="30" y="-493.2855" stroke="none"/>
        </g>
        <g text-rendering="geometricPrecision" stroke-miterlimit="1.45" shape-rendering="geometricPrecision" transform="matrix(1,0,0,1,-188,638)" stroke-linecap="butt">
          <rect fill="none" x="276.0464" width="159.793" height="30" y="-493.2855"/>
        </g>
        <g>
          <g text-rendering="geometricPrecision" stroke-miterlimit="1.45" shape-rendering="geometricPrecision" font-family="sans-serif" transform="matrix(1,0,0,1,-188,638)" stroke-linecap="butt">
            <text x="283.0464" xml:space="preserve" y="-473.7503" stroke="none">schema:DigitalDocument</text>
          </g>
        </g>
      </a>
    </g>
    <g id="y.node.2">
      <a target="_blank" xlink:type="simple" xlink:href="https://geodex.org/voc/Protocol-License" xlink:show="new">
        <g fill="yellow" text-rendering="geometricPrecision" shape-rendering="geometricPrecision" transform="matrix(1,0,0,1,-188,638)" stroke="yellow">
          <ellipse rx="68.9219" ry="17.5827" cx="434.0898" cy="-415.7028" stroke="none"/>
        </g>
        <g text-rendering="geometricPrecision" stroke-miterlimit="1.45" shape-rendering="geometricPrecision" transform="matrix(1,0,0,1,-188,638)" stroke-linecap="butt">
          <ellipse rx="68.9219" fill="none" ry="17.5827" cx="434.0898" cy="-415.7028"/>
        </g>
        <g>
          <g text-rendering="geometricPrecision" stroke-miterlimit="1.45" shape-rendering="geometricPrecision" font-family="sans-serif" transform="matrix(1,0,0,1,-188,638)" stroke-linecap="butt">
            <text x="372.1679" xml:space="preserve" y="-411.1677" stroke="none">gdx:Protocol-License</text>
          </g>
        </g>
      </a>
    </g>
    <g id="y.node.3">
      <a target="_blank" xlink:type="simple" xlink:href="https://geodex.org/voc/Protocol-TermsOfUse" xlink:show="new">
        <g fill="yellow" text-rendering="geometricPrecision" shape-rendering="geometricPrecision" transform="matrix(1,0,0,1,-188,638)" stroke="yellow">
          <ellipse rx="83.125" ry="17.5827" cx="452.5215" cy="-270.1717" stroke="none"/>
        </g>
        <g text-rendering="geometricPrecision" stroke-miterlimit="1.45" shape-rendering="geometricPrecision" transform="matrix(1,0,0,1,-188,638)" stroke-linecap="butt">
          <ellipse rx="83.125" fill="none" ry="17.5827" cx="452.5215" cy="-270.1717"/>
        </g>
        <g>
          <g text-rendering="geometricPrecision" stroke-miterlimit="1.45" shape-rendering="geometricPrecision" font-family="sans-serif" transform="matrix(1,0,0,1,-188,638)" stroke-linecap="butt">
            <text x="376.3965" xml:space="preserve" y="-265.6365" stroke="none">gdx:Protocol-TermsOfUse</text>
          </g>
        </g>
      </a>
    </g>
    <g id="y.node.4">
      <a target="_blank" xlink:type="simple" xlink:href="https://geodex.org/voc/Protocol-ResourceSubmissionPolicy" xlink:show="new">
        <g fill="yellow" text-rendering="geometricPrecision" shape-rendering="geometricPrecision" transform="matrix(1,0,0,1,-188,638)" stroke="yellow">
          <ellipse rx="123.9297" ry="18.5" cx="493.7143" cy="-318.3763" stroke="none"/>
        </g>
        <g text-rendering="geometricPrecision" stroke-miterlimit="1.45" shape-rendering="geometricPrecision" transform="matrix(1,0,0,1,-188,638)" stroke-linecap="butt">
          <ellipse rx="123.9297" fill="none" ry="18.5" cx="493.7143" cy="-318.3763"/>
        </g>
        <g>
          <g text-rendering="geometricPrecision" stroke-miterlimit="1.45" shape-rendering="geometricPrecision" font-family="sans-serif" transform="matrix(1,0,0,1,-188,638)" stroke-linecap="butt">
            <text x="376.7846" xml:space="preserve" y="-313.8411" stroke="none">gdx:Protocol-ResourceSubmissionPolicy</text>
          </g>
        </g>
      </a>
    </g>
    <g id="y.node.5">
      <a target="_blank" xlink:type="simple" xlink:href="https://geodex.org/voc/Protocol-PreservationPolicy" xlink:show="new">
        <g fill="yellow" text-rendering="geometricPrecision" shape-rendering="geometricPrecision" transform="matrix(1,0,0,1,-188,638)" stroke="yellow">
          <ellipse rx="99.9033" ry="18.5" cx="463.7998" cy="-367.4982" stroke="none"/>
        </g>
        <g text-rendering="geometricPrecision" stroke-miterlimit="1.45" shape-rendering="geometricPrecision" transform="matrix(1,0,0,1,-188,638)" stroke-linecap="butt">
          <ellipse rx="99.9033" fill="none" ry="18.5" cx="463.7998" cy="-367.4982"/>
        </g>
        <g>
          <g text-rendering="geometricPrecision" stroke-miterlimit="1.45" shape-rendering="geometricPrecision" font-family="sans-serif" transform="matrix(1,0,0,1,-188,638)" stroke-linecap="butt">
            <text x="370.8965" xml:space="preserve" y="-362.963" stroke="none">gdx:Protocol-PreservationPolicy</text>
          </g>
        </g>
      </a>
    </g>
    <g id="y.node.6">
      <a target="_blank" xlink:type="simple" xlink:href="https://geodex.org/voc/Protocol-Access" xlink:show="new">
        <g fill="yellow" text-rendering="geometricPrecision" shape-rendering="geometricPrecision" transform="matrix(1,0,0,1,-188,638)" stroke="yellow">
          <ellipse rx="67.1934" ry="15" cx="434.0898" cy="-225.4671" stroke="none"/>
        </g>
        <g text-rendering="geometricPrecision" stroke-miterlimit="1.45" shape-rendering="geometricPrecision" transform="matrix(1,0,0,1,-188,638)" stroke-linecap="butt">
          <ellipse rx="67.1934" fill="none" ry="15" cx="434.0898" cy="-225.4671"/>
        </g>
        <g>
          <g text-rendering="geometricPrecision" stroke-miterlimit="1.45" shape-rendering="geometricPrecision" font-family="sans-serif" transform="matrix(1,0,0,1,-188,638)" stroke-linecap="butt">
            <text x="373.8965" xml:space="preserve" y="-220.9319" stroke="none">gdx:Protocol-Access</text>
          </g>
        </g>
      </a>
    </g>
    <g id="y.node.7">
      <a target="_blank" xlink:type="simple" xlink:href="http://schema.org/Organization" xlink:show="new">
        <g fill="rgb(204,255,204)" text-rendering="geometricPrecision" shape-rendering="geometricPrecision" transform="matrix(1,0,0,1,-188,638)" stroke="rgb(204,255,204)">
          <rect x="203.368" width="137.5625" height="30" y="-598.1885" stroke="none"/>
        </g>
        <g text-rendering="geometricPrecision" stroke-miterlimit="1.45" shape-rendering="geometricPrecision" transform="matrix(1,0,0,1,-188,638)" stroke-linecap="butt">
          <rect fill="none" x="203.368" width="137.5625" height="30" y="-598.1885"/>
        </g>
        <g>
          <g text-rendering="geometricPrecision" stroke-miterlimit="1.45" shape-rendering="geometricPrecision" font-family="sans-serif" transform="matrix(1,0,0,1,-188,638)" stroke-linecap="butt">
            <text x="210.368" xml:space="preserve" y="-578.6533" stroke="none">schema:Organization</text>
          </g>
        </g>
      </a>
    </g>
    <g id="y.node.8">
      <a target="_blank" xlink:type="simple" xlink:href="https://geodex.org/voc/ResearchRepositoryService" xlink:show="new">
        <g fill="rgb(255,204,0)" text-rendering="geometricPrecision" shape-rendering="geometricPrecision" transform="matrix(1,0,0,1,-188,638)" stroke="rgb(255,204,0)">
          <rect x="744.8574" width="194.791" height="30" y="-598.1885" stroke="none"/>
        </g>
        <g text-rendering="geometricPrecision" stroke-miterlimit="1.45" shape-rendering="geometricPrecision" transform="matrix(1,0,0,1,-188,638)" stroke-linecap="butt">
          <rect fill="none" x="744.8574" width="194.791" height="30" y="-598.1885"/>
        </g>
        <g>
          <g text-rendering="geometricPrecision" stroke-miterlimit="1.45" shape-rendering="geometricPrecision" font-family="sans-serif" transform="matrix(1,0,0,1,-188,638)" stroke-linecap="butt">
            <text x="751.8574" xml:space="preserve" y="-578.6533" stroke="none">gdx:ResearchRepositoryService</text>
          </g>
        </g>
      </a>
    </g>
    <g id="y.edge.0">
      <g text-rendering="geometricPrecision" stroke-miterlimit="1.45" shape-rendering="geometricPrecision" transform="matrix(1,0,0,1,-188,638)" stroke-linecap="butt">
        <path fill="none" d="M357.1679 -415.7028 L296.7012 -415.7028 L296.7012 -463.2815"/>
        <path d="M365.1679 -415.7028 L353.1679 -420.7028 L356.1679 -415.7028 L353.1679 -410.7028 Z" stroke="none"/>
      </g>
      <g>
        <g text-rendering="geometricPrecision" stroke-miterlimit="1.45" shape-rendering="geometricPrecision" font-family="sans-serif" transform="matrix(1,0,0,1,-188,638)" stroke-linecap="butt">
          <text x="303.9043" xml:space="preserve" y="-444.3678" stroke="none">schema:additionalType</text>
        </g>
      </g>
    </g>
    <g id="y.edge.2">
      <g text-rendering="geometricPrecision" stroke-miterlimit="1.45" shape-rendering="geometricPrecision" transform="matrix(1,0,0,1,-188,638)" stroke-linecap="butt">
        <path fill="none" d="M361.3965 -270.1717 L296.7012 -270.1717 L296.7012 -463.2714"/>
        <path d="M369.3965 -270.1717 L357.3965 -275.1717 L360.3965 -270.1717 L357.3965 -265.1717 Z" stroke="none"/>
      </g>
      <g/>
    </g>
    <g id="y.edge.4">
      <g text-rendering="geometricPrecision" stroke-miterlimit="1.45" shape-rendering="geometricPrecision" transform="matrix(1,0,0,1,-188,638)" stroke-linecap="butt">
        <path fill="none" d="M361.7579 -318.3763 L296.7012 -318.3763 L296.7012 -463.255"/>
        <path d="M369.7579 -318.3763 L357.7579 -323.3763 L360.7579 -318.3763 L357.7579 -313.3763 Z" stroke="none"/>
      </g>
      <g/>
    </g>
    <g id="y.edge.5">
      <g text-rendering="geometricPrecision" stroke-miterlimit="1.45" shape-rendering="geometricPrecision" transform="matrix(1,0,0,1,-188,638)" stroke-linecap="butt">
        <path fill="none" d="M355.8965 -367.4982 L296.7012 -367.4982 L296.7012 -463.274"/>
        <path d="M363.8965 -367.4982 L351.8965 -372.4982 L354.8965 -367.4982 L351.8965 -362.4982 Z" stroke="none"/>
      </g>
      <g/>
    </g>
    <g id="y.edge.1">
      <g text-rendering="geometricPrecision" stroke-miterlimit="1.45" shape-rendering="geometricPrecision" transform="matrix(1,0,0,1,-188,638)" stroke-linecap="butt">
        <path fill="none" d="M358.8965 -225.4671 L296.7012 -225.4671 L296.7012 -463.2559"/>
        <path d="M366.8965 -225.4671 L354.8965 -230.4671 L357.8965 -225.4671 L354.8965 -220.4671 Z" stroke="none"/>
      </g>
      <g/>
    </g>
    <g id="y.edge.3">
      <g text-rendering="geometricPrecision" stroke-miterlimit="1.45" shape-rendering="geometricPrecision" transform="matrix(1,0,0,1,-188,638)" stroke-linecap="butt">
        <path fill="none" d="M498.6607 -585 L348.8958 -585"/>
        <path d="M340.8958 -585 L352.8958 -580 L349.8958 -585 L352.8958 -590 Z" stroke="none"/>
      </g>
      <g>
        <g text-rendering="geometricPrecision" stroke-miterlimit="1.45" shape-rendering="geometricPrecision" font-family="sans-serif" transform="matrix(1,0,0,1,-188,638)" stroke-linecap="butt">
          <text x="367.1572" xml:space="preserve" y="-596.9648" stroke="none">schema:provider</text>
        </g>
      </g>
    </g>
    <g id="y.edge.6">
      <g text-rendering="geometricPrecision" stroke-miterlimit="1.45" shape-rendering="geometricPrecision" transform="matrix(1,0,0,1,-188,638)" stroke-linecap="butt">
        <path fill="none" d="M318.8004 -568.1772 L318.8004 -501.2808"/>
        <path d="M318.8004 -493.2808 L323.8004 -505.2808 L318.8004 -502.2808 L313.8004 -505.2808 Z" stroke="none"/>
      </g>
      <g>
        <g text-rendering="geometricPrecision" stroke-miterlimit="1.45" shape-rendering="geometricPrecision" font-family="sans-serif" transform="matrix(1,0,0,1,-188,638)" stroke-linecap="butt">
          <text x="330.8125" xml:space="preserve" y="-514.9648" stroke="none">schema:publishingPrinciples</text>
        </g>
      </g>
    </g>
    <g id="y.edge.7">
      <g text-rendering="geometricPrecision" stroke-miterlimit="1.45" shape-rendering="geometricPrecision" transform="matrix(1,0,0,1,-188,638)" stroke-linecap="butt">
        <path fill="none" d="M601.2729 -583.1885 L736.8574 -583.1885"/>
        <path d="M744.8574 -583.1885 L732.8574 -588.1885 L735.8574 -583.1885 L732.8574 -578.1885 Z" stroke="none"/>
      </g>
      <g>
        <g text-rendering="geometricPrecision" stroke-miterlimit="1.45" shape-rendering="geometricPrecision" font-family="sans-serif" transform="matrix(1,0,0,1,-188,638)" stroke-linecap="butt">
          <text x="605.9695" xml:space="preserve" y="-608.6533" stroke="none">schema:additionalType</text>
        </g>
      </g>
    </g>
  </g>
</svg>
