<?xml version="1.0" encoding="UTF-8"?><svg xmlns="http://www.w3.org/2000/svg" xmlns:xlink="http://www.w3.org/1999/xlink" fill-opacity="1" color-rendering="auto" color-interpolation="auto" text-rendering="auto" stroke="black" stroke-linecap="square" width="950" stroke-miterlimit="10" shape-rendering="auto" stroke-opacity="1" fill="black" stroke-dasharray="none" font-weight="normal" stroke-width="1" height="549" font-family="'Dialog'" font-style="normal" stroke-linejoin="miter" font-size="12px" stroke-dashoffset="0" image-rendering="auto">
  <!--Generated by ySVG 2.5-->
  <defs id="genericDefs"/>
  <g>
    <defs id="defs1">
      <clipPath clipPathUnits="userSpaceOnUse" id="clipPath1">
        <path d="M0 0 L950 0 L950 549 L0 549 L0 0 Z"/>
      </clipPath>
      <clipPath clipPathUnits="userSpaceOnUse" id="clipPath2">
        <path d="M583 -648 L1533 -648 L1533 -99 L583 -99 L583 -648 Z"/>
      </clipPath>
    </defs>
    <g fill="white" text-rendering="geometricPrecision" shape-rendering="geometricPrecision" transform="translate(-583,648)" stroke="white">
      <rect x="583" width="950" height="549" y="-648" clip-path="url(#clipPath2)" stroke="none"/>
    </g>
    <g id="y.node.0">
      <a target="_blank" xlink:type="simple" xlink:href="http://schema.org/Service" xlink:show="new">
        <g fill="rgb(204,255,204)" text-rendering="geometricPrecision" shape-rendering="geometricPrecision" transform="matrix(1,0,0,1,-583,648)" stroke="rgb(204,255,204)">
          <rect x="625.0916" width="102.5938" height="30" y="-598.1885" stroke="none"/>
        </g>
        <g text-rendering="geometricPrecision" stroke-miterlimit="1.45" shape-rendering="geometricPrecision" transform="matrix(1,0,0,1,-583,648)" stroke-linecap="butt">
          <rect fill="none" x="625.0916" width="102.5938" height="30" y="-598.1885"/>
        </g>
        <g>
          <g text-rendering="geometricPrecision" stroke-miterlimit="1.45" shape-rendering="geometricPrecision" font-family="sans-serif" transform="matrix(1,0,0,1,-583,648)" stroke-linecap="butt">
            <text x="632.0916" xml:space="preserve" y="-578.6533" stroke="none">schema:Service</text>
          </g>
        </g>
      </a>
    </g>
    <g id="y.node.1">
      <a target="_blank" xlink:type="simple" xlink:href="http://schema.org/ServiceChannel" xlink:show="new">
        <g fill="rgb(204,255,204)" text-rendering="geometricPrecision" shape-rendering="geometricPrecision" transform="matrix(1,0,0,1,-583,648)" stroke="rgb(204,255,204)">
          <rect x="728.7129" width="150.0195" height="30" y="-521.5782" stroke="none"/>
        </g>
        <g text-rendering="geometricPrecision" stroke-miterlimit="1.45" shape-rendering="geometricPrecision" transform="matrix(1,0,0,1,-583,648)" stroke-linecap="butt">
          <rect fill="none" x="728.7129" width="150.0195" height="30" y="-521.5782"/>
        </g>
        <g>
          <g text-rendering="geometricPrecision" stroke-miterlimit="1.45" shape-rendering="geometricPrecision" font-family="sans-serif" transform="matrix(1,0,0,1,-583,648)" stroke-linecap="butt">
            <text x="735.7129" xml:space="preserve" y="-502.0431" stroke="none">schema:ServiceChannel</text>
          </g>
        </g>
      </a>
    </g>
    <g id="y.node.2">
      <a target="_blank" xlink:type="simple" xlink:href="https://geodex.org/voc/ResearchRepositoryService" xlink:show="new">
        <g fill="rgb(255,204,0)" text-rendering="geometricPrecision" shape-rendering="geometricPrecision" transform="matrix(1,0,0,1,-583,648)" stroke="rgb(255,204,0)">
          <rect x="855.4328" width="194.791" height="30" y="-598.1885" stroke="none"/>
        </g>
        <g text-rendering="geometricPrecision" stroke-miterlimit="1.45" shape-rendering="geometricPrecision" transform="matrix(1,0,0,1,-583,648)" stroke-linecap="butt">
          <rect fill="none" x="855.4328" width="194.791" height="30" y="-598.1885"/>
        </g>
        <g>
          <g text-rendering="geometricPrecision" stroke-miterlimit="1.45" shape-rendering="geometricPrecision" font-family="sans-serif" transform="matrix(1,0,0,1,-583,648)" stroke-linecap="butt">
            <text x="862.4328" xml:space="preserve" y="-578.6533" stroke="none">gdx:ResearchRepositoryService</text>
          </g>
        </g>
      </a>
    </g>
    <g id="y.node.3">
      <g fill="rgb(0,204,255)" text-rendering="geometricPrecision" shape-rendering="geometricPrecision" transform="matrix(1,0,0,1,-583,648)" stroke="rgb(0,204,255)">
        <ellipse rx="20.0605" ry="15" cx="621.8992" cy="-324.2137" stroke="none"/>
      </g>
      <g text-rendering="geometricPrecision" stroke-miterlimit="1.45" shape-rendering="geometricPrecision" transform="matrix(1,0,0,1,-583,648)" stroke-linecap="butt">
        <ellipse rx="20.0605" fill="none" ry="15" cx="621.8992" cy="-324.2137"/>
      </g>
      <g>
        <g text-rendering="geometricPrecision" stroke-miterlimit="1.45" shape-rendering="geometricPrecision" font-family="sans-serif" transform="matrix(1,0,0,1,-583,648)" stroke-linecap="butt">
          <text x="608.8386" xml:space="preserve" y="-319.6786" stroke="none">Text</text>
        </g>
      </g>
    </g>
    <g id="y.node.4">
      <g fill="rgb(0,204,255)" text-rendering="geometricPrecision" shape-rendering="geometricPrecision" transform="matrix(1,0,0,1,-583,648)" stroke="rgb(0,204,255)">
        <ellipse rx="18.1504" ry="15" cx="616.696" cy="-463.7919" stroke="none"/>
      </g>
      <g text-rendering="geometricPrecision" stroke-miterlimit="1.45" shape-rendering="geometricPrecision" transform="matrix(1,0,0,1,-583,648)" stroke-linecap="butt">
        <ellipse rx="18.1504" fill="none" ry="15" cx="616.696" cy="-463.7919"/>
      </g>
      <g>
        <g text-rendering="geometricPrecision" stroke-miterlimit="1.45" shape-rendering="geometricPrecision" font-family="sans-serif" transform="matrix(1,0,0,1,-583,648)" stroke-linecap="butt">
          <text x="605.5457" xml:space="preserve" y="-459.2568" stroke="none">URL</text>
        </g>
      </g>
    </g>
    <g id="y.node.5">
      <a target="_blank" xlink:type="simple" xlink:href="https://geodex.org/voc/SearchService" xlink:show="new">
        <g fill="yellow" text-rendering="geometricPrecision" shape-rendering="geometricPrecision" transform="matrix(1,0,0,1,-583,648)" stroke="yellow">
          <ellipse rx="59.5205" ry="17.5827" cx="883.8068" cy="-321.631" stroke="none"/>
        </g>
        <g text-rendering="geometricPrecision" stroke-miterlimit="1.45" shape-rendering="geometricPrecision" transform="matrix(1,0,0,1,-583,648)" stroke-linecap="butt">
          <ellipse rx="59.5205" fill="none" ry="17.5827" cx="883.8068" cy="-321.631"/>
        </g>
        <g>
          <g text-rendering="geometricPrecision" stroke-miterlimit="1.45" shape-rendering="geometricPrecision" font-family="sans-serif" transform="matrix(1,0,0,1,-583,648)" stroke-linecap="butt">
            <text x="831.2863" xml:space="preserve" y="-317.0959" stroke="none">gdx:SearchService</text>
          </g>
        </g>
      </a>
    </g>
    <g id="y.node.6">
      <a target="_blank" xlink:type="simple" xlink:href="https://geodex.org/voc/SubmissionService" xlink:show="new">
        <g fill="yellow" text-rendering="geometricPrecision" shape-rendering="geometricPrecision" transform="matrix(1,0,0,1,-583,648)" stroke="yellow">
          <ellipse rx="73.709" ry="17.5827" cx="897.9953" cy="-275.6597" stroke="none"/>
        </g>
        <g text-rendering="geometricPrecision" stroke-miterlimit="1.45" shape-rendering="geometricPrecision" transform="matrix(1,0,0,1,-583,648)" stroke-linecap="butt">
          <ellipse rx="73.709" fill="none" ry="17.5827" cx="897.9953" cy="-275.6597"/>
        </g>
        <g>
          <g text-rendering="geometricPrecision" stroke-miterlimit="1.45" shape-rendering="geometricPrecision" font-family="sans-serif" transform="matrix(1,0,0,1,-583,648)" stroke-linecap="butt">
            <text x="831.2863" xml:space="preserve" y="-271.1245" stroke="none">gdx:SubmissionService</text>
          </g>
        </g>
      </a>
    </g>
    <g id="y.node.7">
      <a target="_blank" xlink:type="simple" xlink:href="https://geodex.org/voc/SyndicationService" xlink:show="new">
        <g fill="yellow" text-rendering="geometricPrecision" shape-rendering="geometricPrecision" transform="matrix(1,0,0,1,-583,648)" stroke="yellow">
          <ellipse rx="73.7559" ry="17.5827" cx="898.0422" cy="-229.6883" stroke="none"/>
        </g>
        <g text-rendering="geometricPrecision" stroke-miterlimit="1.45" shape-rendering="geometricPrecision" transform="matrix(1,0,0,1,-583,648)" stroke-linecap="butt">
          <ellipse rx="73.7559" fill="none" ry="17.5827" cx="898.0422" cy="-229.6883"/>
        </g>
        <g>
          <g text-rendering="geometricPrecision" stroke-miterlimit="1.45" shape-rendering="geometricPrecision" font-family="sans-serif" transform="matrix(1,0,0,1,-583,648)" stroke-linecap="butt">
            <text x="831.2863" xml:space="preserve" y="-225.1532" stroke="none">gdx:SyndicationService</text>
          </g>
        </g>
      </a>
    </g>
    <g id="y.node.8">
      <a target="_blank" xlink:type="simple" xlink:href="http://schema.org/Service" xlink:show="new">
        <g fill="rgb(204,255,204)" text-rendering="geometricPrecision" shape-rendering="geometricPrecision" transform="matrix(1,0,0,1,-583,648)" stroke="rgb(204,255,204)">
          <rect x="752.4258" width="102.5938" height="30" y="-410.1851" stroke="none"/>
        </g>
        <g text-rendering="geometricPrecision" stroke-miterlimit="1.45" shape-rendering="geometricPrecision" transform="matrix(1,0,0,1,-583,648)" stroke-linecap="butt">
          <rect fill="none" x="752.4258" width="102.5938" height="30" y="-410.1851"/>
        </g>
        <g>
          <g text-rendering="geometricPrecision" stroke-miterlimit="1.45" shape-rendering="geometricPrecision" font-family="sans-serif" transform="matrix(1,0,0,1,-583,648)" stroke-linecap="butt">
            <text x="759.4258" xml:space="preserve" y="-390.6499" stroke="none">schema:Service</text>
          </g>
        </g>
      </a>
    </g>
    <g id="y.node.9">
      <a target="_blank" xlink:type="simple" xlink:href="http://schema.org/Service" xlink:show="new">
        <g fill="rgb(204,255,204)" text-rendering="geometricPrecision" shape-rendering="geometricPrecision" transform="matrix(1,0,0,1,-583,648)" stroke="rgb(204,255,204)">
          <rect x="1046.3139" width="99.2246" height="30" y="-410.1851" stroke="none"/>
        </g>
        <g text-rendering="geometricPrecision" stroke-miterlimit="1.45" shape-rendering="geometricPrecision" transform="matrix(1,0,0,1,-583,648)" stroke-linecap="butt">
          <rect fill="none" x="1046.3139" width="99.2246" height="30" y="-410.1851"/>
        </g>
        <g>
          <g text-rendering="geometricPrecision" stroke-miterlimit="1.45" shape-rendering="geometricPrecision" font-family="sans-serif" transform="matrix(1,0,0,1,-583,648)" stroke-linecap="butt">
            <text x="1053.314" xml:space="preserve" y="-390.6499" stroke="none">schema:Action</text>
          </g>
        </g>
      </a>
    </g>
    <g id="y.node.10">
      <a target="_blank" xlink:type="simple" xlink:href="https://schema.org/SearchAction" xlink:show="new">
        <g fill="yellow" text-rendering="geometricPrecision" shape-rendering="geometricPrecision" transform="matrix(1,0,0,1,-583,648)" stroke="yellow">
          <ellipse rx="68.752" ry="17.5827" cx="1115.748" cy="-321.631" stroke="none"/>
        </g>
        <g text-rendering="geometricPrecision" stroke-miterlimit="1.45" shape-rendering="geometricPrecision" transform="matrix(1,0,0,1,-583,648)" stroke-linecap="butt">
          <ellipse rx="68.752" fill="none" ry="17.5827" cx="1115.748" cy="-321.631"/>
        </g>
        <g>
          <g text-rendering="geometricPrecision" stroke-miterlimit="1.45" shape-rendering="geometricPrecision" font-family="sans-serif" transform="matrix(1,0,0,1,-583,648)" stroke-linecap="butt">
            <text x="1053.9961" xml:space="preserve" y="-317.0959" stroke="none">schema:SearchAction</text>
          </g>
        </g>
      </a>
    </g>
    <g id="y.node.11">
      <a target="_blank" xlink:type="simple" xlink:href="https://schema.org/CreateAction" xlink:show="new">
        <g fill="yellow" text-rendering="geometricPrecision" shape-rendering="geometricPrecision" transform="matrix(1,0,0,1,-583,648)" stroke="yellow">
          <ellipse rx="68.4619" ry="17.5827" cx="1116.038" cy="-275.6597" stroke="none"/>
        </g>
        <g text-rendering="geometricPrecision" stroke-miterlimit="1.45" shape-rendering="geometricPrecision" transform="matrix(1,0,0,1,-583,648)" stroke-linecap="butt">
          <ellipse rx="68.4619" fill="none" ry="17.5827" cx="1116.038" cy="-275.6597"/>
        </g>
        <g>
          <g text-rendering="geometricPrecision" stroke-miterlimit="1.45" shape-rendering="geometricPrecision" font-family="sans-serif" transform="matrix(1,0,0,1,-583,648)" stroke-linecap="butt">
            <text x="1054.5762" xml:space="preserve" y="-271.1245" stroke="none">schema:CreateAction</text>
          </g>
        </g>
      </a>
    </g>
    <g id="y.node.12">
      <a target="_blank" xlink:type="simple" xlink:href="https://schema.org/ConsumeAction" xlink:show="new">
        <g fill="yellow" text-rendering="geometricPrecision" shape-rendering="geometricPrecision" transform="matrix(1,0,0,1,-583,648)" stroke="yellow">
          <ellipse rx="76.8994" ry="17.5827" cx="1107.6005" cy="-229.6883" stroke="none"/>
        </g>
        <g text-rendering="geometricPrecision" stroke-miterlimit="1.45" shape-rendering="geometricPrecision" transform="matrix(1,0,0,1,-583,648)" stroke-linecap="butt">
          <ellipse rx="76.8994" fill="none" ry="17.5827" cx="1107.6005" cy="-229.6883"/>
        </g>
        <g>
          <g text-rendering="geometricPrecision" stroke-miterlimit="1.45" shape-rendering="geometricPrecision" font-family="sans-serif" transform="matrix(1,0,0,1,-583,648)" stroke-linecap="butt">
            <text x="1037.7012" xml:space="preserve" y="-225.1532" stroke="none">schema:ConsumeAction</text>
          </g>
        </g>
      </a>
    </g>
    <g id="y.node.13">
      <a target="_blank" xlink:type="simple" xlink:href="https://geodex.org/voc/SitemapXML" xlink:show="new">
        <g fill="yellow" text-rendering="geometricPrecision" shape-rendering="geometricPrecision" transform="matrix(1,0,0,1,-583,648)" stroke="yellow">
          <ellipse rx="55.4629" ry="15" cx="992.8713" cy="-176.1868" stroke="none"/>
        </g>
        <g text-rendering="geometricPrecision" stroke-miterlimit="1.45" shape-rendering="geometricPrecision" transform="matrix(1,0,0,1,-583,648)" stroke-linecap="butt">
          <ellipse rx="55.4629" fill="none" ry="15" cx="992.8713" cy="-176.1868"/>
        </g>
        <g>
          <g text-rendering="geometricPrecision" stroke-miterlimit="1.45" shape-rendering="geometricPrecision" font-family="sans-serif" transform="matrix(1,0,0,1,-583,648)" stroke-linecap="butt">
            <text x="944.4084" xml:space="preserve" y="-171.6516" stroke="none">gdx:SitemapXML</text>
          </g>
        </g>
      </a>
    </g>
    <g id="y.node.14">
      <a target="_blank" xlink:type="simple" xlink:href="http://schema.org/EntryPoint" xlink:show="new">
        <g fill="rgb(204,255,204)" text-rendering="geometricPrecision" shape-rendering="geometricPrecision" transform="matrix(1,0,0,1,-583,648)" stroke="rgb(204,255,204)">
          <rect x="1343.8243" width="121.0508" height="30" y="-342.1868" stroke="none"/>
        </g>
        <g text-rendering="geometricPrecision" stroke-miterlimit="1.45" shape-rendering="geometricPrecision" transform="matrix(1,0,0,1,-583,648)" stroke-linecap="butt">
          <rect fill="none" x="1343.8243" width="121.0508" height="30" y="-342.1868"/>
        </g>
        <g>
          <g text-rendering="geometricPrecision" stroke-miterlimit="1.45" shape-rendering="geometricPrecision" font-family="sans-serif" transform="matrix(1,0,0,1,-583,648)" stroke-linecap="butt">
            <text x="1350.8242" xml:space="preserve" y="-322.6516" stroke="none">schema:EntryPoint</text>
          </g>
        </g>
      </a>
    </g>
    <g id="y.node.15">
      <a target="_blank" xlink:type="simple" xlink:href="https://schema.org/PropertyValueSpecification" xlink:show="new">
        <g fill="rgb(204,255,204)" text-rendering="geometricPrecision" shape-rendering="geometricPrecision" transform="matrix(1,0,0,1,-583,648)" stroke="rgb(204,255,204)">
          <rect x="1086.2986" width="216.6641" height="30" y="-521.5782" stroke="none"/>
        </g>
        <g text-rendering="geometricPrecision" stroke-miterlimit="1.45" shape-rendering="geometricPrecision" transform="matrix(1,0,0,1,-583,648)" stroke-linecap="butt">
          <rect fill="none" x="1086.2986" width="216.6641" height="30" y="-521.5782"/>
        </g>
        <g>
          <g text-rendering="geometricPrecision" stroke-miterlimit="1.45" shape-rendering="geometricPrecision" font-family="sans-serif" transform="matrix(1,0,0,1,-583,648)" stroke-linecap="butt">
            <text x="1093.2986" xml:space="preserve" y="-502.0431" stroke="none">schema:PropertyValueSpecification</text>
          </g>
        </g>
      </a>
    </g>
    <g id="y.node.16">
      <g fill="rgb(0,204,255)" text-rendering="geometricPrecision" shape-rendering="geometricPrecision" transform="matrix(1,0,0,1,-583,648)" stroke="rgb(0,204,255)">
        <ellipse rx="20.0605" ry="15" cx="1106.3591" cy="-617.9714" stroke="none"/>
      </g>
      <g text-rendering="geometricPrecision" stroke-miterlimit="1.45" shape-rendering="geometricPrecision" transform="matrix(1,0,0,1,-583,648)" stroke-linecap="butt">
        <ellipse rx="20.0605" fill="none" ry="15" cx="1106.3591" cy="-617.9714"/>
      </g>
      <g>
        <g text-rendering="geometricPrecision" stroke-miterlimit="1.45" shape-rendering="geometricPrecision" font-family="sans-serif" transform="matrix(1,0,0,1,-583,648)" stroke-linecap="butt">
          <text x="1093.2986" xml:space="preserve" y="-613.4362" stroke="none">Text</text>
        </g>
      </g>
    </g>
    <g id="y.node.17">
      <g fill="rgb(0,204,255)" text-rendering="geometricPrecision" shape-rendering="geometricPrecision" transform="matrix(1,0,0,1,-583,648)" stroke="rgb(0,204,255)">
        <ellipse rx="29.9365" ry="15" cx="1434.9385" cy="-506.5782" stroke="none"/>
      </g>
      <g text-rendering="geometricPrecision" stroke-miterlimit="1.45" shape-rendering="geometricPrecision" transform="matrix(1,0,0,1,-583,648)" stroke-linecap="butt">
        <ellipse rx="29.9365" fill="none" ry="15" cx="1434.9385" cy="-506.5782"/>
      </g>
      <g>
        <g text-rendering="geometricPrecision" stroke-miterlimit="1.45" shape-rendering="geometricPrecision" font-family="sans-serif" transform="matrix(1,0,0,1,-583,648)" stroke-linecap="butt">
          <text x="1412.002" xml:space="preserve" y="-502.0431" stroke="none">Boolean</text>
        </g>
      </g>
    </g>
    <g id="y.node.18">
      <g fill="rgb(0,204,255)" text-rendering="geometricPrecision" shape-rendering="geometricPrecision" transform="matrix(1,0,0,1,-583,648)" stroke="rgb(0,204,255)">
        <ellipse rx="30.332" ry="15" cx="1288.543" cy="-617.9714" stroke="none"/>
      </g>
      <g text-rendering="geometricPrecision" stroke-miterlimit="1.45" shape-rendering="geometricPrecision" transform="matrix(1,0,0,1,-583,648)" stroke-linecap="butt">
        <ellipse rx="30.332" fill="none" ry="15" cx="1288.543" cy="-617.9714"/>
      </g>
      <g>
        <g text-rendering="geometricPrecision" stroke-miterlimit="1.45" shape-rendering="geometricPrecision" font-family="sans-serif" transform="matrix(1,0,0,1,-583,648)" stroke-linecap="butt">
          <text x="1265.2109" xml:space="preserve" y="-613.4362" stroke="none">Number</text>
        </g>
      </g>
    </g>
    <g id="y.node.19">
      <g fill="rgb(0,204,255)" text-rendering="geometricPrecision" shape-rendering="geometricPrecision" transform="matrix(1,0,0,1,-583,648)" stroke="rgb(0,204,255)">
        <ellipse rx="20.0605" ry="15" cx="1363.8848" cy="-246.1876" stroke="none"/>
      </g>
      <g text-rendering="geometricPrecision" stroke-miterlimit="1.45" shape-rendering="geometricPrecision" transform="matrix(1,0,0,1,-583,648)" stroke-linecap="butt">
        <ellipse rx="20.0605" fill="none" ry="15" cx="1363.8848" cy="-246.1876"/>
      </g>
      <g>
        <g text-rendering="geometricPrecision" stroke-miterlimit="1.45" shape-rendering="geometricPrecision" font-family="sans-serif" transform="matrix(1,0,0,1,-583,648)" stroke-linecap="butt">
          <text x="1350.8242" xml:space="preserve" y="-241.6525" stroke="none">Text</text>
        </g>
      </g>
    </g>
    <g id="y.node.20">
      <g fill="rgb(0,204,255)" text-rendering="geometricPrecision" shape-rendering="geometricPrecision" transform="matrix(1,0,0,1,-583,648)" stroke="rgb(0,204,255)">
        <ellipse rx="18.1504" ry="15" cx="1428.8931" cy="-395.1851" stroke="none"/>
      </g>
      <g text-rendering="geometricPrecision" stroke-miterlimit="1.45" shape-rendering="geometricPrecision" transform="matrix(1,0,0,1,-583,648)" stroke-linecap="butt">
        <ellipse rx="18.1504" fill="none" ry="15" cx="1428.8931" cy="-395.1851"/>
      </g>
      <g>
        <g text-rendering="geometricPrecision" stroke-miterlimit="1.45" shape-rendering="geometricPrecision" font-family="sans-serif" transform="matrix(1,0,0,1,-583,648)" stroke-linecap="butt">
          <text x="1417.7427" xml:space="preserve" y="-390.6499" stroke="none">URL</text>
        </g>
      </g>
    </g>
    <g id="y.node.21">
      <a target="_blank" xlink:type="simple" xlink:href="http://schema.org/EntryPoint" xlink:show="new">
        <g fill="rgb(204,255,204)" text-rendering="geometricPrecision" shape-rendering="geometricPrecision" transform="matrix(1,0,0,1,-583,648)" stroke="rgb(204,255,204)">
          <rect x="1207.5056" width="95.457" height="30" y="-191.1868" stroke="none"/>
        </g>
        <g text-rendering="geometricPrecision" stroke-miterlimit="1.45" shape-rendering="geometricPrecision" transform="matrix(1,0,0,1,-583,648)" stroke-linecap="butt">
          <rect fill="none" x="1207.5056" width="95.457" height="30" y="-191.1868"/>
        </g>
        <g>
          <g text-rendering="geometricPrecision" stroke-miterlimit="1.45" shape-rendering="geometricPrecision" font-family="sans-serif" transform="matrix(1,0,0,1,-583,648)" stroke-linecap="butt">
            <text x="1214.5056" xml:space="preserve" y="-171.6516" stroke="none">schema:Thing</text>
          </g>
        </g>
      </a>
    </g>
    <g id="y.node.22">
      <a target="_blank" xlink:type="simple" xlink:href="http://schema.org/EntryPoint" xlink:show="new">
        <g fill="rgb(204,255,204)" text-rendering="geometricPrecision" shape-rendering="geometricPrecision" transform="matrix(1,0,0,1,-583,648)" stroke="rgb(204,255,204)">
          <rect x="1048.3342" width="152.3457" height="30" y="-144.7304" stroke="none"/>
        </g>
        <g text-rendering="geometricPrecision" stroke-miterlimit="1.45" shape-rendering="geometricPrecision" transform="matrix(1,0,0,1,-583,648)" stroke-linecap="butt">
          <rect fill="none" x="1048.3342" width="152.3457" height="30" y="-144.7304"/>
        </g>
        <g>
          <g text-rendering="geometricPrecision" stroke-miterlimit="1.45" shape-rendering="geometricPrecision" font-family="sans-serif" transform="matrix(1,0,0,1,-583,648)" stroke-linecap="butt">
            <text x="1055.3341" xml:space="preserve" y="-125.1952" stroke="none">schema:DigitalDocumet</text>
          </g>
        </g>
      </a>
    </g>
    <g id="y.edge.0">
      <g text-rendering="geometricPrecision" stroke-miterlimit="1.45" shape-rendering="geometricPrecision" transform="matrix(1,0,0,1,-583,648)" stroke-linecap="butt">
        <path fill="none" d="M654.8464 -568.192 L654.8464 -511.7891 L720.6858 -511.7891"/>
        <path d="M728.6858 -511.7891 L716.6858 -516.7891 L719.6858 -511.7891 L716.6858 -506.7891 Z" stroke="none"/>
      </g>
      <g>
        <g text-rendering="geometricPrecision" stroke-miterlimit="1.45" shape-rendering="geometricPrecision" font-family="sans-serif" transform="matrix(1,0,0,1,-583,648)" stroke-linecap="butt">
          <text x="669.9072" xml:space="preserve" y="-531.9648" stroke="none">schema:availableChannel</text>
        </g>
      </g>
    </g>
    <g id="y.edge.1">
      <g text-rendering="geometricPrecision" stroke-miterlimit="1.45" shape-rendering="geometricPrecision" transform="matrix(1,0,0,1,-583,648)" stroke-linecap="butt">
        <path fill="none" d="M727.6853 -583.1885 L847.4328 -583.1885"/>
        <path d="M855.4328 -583.1885 L843.4328 -588.1885 L846.4328 -583.1885 L843.4328 -578.1885 Z" stroke="none"/>
      </g>
      <g>
        <g text-rendering="geometricPrecision" stroke-miterlimit="1.45" shape-rendering="geometricPrecision" font-family="sans-serif" transform="matrix(1,0,0,1,-583,648)" stroke-linecap="butt">
          <text x="724.4633" xml:space="preserve" y="-608.6533" stroke="none">schema:additionalType</text>
        </g>
      </g>
    </g>
    <g id="y.edge.3">
      <g text-rendering="geometricPrecision" stroke-miterlimit="1.45" shape-rendering="geometricPrecision" transform="matrix(1,0,0,1,-583,648)" stroke-linecap="butt">
        <path fill="none" d="M785 -491.5953 L785 -463.7919 L642.8464 -463.7919"/>
        <path d="M634.8464 -463.7919 L646.8464 -458.7919 L643.8464 -463.7919 L646.8464 -468.7919 Z" stroke="none"/>
      </g>
      <g>
        <g text-rendering="geometricPrecision" stroke-miterlimit="1.45" shape-rendering="geometricPrecision" font-family="sans-serif" transform="matrix(1,0,0,1,-583,648)" stroke-linecap="butt">
          <text x="661.4341" xml:space="preserve" y="-450.4648" stroke="none">schema:serviceUrl</text>
        </g>
      </g>
    </g>
    <g id="y.edge.4">
      <g text-rendering="geometricPrecision" stroke-miterlimit="1.45" shape-rendering="geometricPrecision" transform="matrix(1,0,0,1,-583,648)" stroke-linecap="butt">
        <path fill="none" d="M830 -491.5562 L830 -418.196"/>
        <path d="M830 -410.196 L835 -422.196 L830 -419.196 L825 -422.196 Z" stroke="none"/>
      </g>
      <g>
        <g text-rendering="geometricPrecision" stroke-miterlimit="1.45" shape-rendering="geometricPrecision" font-family="sans-serif" transform="matrix(1,0,0,1,-583,648)" stroke-linecap="butt">
          <text x="839.7686" xml:space="preserve" y="-446.3465" stroke="none">schema:providesService</text>
        </g>
      </g>
    </g>
    <g id="y.edge.2">
      <g text-rendering="geometricPrecision" stroke-miterlimit="1.45" shape-rendering="geometricPrecision" transform="matrix(1,0,0,1,-583,648)" stroke-linecap="butt">
        <path fill="none" d="M768.5742 -380.1652 L768.5742 -324.2137 L649.9597 -324.2137"/>
        <path d="M641.9597 -324.2137 L653.9597 -319.2137 L650.9597 -324.2137 L653.9597 -329.2137 Z" stroke="none"/>
      </g>
      <g>
        <g text-rendering="geometricPrecision" stroke-miterlimit="1.45" shape-rendering="geometricPrecision" font-family="sans-serif" transform="matrix(1,0,0,1,-583,648)" stroke-linecap="butt">
          <text x="649.958" xml:space="preserve" y="-351.0312" stroke="none">schema:name,</text>
          <text x="649.958" xml:space="preserve" y="-336.8984" stroke="none">schema:description</text>
        </g>
      </g>
    </g>
    <g id="y.edge.9">
      <g text-rendering="geometricPrecision" stroke-miterlimit="1.45" shape-rendering="geometricPrecision" transform="matrix(1,0,0,1,-583,648)" stroke-linecap="butt">
        <path fill="none" d="M803.7227 -380.1851 L803.7227 -321.631 L816.2863 -321.631"/>
        <path d="M824.2863 -321.631 L812.2863 -326.631 L815.2863 -321.631 L812.2863 -316.631 Z" stroke="none"/>
      </g>
      <g>
        <g text-rendering="geometricPrecision" stroke-miterlimit="1.45" shape-rendering="geometricPrecision" font-family="sans-serif" transform="matrix(1,0,0,1,-583,648)" stroke-linecap="butt">
          <text x="811.9758" xml:space="preserve" y="-356.2477" stroke="none">schema:additionalType</text>
        </g>
      </g>
    </g>
    <g id="y.edge.10">
      <g text-rendering="geometricPrecision" stroke-miterlimit="1.45" shape-rendering="geometricPrecision" transform="matrix(1,0,0,1,-583,648)" stroke-linecap="butt">
        <path fill="none" d="M803.7227 -380.1851 L803.7227 -275.6597 L816.2863 -275.6597"/>
        <path d="M824.2863 -275.6597 L812.2863 -280.6597 L815.2863 -275.6597 L812.2863 -270.6597 Z" stroke="none"/>
      </g>
      <g/>
    </g>
    <g id="y.edge.11">
      <g text-rendering="geometricPrecision" stroke-miterlimit="1.45" shape-rendering="geometricPrecision" transform="matrix(1,0,0,1,-583,648)" stroke-linecap="butt">
        <path fill="none" d="M803.7227 -380.1851 L803.7227 -229.6883 L816.2863 -229.6883"/>
        <path d="M824.2863 -229.6883 L812.2863 -234.6883 L815.2863 -229.6883 L812.2863 -224.6883 Z" stroke="none"/>
      </g>
      <g/>
    </g>
    <g id="y.edge.5">
      <g text-rendering="geometricPrecision" stroke-miterlimit="1.45" shape-rendering="geometricPrecision" transform="matrix(1,0,0,1,-583,648)" stroke-linecap="butt">
        <path fill="none" d="M855.0355 -395.1851 L1038.314 -395.1851"/>
        <path d="M1046.314 -395.1851 L1034.314 -400.1851 L1037.314 -395.1851 L1034.314 -390.1851 Z" stroke="none"/>
      </g>
      <g>
        <g text-rendering="geometricPrecision" stroke-miterlimit="1.45" shape-rendering="geometricPrecision" font-family="sans-serif" transform="matrix(1,0,0,1,-583,648)" stroke-linecap="butt">
          <text x="878.4964" xml:space="preserve" y="-400.9648" stroke="none">schema:potentialAction</text>
        </g>
      </g>
    </g>
    <g id="y.edge.12">
      <g text-rendering="geometricPrecision" stroke-miterlimit="1.45" shape-rendering="geometricPrecision" transform="matrix(1,0,0,1,-583,648)" stroke-linecap="butt">
        <path fill="none" d="M1145.5466 -389.1851 L1212.9354 -389.1851 L1212.9354 -321.631 L1192.5 -321.631"/>
        <path d="M1184.5 -321.631 L1196.5 -316.631 L1193.5 -321.631 L1196.5 -326.631 Z" stroke="none"/>
      </g>
      <g>
        <g text-rendering="geometricPrecision" stroke-miterlimit="1.45" shape-rendering="geometricPrecision" font-family="sans-serif" transform="matrix(1,0,0,1,-583,648)" stroke-linecap="butt">
          <text x="1170.2542" xml:space="preserve" y="-350.4648" stroke="none">@type</text>
        </g>
      </g>
    </g>
    <g id="y.edge.8">
      <g text-rendering="geometricPrecision" stroke-miterlimit="1.45" shape-rendering="geometricPrecision" transform="matrix(1,0,0,1,-583,648)" stroke-linecap="butt">
        <path fill="none" d="M1038.9961 -321.631 L943.3273 -321.631"/>
        <path d="M1046.9961 -321.631 L1034.9961 -326.631 L1037.9961 -321.631 L1034.9961 -316.631 Z" stroke="none"/>
      </g>
      <g>
        <g text-rendering="geometricPrecision" stroke-miterlimit="1.45" shape-rendering="geometricPrecision" font-family="sans-serif" transform="matrix(1,0,0,1,-583,648)" stroke-linecap="butt">
          <text x="955.4855" xml:space="preserve" y="-327.4648" stroke="none">skos:related</text>
        </g>
      </g>
    </g>
    <g id="y.edge.13">
      <g text-rendering="geometricPrecision" stroke-miterlimit="1.45" shape-rendering="geometricPrecision" transform="matrix(1,0,0,1,-583,648)" stroke-linecap="butt">
        <path fill="none" d="M1145.5466 -389.1851 L1212.9354 -389.1851 L1212.9354 -275.6597 L1192.5 -275.6597"/>
        <path d="M1184.5 -275.6597 L1196.5 -270.6597 L1193.5 -275.6597 L1196.5 -280.6597 Z" stroke="none"/>
      </g>
      <g/>
    </g>
    <g id="y.edge.7">
      <g text-rendering="geometricPrecision" stroke-miterlimit="1.45" shape-rendering="geometricPrecision" transform="matrix(1,0,0,1,-583,648)" stroke-linecap="butt">
        <path fill="none" d="M1039.5762 -275.6597 L971.7043 -275.6597"/>
        <path d="M1047.5762 -275.6597 L1035.5762 -280.6597 L1038.5762 -275.6597 L1035.5762 -270.6597 Z" stroke="none"/>
      </g>
      <g>
        <g text-rendering="geometricPrecision" stroke-miterlimit="1.45" shape-rendering="geometricPrecision" font-family="sans-serif" transform="matrix(1,0,0,1,-583,648)" stroke-linecap="butt">
          <text x="964.4855" xml:space="preserve" y="-286.4648" stroke="none">skos:related</text>
        </g>
      </g>
    </g>
    <g id="y.edge.14">
      <g text-rendering="geometricPrecision" stroke-miterlimit="1.45" shape-rendering="geometricPrecision" transform="matrix(1,0,0,1,-583,648)" stroke-linecap="butt">
        <path fill="none" d="M1145.5466 -389.1851 L1212.9354 -389.1851 L1212.9354 -229.6883 L1192.5 -229.6883"/>
        <path d="M1184.5 -229.6883 L1196.5 -224.6883 L1193.5 -229.6883 L1196.5 -234.6883 Z" stroke="none"/>
      </g>
      <g/>
    </g>
    <g id="y.edge.6">
      <g text-rendering="geometricPrecision" stroke-miterlimit="1.45" shape-rendering="geometricPrecision" transform="matrix(1,0,0,1,-583,648)" stroke-linecap="butt">
        <path fill="none" d="M1022.7011 -229.6883 L971.798 -229.6883"/>
        <path d="M1030.7012 -229.6883 L1018.7012 -234.6883 L1021.7012 -229.6883 L1018.7012 -224.6883 Z" stroke="none"/>
      </g>
      <g>
        <g text-rendering="geometricPrecision" stroke-miterlimit="1.45" shape-rendering="geometricPrecision" font-family="sans-serif" transform="matrix(1,0,0,1,-583,648)" stroke-linecap="butt">
          <text x="967.1767" xml:space="preserve" y="-241.2718" stroke="none">skos:related</text>
        </g>
      </g>
    </g>
    <g id="y.edge.20">
      <g text-rendering="geometricPrecision" stroke-miterlimit="1.45" shape-rendering="geometricPrecision" transform="matrix(1,0,0,1,-583,648)" stroke-linecap="butt">
        <path fill="none" d="M937.4084 -176.1868 L880.923 -176.1868 L880.923 -204.6063"/>
        <path d="M880.923 -212.6063 L875.923 -200.6063 L880.923 -203.6063 L885.923 -200.6063 Z" stroke="none"/>
      </g>
      <g>
        <g text-rendering="geometricPrecision" stroke-miterlimit="1.45" shape-rendering="geometricPrecision" font-family="sans-serif" transform="matrix(1,0,0,1,-583,648)" stroke-linecap="butt">
          <text x="798.7284" xml:space="preserve" y="-180.3257" stroke="none">skos:related</text>
        </g>
      </g>
    </g>
    <g id="y.edge.15">
      <g text-rendering="geometricPrecision" stroke-miterlimit="1.45" shape-rendering="geometricPrecision" transform="matrix(1,0,0,1,-583,648)" stroke-linecap="butt">
        <path fill="none" d="M1145.5471 -403.488 L1375.7858 -403.488 L1375.7858 -350.2011"/>
        <path d="M1375.7858 -342.2011 L1380.7858 -354.2011 L1375.7858 -351.2011 L1370.7858 -354.2011 Z" stroke="none"/>
      </g>
      <g>
        <g text-rendering="geometricPrecision" stroke-miterlimit="1.45" shape-rendering="geometricPrecision" font-family="sans-serif" transform="matrix(1,0,0,1,-583,648)" stroke-linecap="butt">
          <text x="1284.5941" xml:space="preserve" y="-386.0188" stroke="none">schema:target</text>
        </g>
      </g>
    </g>
    <g id="y.edge.16">
      <g text-rendering="geometricPrecision" stroke-miterlimit="1.45" shape-rendering="geometricPrecision" transform="matrix(1,0,0,1,-583,648)" stroke-linecap="butt">
        <path fill="none" d="M1101.6813 -410.1382 L1101.6813 -483.5565"/>
        <path d="M1101.6813 -491.5565 L1096.6813 -479.5565 L1101.6813 -482.5565 L1106.6813 -479.5565 Z" stroke="none"/>
      </g>
      <g>
        <g text-rendering="geometricPrecision" stroke-miterlimit="1.45" shape-rendering="geometricPrecision" font-family="sans-serif" transform="matrix(1,0,0,1,-583,648)" stroke-linecap="butt">
          <text x="1102.71" xml:space="preserve" y="-457.0312" stroke="none">schema:&lt;property&gt;-input,</text>
          <text x="1102.71" xml:space="preserve" y="-442.8984" stroke="none">schema:&lt;property&gt;-output</text>
        </g>
      </g>
    </g>
    <g id="y.edge.17">
      <g text-rendering="geometricPrecision" stroke-miterlimit="1.45" shape-rendering="geometricPrecision" transform="matrix(1,0,0,1,-583,648)" stroke-linecap="butt">
        <path fill="none" d="M1106.3591 -521.563 L1106.3591 -594.9714"/>
        <path d="M1106.3591 -602.9714 L1101.3591 -590.9714 L1106.3591 -593.9714 L1111.3591 -590.9714 Z" stroke="none"/>
      </g>
      <g>
        <g text-rendering="geometricPrecision" stroke-miterlimit="1.45" shape-rendering="geometricPrecision" font-family="sans-serif" transform="matrix(1,0,0,1,-583,648)" stroke-linecap="butt">
          <text x="1112.4404" xml:space="preserve" y="-573.6641" stroke="none">schema:description,</text>
          <text x="1112.4404" xml:space="preserve" y="-559.5312" stroke="none">schema:defaultValue,</text>
          <text x="1112.4404" xml:space="preserve" y="-545.3984" stroke="none">schema:valueName,</text>
          <text x="1112.4404" xml:space="preserve" y="-531.2656" stroke="none">schema:valuePattern</text>
        </g>
      </g>
    </g>
    <g id="y.edge.18">
      <g text-rendering="geometricPrecision" stroke-miterlimit="1.45" shape-rendering="geometricPrecision" transform="matrix(1,0,0,1,-583,648)" stroke-linecap="butt">
        <path fill="none" d="M1302.9468 -506.5782 L1397.002 -506.5782"/>
        <path d="M1405.002 -506.5782 L1393.002 -511.5782 L1396.002 -506.5782 L1393.002 -501.5782 Z" stroke="none"/>
      </g>
      <g>
        <g text-rendering="geometricPrecision" stroke-miterlimit="1.45" shape-rendering="geometricPrecision" font-family="sans-serif" transform="matrix(1,0,0,1,-583,648)" stroke-linecap="butt">
          <text x="1333.1025" xml:space="preserve" y="-477.5977" stroke="none">schema:valueRequired,</text>
          <text x="1333.1025" xml:space="preserve" y="-463.4648" stroke="none">schema:multipleValues,</text>
          <text x="1333.1025" xml:space="preserve" y="-449.332" stroke="none">schema:readOnlyValue</text>
        </g>
      </g>
    </g>
    <g id="y.edge.19">
      <g text-rendering="geometricPrecision" stroke-miterlimit="1.45" shape-rendering="geometricPrecision" transform="matrix(1,0,0,1,-583,648)" stroke-linecap="butt">
        <path fill="none" d="M1288.543 -521.563 L1288.543 -594.9714"/>
        <path d="M1288.543 -602.9714 L1283.543 -590.9714 L1288.543 -593.9714 L1293.543 -590.9714 Z" stroke="none"/>
      </g>
      <g>
        <g text-rendering="geometricPrecision" stroke-miterlimit="1.45" shape-rendering="geometricPrecision" font-family="sans-serif" transform="matrix(1,0,0,1,-583,648)" stroke-linecap="butt">
          <text x="1298.7344" xml:space="preserve" y="-586.7305" stroke="none">schema:valueMinLength,</text>
          <text x="1298.7344" xml:space="preserve" y="-572.5977" stroke="none">schema:valueMaxLength,</text>
          <text x="1298.7344" xml:space="preserve" y="-558.4648" stroke="none">schema:stepValue,</text>
          <text x="1298.7344" xml:space="preserve" y="-544.332" stroke="none">schema:minValue,</text>
          <text x="1298.7344" xml:space="preserve" y="-530.1992" stroke="none">schema:maxValue</text>
        </g>
      </g>
    </g>
    <g id="y.edge.21">
      <g text-rendering="geometricPrecision" stroke-miterlimit="1.45" shape-rendering="geometricPrecision" transform="matrix(1,0,0,1,-583,648)" stroke-linecap="butt">
        <path fill="none" d="M1363.9536 -312.1972 L1363.9536 -286.6872 L1363.8848 -286.6872 L1363.8848 -269.1876"/>
        <path d="M1363.8848 -261.1876 L1368.8848 -273.1876 L1363.8848 -270.1876 L1358.8848 -273.1876 Z" stroke="none"/>
      </g>
      <g>
        <g text-rendering="geometricPrecision" stroke-miterlimit="1.45" shape-rendering="geometricPrecision" font-family="sans-serif" transform="matrix(1,0,0,1,-583,648)" stroke-linecap="butt">
          <text x="1393.481" xml:space="preserve" y="-284.6641" stroke="none">schema:description,</text>
          <text x="1393.481" xml:space="preserve" y="-270.5312" stroke="none">schema:urlTemplate,</text>
          <text x="1393.481" xml:space="preserve" y="-256.3984" stroke="none">schema:httpMethod,</text>
          <text x="1393.481" xml:space="preserve" y="-242.2656" stroke="none">schema:contentType</text>
        </g>
      </g>
    </g>
    <g id="y.edge.22">
      <g text-rendering="geometricPrecision" stroke-miterlimit="1.45" shape-rendering="geometricPrecision" transform="matrix(1,0,0,1,-583,648)" stroke-linecap="butt">
        <path fill="none" d="M1145.5645 -404 L1375.7858 -404 L1375.7858 -395.1851 L1402.7427 -395.1851"/>
        <path d="M1410.7427 -395.1851 L1398.7427 -400.1851 L1401.7427 -395.1851 L1398.7427 -390.1851 Z" stroke="none"/>
      </g>
      <g/>
    </g>
    <g id="y.edge.23">
      <g text-rendering="geometricPrecision" stroke-miterlimit="1.45" shape-rendering="geometricPrecision" transform="matrix(1,0,0,1,-583,648)" stroke-linecap="butt">
        <path fill="none" d="M1145.5386 -395.1851 L1232.9354 -395.1851 L1234.8702 -199.2012"/>
        <path d="M1234.9492 -191.2016 L1239.8306 -203.2504 L1234.8604 -200.2012 L1229.8309 -203.1517 Z" stroke="none"/>
      </g>
      <g>
        <g text-rendering="geometricPrecision" stroke-miterlimit="1.45" shape-rendering="geometricPrecision" font-family="sans-serif" transform="matrix(1,0,0,1,-583,648)" stroke-linecap="butt">
          <text x="1244.2035" xml:space="preserve" y="-210.7987" stroke="none">schema:object</text>
        </g>
      </g>
    </g>
    <g id="y.edge.24">
      <g text-rendering="geometricPrecision" stroke-miterlimit="1.45" shape-rendering="geometricPrecision" transform="matrix(1,0,0,1,-583,648)" stroke-linecap="butt">
        <path fill="none" d="M988.5262 -161.2758 L988.5262 -129.7304 L1040.33 -129.7304"/>
        <path d="M1048.33 -129.7304 L1036.33 -134.7304 L1039.33 -129.7304 L1036.33 -124.7304 Z" stroke="none"/>
      </g>
      <g>
        <g text-rendering="geometricPrecision" stroke-miterlimit="1.45" shape-rendering="geometricPrecision" font-family="sans-serif" transform="matrix(1,0,0,1,-583,648)" stroke-linecap="butt">
          <text x="840.6929" xml:space="preserve" y="-132.9231" stroke="none">schema:additionalType</text>
        </g>
      </g>
    </g>
    <g id="y.edge.25">
      <g text-rendering="geometricPrecision" stroke-miterlimit="1.45" stroke-dasharray="6,2" shape-rendering="geometricPrecision" transform="matrix(1,0,0,1,-583,648)" stroke-linecap="butt">
        <path fill="none" d="M1200.6798 -129.7304 L1255.2341 -129.7304 L1255.2341 -146.1868"/>
        <path fill="white" d="M1255.2341 -161.1868 L1249.2341 -145.1868 L1261.2341 -145.1868 Z" stroke="none"/>
        <path stroke-dasharray="none" fill="none" d="M1255.2341 -161.1868 L1249.2341 -145.1868 L1261.2341 -145.1868 Z"/>
      </g>
      <g>
        <g text-rendering="geometricPrecision" stroke-miterlimit="1.45" shape-rendering="geometricPrecision" font-family="sans-serif" transform="matrix(1,0,0,1,-583,648)" stroke-linecap="butt">
          <text x="1266.2664" xml:space="preserve" y="-132.9231" stroke="none">rdfs:subClassOf</text>
        </g>
      </g>
    </g>
  </g>
</svg>
