<?xml version="1.0" encoding="UTF-8"?><svg xmlns="http://www.w3.org/2000/svg" xmlns:xlink="http://www.w3.org/1999/xlink" fill-opacity="1" color-rendering="auto" color-interpolation="auto" text-rendering="auto" stroke="black" stroke-linecap="square" width="949" stroke-miterlimit="10" shape-rendering="auto" stroke-opacity="1" fill="black" stroke-dasharray="none" font-weight="normal" stroke-width="1" height="480" font-family="'Dialog'" font-style="normal" stroke-linejoin="miter" font-size="12px" stroke-dashoffset="0" image-rendering="auto">
  <!--Generated by ySVG 2.5-->
  <defs id="genericDefs"/>
  <g>
    <defs id="defs1">
      <clipPath clipPathUnits="userSpaceOnUse" id="clipPath1">
        <path d="M0 0 L949 0 L949 480 L0 480 L0 0 Z"/>
      </clipPath>
      <clipPath clipPathUnits="userSpaceOnUse" id="clipPath2">
        <path d="M115 -638 L1064 -638 L1064 -158 L115 -158 L115 -638 Z"/>
      </clipPath>
    </defs>
    <g fill="white" text-rendering="geometricPrecision" shape-rendering="geometricPrecision" transform="translate(-115,638)" stroke="white">
      <rect x="115" width="949" height="480" y="-638" clip-path="url(#clipPath2)" stroke="none"/>
    </g>
    <g id="y.node.0">
      <a target="_blank" xlink:type="simple" xlink:href="http://schema.org/Service" xlink:show="new">
        <g fill="rgb(204,255,204)" text-rendering="geometricPrecision" shape-rendering="geometricPrecision" transform="matrix(1,0,0,1,-115,638)" stroke="rgb(204,255,204)">
          <rect x="573.6792" width="102.5938" height="30" y="-598.1885" stroke="none"/>
        </g>
        <g text-rendering="geometricPrecision" stroke-miterlimit="1.45" shape-rendering="geometricPrecision" transform="matrix(1,0,0,1,-115,638)" stroke-linecap="butt">
          <rect fill="none" x="573.6792" width="102.5938" height="30" y="-598.1885"/>
        </g>
        <g>
          <g text-rendering="geometricPrecision" stroke-miterlimit="1.45" shape-rendering="geometricPrecision" font-family="sans-serif" transform="matrix(1,0,0,1,-115,638)" stroke-linecap="butt">
            <text x="580.6792" xml:space="preserve" y="-578.6533" stroke="none">schema:Service</text>
          </g>
        </g>
      </a>
    </g>
    <g id="y.node.1">
      <a target="_blank" xlink:type="simple" xlink:href="https://geodex.org/voc/Protocol-Access" xlink:show="new">
        <g fill="yellow" text-rendering="geometricPrecision" shape-rendering="geometricPrecision" transform="matrix(1,0,0,1,-115,638)" stroke="yellow">
          <ellipse rx="100.7344" ry="15" cx="912.2529" cy="-219.8236" stroke="none"/>
        </g>
        <g text-rendering="geometricPrecision" stroke-miterlimit="1.45" shape-rendering="geometricPrecision" transform="matrix(1,0,0,1,-115,638)" stroke-linecap="butt">
          <ellipse rx="100.7344" fill="none" ry="15" cx="912.2529" cy="-219.8236"/>
        </g>
        <g>
          <g text-rendering="geometricPrecision" stroke-miterlimit="1.45" shape-rendering="geometricPrecision" font-family="sans-serif" transform="matrix(1,0,0,1,-115,638)" stroke-linecap="butt">
            <text x="823.5186" xml:space="preserve" y="-215.2885" stroke="none">gdx:OutreachActivity-Training</text>
          </g>
        </g>
      </a>
    </g>
    <g id="y.node.2">
      <a target="_blank" xlink:type="simple" xlink:href="http://schema.org/Organization" xlink:show="new">
        <g fill="rgb(204,255,204)" text-rendering="geometricPrecision" shape-rendering="geometricPrecision" transform="matrix(1,0,0,1,-115,638)" stroke="rgb(204,255,204)">
          <rect x="278.368" width="137.5625" height="30" y="-598.1885" stroke="none"/>
        </g>
        <g text-rendering="geometricPrecision" stroke-miterlimit="1.45" shape-rendering="geometricPrecision" transform="matrix(1,0,0,1,-115,638)" stroke-linecap="butt">
          <rect fill="none" x="278.368" width="137.5625" height="30" y="-598.1885"/>
        </g>
        <g>
          <g text-rendering="geometricPrecision" stroke-miterlimit="1.45" shape-rendering="geometricPrecision" font-family="sans-serif" transform="matrix(1,0,0,1,-115,638)" stroke-linecap="butt">
            <text x="285.368" xml:space="preserve" y="-578.6533" stroke="none">schema:Organization</text>
          </g>
        </g>
      </a>
    </g>
    <g id="y.node.3">
      <a target="_blank" xlink:type="simple" xlink:href="https://geodex.org/voc/ResearchRepositoryService" xlink:show="new">
        <g fill="rgb(255,204,0)" text-rendering="geometricPrecision" shape-rendering="geometricPrecision" transform="matrix(1,0,0,1,-115,638)" stroke="rgb(255,204,0)">
          <rect x="819.8574" width="194.791" height="30" y="-598.1885" stroke="none"/>
        </g>
        <g text-rendering="geometricPrecision" stroke-miterlimit="1.45" shape-rendering="geometricPrecision" transform="matrix(1,0,0,1,-115,638)" stroke-linecap="butt">
          <rect fill="none" x="819.8574" width="194.791" height="30" y="-598.1885"/>
        </g>
        <g>
          <g text-rendering="geometricPrecision" stroke-miterlimit="1.45" shape-rendering="geometricPrecision" font-family="sans-serif" transform="matrix(1,0,0,1,-115,638)" stroke-linecap="butt">
            <text x="826.8574" xml:space="preserve" y="-578.6533" stroke="none">gdx:ResearchRepositoryService</text>
          </g>
        </g>
      </a>
    </g>
    <g id="y.node.4">
      <a target="_blank" xlink:type="simple" xlink:href="http://schema.org/OfferCatalog" xlink:show="new">
        <g fill="rgb(204,255,204)" text-rendering="geometricPrecision" shape-rendering="geometricPrecision" transform="matrix(1,0,0,1,-115,638)" stroke="rgb(204,255,204)">
          <rect x="264.0389" width="136.1328" height="30" y="-485.6063" stroke="none"/>
        </g>
        <g text-rendering="geometricPrecision" stroke-miterlimit="1.45" shape-rendering="geometricPrecision" transform="matrix(1,0,0,1,-115,638)" stroke-linecap="butt">
          <rect fill="none" x="264.0389" width="136.1328" height="30" y="-485.6063"/>
        </g>
        <g>
          <g text-rendering="geometricPrecision" stroke-miterlimit="1.45" shape-rendering="geometricPrecision" font-family="sans-serif" transform="matrix(1,0,0,1,-115,638)" stroke-linecap="butt">
            <text x="271.0389" xml:space="preserve" y="-466.0712" stroke="none">schema:OfferCatalog</text>
          </g>
        </g>
      </a>
    </g>
    <g id="y.node.5">
      <a target="_blank" xlink:type="simple" xlink:href="https://geodex.org/voc/ResearchRepositoryService" xlink:show="new">
        <g fill="rgb(255,204,0)" text-rendering="geometricPrecision" shape-rendering="geometricPrecision" transform="matrix(1,0,0,1,-115,638)" stroke="rgb(255,204,0)">
          <rect x="636.8574" width="142.6191" height="30" y="-414.9095" stroke="none"/>
        </g>
        <g text-rendering="geometricPrecision" stroke-miterlimit="1.45" shape-rendering="geometricPrecision" transform="matrix(1,0,0,1,-115,638)" stroke-linecap="butt">
          <rect fill="none" x="636.8574" width="142.6191" height="30" y="-414.9095"/>
        </g>
        <g>
          <g text-rendering="geometricPrecision" stroke-miterlimit="1.45" shape-rendering="geometricPrecision" font-family="sans-serif" transform="matrix(1,0,0,1,-115,638)" stroke-linecap="butt">
            <text x="643.8574" xml:space="preserve" y="-395.3743" stroke="none">gdx:OutreachActivites</text>
          </g>
        </g>
      </a>
    </g>
    <g id="y.node.6">
      <a target="_blank" xlink:type="simple" xlink:href="https://geodex.org/voc/ResearchRepositoryService" xlink:show="new">
        <g fill="rgb(255,204,0)" text-rendering="geometricPrecision" shape-rendering="geometricPrecision" transform="matrix(1,0,0,1,-115,638)" stroke="rgb(255,204,0)">
          <rect x="139.6576" width="179.5625" height="30" y="-414.9095" stroke="none"/>
        </g>
        <g text-rendering="geometricPrecision" stroke-miterlimit="1.45" shape-rendering="geometricPrecision" transform="matrix(1,0,0,1,-115,638)" stroke-linecap="butt">
          <rect fill="none" x="139.6576" width="179.5625" height="30" y="-414.9095"/>
        </g>
        <g>
          <g text-rendering="geometricPrecision" stroke-miterlimit="1.45" shape-rendering="geometricPrecision" font-family="sans-serif" transform="matrix(1,0,0,1,-115,638)" stroke-linecap="butt">
            <text x="146.6576" xml:space="preserve" y="-395.3743" stroke="none">gdx:ResearchResourceTypes</text>
          </g>
        </g>
      </a>
    </g>
    <g id="y.node.7">
      <a target="_blank" xlink:type="simple" xlink:href="https://geodex.org/voc/Protocol-Access" xlink:show="new">
        <g fill="yellow" text-rendering="geometricPrecision" shape-rendering="geometricPrecision" transform="matrix(1,0,0,1,-115,638)" stroke="yellow">
          <ellipse rx="112.4209" ry="15" cx="923.9395" cy="-315.208" stroke="none"/>
        </g>
        <g text-rendering="geometricPrecision" stroke-miterlimit="1.45" shape-rendering="geometricPrecision" transform="matrix(1,0,0,1,-115,638)" stroke-linecap="butt">
          <ellipse rx="112.4209" fill="none" ry="15" cx="923.9395" cy="-315.208"/>
        </g>
        <g>
          <g text-rendering="geometricPrecision" stroke-miterlimit="1.45" shape-rendering="geometricPrecision" font-family="sans-serif" transform="matrix(1,0,0,1,-115,638)" stroke-linecap="butt">
            <text x="823.5186" xml:space="preserve" y="-310.6729" stroke="none">gdx:OutreachActivity-UserSupport</text>
          </g>
        </g>
      </a>
    </g>
    <g id="y.node.8">
      <a target="_blank" xlink:type="simple" xlink:href="https://geodex.org/voc/Protocol-Access" xlink:show="new">
        <g fill="yellow" text-rendering="geometricPrecision" shape-rendering="geometricPrecision" transform="matrix(1,0,0,1,-115,638)" stroke="yellow">
          <ellipse rx="118.5527" ry="15" cx="930.0713" cy="-267.5158" stroke="none"/>
        </g>
        <g text-rendering="geometricPrecision" stroke-miterlimit="1.45" shape-rendering="geometricPrecision" transform="matrix(1,0,0,1,-115,638)" stroke-linecap="butt">
          <ellipse rx="118.5527" fill="none" ry="15" cx="930.0713" cy="-267.5158"/>
        </g>
        <g>
          <g text-rendering="geometricPrecision" stroke-miterlimit="1.45" shape-rendering="geometricPrecision" font-family="sans-serif" transform="matrix(1,0,0,1,-115,638)" stroke-linecap="butt">
            <text x="823.5186" xml:space="preserve" y="-262.9807" stroke="none">gdx:OutreachActivity-UserWorkshop</text>
          </g>
        </g>
      </a>
    </g>
    <g id="y.node.9">
      <a target="_blank" xlink:type="simple" xlink:href="http://schema.org/OfferCatalog" xlink:show="new">
        <g fill="rgb(204,255,204)" text-rendering="geometricPrecision" shape-rendering="geometricPrecision" transform="matrix(1,0,0,1,-115,638)" stroke="rgb(204,255,204)">
          <rect x="248.8976" width="138.9629" height="30" y="-282.5158" stroke="none"/>
        </g>
        <g text-rendering="geometricPrecision" stroke-miterlimit="1.45" shape-rendering="geometricPrecision" transform="matrix(1,0,0,1,-115,638)" stroke-linecap="butt">
          <rect fill="none" x="248.8976" width="138.9629" height="30" y="-282.5158"/>
        </g>
        <g>
          <g text-rendering="geometricPrecision" stroke-miterlimit="1.45" shape-rendering="geometricPrecision" font-family="sans-serif" transform="matrix(1,0,0,1,-115,638)" stroke-linecap="butt">
            <text x="255.8976" xml:space="preserve" y="-262.9807" stroke="none">schema:CreativeWork</text>
          </g>
        </g>
      </a>
    </g>
    <g id="y.node.10">
      <a target="_blank" xlink:type="simple" xlink:href="https://geodex.org/voc/ResearchRepositoryService" xlink:show="new">
        <g fill="rgb(255,204,0)" text-rendering="geometricPrecision" shape-rendering="geometricPrecision" transform="matrix(1,0,0,1,-115,638)" stroke="rgb(255,204,0)">
          <rect x="172.4318" width="148.9121" height="30" y="-203.5158" stroke="none"/>
        </g>
        <g text-rendering="geometricPrecision" stroke-miterlimit="1.45" shape-rendering="geometricPrecision" transform="matrix(1,0,0,1,-115,638)" stroke-linecap="butt">
          <rect fill="none" x="172.4318" width="148.9121" height="30" y="-203.5158"/>
        </g>
        <g>
          <g text-rendering="geometricPrecision" stroke-miterlimit="1.45" shape-rendering="geometricPrecision" font-family="sans-serif" transform="matrix(1,0,0,1,-115,638)" stroke-linecap="butt">
            <text x="179.4318" xml:space="preserve" y="-183.9807" stroke="none">geolink:PhysicalSample</text>
          </g>
        </g>
      </a>
    </g>
    <g id="y.node.11">
      <a target="_blank" xlink:type="simple" xlink:href="http://schema.org/OfferCatalog" xlink:show="new">
        <g fill="rgb(204,255,204)" text-rendering="geometricPrecision" shape-rendering="geometricPrecision" transform="matrix(1,0,0,1,-115,638)" stroke="rgb(204,255,204)">
          <rect x="342.1268" width="106.0449" height="30" y="-203.5158" stroke="none"/>
        </g>
        <g text-rendering="geometricPrecision" stroke-miterlimit="1.45" shape-rendering="geometricPrecision" transform="matrix(1,0,0,1,-115,638)" stroke-linecap="butt">
          <rect fill="none" x="342.1268" width="106.0449" height="30" y="-203.5158"/>
        </g>
        <g>
          <g text-rendering="geometricPrecision" stroke-miterlimit="1.45" shape-rendering="geometricPrecision" font-family="sans-serif" transform="matrix(1,0,0,1,-115,638)" stroke-linecap="butt">
            <text x="349.1268" xml:space="preserve" y="-183.9807" stroke="none">schema:Dataset</text>
          </g>
        </g>
      </a>
    </g>
    <g id="y.node.12">
      <a target="_blank" xlink:type="simple" xlink:href="http://schema.org/OfferCatalog" xlink:show="new">
        <g fill="rgb(204,255,204)" text-rendering="geometricPrecision" shape-rendering="geometricPrecision" transform="matrix(1,0,0,1,-115,638)" stroke="rgb(204,255,204)">
          <rect x="558.5942" width="99.2246" height="30" y="-282.5158" stroke="none"/>
        </g>
        <g text-rendering="geometricPrecision" stroke-miterlimit="1.45" shape-rendering="geometricPrecision" transform="matrix(1,0,0,1,-115,638)" stroke-linecap="butt">
          <rect fill="none" x="558.5942" width="99.2246" height="30" y="-282.5158"/>
        </g>
        <g>
          <g text-rendering="geometricPrecision" stroke-miterlimit="1.45" shape-rendering="geometricPrecision" font-family="sans-serif" transform="matrix(1,0,0,1,-115,638)" stroke-linecap="butt">
            <text x="565.5942" xml:space="preserve" y="-262.9807" stroke="none">schema:Action</text>
          </g>
        </g>
      </a>
    </g>
    <g id="y.node.13">
      <a target="_blank" xlink:type="simple" xlink:href="http://schema.org/OfferCatalog" xlink:show="new">
        <g fill="rgb(204,255,204)" text-rendering="geometricPrecision" shape-rendering="geometricPrecision" transform="matrix(1,0,0,1,-115,638)" stroke="rgb(204,255,204)">
          <rect x="540.1401" width="136.1328" height="30" y="-485.6063" stroke="none"/>
        </g>
        <g text-rendering="geometricPrecision" stroke-miterlimit="1.45" shape-rendering="geometricPrecision" transform="matrix(1,0,0,1,-115,638)" stroke-linecap="butt">
          <rect fill="none" x="540.1401" width="136.1328" height="30" y="-485.6063"/>
        </g>
        <g>
          <g text-rendering="geometricPrecision" stroke-miterlimit="1.45" shape-rendering="geometricPrecision" font-family="sans-serif" transform="matrix(1,0,0,1,-115,638)" stroke-linecap="butt">
            <text x="547.1401" xml:space="preserve" y="-466.0712" stroke="none">schema:OfferCatalog</text>
          </g>
        </g>
      </a>
    </g>
    <g id="y.edge.0">
      <g text-rendering="geometricPrecision" stroke-miterlimit="1.45" shape-rendering="geometricPrecision" transform="matrix(1,0,0,1,-115,638)" stroke-linecap="butt">
        <path fill="none" d="M573.6606 -585 L423.8958 -585"/>
        <path d="M415.8958 -585 L427.8958 -580 L424.8958 -585 L427.8958 -590 Z" stroke="none"/>
      </g>
      <g>
        <g text-rendering="geometricPrecision" stroke-miterlimit="1.45" shape-rendering="geometricPrecision" font-family="sans-serif" transform="matrix(1,0,0,1,-115,638)" stroke-linecap="butt">
          <text x="454.1572" xml:space="preserve" y="-592.9648" stroke="none">schema:provider</text>
        </g>
      </g>
    </g>
    <g id="y.edge.1">
      <g text-rendering="geometricPrecision" stroke-miterlimit="1.45" shape-rendering="geometricPrecision" transform="matrix(1,0,0,1,-115,638)" stroke-linecap="butt">
        <path fill="none" d="M676.2729 -583.1885 L811.8574 -583.1885"/>
        <path d="M819.8574 -583.1885 L807.8574 -588.1885 L810.8574 -583.1885 L807.8574 -578.1885 Z" stroke="none"/>
      </g>
      <g>
        <g text-rendering="geometricPrecision" stroke-miterlimit="1.45" shape-rendering="geometricPrecision" font-family="sans-serif" transform="matrix(1,0,0,1,-115,638)" stroke-linecap="butt">
          <text x="680.9695" xml:space="preserve" y="-608.6533" stroke="none">schema:additionalType</text>
        </g>
      </g>
    </g>
    <g id="y.edge.2">
      <g text-rendering="geometricPrecision" stroke-miterlimit="1.45" shape-rendering="geometricPrecision" transform="matrix(1,0,0,1,-115,638)" stroke-linecap="butt">
        <path fill="none" d="M358.1492 -568.2087 L358.1492 -493.6184"/>
        <path d="M358.1492 -485.6184 L363.1492 -497.6184 L358.1492 -494.6184 L353.1492 -497.6184 Z" stroke="none"/>
      </g>
      <g>
        <g text-rendering="geometricPrecision" stroke-miterlimit="1.45" shape-rendering="geometricPrecision" font-family="sans-serif" transform="matrix(1,0,0,1,-115,638)" stroke-linecap="butt">
          <text x="156.3379" xml:space="preserve" y="-500.9648" stroke="none">schema:hasOfferCatalog</text>
        </g>
      </g>
    </g>
    <g id="y.edge.3">
      <g text-rendering="geometricPrecision" stroke-miterlimit="1.45" shape-rendering="geometricPrecision" transform="matrix(1,0,0,1,-115,638)" stroke-linecap="butt">
        <path fill="none" d="M304.2804 -414.9257 L304.2804 -447.6259"/>
        <path d="M304.2804 -455.6259 L299.2804 -443.6259 L304.2804 -446.6259 L309.2804 -443.6259 Z" stroke="none"/>
      </g>
      <g>
        <g text-rendering="geometricPrecision" stroke-miterlimit="1.45" shape-rendering="geometricPrecision" font-family="sans-serif" transform="matrix(1,0,0,1,-115,638)" stroke-linecap="butt">
          <text x="162.4043" xml:space="preserve" y="-424.9648" stroke="none">schema:additionalType</text>
        </g>
      </g>
    </g>
    <g id="y.edge.5">
      <g text-rendering="geometricPrecision" stroke-miterlimit="1.45" shape-rendering="geometricPrecision" transform="matrix(1,0,0,1,-115,638)" stroke-linecap="butt">
        <path fill="none" d="M368.3791 -455.5828 L368.3791 -290.53"/>
        <path d="M368.3791 -282.53 L373.3791 -294.53 L368.3791 -291.53 L363.3791 -294.53 Z" stroke="none"/>
      </g>
      <g>
        <g text-rendering="geometricPrecision" stroke-miterlimit="1.45" shape-rendering="geometricPrecision" font-family="sans-serif" transform="matrix(1,0,0,1,-115,638)" stroke-linecap="butt">
          <text x="376.967" xml:space="preserve" y="-413.1486" stroke="none">schema:itemListElement</text>
        </g>
      </g>
    </g>
    <g id="y.edge.6">
      <g text-rendering="geometricPrecision" stroke-miterlimit="1.45" shape-rendering="geometricPrecision" transform="matrix(1,0,0,1,-115,638)" stroke-linecap="butt">
        <path fill="none" d="M269.4388 -384.8795 L269.4388 -290.5015"/>
        <path d="M269.4388 -282.5015 L274.4388 -294.5015 L269.4388 -291.5015 L264.4388 -294.5015 Z" stroke="none"/>
      </g>
      <g>
        <g text-rendering="geometricPrecision" stroke-miterlimit="1.45" shape-rendering="geometricPrecision" font-family="sans-serif" transform="matrix(1,0,0,1,-115,638)" stroke-linecap="butt">
          <text x="191.083" xml:space="preserve" y="-361.9648" stroke="none">skos:related</text>
        </g>
      </g>
    </g>
    <g id="y.edge.7">
      <g text-rendering="geometricPrecision" stroke-miterlimit="1.45" shape-rendering="geometricPrecision" transform="matrix(1,0,0,1,-115,638)" stroke-linecap="butt">
        <path fill="none" d="M272.6275 -203.5169 L272.6275 -244.4955"/>
        <path d="M272.6275 -252.4955 L267.6275 -240.4955 L272.6275 -243.4955 L277.6275 -240.4955 Z" stroke="none"/>
      </g>
      <g>
        <g text-rendering="geometricPrecision" stroke-miterlimit="1.45" shape-rendering="geometricPrecision" font-family="sans-serif" transform="matrix(1,0,0,1,-115,638)" stroke-linecap="butt">
          <text x="132.5318" xml:space="preserve" y="-218.4807" stroke="none">schema:additionalType</text>
        </g>
      </g>
    </g>
    <g id="y.edge.8">
      <g text-rendering="geometricPrecision" stroke-miterlimit="1.45" shape-rendering="geometricPrecision" transform="matrix(1,0,0,1,-115,638)" stroke-linecap="butt">
        <path fill="none" d="M355.1492 -203.5212 L355.1492 -244.4858"/>
        <path d="M355.1492 -252.4858 L350.1492 -240.4858 L355.1492 -243.4858 L360.1492 -240.4858 Z" stroke="none"/>
      </g>
      <g>
        <g text-rendering="geometricPrecision" stroke-miterlimit="1.45" shape-rendering="geometricPrecision" font-family="sans-serif" transform="matrix(1,0,0,1,-115,638)" stroke-linecap="butt">
          <text x="370.9881" xml:space="preserve" y="-224.4807" stroke="none">rdfs:subClassof</text>
        </g>
      </g>
    </g>
    <g id="y.edge.11">
      <g text-rendering="geometricPrecision" stroke-miterlimit="1.45" shape-rendering="geometricPrecision" transform="matrix(1,0,0,1,-115,638)" stroke-linecap="butt">
        <path fill="none" d="M811.5186 -219.8236 L699.0872 -219.8236 L699.0872 -267.5158 L665.8188 -267.5158"/>
        <path d="M657.8188 -267.5158 L669.8188 -262.5158 L666.8188 -267.5158 L669.8188 -272.5158 Z" stroke="none"/>
      </g>
      <g>
        <g text-rendering="geometricPrecision" stroke-miterlimit="1.45" shape-rendering="geometricPrecision" font-family="sans-serif" transform="matrix(1,0,0,1,-115,638)" stroke-linecap="butt">
          <text x="703.4043" xml:space="preserve" y="-283.9648" stroke="none">schema:additionalType</text>
        </g>
      </g>
    </g>
    <g id="y.edge.12">
      <g text-rendering="geometricPrecision" stroke-miterlimit="1.45" shape-rendering="geometricPrecision" transform="matrix(1,0,0,1,-115,638)" stroke-linecap="butt">
        <path fill="none" d="M811.5186 -267.5158 L665.7899 -267.5158"/>
        <path d="M657.7899 -267.5158 L669.7899 -262.5158 L666.7899 -267.5158 L669.7899 -272.5158 Z" stroke="none"/>
      </g>
      <g/>
    </g>
    <g id="y.edge.13">
      <g text-rendering="geometricPrecision" stroke-miterlimit="1.45" shape-rendering="geometricPrecision" transform="matrix(1,0,0,1,-115,638)" stroke-linecap="butt">
        <path fill="none" d="M811.5186 -315.208 L699.0872 -315.208 L699.0872 -267.5158 L665.7782 -267.5158"/>
        <path d="M657.7782 -267.5158 L669.7782 -262.5158 L666.7782 -267.5158 L669.7782 -272.5158 Z" stroke="none"/>
      </g>
      <g/>
    </g>
    <g id="y.edge.4">
      <g text-rendering="geometricPrecision" stroke-miterlimit="1.45" shape-rendering="geometricPrecision" transform="matrix(1,0,0,1,-115,638)" stroke-linecap="butt">
        <path fill="none" d="M653.0582 -414.8802 L653.0582 -447.5925"/>
        <path d="M653.0582 -455.5925 L648.0582 -443.5925 L653.0582 -446.5925 L658.0582 -443.5925 Z" stroke="none"/>
      </g>
      <g>
        <g text-rendering="geometricPrecision" stroke-miterlimit="1.45" shape-rendering="geometricPrecision" font-family="sans-serif" transform="matrix(1,0,0,1,-115,638)" stroke-linecap="butt">
          <text x="664.4043" xml:space="preserve" y="-429.9648" stroke="none">schema:additionalType</text>
        </g>
      </g>
    </g>
    <g id="y.edge.9">
      <g text-rendering="geometricPrecision" stroke-miterlimit="1.45" shape-rendering="geometricPrecision" transform="matrix(1,0,0,1,-115,638)" stroke-linecap="butt">
        <path fill="none" d="M399.5 -568.2087 L399.5 -526.8974 L608.2065 -526.8974 L608.2065 -493.6063"/>
        <path d="M608.2065 -485.6063 L613.2065 -497.6063 L608.2065 -494.6063 L603.2065 -497.6063 Z" stroke="none"/>
      </g>
      <g>
        <g text-rendering="geometricPrecision" stroke-miterlimit="1.45" shape-rendering="geometricPrecision" font-family="sans-serif" transform="matrix(1,0,0,1,-115,638)" stroke-linecap="butt">
          <text x="419.3379" xml:space="preserve" y="-539.9648" stroke="none">schema:hasOfferCatalog</text>
        </g>
      </g>
    </g>
    <g id="y.edge.10">
      <g text-rendering="geometricPrecision" stroke-miterlimit="1.45" shape-rendering="geometricPrecision" transform="matrix(1,0,0,1,-115,638)" stroke-linecap="butt">
        <path fill="none" d="M602.1343 -455.5828 L602.1343 -290.53"/>
        <path d="M602.1343 -282.53 L607.1343 -294.53 L602.1343 -291.53 L597.1343 -294.53 Z" stroke="none"/>
      </g>
      <g>
        <g text-rendering="geometricPrecision" stroke-miterlimit="1.45" shape-rendering="geometricPrecision" font-family="sans-serif" transform="matrix(1,0,0,1,-115,638)" stroke-linecap="butt">
          <text x="453.7222" xml:space="preserve" y="-364.5259" stroke="none">schema:itemListElement</text>
        </g>
      </g>
    </g>
  </g>
</svg>
